G04*
G04 #@! TF.GenerationSoftware,Altium Limited,Altium Designer,23.0.1 (38)*
G04*
G04 Layer_Color=2752767*
%FSLAX44Y44*%
%MOMM*%
G71*
G04*
G04 #@! TF.SameCoordinates,AA057BD2-FAE9-475E-A33E-1B252B641246*
G04*
G04*
G04 #@! TF.FilePolarity,Positive*
G04*
G01*
G75*
%ADD104C,0.1270*%
%ADD107C,0.1693*%
%ADD108C,0.1016*%
D104*
X479044Y30480D02*
X481584D01*
X484124Y33020D01*
X486664Y30480D01*
X489204D01*
Y33020D01*
X486664Y35560D01*
X489204Y38100D01*
Y40640D01*
X486664D01*
X484124Y38100D01*
X481584Y40640D01*
X479044D01*
Y38100D01*
X481584Y35560D01*
X479044Y33020D01*
Y30480D01*
X487934Y8890D02*
X490474D01*
X493014Y11430D01*
X495554Y8890D01*
X498094D01*
Y11430D01*
X495554Y13970D01*
X498094Y16510D01*
Y19050D01*
X495554D01*
X493014Y16510D01*
X490474Y19050D01*
X487934D01*
Y16510D01*
X490474Y13970D01*
X487934Y11430D01*
Y8890D01*
X479044Y12700D02*
X481584D01*
X484124Y15240D01*
X486664Y12700D01*
X489204D01*
Y15240D01*
X486664Y17780D01*
X489204Y20320D01*
Y22860D01*
X486664D01*
X484124Y20320D01*
X481584Y22860D01*
X479044D01*
Y20320D01*
X481584Y17780D01*
X479044Y15240D01*
Y12700D01*
X496824Y30480D02*
X499364D01*
X501904Y33020D01*
X504444Y30480D01*
X506984D01*
Y33020D01*
X504444Y35560D01*
X506984Y38100D01*
Y40640D01*
X504444D01*
X501904Y38100D01*
X499364Y40640D01*
X496824D01*
Y38100D01*
X499364Y35560D01*
X496824Y33020D01*
Y30480D01*
X500634Y21590D02*
X503174D01*
X505714Y24130D01*
X508254Y21590D01*
X510794D01*
Y24130D01*
X508254Y26670D01*
X510794Y29210D01*
Y31750D01*
X508254D01*
X505714Y29210D01*
X503174Y31750D01*
X500634D01*
Y29210D01*
X503174Y26670D01*
X500634Y24130D01*
Y21590D01*
X487934Y34290D02*
X490474D01*
X493014Y36830D01*
X495554Y34290D01*
X498094D01*
Y36830D01*
X495554Y39370D01*
X498094Y41910D01*
Y44450D01*
X495554D01*
X493014Y41910D01*
X490474Y44450D01*
X487934D01*
Y41910D01*
X490474Y39370D01*
X487934Y36830D01*
Y34290D01*
X496824Y12700D02*
X499364D01*
X501904Y15240D01*
X504444Y12700D01*
X506984D01*
Y15240D01*
X504444Y17780D01*
X506984Y20320D01*
Y22860D01*
X504444D01*
X501904Y20320D01*
X499364Y22860D01*
X496824D01*
Y20320D01*
X499364Y17780D01*
X496824Y15240D01*
Y12700D01*
X475234Y21590D02*
X477774D01*
X480314Y24130D01*
X482854Y21590D01*
X485394D01*
Y24130D01*
X482854Y26670D01*
X485394Y29210D01*
Y31750D01*
X482854D01*
X480314Y29210D01*
X477774Y31750D01*
X475234D01*
Y29210D01*
X477774Y26670D01*
X475234Y24130D01*
Y21590D01*
X86106Y262890D02*
X88646D01*
X91186Y265430D01*
X93726Y262890D01*
X96266D01*
Y265430D01*
X93726Y267970D01*
X96266Y270510D01*
Y273050D01*
X93726D01*
X91186Y270510D01*
X88646Y273050D01*
X86106D01*
Y270510D01*
X88646Y267970D01*
X86106Y265430D01*
Y262890D01*
X94996Y241300D02*
X97536D01*
X100076Y243840D01*
X102616Y241300D01*
X105156D01*
Y243840D01*
X102616Y246380D01*
X105156Y248920D01*
Y251460D01*
X102616D01*
X100076Y248920D01*
X97536Y251460D01*
X94996D01*
Y248920D01*
X97536Y246380D01*
X94996Y243840D01*
Y241300D01*
X86106Y245110D02*
X88646D01*
X91186Y247650D01*
X93726Y245110D01*
X96266D01*
Y247650D01*
X93726Y250190D01*
X96266Y252730D01*
Y255270D01*
X93726D01*
X91186Y252730D01*
X88646Y255270D01*
X86106D01*
Y252730D01*
X88646Y250190D01*
X86106Y247650D01*
Y245110D01*
X82296Y254000D02*
X84836D01*
X87376Y256540D01*
X89916Y254000D01*
X92456D01*
Y256540D01*
X89916Y259080D01*
X92456Y261620D01*
Y264160D01*
X89916D01*
X87376Y261620D01*
X84836Y264160D01*
X82296D01*
Y261620D01*
X84836Y259080D01*
X82296Y256540D01*
Y254000D01*
X103886Y262890D02*
X106426D01*
X108966Y265430D01*
X111506Y262890D01*
X114046D01*
Y265430D01*
X111506Y267970D01*
X114046Y270510D01*
Y273050D01*
X111506D01*
X108966Y270510D01*
X106426Y273050D01*
X103886D01*
Y270510D01*
X106426Y267970D01*
X103886Y265430D01*
Y262890D01*
X107696Y254000D02*
X110236D01*
X112776Y256540D01*
X115316Y254000D01*
X117856D01*
Y256540D01*
X115316Y259080D01*
X117856Y261620D01*
Y264160D01*
X115316D01*
X112776Y261620D01*
X110236Y264160D01*
X107696D01*
Y261620D01*
X110236Y259080D01*
X107696Y256540D01*
Y254000D01*
X94996Y266700D02*
X97536D01*
X100076Y269240D01*
X102616Y266700D01*
X105156D01*
Y269240D01*
X102616Y271780D01*
X105156Y274320D01*
Y276860D01*
X102616D01*
X100076Y274320D01*
X97536Y276860D01*
X94996D01*
Y274320D01*
X97536Y271780D01*
X94996Y269240D01*
Y266700D01*
X103886Y245110D02*
X106426D01*
X108966Y247650D01*
X111506Y245110D01*
X114046D01*
Y247650D01*
X111506Y250190D01*
X114046Y252730D01*
Y255270D01*
X111506D01*
X108966Y252730D01*
X106426Y255270D01*
X103886D01*
Y252730D01*
X106426Y250190D01*
X103886Y247650D01*
Y245110D01*
X32766Y21336D02*
X35306D01*
X37846Y23876D01*
X40386Y21336D01*
X42926D01*
Y23876D01*
X40386Y26416D01*
X42926Y28956D01*
Y31496D01*
X40386D01*
X37846Y28956D01*
X35306Y31496D01*
X32766D01*
Y28956D01*
X35306Y26416D01*
X32766Y23876D01*
Y21336D01*
X496824Y245364D02*
X499364D01*
X501904Y247904D01*
X504444Y245364D01*
X506984D01*
Y247904D01*
X504444Y250444D01*
X506984Y252984D01*
Y255524D01*
X504444D01*
X501904Y252984D01*
X499364Y255524D01*
X496824D01*
Y252984D01*
X499364Y250444D01*
X496824Y247904D01*
Y245364D01*
X487934Y266954D02*
X490474D01*
X493014Y269494D01*
X495554Y266954D01*
X498094D01*
Y269494D01*
X495554Y272034D01*
X498094Y274574D01*
Y277114D01*
X495554D01*
X493014Y274574D01*
X490474Y277114D01*
X487934D01*
Y274574D01*
X490474Y272034D01*
X487934Y269494D01*
Y266954D01*
X500634Y254254D02*
X503174D01*
X505714Y256794D01*
X508254Y254254D01*
X510794D01*
Y256794D01*
X508254Y259334D01*
X510794Y261874D01*
Y264414D01*
X508254D01*
X505714Y261874D01*
X503174Y264414D01*
X500634D01*
Y261874D01*
X503174Y259334D01*
X500634Y256794D01*
Y254254D01*
X496824Y263144D02*
X499364D01*
X501904Y265684D01*
X504444Y263144D01*
X506984D01*
Y265684D01*
X504444Y268224D01*
X506984Y270764D01*
Y273304D01*
X504444D01*
X501904Y270764D01*
X499364Y273304D01*
X496824D01*
Y270764D01*
X499364Y268224D01*
X496824Y265684D01*
Y263144D01*
X475234Y254254D02*
X477774D01*
X480314Y256794D01*
X482854Y254254D01*
X485394D01*
Y256794D01*
X482854Y259334D01*
X485394Y261874D01*
Y264414D01*
X482854D01*
X480314Y261874D01*
X477774Y264414D01*
X475234D01*
Y261874D01*
X477774Y259334D01*
X475234Y256794D01*
Y254254D01*
X479044Y245364D02*
X481584D01*
X484124Y247904D01*
X486664Y245364D01*
X489204D01*
Y247904D01*
X486664Y250444D01*
X489204Y252984D01*
Y255524D01*
X486664D01*
X484124Y252984D01*
X481584Y255524D01*
X479044D01*
Y252984D01*
X481584Y250444D01*
X479044Y247904D01*
Y245364D01*
X487934Y241554D02*
X490474D01*
X493014Y244094D01*
X495554Y241554D01*
X498094D01*
Y244094D01*
X495554Y246634D01*
X498094Y249174D01*
Y251714D01*
X495554D01*
X493014Y249174D01*
X490474Y251714D01*
X487934D01*
Y249174D01*
X490474Y246634D01*
X487934Y244094D01*
Y241554D01*
X479044Y263144D02*
X481584D01*
X484124Y265684D01*
X486664Y263144D01*
X489204D01*
Y265684D01*
X486664Y268224D01*
X489204Y270764D01*
Y273304D01*
X486664D01*
X484124Y270764D01*
X481584Y273304D01*
X479044D01*
Y270764D01*
X481584Y268224D01*
X479044Y265684D01*
Y263144D01*
X11076Y30176D02*
X13616D01*
X16156Y32716D01*
X18696Y30176D01*
X21236D01*
Y32716D01*
X18696Y35256D01*
X21236Y37796D01*
Y40336D01*
X18696D01*
X16156Y37796D01*
X13616Y40336D01*
X11076D01*
Y37796D01*
X13616Y35256D01*
X11076Y32716D01*
Y30176D01*
X20200Y8636D02*
X22740D01*
X25280Y11176D01*
X27820Y8636D01*
X30360D01*
Y11176D01*
X27820Y13716D01*
X30360Y16256D01*
Y18796D01*
X27820D01*
X25280Y16256D01*
X22740Y18796D01*
X20200D01*
Y16256D01*
X22740Y13716D01*
X20200Y11176D01*
Y8636D01*
X11176Y12446D02*
X13716D01*
X16256Y14986D01*
X18796Y12446D01*
X21336D01*
Y14986D01*
X18796Y17526D01*
X21336Y20066D01*
Y22606D01*
X18796D01*
X16256Y20066D01*
X13716Y22606D01*
X11176D01*
Y20066D01*
X13716Y17526D01*
X11176Y14986D01*
Y12446D01*
X7366Y21590D02*
X9906D01*
X12446Y24130D01*
X14986Y21590D01*
X17526D01*
Y24130D01*
X14986Y26670D01*
X17526Y29210D01*
Y31750D01*
X14986D01*
X12446Y29210D01*
X9906Y31750D01*
X7366D01*
Y29210D01*
X9906Y26670D01*
X7366Y24130D01*
Y21590D01*
X29770Y30190D02*
X32310D01*
X34850Y32730D01*
X37390Y30190D01*
X39930D01*
Y32730D01*
X37390Y35270D01*
X39930Y37810D01*
Y40350D01*
X37390D01*
X34850Y37810D01*
X32310Y40350D01*
X29770D01*
Y37810D01*
X32310Y35270D01*
X29770Y32730D01*
Y30190D01*
X20200Y34126D02*
X22740D01*
X25280Y36666D01*
X27820Y34126D01*
X30360D01*
Y36666D01*
X27820Y39206D01*
X30360Y41746D01*
Y44286D01*
X27820D01*
X25280Y41746D01*
X22740Y44286D01*
X20200D01*
Y41746D01*
X22740Y39206D01*
X20200Y36666D01*
Y34126D01*
X28956Y12446D02*
X31496D01*
X34036Y14986D01*
X36576Y12446D01*
X39116D01*
Y14986D01*
X36576Y17526D01*
X39116Y20066D01*
Y22606D01*
X36576D01*
X34036Y20066D01*
X31496Y22606D01*
X28956D01*
Y20066D01*
X31496Y17526D01*
X28956Y14986D01*
Y12446D01*
X213868Y178308D02*
Y188468D01*
X224028D01*
Y178308D01*
X213868D01*
X224028Y127508D02*
Y137668D01*
X234188D01*
Y127508D01*
X224028D01*
X203708D02*
Y137668D01*
X213868D01*
Y127508D01*
X203708D01*
X19659Y166350D02*
X22199Y171430D01*
X19659Y176510D01*
X24739Y173970D01*
X29819Y176510D01*
X27279Y171430D01*
X29819Y166350D01*
X24739Y168890D01*
X19659Y166350D01*
Y252750D02*
X22199Y257830D01*
X19659Y262910D01*
X24739Y260370D01*
X29819Y262910D01*
X27279Y257830D01*
X29819Y252750D01*
X24739Y255290D01*
X19659Y252750D01*
X61539Y180650D02*
X64079Y183190D01*
X66619D01*
X64079Y185730D01*
X66619Y188270D01*
X64079D01*
X61539Y190810D01*
X58999Y188270D01*
X56459D01*
X58999Y185730D01*
X56459Y183190D01*
X58999D01*
X61539Y180650D01*
Y238450D02*
X64079Y240990D01*
X66619D01*
X64079Y243530D01*
X66619Y246070D01*
X64079D01*
X61539Y248610D01*
X58999Y246070D01*
X56459D01*
X58999Y243530D01*
X56459Y240990D01*
X58999D01*
X61539Y238450D01*
X66539Y252750D02*
X61459Y262910D01*
X71619D01*
X66539Y252750D01*
Y166350D02*
X61459Y176510D01*
X71619D01*
X66539Y166350D01*
X201250Y264875D02*
X206330Y269955D01*
X211410Y264875D01*
X206330Y259795D01*
X201250Y264875D01*
X176250D02*
X181330Y269955D01*
X186410Y264875D01*
X181330Y259795D01*
X176250Y264875D01*
X421132Y22774D02*
X426212Y27854D01*
X431292Y22774D01*
X426212Y17694D01*
X421132Y22774D01*
X319532D02*
X324612Y27854D01*
X329692Y22774D01*
X324612Y17694D01*
X319532Y22774D01*
X94234Y186436D02*
X99314Y191516D01*
X104394Y186436D01*
X99314Y181356D01*
X94234Y186436D01*
X84795Y87927D02*
X89875Y93007D01*
X94955Y87927D01*
X89875Y82847D01*
X84795Y87927D01*
X109795D02*
X114875Y93007D01*
X119955Y87927D01*
X114875Y82847D01*
X109795Y87927D01*
X398526Y203200D02*
Y213360D01*
X408686D01*
Y203200D01*
X398526D01*
X400558Y205232D02*
Y211328D01*
X406654D01*
Y205232D01*
X400558D01*
X386842Y182118D02*
X391922Y187198D01*
X397002Y182118D01*
X391922Y177038D01*
X386842Y182118D01*
X302140Y99822D02*
X307220Y104902D01*
X312300Y99822D01*
X307220Y94742D01*
X302140Y99822D01*
X267462Y119178D02*
X272542Y124258D01*
X277622Y119178D01*
X272542Y114098D01*
X267462Y119178D01*
X389636Y22774D02*
X394716Y27854D01*
X399796Y22774D01*
X394716Y17694D01*
X389636Y22774D01*
X463083Y264875D02*
X468163Y269955D01*
X473243Y264875D01*
X468163Y259795D01*
X463083Y264875D01*
X396004D02*
X401084Y269955D01*
X406164Y264875D01*
X401084Y259795D01*
X396004Y264875D01*
X371004D02*
X376084Y269955D01*
X381164Y264875D01*
X376084Y259795D01*
X371004Y264875D01*
X396414Y244894D02*
X401494Y249974D01*
X406574Y244894D01*
X401494Y239814D01*
X396414Y244894D01*
X392430Y214280D02*
Y224440D01*
X402590D01*
Y214280D01*
X392430D01*
X394462Y216312D02*
Y222408D01*
X400558D01*
Y216312D01*
X394462D01*
X418846Y215900D02*
X423926Y220980D01*
X429006Y215900D01*
X423926Y210820D01*
X418846Y215900D01*
X421004Y264875D02*
X426084Y269955D01*
X431164Y264875D01*
X426084Y259795D01*
X421004Y264875D01*
X324104Y205994D02*
X329184Y211074D01*
X334264Y205994D01*
X329184Y200914D01*
X324104Y205994D01*
X302006D02*
X307086Y211074D01*
X312166Y205994D01*
X307086Y200914D01*
X302006Y205994D01*
X335026Y193294D02*
X340106Y198374D01*
X345186Y193294D01*
X340106Y188214D01*
X335026Y193294D01*
X314198D02*
X319278Y198374D01*
X324358Y193294D01*
X319278Y188214D01*
X314198Y193294D01*
X413512Y185166D02*
X418592Y190246D01*
X423672Y185166D01*
X418592Y180086D01*
X413512Y185166D01*
X302006Y184150D02*
X307086Y189230D01*
X312166Y184150D01*
X307086Y179070D01*
X302006Y184150D01*
X345948D02*
X351028Y189230D01*
X356108Y184150D01*
X351028Y179070D01*
X345948Y184150D01*
X371242Y177038D02*
Y187198D01*
X381402D01*
Y177038D01*
X371242D01*
X373274Y179070D02*
Y185166D01*
X379370D01*
Y179070D01*
X373274D01*
X398526Y175134D02*
X403606Y180214D01*
X408686Y175134D01*
X403606Y170054D01*
X398526Y175134D01*
X335026Y172212D02*
X340106Y177292D01*
X345186Y172212D01*
X340106Y167132D01*
X335026Y172212D01*
X314198D02*
X319278Y177292D01*
X324358Y172212D01*
X319278Y167132D01*
X314198Y172212D01*
X277050Y163576D02*
X282130Y168656D01*
X287210Y163576D01*
X282130Y158496D01*
X277050Y163576D01*
X302006Y162052D02*
X307086Y167132D01*
X312166Y162052D01*
X307086Y156972D01*
X302006Y162052D01*
X345948D02*
X351028Y167132D01*
X356108Y162052D01*
X351028Y156972D01*
X345948Y162052D01*
X324104D02*
X329184Y167132D01*
X334264Y162052D01*
X329184Y156972D01*
X324104Y162052D01*
X492045Y156330D02*
X497125Y161410D01*
X502205Y156330D01*
X497125Y151250D01*
X492045Y156330D01*
Y131330D02*
X497125Y136410D01*
X502205Y131330D01*
X497125Y126250D01*
X492045Y131330D01*
Y106330D02*
X497125Y111410D01*
X502205Y106330D01*
X497125Y101250D01*
X492045Y106330D01*
Y81330D02*
X497125Y86410D01*
X502205Y81330D01*
X497125Y76250D01*
X492045Y81330D01*
X441854Y43688D02*
X446934Y48768D01*
X452014Y43688D01*
X446934Y38608D01*
X441854Y43688D01*
X396854Y40132D02*
X401934Y45212D01*
X407014Y40132D01*
X401934Y35052D01*
X396854Y40132D01*
X449580Y22774D02*
X454660Y27854D01*
X459740Y22774D01*
X454660Y17694D01*
X449580Y22774D01*
X492045Y56330D02*
X497125Y61410D01*
X502205Y56330D01*
X497125Y51250D01*
X492045Y56330D01*
X370265Y108420D02*
X375345Y113500D01*
X380425Y108420D01*
X375345Y103340D01*
X370265Y108420D01*
X369062Y89662D02*
X374142Y94742D01*
X379222Y89662D01*
X374142Y84582D01*
X369062Y89662D01*
X366963Y118420D02*
X372043Y123500D01*
X377123Y118420D01*
X372043Y113340D01*
X366963Y118420D01*
X349720Y22774D02*
X354800Y27854D01*
X359880Y22774D01*
X354800Y17694D01*
X349720Y22774D01*
X344745Y97418D02*
X349825Y102498D01*
X354905Y97418D01*
X349825Y92338D01*
X344745Y97418D01*
X342846Y37846D02*
X347926Y42926D01*
X353006Y37846D01*
X347926Y32766D01*
X342846Y37846D01*
X339389Y84836D02*
X344469Y89916D01*
X349549Y84836D01*
X344469Y79756D01*
X339389Y84836D01*
X332486Y109220D02*
X337566Y114300D01*
X342646Y109220D01*
X337566Y104140D01*
X332486Y109220D01*
X327846Y84836D02*
X332926Y89916D01*
X338006Y84836D01*
X332926Y79756D01*
X327846Y84836D01*
X371602Y156972D02*
X376682Y162052D01*
X381762Y156972D01*
X376682Y151892D01*
X371602Y156972D01*
X297846Y37846D02*
X302926Y42926D01*
X308006Y37846D01*
X302926Y32766D01*
X297846Y37846D01*
X290284Y22774D02*
X295364Y27854D01*
X300444Y22774D01*
X295364Y17694D01*
X290284Y22774D01*
X287140Y99822D02*
X292220Y104902D01*
X297300Y99822D01*
X292220Y94742D01*
X287140Y99822D01*
X277050Y139446D02*
X282130Y144526D01*
X287210Y139446D01*
X282130Y134366D01*
X277050Y139446D01*
X251250Y264875D02*
X256330Y269955D01*
X261410Y264875D01*
X256330Y259795D01*
X251250Y264875D01*
X226250D02*
X231330Y269955D01*
X236410Y264875D01*
X231330Y259795D01*
X226250Y264875D01*
X151250D02*
X156330Y269955D01*
X161410Y264875D01*
X156330Y259795D01*
X151250Y264875D01*
X126250D02*
X131330Y269955D01*
X136410Y264875D01*
X131330Y259795D01*
X126250Y264875D01*
X251250Y239875D02*
X256330Y244955D01*
X261410Y239875D01*
X256330Y234795D01*
X251250Y239875D01*
X201250D02*
X206330Y244955D01*
X211410Y239875D01*
X206330Y234795D01*
X201250Y239875D01*
X226250D02*
X231330Y244955D01*
X236410Y239875D01*
X231330Y234795D01*
X226250Y239875D01*
X176250D02*
X181330Y244955D01*
X186410Y239875D01*
X181330Y234795D01*
X176250Y239875D01*
X151250D02*
X156330Y244955D01*
X161410Y239875D01*
X156330Y234795D01*
X151250Y239875D01*
X202286Y198780D02*
X207366Y203860D01*
X212446Y198780D01*
X207366Y193700D01*
X202286Y198780D01*
X167640Y193548D02*
X172720Y198628D01*
X177800Y193548D01*
X172720Y188468D01*
X167640Y193548D01*
X266192Y185420D02*
X271272Y190500D01*
X276352Y185420D01*
X271272Y180340D01*
X266192Y185420D01*
X257556Y185166D02*
X262636Y190246D01*
X267716Y185166D01*
X262636Y180086D01*
X257556Y185166D01*
X157734Y184150D02*
X162814Y189230D01*
X167894Y184150D01*
X162814Y179070D01*
X157734Y184150D01*
X145034Y176022D02*
X150114Y181102D01*
X155194Y176022D01*
X150114Y170942D01*
X145034Y176022D01*
X165862Y162814D02*
X170942Y167894D01*
X176022Y162814D01*
X170942Y157734D01*
X165862Y162814D01*
X155194Y144780D02*
X160274Y149860D01*
X165354Y144780D01*
X160274Y139700D01*
X155194Y144780D01*
X266446Y139954D02*
X271526Y145034D01*
X276606Y139954D01*
X271526Y134874D01*
X266446Y139954D01*
X131674Y134620D02*
X136754Y139700D01*
X141834Y134620D01*
X136754Y129540D01*
X131674Y134620D01*
X191008Y126746D02*
X196088Y131826D01*
X201168Y126746D01*
X196088Y121666D01*
X191008Y126746D01*
X167894Y123190D02*
X172974Y128270D01*
X178054Y123190D01*
X172974Y118110D01*
X167894Y123190D01*
X19920Y275000D02*
X25000Y280080D01*
X30080Y275000D01*
X25000Y269920D01*
X19920Y275000D01*
X44920D02*
X50000Y280080D01*
X55080Y275000D01*
X50000Y269920D01*
X44920Y275000D01*
X77470Y246380D02*
X82550Y251460D01*
X87630Y246380D01*
X82550Y241300D01*
X77470Y246380D01*
X102616Y227330D02*
X107696Y232410D01*
X112776Y227330D01*
X107696Y222250D01*
X102616Y227330D01*
X19920Y225000D02*
X25000Y230080D01*
X30080Y225000D01*
X25000Y219920D01*
X19920Y225000D01*
X105890Y209296D02*
X110970Y214376D01*
X116050Y209296D01*
X110970Y204216D01*
X105890Y209296D01*
X19920Y200000D02*
X25000Y205080D01*
X30080Y200000D01*
X25000Y194920D01*
X19920Y200000D01*
X106490Y184314D02*
X111570Y189394D01*
X116650Y184314D01*
X111570Y179234D01*
X106490Y184314D01*
X80772Y172212D02*
X85852Y177292D01*
X90932Y172212D01*
X85852Y167132D01*
X80772Y172212D01*
X105570Y153924D02*
X110650Y159004D01*
X115730Y153924D01*
X110650Y148844D01*
X105570Y153924D01*
X87884Y144018D02*
X92964Y149098D01*
X98044Y144018D01*
X92964Y138938D01*
X87884Y144018D01*
X61086Y143977D02*
X66166Y149057D01*
X71246Y143977D01*
X66166Y138897D01*
X61086Y143977D01*
X11086D02*
X16166Y149057D01*
X21246Y143977D01*
X16166Y138897D01*
X11086Y143977D01*
X36086D02*
X41166Y149057D01*
X46246Y143977D01*
X41166Y138897D01*
X36086Y143977D01*
X213868Y122988D02*
X218948Y128068D01*
X224028Y122988D01*
X218948Y117908D01*
X213868Y122988D01*
X244348Y119178D02*
X249428Y124258D01*
X254508Y119178D01*
X249428Y114098D01*
X244348Y119178D01*
X160528Y109173D02*
X165608Y114253D01*
X170688Y109173D01*
X165608Y104093D01*
X160528Y109173D01*
X188976D02*
X194056Y114253D01*
X199136Y109173D01*
X194056Y104093D01*
X188976Y109173D01*
X127762Y108458D02*
X132842Y113538D01*
X137922Y108458D01*
X132842Y103378D01*
X127762Y108458D01*
X97028Y107950D02*
X102108Y113030D01*
X107188Y107950D01*
X102108Y102870D01*
X97028Y107950D01*
X172720Y76200D02*
X177800Y81280D01*
X182880Y76200D01*
X177800Y71120D01*
X172720Y76200D01*
X109310Y69580D02*
X114390Y74660D01*
X119470Y69580D01*
X114390Y64500D01*
X109310Y69580D01*
X84795Y68670D02*
X89875Y73750D01*
X94955Y68670D01*
X89875Y63590D01*
X84795Y68670D01*
X146558Y66040D02*
X151638Y71120D01*
X156718Y66040D01*
X151638Y60960D01*
X146558Y66040D01*
X172720Y63882D02*
X177800Y68962D01*
X182880Y63882D01*
X177800Y58802D01*
X172720Y63882D01*
X160020Y43670D02*
X165100Y48750D01*
X170180Y43670D01*
X165100Y38590D01*
X160020Y43670D01*
X84795D02*
X89875Y48750D01*
X94955Y43670D01*
X89875Y38590D01*
X84795Y43670D01*
X244712Y38100D02*
X249792Y43180D01*
X254872Y38100D01*
X249792Y33020D01*
X244712Y38100D01*
X229712D02*
X234792Y43180D01*
X239872Y38100D01*
X234792Y33020D01*
X229712Y38100D01*
X199786D02*
X204866Y43180D01*
X209946Y38100D01*
X204866Y33020D01*
X199786Y38100D01*
X252184Y22774D02*
X257264Y27854D01*
X262344Y22774D01*
X257264Y17694D01*
X252184Y22774D01*
X222250D02*
X227330Y27854D01*
X232410Y22774D01*
X227330Y17694D01*
X222250Y22774D01*
X191732D02*
X196812Y27854D01*
X201892Y22774D01*
X196812Y17694D01*
X191732Y22774D01*
X160020Y18670D02*
X165100Y23750D01*
X170180Y18670D01*
X165100Y13590D01*
X160020Y18670D01*
X84795D02*
X89875Y23750D01*
X94955Y18670D01*
X89875Y13590D01*
X84795Y18670D01*
X110808Y13304D02*
X115888Y18384D01*
X120968Y13304D01*
X115888Y8224D01*
X110808Y13304D01*
X149606Y13208D02*
X154686Y18288D01*
X159766Y13208D01*
X154686Y8128D01*
X149606Y13208D01*
X84172Y121106D02*
X89252Y126186D01*
X94332Y121106D01*
X89252Y116026D01*
X84172Y121106D01*
X59795Y43670D02*
X64875Y48750D01*
X69955Y43670D01*
X64875Y38590D01*
X59795Y43670D01*
Y68670D02*
X64875Y73750D01*
X69955Y68670D01*
X64875Y63590D01*
X59795Y68670D01*
X50514Y86868D02*
X55594Y91948D01*
X60674Y86868D01*
X55594Y81788D01*
X50514Y86868D01*
X30368Y59436D02*
X35448Y64516D01*
X40528Y59436D01*
X35448Y54356D01*
X30368Y59436D01*
X17526Y85344D02*
X22606Y90424D01*
X27686Y85344D01*
X22606Y80264D01*
X17526Y85344D01*
X442045Y156330D02*
X447125Y161410D01*
X452205Y156330D01*
X447125Y151250D01*
X442045Y156330D01*
X467045D02*
X472125Y161410D01*
X477205Y156330D01*
X472125Y151250D01*
X467045Y156330D01*
X417045D02*
X422125Y161410D01*
X427205Y156330D01*
X422125Y151250D01*
X417045Y156330D01*
X442045Y131330D02*
X447125Y136410D01*
X452205Y131330D01*
X447125Y126250D01*
X442045Y131330D01*
X467045D02*
X472125Y136410D01*
X477205Y131330D01*
X472125Y126250D01*
X467045Y131330D01*
X417045D02*
X422125Y136410D01*
X427205Y131330D01*
X422125Y126250D01*
X417045Y131330D01*
X467045Y106330D02*
X472125Y111410D01*
X477205Y106330D01*
X472125Y101250D01*
X467045Y106330D01*
X401854Y97790D02*
X406934Y102870D01*
X412014Y97790D01*
X406934Y92710D01*
X401854Y97790D01*
X436854Y97282D02*
X441934Y102362D01*
X447014Y97282D01*
X441934Y92202D01*
X436854Y97282D01*
X468122Y81788D02*
X473202Y86868D01*
X478282Y81788D01*
X473202Y76708D01*
X468122Y81788D01*
X384810Y138430D02*
X389890Y143510D01*
X394970Y138430D01*
X389890Y133350D01*
X384810Y138430D01*
X463083Y237335D02*
X468163Y242415D01*
X473243Y237335D01*
X468163Y232255D01*
X463083Y237335D01*
X442670D02*
X447750Y242415D01*
X452830Y237335D01*
X447750Y232255D01*
X442670Y237335D01*
X446278Y207518D02*
X451358Y212598D01*
X456438Y207518D01*
X451358Y202438D01*
X446278Y207518D01*
Y186436D02*
X451358Y191516D01*
X456438Y186436D01*
X451358Y181356D01*
X446278Y186436D01*
X428498Y175768D02*
X433578Y180848D01*
X438658Y175768D01*
X433578Y170688D01*
X428498Y175768D01*
X421004Y237335D02*
X426084Y242415D01*
X431164Y237335D01*
X426084Y232255D01*
X421004Y237335D01*
X301244Y275590D02*
X306324Y280670D01*
X311404Y275590D01*
X306324Y270510D01*
X301244Y275590D01*
X278638Y265176D02*
X283718Y270256D01*
X288798Y265176D01*
X283718Y260096D01*
X278638Y265176D01*
X283972Y254000D02*
X289052Y259080D01*
X294132Y254000D01*
X289052Y248920D01*
X283972Y254000D01*
X343662Y246634D02*
X348742Y251714D01*
X353822Y246634D01*
X348742Y241554D01*
X343662Y246634D01*
X344170Y232156D02*
X349250Y237236D01*
X354330Y232156D01*
X349250Y227076D01*
X344170Y232156D01*
X361696Y231394D02*
X366776Y236474D01*
X371856Y231394D01*
X366776Y226314D01*
X361696Y231394D01*
X282956Y231140D02*
X288036Y236220D01*
X293116Y231140D01*
X288036Y226060D01*
X282956Y231140D01*
X345948Y205994D02*
X351028Y211074D01*
X356108Y205994D01*
X351028Y200914D01*
X345948Y205994D01*
X278384Y242570D02*
X283464Y247650D01*
X288544Y242570D01*
X283464Y237490D01*
X278384Y242570D01*
X485902Y236220D02*
X490982Y241300D01*
X496062Y236220D01*
X490982Y231140D01*
X485902Y236220D01*
X484886Y219456D02*
X489966Y224536D01*
X495046Y219456D01*
X489966Y214376D01*
X484886Y219456D01*
X484378Y196650D02*
X489458Y201730D01*
X494538Y196650D01*
X489458Y191570D01*
X484378Y196650D01*
Y172466D02*
X489458Y177546D01*
X494538Y172466D01*
X489458Y167386D01*
X484378Y172466D01*
D107*
X498094Y26670D02*
G03*
X498094Y26670I-5080J0D01*
G01*
X30360D02*
G03*
X30360Y26670I-5080J0D01*
G01*
X498094Y259340D02*
G03*
X498094Y259340I-5080J0D01*
G01*
X105076Y259100D02*
G03*
X105076Y259100I-5080J0D01*
G01*
X198628Y151638D02*
G03*
X198628Y151638I-5080J0D01*
G01*
Y183388D02*
G03*
X198628Y183388I-5080J0D01*
G01*
X249428D02*
G03*
X249428Y183388I-5080J0D01*
G01*
Y151638D02*
G03*
X249428Y151638I-5080J0D01*
G01*
D108*
X496062Y26670D02*
G03*
X496062Y26670I-3048J0D01*
G01*
X28328D02*
G03*
X28328Y26670I-3048J0D01*
G01*
X496062Y259340D02*
G03*
X496062Y259340I-3048J0D01*
G01*
X103044Y259100D02*
G03*
X103044Y259100I-3048J0D01*
G01*
M02*
