G04*
G04 #@! TF.GenerationSoftware,Altium Limited,Altium Designer,23.0.1 (38)*
G04*
G04 Layer_Color=8388736*
%FSLAX44Y44*%
%MOMM*%
G71*
G04*
G04 #@! TF.SameCoordinates,AA057BD2-FAE9-475E-A33E-1B252B641246*
G04*
G04*
G04 #@! TF.FilePolarity,Negative*
G04*
G01*
G75*
%ADD25R,0.5200X0.5200*%
%ADD27R,1.1000X1.9000*%
%ADD28R,0.3000X0.5000*%
%ADD29R,0.5200X0.5200*%
%ADD32R,0.2425X0.7826*%
G04:AMPARAMS|DCode=33|XSize=0.7826mm|YSize=0.2425mm|CornerRadius=0.1212mm|HoleSize=0mm|Usage=FLASHONLY|Rotation=90.000|XOffset=0mm|YOffset=0mm|HoleType=Round|Shape=RoundedRectangle|*
%AMROUNDEDRECTD33*
21,1,0.7826,0.0000,0,0,90.0*
21,1,0.5402,0.2425,0,0,90.0*
1,1,0.2425,0.0000,0.2701*
1,1,0.2425,0.0000,-0.2701*
1,1,0.2425,0.0000,-0.2701*
1,1,0.2425,0.0000,0.2701*
%
%ADD33ROUNDEDRECTD33*%
G04:AMPARAMS|DCode=34|XSize=0.2425mm|YSize=0.7826mm|CornerRadius=0.1212mm|HoleSize=0mm|Usage=FLASHONLY|Rotation=90.000|XOffset=0mm|YOffset=0mm|HoleType=Round|Shape=RoundedRectangle|*
%AMROUNDEDRECTD34*
21,1,0.2425,0.5402,0,0,90.0*
21,1,0.0000,0.7826,0,0,90.0*
1,1,0.2425,0.2701,0.0000*
1,1,0.2425,0.2701,0.0000*
1,1,0.2425,-0.2701,0.0000*
1,1,0.2425,-0.2701,0.0000*
%
%ADD34ROUNDEDRECTD34*%
%ADD35R,1.1500X1.0000*%
%ADD36R,0.6500X0.3500*%
%ADD38R,0.7000X0.6500*%
%ADD39R,0.7581X0.8121*%
%ADD40R,0.6600X1.0000*%
%ADD42R,0.8121X0.7581*%
%ADD43R,0.5153X0.4725*%
G04:AMPARAMS|DCode=44|XSize=0.676mm|YSize=0.776mm|CornerRadius=0.113mm|HoleSize=0mm|Usage=FLASHONLY|Rotation=90.000|XOffset=0mm|YOffset=0mm|HoleType=Round|Shape=RoundedRectangle|*
%AMROUNDEDRECTD44*
21,1,0.6760,0.5500,0,0,90.0*
21,1,0.4500,0.7760,0,0,90.0*
1,1,0.2260,0.2750,0.2250*
1,1,0.2260,0.2750,-0.2250*
1,1,0.2260,-0.2750,-0.2250*
1,1,0.2260,-0.2750,0.2250*
%
%ADD44ROUNDEDRECTD44*%
G04:AMPARAMS|DCode=45|XSize=0.65mm|YSize=0.75mm|CornerRadius=0.1mm|HoleSize=0mm|Usage=FLASHONLY|Rotation=180.000|XOffset=0mm|YOffset=0mm|HoleType=Round|Shape=RoundedRectangle|*
%AMROUNDEDRECTD45*
21,1,0.6500,0.5500,0,0,180.0*
21,1,0.4500,0.7500,0,0,180.0*
1,1,0.2000,-0.2250,0.2750*
1,1,0.2000,0.2250,0.2750*
1,1,0.2000,0.2250,-0.2750*
1,1,0.2000,-0.2250,-0.2750*
%
%ADD45ROUNDEDRECTD45*%
%ADD46R,0.8000X0.9000*%
%ADD47R,0.5000X0.3400*%
G04:AMPARAMS|DCode=48|XSize=0.3508mm|YSize=1.2008mm|CornerRadius=0.0629mm|HoleSize=0mm|Usage=FLASHONLY|Rotation=270.000|XOffset=0mm|YOffset=0mm|HoleType=Round|Shape=RoundedRectangle|*
%AMROUNDEDRECTD48*
21,1,0.3508,1.0750,0,0,270.0*
21,1,0.2250,1.2008,0,0,270.0*
1,1,0.1258,-0.5375,-0.1125*
1,1,0.1258,-0.5375,0.1125*
1,1,0.1258,0.5375,0.1125*
1,1,0.1258,0.5375,-0.1125*
%
%ADD48ROUNDEDRECTD48*%
G04:AMPARAMS|DCode=49|XSize=0.65mm|YSize=1.05mm|CornerRadius=0.1mm|HoleSize=0mm|Usage=FLASHONLY|Rotation=270.000|XOffset=0mm|YOffset=0mm|HoleType=Round|Shape=RoundedRectangle|*
%AMROUNDEDRECTD49*
21,1,0.6500,0.8500,0,0,270.0*
21,1,0.4500,1.0500,0,0,270.0*
1,1,0.2000,-0.4250,-0.2250*
1,1,0.2000,-0.4250,0.2250*
1,1,0.2000,0.4250,0.2250*
1,1,0.2000,0.4250,-0.2250*
%
%ADD49ROUNDEDRECTD49*%
%ADD50R,1.0760X1.0760*%
%ADD51R,2.2760X0.8720*%
%ADD52R,2.2760X0.8466*%
%ADD53R,0.4000X0.7500*%
G04:AMPARAMS|DCode=54|XSize=0.676mm|YSize=0.776mm|CornerRadius=0.113mm|HoleSize=0mm|Usage=FLASHONLY|Rotation=0.000|XOffset=0mm|YOffset=0mm|HoleType=Round|Shape=RoundedRectangle|*
%AMROUNDEDRECTD54*
21,1,0.6760,0.5500,0,0,0.0*
21,1,0.4500,0.7760,0,0,0.0*
1,1,0.2260,0.2250,-0.2750*
1,1,0.2260,-0.2250,-0.2750*
1,1,0.2260,-0.2250,0.2750*
1,1,0.2260,0.2250,0.2750*
%
%ADD54ROUNDEDRECTD54*%
%ADD55R,0.7760X2.9760*%
%ADD56C,0.9390*%
%ADD57R,1.6760X2.0760*%
%ADD58R,1.0508X1.3008*%
G04:AMPARAMS|DCode=59|XSize=0.35mm|YSize=1.2mm|CornerRadius=0.0625mm|HoleSize=0mm|Usage=FLASHONLY|Rotation=270.000|XOffset=0mm|YOffset=0mm|HoleType=Round|Shape=RoundedRectangle|*
%AMROUNDEDRECTD59*
21,1,0.3500,1.0750,0,0,270.0*
21,1,0.2250,1.2000,0,0,270.0*
1,1,0.1250,-0.5375,-0.1125*
1,1,0.1250,-0.5375,0.1125*
1,1,0.1250,0.5375,0.1125*
1,1,0.1250,0.5375,-0.1125*
%
%ADD59ROUNDEDRECTD59*%
%ADD60R,5.7000X5.7000*%
%ADD61R,1.2500X0.6500*%
G04:AMPARAMS|DCode=62|XSize=0.6508mm|YSize=0.7508mm|CornerRadius=0.1004mm|HoleSize=0mm|Usage=FLASHONLY|Rotation=90.000|XOffset=0mm|YOffset=0mm|HoleType=Round|Shape=RoundedRectangle|*
%AMROUNDEDRECTD62*
21,1,0.6508,0.5500,0,0,90.0*
21,1,0.4500,0.7508,0,0,90.0*
1,1,0.2008,0.2750,0.2250*
1,1,0.2008,0.2750,-0.2250*
1,1,0.2008,-0.2750,-0.2250*
1,1,0.2008,-0.2750,0.2250*
%
%ADD62ROUNDEDRECTD62*%
%ADD63O,3.0760X3.1240*%
%ADD64C,3.0760*%
%ADD65C,2.4760*%
%ADD66C,1.1430*%
%ADD67O,1.8760X1.0760*%
%ADD68C,0.7500*%
%ADD69O,2.1760X1.0760*%
D25*
X386482Y210650D02*
D03*
Y202650D02*
D03*
X376174D02*
D03*
Y210650D02*
D03*
X77060Y121106D02*
D03*
Y113106D02*
D03*
X120650Y184314D02*
D03*
Y176314D02*
D03*
D27*
X269292Y22774D02*
D03*
X185292D02*
D03*
X283426D02*
D03*
X367426D02*
D03*
X466434D02*
D03*
X382434D02*
D03*
D28*
X132390Y42656D02*
D03*
X124390D02*
D03*
Y28656D02*
D03*
X132390D02*
D03*
D29*
Y13304D02*
D03*
X124390D02*
D03*
X262890Y192532D02*
D03*
X270890D02*
D03*
X162481Y162814D02*
D03*
X154481D02*
D03*
X376238Y190380D02*
D03*
X384238D02*
D03*
X298430Y231140D02*
D03*
X306430D02*
D03*
X298430Y254000D02*
D03*
X306430D02*
D03*
X282130Y156650D02*
D03*
X274130D02*
D03*
Y147598D02*
D03*
X282130D02*
D03*
D32*
X301430Y150138D02*
D03*
D33*
X306430D02*
D03*
X311430D02*
D03*
X316430D02*
D03*
X321430D02*
D03*
X326430D02*
D03*
X331430D02*
D03*
X336430D02*
D03*
X351430D02*
D03*
X356430D02*
D03*
Y218162D02*
D03*
X306430D02*
D03*
X341430Y150138D02*
D03*
X346430D02*
D03*
X351430Y218162D02*
D03*
X346430D02*
D03*
X341430D02*
D03*
X336430D02*
D03*
X331430D02*
D03*
X326430D02*
D03*
X321430D02*
D03*
X316430D02*
D03*
X311430D02*
D03*
X301430D02*
D03*
D34*
X362943Y171650D02*
D03*
Y191650D02*
D03*
Y196650D02*
D03*
Y201650D02*
D03*
Y206650D02*
D03*
Y211650D02*
D03*
X294918D02*
D03*
Y206650D02*
D03*
Y201650D02*
D03*
Y196650D02*
D03*
Y191650D02*
D03*
Y181650D02*
D03*
Y156650D02*
D03*
X362943D02*
D03*
Y161650D02*
D03*
Y166650D02*
D03*
Y176650D02*
D03*
Y181650D02*
D03*
Y186650D02*
D03*
X294918D02*
D03*
Y176650D02*
D03*
Y171650D02*
D03*
Y166650D02*
D03*
Y161650D02*
D03*
D35*
X318970Y260604D02*
D03*
X342470D02*
D03*
D36*
X316430Y237930D02*
D03*
Y229430D02*
D03*
D38*
X134630Y176314D02*
D03*
Y162814D02*
D03*
D39*
X110904D02*
D03*
X123444D02*
D03*
X326430Y232410D02*
D03*
X338970D02*
D03*
X306430Y242570D02*
D03*
X293890D02*
D03*
X306430Y265430D02*
D03*
X293890D02*
D03*
D40*
X146050Y123190D02*
D03*
X127050D02*
D03*
Y149190D02*
D03*
X136550D02*
D03*
X146050D02*
D03*
D42*
X160274Y135730D02*
D03*
Y123190D02*
D03*
D43*
X414806Y196650D02*
D03*
X422378D02*
D03*
D44*
X349825Y108420D02*
D03*
Y118420D02*
D03*
X361375D02*
D03*
Y108420D02*
D03*
X416934Y102442D02*
D03*
Y112442D02*
D03*
X431934Y118942D02*
D03*
Y108942D02*
D03*
X389810Y157400D02*
D03*
X403606Y186650D02*
D03*
Y196650D02*
D03*
X433578Y186650D02*
D03*
Y196650D02*
D03*
X389810Y147400D02*
D03*
D45*
X114390Y59166D02*
D03*
X124390D02*
D03*
X132390Y66024D02*
D03*
X142390D02*
D03*
D46*
X377444Y231394D02*
D03*
X387944Y244894D02*
D03*
X377444D02*
D03*
X387944Y231394D02*
D03*
D47*
X451358Y198920D02*
D03*
Y194380D02*
D03*
D48*
X72289Y207130D02*
D03*
Y197130D02*
D03*
D49*
X73000Y246630D02*
D03*
Y190630D02*
D03*
Y182630D02*
D03*
Y238630D02*
D03*
D50*
X474458Y196650D02*
D03*
D51*
X489458Y211400D02*
D03*
D52*
Y181900D02*
D03*
D53*
X445238Y196650D02*
D03*
X457488D02*
D03*
D54*
X379810Y171650D02*
D03*
X389810D02*
D03*
X441934Y87122D02*
D03*
X431934D02*
D03*
X406934D02*
D03*
X416934D02*
D03*
X184785Y109173D02*
D03*
X174785D02*
D03*
X65594Y113106D02*
D03*
X55594D02*
D03*
X65594Y97536D02*
D03*
X55594D02*
D03*
X99234Y227130D02*
D03*
X89234D02*
D03*
X99234Y197104D02*
D03*
X89234D02*
D03*
D55*
X249792Y60774D02*
D03*
X234792D02*
D03*
X219792D02*
D03*
X204792D02*
D03*
X302926D02*
D03*
X317926D02*
D03*
X332926D02*
D03*
X347926D02*
D03*
X446934D02*
D03*
X431934D02*
D03*
X416934D02*
D03*
X401934D02*
D03*
D56*
X225298Y145288D02*
D03*
Y170688D02*
D03*
Y157988D02*
D03*
X212598D02*
D03*
Y170688D02*
D03*
Y145288D02*
D03*
D57*
X22472Y59106D02*
D03*
Y113106D02*
D03*
D58*
X307220Y129540D02*
D03*
X292220D02*
D03*
D59*
X72289Y202130D02*
D03*
Y232130D02*
D03*
Y212130D02*
D03*
Y222130D02*
D03*
Y217130D02*
D03*
D60*
X328930Y184150D02*
D03*
D61*
X121358Y199796D02*
D03*
Y218796D02*
D03*
X146358Y199796D02*
D03*
Y218796D02*
D03*
X121358Y209296D02*
D03*
X146358D02*
D03*
D62*
X307220Y116760D02*
D03*
Y106760D02*
D03*
X292220Y116760D02*
D03*
Y106760D02*
D03*
D63*
X493014Y26670D02*
D03*
X25280D02*
D03*
X99996Y259100D02*
D03*
D64*
X493014Y259340D02*
D03*
D65*
X193548Y151638D02*
D03*
Y183388D02*
D03*
X244348D02*
D03*
Y151638D02*
D03*
D66*
X218948Y183388D02*
D03*
X229108Y132588D02*
D03*
X208788D02*
D03*
D67*
X24739Y171430D02*
D03*
Y257830D02*
D03*
D68*
X61539Y185730D02*
D03*
Y243530D02*
D03*
D69*
X66539Y257830D02*
D03*
Y171430D02*
D03*
M02*
