G04*
G04 #@! TF.GenerationSoftware,Altium Limited,Altium Designer,23.0.1 (38)*
G04*
G04 Layer_Color=0*
%FSLAX44Y44*%
%MOMM*%
G71*
G04*
G04 #@! TF.SameCoordinates,AA057BD2-FAE9-475E-A33E-1B252B641246*
G04*
G04*
G04 #@! TF.FilePolarity,Positive*
G04*
G01*
G75*
%ADD102C,0.1000*%
D102*
X386482Y201650D02*
Y211650D01*
X381482Y206650D02*
X391482D01*
X371174D02*
X381174D01*
X376174Y201650D02*
Y211650D01*
X222292Y33274D02*
X232292D01*
X227292Y28274D02*
Y38274D01*
X325426Y28274D02*
Y38274D01*
X320426Y33274D02*
X330426D01*
X128390Y30656D02*
Y40656D01*
X123390Y35656D02*
X133390D01*
X128390Y8304D02*
Y18304D01*
X123390Y13304D02*
X133390D01*
X72060Y117106D02*
X82060D01*
X77060Y112106D02*
Y122106D01*
X419434Y33274D02*
X429434D01*
X424434Y28274D02*
Y38274D01*
X266890Y187532D02*
Y197532D01*
X261890Y192532D02*
X271890D01*
X158481Y157814D02*
Y167814D01*
X153481Y162814D02*
X163481D01*
X134630Y164564D02*
Y174564D01*
X129630Y169564D02*
X139630D01*
X115650Y180314D02*
X125650D01*
X120650Y175314D02*
Y185314D01*
X117174Y157814D02*
Y167814D01*
X112174Y162814D02*
X122174D01*
X131550Y136190D02*
X141550D01*
X136550Y131190D02*
Y141190D01*
X155274Y129460D02*
X165274D01*
X160274Y124460D02*
Y134460D01*
X375238Y190380D02*
X385238D01*
X380238Y185380D02*
Y195380D01*
X328930Y179150D02*
Y189150D01*
X323930Y184150D02*
X333930D01*
X311430Y233680D02*
X321430D01*
X316430Y228680D02*
Y238680D01*
X302430Y226140D02*
Y236140D01*
X297430Y231140D02*
X307430D01*
X327700Y232410D02*
X337700D01*
X332700Y227410D02*
Y237410D01*
X295160Y242570D02*
X305160D01*
X300160Y237570D02*
Y247570D01*
X302430Y249000D02*
Y259000D01*
X297430Y254000D02*
X307430D01*
X330720Y255604D02*
Y265604D01*
X325720Y260604D02*
X335720D01*
X295160Y265430D02*
X305160D01*
X300160Y260430D02*
Y270430D01*
X413592Y196650D02*
X423592D01*
X418592Y191650D02*
Y201650D01*
X273130Y156650D02*
X283130D01*
X278130Y151650D02*
Y161650D01*
Y142598D02*
Y152598D01*
X273130Y147598D02*
X283130D01*
M02*
