G04*
G04 #@! TF.GenerationSoftware,Altium Limited,Altium Designer,23.0.1 (38)*
G04*
G04 Layer_Color=16711935*
%FSLAX44Y44*%
%MOMM*%
G71*
G04*
G04 #@! TF.SameCoordinates,AA057BD2-FAE9-475E-A33E-1B252B641246*
G04*
G04*
G04 #@! TF.FilePolarity,Positive*
G04*
G01*
G75*
%ADD12C,0.2540*%
%ADD101C,0.1524*%
D12*
X599440Y284480D02*
X604520Y269240D01*
X594360D02*
X599440Y284480D01*
X594360Y16420D02*
X599440Y1180D01*
X604520Y16420D01*
X599440Y152903D02*
Y284480D01*
Y1180D02*
Y129540D01*
X509270Y284480D02*
X601980D01*
X509270Y1180D02*
X601980D01*
X0Y365760D02*
X15240Y370840D01*
X0Y365760D02*
X15240Y360680D01*
X502920D02*
X518160Y365760D01*
X502920Y370840D02*
X518160Y365760D01*
X0D02*
X210325D01*
X299707D02*
X518160D01*
X0Y275590D02*
Y368300D01*
X518160Y275590D02*
Y368300D01*
D101*
X570481Y133604D02*
X560324D01*
X570481Y143761D01*
Y146300D01*
X567942Y148839D01*
X562863D01*
X560324Y146300D01*
X575559D02*
X578098Y148839D01*
X583177D01*
X585716Y146300D01*
Y143761D01*
X583177Y141222D01*
X585716Y138682D01*
Y136143D01*
X583177Y133604D01*
X578098D01*
X575559Y136143D01*
Y138682D01*
X578098Y141222D01*
X575559Y143761D01*
Y146300D01*
X578098Y141222D02*
X583177D01*
X590794Y133604D02*
Y136143D01*
X593333D01*
Y133604D01*
X590794D01*
X603490Y146300D02*
X606029Y148839D01*
X611108D01*
X613647Y146300D01*
Y143761D01*
X611108Y141222D01*
X608568D01*
X611108D01*
X613647Y138682D01*
Y136143D01*
X611108Y133604D01*
X606029D01*
X603490Y136143D01*
X618725Y133604D02*
Y143761D01*
X621264D01*
X623803Y141222D01*
Y133604D01*
Y141222D01*
X626343Y143761D01*
X628882Y141222D01*
Y133604D01*
X633960D02*
Y143761D01*
X636499D01*
X639039Y141222D01*
Y133604D01*
Y141222D01*
X641578Y143761D01*
X644117Y141222D01*
Y133604D01*
X224546Y371853D02*
X214389D01*
Y364236D01*
X219468Y366775D01*
X222007D01*
X224546Y364236D01*
Y359158D01*
X222007Y356618D01*
X216928D01*
X214389Y359158D01*
X229624Y356618D02*
X234703D01*
X232163D01*
Y371853D01*
X229624Y369314D01*
X242320Y356618D02*
Y359158D01*
X244859D01*
Y356618D01*
X242320D01*
X255016Y369314D02*
X257555Y371853D01*
X262633D01*
X265173Y369314D01*
Y366775D01*
X262633Y364236D01*
X265173Y361697D01*
Y359158D01*
X262633Y356618D01*
X257555D01*
X255016Y359158D01*
Y361697D01*
X257555Y364236D01*
X255016Y366775D01*
Y369314D01*
X257555Y364236D02*
X262633D01*
X270251Y356618D02*
Y366775D01*
X272790D01*
X275329Y364236D01*
Y356618D01*
Y364236D01*
X277869Y366775D01*
X280408Y364236D01*
Y356618D01*
X285486D02*
Y366775D01*
X288025D01*
X290564Y364236D01*
Y356618D01*
Y364236D01*
X293104Y366775D01*
X295643Y364236D01*
Y356618D01*
M02*
