G04*
G04 #@! TF.GenerationSoftware,Altium Limited,Altium Designer,23.0.1 (38)*
G04*
G04 Layer_Color=128*
%FSLAX44Y44*%
%MOMM*%
G71*
G04*
G04 #@! TF.SameCoordinates,AA057BD2-FAE9-475E-A33E-1B252B641246*
G04*
G04*
G04 #@! TF.FilePolarity,Positive*
G04*
G01*
G75*
%ADD104C,0.1270*%
D104*
X483014Y26670D02*
X503014D01*
X493014Y16670D02*
Y36670D01*
X483124Y35560D02*
X485124D01*
X484124Y34560D02*
Y36560D01*
X492014Y13970D02*
X494014D01*
X493014Y12970D02*
Y14970D01*
X483124Y17780D02*
X485124D01*
X484124Y16780D02*
Y18780D01*
X500904Y35560D02*
X502904D01*
X501904Y34560D02*
Y36560D01*
X504714Y26670D02*
X506714D01*
X505714Y25670D02*
Y27670D01*
X492014Y39370D02*
X494014D01*
X493014Y38370D02*
Y40370D01*
X500904Y17780D02*
X502904D01*
X501904Y16780D02*
Y18780D01*
X479314Y26670D02*
X481314D01*
X480314Y25670D02*
Y27670D01*
X15280Y26670D02*
X35280D01*
X25280Y16670D02*
Y36670D01*
X483014Y259340D02*
X503014D01*
X493014Y249340D02*
Y269340D01*
X89996Y259100D02*
X109996D01*
X99996Y249100D02*
Y269100D01*
X90186Y267970D02*
X92186D01*
X91186Y266970D02*
Y268970D01*
X99076Y246380D02*
X101076D01*
X100076Y245380D02*
Y247380D01*
X90186Y250190D02*
X92186D01*
X91186Y249190D02*
Y251190D01*
X86376Y259080D02*
X88376D01*
X87376Y258080D02*
Y260080D01*
X107966Y267970D02*
X109966D01*
X108966Y266970D02*
Y268970D01*
X111776Y259080D02*
X113776D01*
X112776Y258080D02*
Y260080D01*
X99076Y271780D02*
X101076D01*
X100076Y270780D02*
Y272780D01*
X107966Y250190D02*
X109966D01*
X108966Y249190D02*
Y251190D01*
X36846Y26416D02*
X38846D01*
X37846Y25416D02*
Y27416D01*
X500904Y250444D02*
X502904D01*
X501904Y249444D02*
Y251444D01*
X492014Y272034D02*
X494014D01*
X493014Y271034D02*
Y273034D01*
X504714Y259334D02*
X506714D01*
X505714Y258334D02*
Y260334D01*
X500904Y268224D02*
X502904D01*
X501904Y267224D02*
Y269224D01*
X479314Y259334D02*
X481314D01*
X480314Y258334D02*
Y260334D01*
X483124Y250444D02*
X485124D01*
X484124Y249444D02*
Y251444D01*
X492014Y246634D02*
X494014D01*
X493014Y245634D02*
Y247634D01*
X483124Y268224D02*
X485124D01*
X484124Y267224D02*
Y269224D01*
X15156Y35256D02*
X17156D01*
X16156Y34256D02*
Y36256D01*
X24280Y13716D02*
X26280D01*
X25280Y12716D02*
Y14716D01*
X15256Y17526D02*
X17256D01*
X16256Y16526D02*
Y18526D01*
X11446Y26670D02*
X13446D01*
X12446Y25670D02*
Y27670D01*
X33850Y35270D02*
X35850D01*
X34850Y34270D02*
Y36270D01*
X24280Y39206D02*
X26280D01*
X25280Y38206D02*
Y40206D01*
X33036Y17526D02*
X35036D01*
X34036Y16526D02*
Y18526D01*
X181548Y151638D02*
X205548D01*
X193548Y139638D02*
Y163638D01*
X181548Y183388D02*
X205548D01*
X193548Y171388D02*
Y195388D01*
X232348Y183388D02*
X256348D01*
X244348Y171388D02*
Y195388D01*
X232348Y151638D02*
X256348D01*
X244348Y139638D02*
Y163638D01*
X213613Y183388D02*
X224283D01*
X218948Y178053D02*
Y188723D01*
X223773Y132588D02*
X234443D01*
X229108Y127253D02*
Y137923D01*
X203453Y132588D02*
X214123D01*
X208788Y127253D02*
Y137923D01*
X21739Y171430D02*
X27739D01*
X24739Y168430D02*
Y174430D01*
X21739Y257830D02*
X27739D01*
X24739Y254830D02*
Y260830D01*
X58289Y185730D02*
X64789D01*
X61539Y182480D02*
Y188980D01*
X58289Y243530D02*
X64789D01*
X61539Y240280D02*
Y246780D01*
X63539Y257830D02*
X69539D01*
X66539Y254830D02*
Y260830D01*
X63539Y171430D02*
X69539D01*
X66539Y168430D02*
Y174430D01*
X204830Y264875D02*
X207830D01*
X206330Y263375D02*
Y266375D01*
X179830Y264875D02*
X182830D01*
X181330Y263375D02*
Y266375D01*
X424712Y22774D02*
X427712D01*
X426212Y21274D02*
Y24274D01*
X323112Y22774D02*
X326112D01*
X324612Y21274D02*
Y24274D01*
X97814Y186436D02*
X100814D01*
X99314Y184936D02*
Y187936D01*
X88375Y87927D02*
X91375D01*
X89875Y86427D02*
Y89427D01*
X113375Y87927D02*
X116375D01*
X114875Y86427D02*
Y89427D01*
X402356Y208280D02*
X404856D01*
X403606Y207030D02*
Y209530D01*
X390422Y182118D02*
X393422D01*
X391922Y180618D02*
Y183618D01*
X305720Y99822D02*
X308720D01*
X307220Y98322D02*
Y101322D01*
X271042Y119178D02*
X274042D01*
X272542Y117678D02*
Y120678D01*
X393216Y22774D02*
X396216D01*
X394716Y21274D02*
Y24274D01*
X466663Y264875D02*
X469663D01*
X468163Y263375D02*
Y266375D01*
X399584Y264875D02*
X402584D01*
X401084Y263375D02*
Y266375D01*
X374584Y264875D02*
X377584D01*
X376084Y263375D02*
Y266375D01*
X399994Y244894D02*
X402994D01*
X401494Y243394D02*
Y246394D01*
X396260Y219360D02*
X398760D01*
X397510Y218110D02*
Y220610D01*
X422426Y215900D02*
X425426D01*
X423926Y214400D02*
Y217400D01*
X424584Y264875D02*
X427584D01*
X426084Y263375D02*
Y266375D01*
X327684Y205994D02*
X330684D01*
X329184Y204494D02*
Y207494D01*
X305586Y205994D02*
X308586D01*
X307086Y204494D02*
Y207494D01*
X338606Y193294D02*
X341606D01*
X340106Y191794D02*
Y194794D01*
X317778Y193294D02*
X320778D01*
X319278Y191794D02*
Y194794D01*
X417092Y185166D02*
X420092D01*
X418592Y183666D02*
Y186666D01*
X305586Y184150D02*
X308586D01*
X307086Y182650D02*
Y185650D01*
X349528Y184150D02*
X352528D01*
X351028Y182650D02*
Y185650D01*
X375072Y182118D02*
X377572D01*
X376322Y180868D02*
Y183368D01*
X402106Y175134D02*
X405106D01*
X403606Y173634D02*
Y176634D01*
X338606Y172212D02*
X341606D01*
X340106Y170712D02*
Y173712D01*
X317778Y172212D02*
X320778D01*
X319278Y170712D02*
Y173712D01*
X280630Y163576D02*
X283630D01*
X282130Y162076D02*
Y165076D01*
X305586Y162052D02*
X308586D01*
X307086Y160552D02*
Y163552D01*
X349528Y162052D02*
X352528D01*
X351028Y160552D02*
Y163552D01*
X327684Y162052D02*
X330684D01*
X329184Y160552D02*
Y163552D01*
X495625Y156330D02*
X498625D01*
X497125Y154830D02*
Y157830D01*
X495625Y131330D02*
X498625D01*
X497125Y129830D02*
Y132830D01*
X495625Y106330D02*
X498625D01*
X497125Y104830D02*
Y107830D01*
X495625Y81330D02*
X498625D01*
X497125Y79830D02*
Y82830D01*
X445434Y43688D02*
X448434D01*
X446934Y42188D02*
Y45188D01*
X400434Y40132D02*
X403434D01*
X401934Y38632D02*
Y41632D01*
X453160Y22774D02*
X456160D01*
X454660Y21274D02*
Y24274D01*
X495625Y56330D02*
X498625D01*
X497125Y54830D02*
Y57830D01*
X373845Y108420D02*
X376845D01*
X375345Y106920D02*
Y109920D01*
X372642Y89662D02*
X375642D01*
X374142Y88162D02*
Y91162D01*
X370543Y118420D02*
X373543D01*
X372043Y116920D02*
Y119920D01*
X353300Y22774D02*
X356300D01*
X354800Y21274D02*
Y24274D01*
X348325Y97418D02*
X351325D01*
X349825Y95918D02*
Y98918D01*
X346426Y37846D02*
X349426D01*
X347926Y36346D02*
Y39346D01*
X342969Y84836D02*
X345969D01*
X344469Y83336D02*
Y86336D01*
X336066Y109220D02*
X339066D01*
X337566Y107720D02*
Y110720D01*
X331426Y84836D02*
X334426D01*
X332926Y83336D02*
Y86336D01*
X375182Y156972D02*
X378182D01*
X376682Y155472D02*
Y158472D01*
X301426Y37846D02*
X304426D01*
X302926Y36346D02*
Y39346D01*
X293864Y22774D02*
X296864D01*
X295364Y21274D02*
Y24274D01*
X290720Y99822D02*
X293720D01*
X292220Y98322D02*
Y101322D01*
X280630Y139446D02*
X283630D01*
X282130Y137946D02*
Y140946D01*
X254830Y264875D02*
X257830D01*
X256330Y263375D02*
Y266375D01*
X229830Y264875D02*
X232830D01*
X231330Y263375D02*
Y266375D01*
X154830Y264875D02*
X157830D01*
X156330Y263375D02*
Y266375D01*
X129830Y264875D02*
X132830D01*
X131330Y263375D02*
Y266375D01*
X254830Y239875D02*
X257830D01*
X256330Y238375D02*
Y241375D01*
X204830Y239875D02*
X207830D01*
X206330Y238375D02*
Y241375D01*
X229830Y239875D02*
X232830D01*
X231330Y238375D02*
Y241375D01*
X179830Y239875D02*
X182830D01*
X181330Y238375D02*
Y241375D01*
X154830Y239875D02*
X157830D01*
X156330Y238375D02*
Y241375D01*
X205866Y198780D02*
X208866D01*
X207366Y197280D02*
Y200280D01*
X171220Y193548D02*
X174220D01*
X172720Y192048D02*
Y195048D01*
X269772Y185420D02*
X272772D01*
X271272Y183920D02*
Y186920D01*
X261136Y185166D02*
X264136D01*
X262636Y183666D02*
Y186666D01*
X161314Y184150D02*
X164314D01*
X162814Y182650D02*
Y185650D01*
X148614Y176022D02*
X151614D01*
X150114Y174522D02*
Y177522D01*
X169442Y162814D02*
X172442D01*
X170942Y161314D02*
Y164314D01*
X158774Y144780D02*
X161774D01*
X160274Y143280D02*
Y146280D01*
X270026Y139954D02*
X273026D01*
X271526Y138454D02*
Y141454D01*
X135254Y134620D02*
X138254D01*
X136754Y133120D02*
Y136120D01*
X194588Y126746D02*
X197588D01*
X196088Y125246D02*
Y128246D01*
X171474Y123190D02*
X174474D01*
X172974Y121690D02*
Y124690D01*
X23500Y275000D02*
X26500D01*
X25000Y273500D02*
Y276500D01*
X48500Y275000D02*
X51500D01*
X50000Y273500D02*
Y276500D01*
X81050Y246380D02*
X84050D01*
X82550Y244880D02*
Y247880D01*
X106196Y227330D02*
X109196D01*
X107696Y225830D02*
Y228830D01*
X23500Y225000D02*
X26500D01*
X25000Y223500D02*
Y226500D01*
X109470Y209296D02*
X112470D01*
X110970Y207796D02*
Y210796D01*
X23500Y200000D02*
X26500D01*
X25000Y198500D02*
Y201500D01*
X110070Y184314D02*
X113070D01*
X111570Y182814D02*
Y185814D01*
X84352Y172212D02*
X87352D01*
X85852Y170712D02*
Y173712D01*
X109150Y153924D02*
X112150D01*
X110650Y152424D02*
Y155424D01*
X91464Y144018D02*
X94464D01*
X92964Y142518D02*
Y145518D01*
X64666Y143977D02*
X67666D01*
X66166Y142477D02*
Y145477D01*
X14666Y143977D02*
X17666D01*
X16166Y142477D02*
Y145477D01*
X39666Y143977D02*
X42666D01*
X41166Y142477D02*
Y145477D01*
X217448Y122988D02*
X220448D01*
X218948Y121488D02*
Y124488D01*
X247928Y119178D02*
X250928D01*
X249428Y117678D02*
Y120678D01*
X164108Y109173D02*
X167108D01*
X165608Y107673D02*
Y110673D01*
X192556Y109173D02*
X195556D01*
X194056Y107673D02*
Y110673D01*
X131342Y108458D02*
X134342D01*
X132842Y106958D02*
Y109958D01*
X100608Y107950D02*
X103608D01*
X102108Y106450D02*
Y109450D01*
X176300Y76200D02*
X179300D01*
X177800Y74700D02*
Y77700D01*
X112890Y69580D02*
X115890D01*
X114390Y68080D02*
Y71080D01*
X88375Y68670D02*
X91375D01*
X89875Y67170D02*
Y70170D01*
X150138Y66040D02*
X153138D01*
X151638Y64540D02*
Y67540D01*
X176300Y63882D02*
X179300D01*
X177800Y62382D02*
Y65382D01*
X163600Y43670D02*
X166600D01*
X165100Y42170D02*
Y45170D01*
X88375Y43670D02*
X91375D01*
X89875Y42170D02*
Y45170D01*
X248292Y38100D02*
X251292D01*
X249792Y36600D02*
Y39600D01*
X233292Y38100D02*
X236292D01*
X234792Y36600D02*
Y39600D01*
X203366Y38100D02*
X206366D01*
X204866Y36600D02*
Y39600D01*
X255764Y22774D02*
X258764D01*
X257264Y21274D02*
Y24274D01*
X225830Y22774D02*
X228830D01*
X227330Y21274D02*
Y24274D01*
X195312Y22774D02*
X198312D01*
X196812Y21274D02*
Y24274D01*
X163600Y18670D02*
X166600D01*
X165100Y17170D02*
Y20170D01*
X88375Y18670D02*
X91375D01*
X89875Y17170D02*
Y20170D01*
X114388Y13304D02*
X117388D01*
X115888Y11804D02*
Y14804D01*
X153186Y13208D02*
X156186D01*
X154686Y11708D02*
Y14708D01*
X87752Y121106D02*
X90752D01*
X89252Y119606D02*
Y122606D01*
X63375Y43670D02*
X66375D01*
X64875Y42170D02*
Y45170D01*
X63375Y68670D02*
X66375D01*
X64875Y67170D02*
Y70170D01*
X54094Y86868D02*
X57094D01*
X55594Y85368D02*
Y88368D01*
X33948Y59436D02*
X36948D01*
X35448Y57936D02*
Y60936D01*
X21106Y85344D02*
X24106D01*
X22606Y83844D02*
Y86844D01*
X445625Y156330D02*
X448625D01*
X447125Y154830D02*
Y157830D01*
X470625Y156330D02*
X473625D01*
X472125Y154830D02*
Y157830D01*
X420625Y156330D02*
X423625D01*
X422125Y154830D02*
Y157830D01*
X445625Y131330D02*
X448625D01*
X447125Y129830D02*
Y132830D01*
X470625Y131330D02*
X473625D01*
X472125Y129830D02*
Y132830D01*
X420625Y131330D02*
X423625D01*
X422125Y129830D02*
Y132830D01*
X470625Y106330D02*
X473625D01*
X472125Y104830D02*
Y107830D01*
X405434Y97790D02*
X408434D01*
X406934Y96290D02*
Y99290D01*
X440434Y97282D02*
X443434D01*
X441934Y95782D02*
Y98782D01*
X471702Y81788D02*
X474702D01*
X473202Y80288D02*
Y83288D01*
X388390Y138430D02*
X391390D01*
X389890Y136930D02*
Y139930D01*
X466663Y237335D02*
X469663D01*
X468163Y235835D02*
Y238835D01*
X446250Y237335D02*
X449250D01*
X447750Y235835D02*
Y238835D01*
X449858Y207518D02*
X452858D01*
X451358Y206018D02*
Y209018D01*
X449858Y186436D02*
X452858D01*
X451358Y184936D02*
Y187936D01*
X432078Y175768D02*
X435078D01*
X433578Y174268D02*
Y177268D01*
X424584Y237335D02*
X427584D01*
X426084Y235835D02*
Y238835D01*
X304824Y275590D02*
X307824D01*
X306324Y274090D02*
Y277090D01*
X282218Y265176D02*
X285218D01*
X283718Y263676D02*
Y266676D01*
X287552Y254000D02*
X290552D01*
X289052Y252500D02*
Y255500D01*
X347242Y246634D02*
X350242D01*
X348742Y245134D02*
Y248134D01*
X347750Y232156D02*
X350750D01*
X349250Y230656D02*
Y233656D01*
X365276Y231394D02*
X368276D01*
X366776Y229894D02*
Y232894D01*
X286536Y231140D02*
X289536D01*
X288036Y229640D02*
Y232640D01*
X349528Y205994D02*
X352528D01*
X351028Y204494D02*
Y207494D01*
X281964Y242570D02*
X284964D01*
X283464Y241070D02*
Y244070D01*
X489482Y236220D02*
X492482D01*
X490982Y234720D02*
Y237720D01*
X488466Y219456D02*
X491466D01*
X489966Y217956D02*
Y220956D01*
X487958Y196650D02*
X490958D01*
X489458Y195150D02*
Y198150D01*
X487958Y172466D02*
X490958D01*
X489458Y170966D02*
Y173966D01*
M02*
