G04*
G04 #@! TF.GenerationSoftware,Altium Limited,Altium Designer,23.0.1 (38)*
G04*
G04 Layer_Color=16711935*
%FSLAX44Y44*%
%MOMM*%
G71*
G04*
G04 #@! TF.SameCoordinates,AA057BD2-FAE9-475E-A33E-1B252B641246*
G04*
G04*
G04 #@! TF.FilePolarity,Positive*
G04*
G01*
G75*
%ADD11C,0.2000*%
%ADD12C,0.2540*%
%ADD102C,0.1000*%
%ADD103C,0.1750*%
%ADD104C,0.1270*%
%ADD105C,0.1500*%
D11*
X367694Y246144D02*
G03*
X367694Y246144I-1000J0D01*
G01*
X443358Y192650D02*
Y200650D01*
X459358D01*
Y192650D02*
Y200650D01*
X443358Y192650D02*
X459358D01*
X389232Y201400D02*
Y211900D01*
X383732Y201400D02*
X389232D01*
X383732D02*
Y211900D01*
X389232D01*
X373424D02*
X378924D01*
X373424Y201400D02*
Y211900D01*
Y201400D02*
X378924D01*
Y211900D01*
X182292Y3274D02*
X272292D01*
X182292D02*
Y63274D01*
X272292D01*
Y3274D02*
Y63274D01*
X370426Y3274D02*
Y63274D01*
X280426D02*
X370426D01*
X280426Y3274D02*
Y63274D01*
Y3274D02*
X370426D01*
X136390Y27656D02*
Y43656D01*
X120390Y27656D02*
X136390D01*
X120390D02*
Y43656D01*
X136390D01*
X123140Y10554D02*
Y16054D01*
Y10554D02*
X133640D01*
Y16054D01*
X123140D02*
X133640D01*
X74310Y111856D02*
X79810D01*
Y122356D01*
X74310D02*
X79810D01*
X74310Y111856D02*
Y122356D01*
X2472Y46106D02*
Y126106D01*
Y46106D02*
X42472D01*
Y126106D01*
X2472D02*
X42472D01*
X379434Y3274D02*
X469434D01*
X379434D02*
Y63274D01*
X469434D01*
Y3274D02*
Y63274D01*
X272140Y189782D02*
Y195282D01*
X261640D02*
X272140D01*
X261640Y189782D02*
Y195282D01*
Y189782D02*
X272140D01*
X-3986Y267130D02*
X18514D01*
X-3986Y162130D02*
Y267130D01*
Y162130D02*
X81014D01*
Y267130D01*
X18514D02*
X81014D01*
X153231Y160064D02*
Y165564D01*
Y160064D02*
X163731D01*
Y165564D01*
X153231D02*
X163731D01*
X139380Y160814D02*
Y178314D01*
X129880Y160814D02*
X139380D01*
X129880D02*
Y178314D01*
X139380D01*
X117900Y175064D02*
X123400D01*
Y185564D01*
X117900D02*
X123400D01*
X117900Y175064D02*
Y185564D01*
X125174Y158814D02*
Y166814D01*
X109174D02*
X125174D01*
X109174Y158814D02*
Y166814D01*
Y158814D02*
X125174D01*
X121550Y144690D02*
X151550D01*
X121550Y127690D02*
Y144690D01*
Y127690D02*
X151550D01*
Y144690D01*
X156274Y121460D02*
X164274D01*
Y137460D01*
X156274D02*
X164274D01*
X156274Y121460D02*
Y137460D01*
X374988Y193130D02*
X385488D01*
Y187630D02*
Y193130D01*
X374988Y187630D02*
X385488D01*
X374988D02*
Y193130D01*
X293930Y149150D02*
Y219150D01*
X363930D01*
Y149150D02*
Y219150D01*
X293930Y149150D02*
X363930D01*
X313180Y238930D02*
X319680D01*
X313180Y228430D02*
Y238930D01*
Y228430D02*
X319680D01*
Y238930D01*
X307680Y228390D02*
Y233890D01*
X297180D02*
X307680D01*
X297180Y228390D02*
Y233890D01*
Y228390D02*
X307680D01*
X324700Y236410D02*
X340700D01*
Y228410D02*
Y236410D01*
X324700Y228410D02*
X340700D01*
X324700D02*
Y236410D01*
X292160Y238570D02*
X308160D01*
X292160D02*
Y246570D01*
X308160D01*
Y238570D02*
Y246570D01*
X307680Y251250D02*
Y256750D01*
X297180D02*
X307680D01*
X297180Y251250D02*
Y256750D01*
Y251250D02*
X307680D01*
X341720Y253354D02*
Y267854D01*
X319720D02*
X341720D01*
X319720Y253354D02*
Y267854D01*
Y253354D02*
X341720D01*
X292160Y261430D02*
X308160D01*
X292160D02*
Y269430D01*
X308160D01*
Y261430D02*
Y269430D01*
X413592Y199150D02*
X423592D01*
Y194150D02*
Y199150D01*
X413592Y194150D02*
X423592D01*
X413592D02*
Y199150D01*
X272880Y153900D02*
X283380D01*
X272880D02*
Y159400D01*
X283380D01*
Y153900D02*
Y159400D01*
Y144847D02*
Y150348D01*
X272880D02*
X283380D01*
X272880Y144847D02*
Y150348D01*
Y144847D02*
X283380D01*
D12*
X226565Y160527D02*
Y165606D01*
Y163066D01*
X213870D01*
X211331Y165606D01*
Y168145D01*
X213870Y170684D01*
X211331Y147831D02*
X226565D01*
X218948Y155449D01*
Y145292D01*
D102*
X499458Y196650D02*
G03*
X499458Y196650I-10000J0D01*
G01*
X476464Y209644D02*
X502454D01*
X476464Y183654D02*
Y209644D01*
Y183654D02*
X502454D01*
Y209644D01*
X125738Y223916D02*
X141978D01*
Y194676D02*
Y223916D01*
X125738Y194676D02*
X141978D01*
X125738D02*
Y223916D01*
Y214416D02*
X135238Y223916D01*
X369144Y181650D02*
X372476D01*
X370810Y183316D02*
Y179984D01*
D103*
X373310Y164650D02*
Y178650D01*
X396310D01*
Y164650D02*
Y178650D01*
X373310Y164650D02*
X396310D01*
X425434Y94122D02*
X448434D01*
X425434Y80122D02*
Y94122D01*
Y80122D02*
X448434D01*
Y94122D01*
X409934Y118942D02*
X423934D01*
Y95942D02*
Y118942D01*
X409934Y95942D02*
X423934D01*
X409934D02*
Y118942D01*
X400434Y80122D02*
X423434D01*
Y94122D01*
X400434D02*
X423434D01*
X400434Y80122D02*
Y94122D01*
X424934Y102442D02*
Y125442D01*
Y102442D02*
X438934D01*
Y125442D01*
X424934D02*
X438934D01*
X130890Y52166D02*
Y66166D01*
X107890Y52166D02*
X130890D01*
X107890D02*
Y66166D01*
X130890D01*
X354375Y101920D02*
X368375D01*
X354375D02*
Y124920D01*
X368375D01*
Y101920D02*
Y124920D01*
X342825Y101920D02*
X356825D01*
X342825D02*
Y124920D01*
X356825D01*
Y101920D02*
Y124920D01*
X237948Y122988D02*
Y192988D01*
X199948Y122988D02*
X237948D01*
X199948D02*
Y192988D01*
X237948D01*
X168285Y102173D02*
Y116173D01*
X191285D01*
Y102173D02*
Y116173D01*
X168285Y102173D02*
X191285D01*
X49094Y106106D02*
Y120106D01*
X72094D01*
Y106106D02*
Y120106D01*
X49094Y106106D02*
X72094D01*
X49094Y90536D02*
Y104536D01*
X72094D01*
Y90536D02*
Y104536D01*
X49094Y90536D02*
X72094D01*
X125890Y59024D02*
X148890D01*
Y73024D01*
X125890D02*
X148890D01*
X125890Y59024D02*
Y73024D01*
X82734Y220130D02*
Y234130D01*
X105734D01*
Y220130D02*
Y234130D01*
X82734Y220130D02*
X105734D01*
X82734Y190104D02*
X105734D01*
Y204104D01*
X82734D02*
X105734D01*
X82734Y190104D02*
Y204104D01*
X410606Y180150D02*
Y203150D01*
X396606D02*
X410606D01*
X396606Y180150D02*
Y203150D01*
Y180150D02*
X410606D01*
X440578D02*
Y203150D01*
X426578D02*
X440578D01*
X426578Y180150D02*
Y203150D01*
Y180150D02*
X440578D01*
X300220Y100260D02*
X314220D01*
X300220D02*
Y123260D01*
X314220D01*
Y100260D02*
Y123260D01*
X382810Y140900D02*
Y163900D01*
Y140900D02*
X396810D01*
Y163900D01*
X382810D02*
X396810D01*
X285220Y100260D02*
X299220D01*
X285220D02*
Y123260D01*
X299220D01*
Y100260D02*
Y123260D01*
X53512Y216296D02*
Y219628D01*
Y217962D01*
X45182D01*
X43516Y219628D01*
Y221294D01*
X45182Y222961D01*
X53512Y206299D02*
X51846Y209632D01*
X48514Y212964D01*
X45182D01*
X43516Y211298D01*
Y207966D01*
X45182Y206299D01*
X46848D01*
X48514Y207966D01*
Y212964D01*
D104*
X374694Y248144D02*
X390694D01*
Y228144D02*
Y248144D01*
X374694Y228144D02*
X390694D01*
X374694D02*
Y248144D01*
X309970Y123540D02*
Y135540D01*
X289470D02*
X309970D01*
X289470Y123540D02*
Y135540D01*
Y123540D02*
X309970D01*
D105*
X376479Y177918D02*
Y167922D01*
X381478D01*
X383144Y169588D01*
Y176252D01*
X381478Y177918D01*
X376479D01*
X386476Y176252D02*
X388142Y177918D01*
X391474D01*
X393141Y176252D01*
Y174586D01*
X391474Y172920D01*
X389808D01*
X391474D01*
X393141Y171254D01*
Y169588D01*
X391474Y167922D01*
X388142D01*
X386476Y169588D01*
X443599Y82124D02*
Y92120D01*
X438600D01*
X436934Y90454D01*
Y83790D01*
X438600Y82124D01*
X443599D01*
X433602Y92120D02*
X430270D01*
X431936D01*
Y82124D01*
X433602Y83790D01*
X411936Y114107D02*
X421932D01*
Y109108D01*
X420266Y107442D01*
X416934D01*
X415268Y109108D01*
Y114107D01*
Y110774D02*
X411936Y107442D01*
Y104110D02*
Y100778D01*
Y102444D01*
X421932D01*
X420266Y104110D01*
X403603Y92120D02*
Y82124D01*
X408602D01*
X410268Y83790D01*
Y90454D01*
X408602Y92120D01*
X403603D01*
X420265Y82124D02*
X413600D01*
X420265Y88788D01*
Y90454D01*
X418599Y92120D01*
X415266D01*
X413600Y90454D01*
X426936Y122273D02*
X436932D01*
Y117274D01*
X435266Y115608D01*
X431934D01*
X430268Y117274D01*
Y122273D01*
Y118940D02*
X426936Y115608D01*
Y105611D02*
Y112276D01*
X433600Y105611D01*
X435266D01*
X436932Y107277D01*
Y110610D01*
X435266Y112276D01*
X127721Y64164D02*
Y54168D01*
X122722D01*
X121056Y55834D01*
Y59166D01*
X122722Y60832D01*
X127721D01*
X124388D02*
X121056Y64164D01*
X117724Y55834D02*
X116058Y54168D01*
X112725D01*
X111059Y55834D01*
Y57500D01*
X112725Y59166D01*
X114391D01*
X112725D01*
X111059Y60832D01*
Y62498D01*
X112725Y64164D01*
X116058D01*
X117724Y62498D01*
X356773Y106756D02*
X355106Y105089D01*
Y101757D01*
X356773Y100091D01*
X363437D01*
X365103Y101757D01*
Y105089D01*
X363437Y106756D01*
X365103Y116752D02*
Y110088D01*
X358439Y116752D01*
X356773D01*
X355106Y115086D01*
Y111754D01*
X356773Y110088D01*
X365103Y125083D02*
X355106D01*
X360105Y120084D01*
Y126749D01*
X342870Y107128D02*
X341204Y105461D01*
Y102129D01*
X342870Y100463D01*
X349534D01*
X351200Y102129D01*
Y105461D01*
X349534Y107128D01*
X351200Y117124D02*
Y110460D01*
X344536Y117124D01*
X342870D01*
X341204Y115458D01*
Y112126D01*
X342870Y110460D01*
Y120456D02*
X341204Y122123D01*
Y125455D01*
X342870Y127121D01*
X344536D01*
X346202Y125455D01*
Y123789D01*
Y125455D01*
X347868Y127121D01*
X349534D01*
X351200Y125455D01*
Y122123D01*
X349534Y120456D01*
X178119Y113775D02*
X176453Y115441D01*
X173120D01*
X171454Y113775D01*
Y107111D01*
X173120Y105445D01*
X176453D01*
X178119Y107111D01*
X188116Y115441D02*
X181451D01*
Y110443D01*
X184783Y112109D01*
X186450D01*
X188116Y110443D01*
Y107111D01*
X186450Y105445D01*
X183117D01*
X181451Y107111D01*
X52263Y108108D02*
Y118104D01*
X57262D01*
X58928Y116438D01*
Y113106D01*
X57262Y111440D01*
X52263D01*
X55596D02*
X58928Y108108D01*
X62260Y116438D02*
X63926Y118104D01*
X67259D01*
X68925Y116438D01*
Y114772D01*
X67259Y113106D01*
X68925Y111440D01*
Y109774D01*
X67259Y108108D01*
X63926D01*
X62260Y109774D01*
Y111440D01*
X63926Y113106D01*
X62260Y114772D01*
Y116438D01*
X63926Y113106D02*
X67259D01*
X52263Y92538D02*
Y102534D01*
X57262D01*
X58928Y100868D01*
Y97536D01*
X57262Y95870D01*
X52263D01*
X55596D02*
X58928Y92538D01*
X62260Y94204D02*
X63926Y92538D01*
X67259D01*
X68925Y94204D01*
Y100868D01*
X67259Y102534D01*
X63926D01*
X62260Y100868D01*
Y99202D01*
X63926Y97536D01*
X68925D01*
X25804Y91104D02*
X27470Y92771D01*
Y96103D01*
X25804Y97769D01*
X24138D01*
X22472Y96103D01*
Y92771D01*
X20806Y91104D01*
X19140D01*
X17474Y92771D01*
Y96103D01*
X19140Y97769D01*
X27470Y87772D02*
X17474D01*
X20806Y84440D01*
X17474Y81108D01*
X27470D01*
X17474Y77775D02*
Y74443D01*
Y76109D01*
X27470D01*
X25804Y77775D01*
X129059Y61026D02*
Y71022D01*
X134058D01*
X135724Y69356D01*
Y66024D01*
X134058Y64358D01*
X129059D01*
X132392D02*
X135724Y61026D01*
X144054D02*
Y71022D01*
X139056Y66024D01*
X145721D01*
X85903Y222132D02*
Y232128D01*
X90902D01*
X92568Y230462D01*
Y227130D01*
X90902Y225464D01*
X85903D01*
X89236D02*
X92568Y222132D01*
X95900Y232128D02*
X102565D01*
Y230462D01*
X95900Y223798D01*
Y222132D01*
X85903Y192106D02*
Y202102D01*
X90902D01*
X92568Y200436D01*
Y197104D01*
X90902Y195438D01*
X85903D01*
X89236D02*
X92568Y192106D01*
X102565Y202102D02*
X99232Y200436D01*
X95900Y197104D01*
Y193772D01*
X97566Y192106D01*
X100899D01*
X102565Y193772D01*
Y195438D01*
X100899Y197104D01*
X95900D01*
X302618Y105928D02*
X300952Y104262D01*
Y100930D01*
X302618Y99264D01*
X309282D01*
X310948Y100930D01*
Y104262D01*
X309282Y105928D01*
X310948Y109261D02*
Y112593D01*
Y110927D01*
X300952D01*
X302618Y109261D01*
X309282Y117591D02*
X310948Y119258D01*
Y122590D01*
X309282Y124256D01*
X302618D01*
X300952Y122590D01*
Y119258D01*
X302618Y117591D01*
X304284D01*
X305950Y119258D01*
Y124256D01*
X287618Y105096D02*
X285951Y103429D01*
Y100097D01*
X287618Y98431D01*
X294282D01*
X295948Y100097D01*
Y103429D01*
X294282Y105096D01*
X295948Y115092D02*
Y108428D01*
X289284Y115092D01*
X287618D01*
X285951Y113426D01*
Y110094D01*
X287618Y108428D01*
Y118425D02*
X285951Y120091D01*
Y123423D01*
X287618Y125089D01*
X294282D01*
X295948Y123423D01*
Y120091D01*
X294282Y118425D01*
X287618D01*
X399004Y189984D02*
X397338Y188318D01*
Y184986D01*
X399004Y183319D01*
X405668D01*
X407334Y184986D01*
Y188318D01*
X405668Y189984D01*
X399004Y193316D02*
X397338Y194982D01*
Y198314D01*
X399004Y199981D01*
X400670D01*
X402336Y198314D01*
Y196648D01*
Y198314D01*
X404002Y199981D01*
X405668D01*
X407334Y198314D01*
Y194982D01*
X405668Y193316D01*
X428976Y189984D02*
X427310Y188318D01*
Y184986D01*
X428976Y183319D01*
X435640D01*
X437306Y184986D01*
Y188318D01*
X435640Y189984D01*
X437306Y198314D02*
X427310D01*
X432308Y193316D01*
Y199981D01*
X384812Y160731D02*
X394808D01*
Y155732D01*
X393142Y154066D01*
X389810D01*
X388144Y155732D01*
Y160731D01*
Y157398D02*
X384812Y154066D01*
X394808Y144069D02*
Y150734D01*
X389810D01*
X391476Y147402D01*
Y145736D01*
X389810Y144069D01*
X386478D01*
X384812Y145736D01*
Y149068D01*
X386478Y150734D01*
M02*
