G04*
G04 #@! TF.GenerationSoftware,Altium Limited,Altium Designer,23.0.1 (38)*
G04*
G04 Layer_Physical_Order=3*
G04 Layer_Color=16440176*
%FSLAX44Y44*%
%MOMM*%
G71*
G04*
G04 #@! TF.SameCoordinates,AA057BD2-FAE9-475E-A33E-1B252B641246*
G04*
G04*
G04 #@! TF.FilePolarity,Positive*
G04*
G01*
G75*
%ADD93O,3.0000X3.0480*%
%ADD94C,3.0000*%
%ADD95C,2.4000*%
%ADD96C,1.0670*%
%ADD97O,1.8000X1.0000*%
%ADD98C,0.6500*%
%ADD99O,2.1000X1.0000*%
%ADD100C,0.7000*%
G36*
X508019Y281331D02*
X510404Y280343D01*
X512452Y278771D01*
X514023Y276724D01*
X515011Y274339D01*
X515163Y273181D01*
X515080Y273056D01*
X514826Y271780D01*
Y13970D01*
X515080Y12694D01*
X515173Y12554D01*
X515011Y11321D01*
X514023Y8936D01*
X512452Y6888D01*
X510404Y5317D01*
X508019Y4329D01*
X506861Y4177D01*
X506736Y4260D01*
X505460Y4514D01*
X12700Y4514D01*
X11424Y4260D01*
X11299Y4177D01*
X10141Y4329D01*
X7756Y5317D01*
X5708Y6888D01*
X4137Y8936D01*
X3149Y11321D01*
X2987Y12554D01*
X3080Y12694D01*
X3334Y13970D01*
Y271780D01*
X3080Y273056D01*
X2997Y273181D01*
X3149Y274339D01*
X4137Y276724D01*
X5708Y278771D01*
X7756Y280343D01*
X10141Y281331D01*
X11299Y281483D01*
X11424Y281400D01*
X12700Y281146D01*
X505460Y281146D01*
X506736Y281400D01*
X506861Y281483D01*
X508019Y281331D01*
D02*
G37*
%LPC*%
G36*
X306921Y278590D02*
X305727D01*
X304625Y278133D01*
X303781Y277289D01*
X303324Y276187D01*
Y274993D01*
X303781Y273891D01*
X304625Y273047D01*
X305727Y272590D01*
X306921D01*
X308023Y273047D01*
X308867Y273891D01*
X309324Y274993D01*
Y276187D01*
X308867Y277289D01*
X308023Y278133D01*
X306921Y278590D01*
D02*
G37*
G36*
X72039Y264386D02*
X61039D01*
X59342Y264163D01*
X57761Y263508D01*
X56403Y262466D01*
X55361Y261108D01*
X54706Y259527D01*
X54483Y257830D01*
X54706Y256133D01*
X55361Y254552D01*
X56403Y253194D01*
X57761Y252152D01*
X59342Y251497D01*
X61039Y251274D01*
X72039D01*
X73736Y251497D01*
X75317Y252152D01*
X76675Y253194D01*
X77717Y254552D01*
X78372Y256133D01*
X78595Y257830D01*
X78372Y259527D01*
X77717Y261108D01*
X76675Y262466D01*
X75317Y263508D01*
X73736Y264163D01*
X72039Y264386D01*
D02*
G37*
G36*
X28739D02*
X20739D01*
X19042Y264163D01*
X17461Y263508D01*
X16103Y262466D01*
X15061Y261108D01*
X14406Y259527D01*
X14183Y257830D01*
X14406Y256133D01*
X15061Y254552D01*
X16103Y253194D01*
X17461Y252152D01*
X19042Y251497D01*
X20739Y251274D01*
X28739D01*
X30436Y251497D01*
X32017Y252152D01*
X33375Y253194D01*
X34417Y254552D01*
X35072Y256133D01*
X35295Y257830D01*
X35072Y259527D01*
X34417Y261108D01*
X33375Y262466D01*
X32017Y263508D01*
X30436Y264163D01*
X28739Y264386D01*
D02*
G37*
G36*
X62484Y248280D02*
X60594D01*
X58848Y247557D01*
X57512Y246221D01*
X56789Y244475D01*
Y242585D01*
X57512Y240839D01*
X58848Y239503D01*
X60594Y238780D01*
X62484D01*
X64230Y239503D01*
X65566Y240839D01*
X66289Y242585D01*
Y244475D01*
X65566Y246221D01*
X64230Y247557D01*
X62484Y248280D01*
D02*
G37*
G36*
X398057Y222110D02*
X396963D01*
X395952Y221691D01*
X395179Y220918D01*
X394760Y219907D01*
Y218813D01*
X395179Y217802D01*
X395952Y217029D01*
X396963Y216610D01*
X398057D01*
X399068Y217029D01*
X399841Y217802D01*
X400260Y218813D01*
Y219907D01*
X399841Y220918D01*
X399068Y221691D01*
X398057Y222110D01*
D02*
G37*
G36*
X207963Y201780D02*
X206770D01*
X205667Y201323D01*
X204823Y200479D01*
X204366Y199376D01*
Y198183D01*
X204823Y197080D01*
X205667Y196236D01*
X206770Y195780D01*
X207963D01*
X209066Y196236D01*
X209910Y197080D01*
X210366Y198183D01*
Y199376D01*
X209910Y200479D01*
X209066Y201323D01*
X207963Y201780D01*
D02*
G37*
G36*
X271869Y188420D02*
X270675D01*
X269573Y187963D01*
X268729Y187119D01*
X268272Y186017D01*
Y184823D01*
X268729Y183721D01*
X269573Y182877D01*
X270675Y182420D01*
X271869D01*
X272971Y182877D01*
X273815Y183721D01*
X274272Y184823D01*
Y186017D01*
X273815Y187119D01*
X272971Y187963D01*
X271869Y188420D01*
D02*
G37*
G36*
X62484Y190480D02*
X60594D01*
X58848Y189757D01*
X57512Y188421D01*
X56789Y186675D01*
Y184785D01*
X57512Y183039D01*
X58848Y181703D01*
X60594Y180980D01*
X62484D01*
X64230Y181703D01*
X65566Y183039D01*
X66289Y184785D01*
Y186675D01*
X65566Y188421D01*
X64230Y189757D01*
X62484Y190480D01*
D02*
G37*
G36*
X376869Y184868D02*
X375775D01*
X374764Y184449D01*
X373991Y183676D01*
X373572Y182665D01*
Y181571D01*
X373991Y180560D01*
X374764Y179787D01*
X375775Y179368D01*
X376869D01*
X377880Y179787D01*
X378653Y180560D01*
X379072Y181571D01*
Y182665D01*
X378653Y183676D01*
X377880Y184449D01*
X376869Y184868D01*
D02*
G37*
G36*
X219848Y190223D02*
X218048D01*
X216310Y189757D01*
X214751Y188857D01*
X213479Y187585D01*
X212579Y186026D01*
X212113Y184288D01*
Y182488D01*
X212579Y180750D01*
X213479Y179191D01*
X214751Y177919D01*
X216310Y177019D01*
X218048Y176553D01*
X219848D01*
X221586Y177019D01*
X223145Y177919D01*
X224417Y179191D01*
X225317Y180750D01*
X225783Y182488D01*
Y184288D01*
X225317Y186026D01*
X224417Y187585D01*
X223145Y188857D01*
X221586Y189757D01*
X219848Y190223D01*
D02*
G37*
G36*
X246125Y196888D02*
X242571D01*
X239137Y195968D01*
X236059Y194191D01*
X233545Y191677D01*
X231768Y188599D01*
X230848Y185165D01*
Y181611D01*
X231768Y178177D01*
X233545Y175099D01*
X236059Y172585D01*
X239137Y170808D01*
X242571Y169888D01*
X246125D01*
X249559Y170808D01*
X252637Y172585D01*
X255151Y175099D01*
X256928Y178177D01*
X257848Y181611D01*
Y185165D01*
X256928Y188599D01*
X255151Y191677D01*
X252637Y194191D01*
X249559Y195968D01*
X246125Y196888D01*
D02*
G37*
G36*
X195325D02*
X191771D01*
X188337Y195968D01*
X185259Y194191D01*
X182745Y191677D01*
X180968Y188599D01*
X180048Y185165D01*
Y181611D01*
X180968Y178177D01*
X182745Y175099D01*
X185259Y172585D01*
X188337Y170808D01*
X191771Y169888D01*
X195325D01*
X198759Y170808D01*
X201837Y172585D01*
X204351Y175099D01*
X206128Y178177D01*
X207048Y181611D01*
Y185165D01*
X206128Y188599D01*
X204351Y191677D01*
X201837Y194191D01*
X198759Y195968D01*
X195325Y196888D01*
D02*
G37*
G36*
X72039Y177986D02*
X61039D01*
X59342Y177763D01*
X57761Y177108D01*
X56403Y176066D01*
X55361Y174708D01*
X54706Y173127D01*
X54483Y171430D01*
X54706Y169733D01*
X55361Y168152D01*
X56403Y166794D01*
X57761Y165752D01*
X59342Y165097D01*
X61039Y164874D01*
X72039D01*
X73736Y165097D01*
X75317Y165752D01*
X76675Y166794D01*
X77717Y168152D01*
X78372Y169733D01*
X78595Y171430D01*
X78372Y173127D01*
X77717Y174708D01*
X76675Y176066D01*
X75317Y177108D01*
X73736Y177763D01*
X72039Y177986D01*
D02*
G37*
G36*
X28739D02*
X20739D01*
X19042Y177763D01*
X17461Y177108D01*
X16103Y176066D01*
X15061Y174708D01*
X14406Y173127D01*
X14183Y171430D01*
X14406Y169733D01*
X15061Y168152D01*
X16103Y166794D01*
X17461Y165752D01*
X19042Y165097D01*
X20739Y164874D01*
X28739D01*
X30436Y165097D01*
X32017Y165752D01*
X33375Y166794D01*
X34417Y168152D01*
X35072Y169733D01*
X35295Y171430D01*
X35072Y173127D01*
X34417Y174708D01*
X33375Y176066D01*
X32017Y177108D01*
X30436Y177763D01*
X28739Y177986D01*
D02*
G37*
G36*
X282727Y166576D02*
X281533D01*
X280431Y166119D01*
X279587Y165275D01*
X279130Y164173D01*
Y162979D01*
X279587Y161877D01*
X280431Y161033D01*
X281533Y160576D01*
X282727D01*
X283829Y161033D01*
X284673Y161877D01*
X285130Y162979D01*
Y164173D01*
X284673Y165275D01*
X283829Y166119D01*
X282727Y166576D01*
D02*
G37*
G36*
X246125Y165138D02*
X242571D01*
X239137Y164218D01*
X236059Y162441D01*
X233545Y159927D01*
X231768Y156849D01*
X230848Y153415D01*
Y149861D01*
X231768Y146427D01*
X233545Y143349D01*
X236059Y140835D01*
X239137Y139058D01*
X242571Y138138D01*
X246125D01*
X249559Y139058D01*
X252637Y140835D01*
X255151Y143349D01*
X256928Y146427D01*
X257848Y149861D01*
Y153415D01*
X256928Y156849D01*
X255151Y159927D01*
X252637Y162441D01*
X249559Y164218D01*
X246125Y165138D01*
D02*
G37*
G36*
X195325D02*
X191771D01*
X188337Y164218D01*
X185259Y162441D01*
X182745Y159927D01*
X180968Y156849D01*
X180048Y153415D01*
Y149861D01*
X180968Y146427D01*
X182745Y143349D01*
X185259Y140835D01*
X188337Y139058D01*
X191771Y138138D01*
X195325D01*
X198759Y139058D01*
X201837Y140835D01*
X204351Y143349D01*
X206128Y146427D01*
X207048Y149861D01*
Y153415D01*
X206128Y156849D01*
X204351Y159927D01*
X201837Y162441D01*
X198759Y164218D01*
X195325Y165138D01*
D02*
G37*
G36*
X282727Y142446D02*
X281533D01*
X280431Y141989D01*
X279587Y141145D01*
X279130Y140043D01*
Y138849D01*
X279587Y137747D01*
X280431Y136903D01*
X281533Y136446D01*
X282727D01*
X283829Y136903D01*
X284673Y137747D01*
X285130Y138849D01*
Y140043D01*
X284673Y141145D01*
X283829Y141989D01*
X282727Y142446D01*
D02*
G37*
G36*
X230008Y139423D02*
X228208D01*
X226470Y138957D01*
X224911Y138057D01*
X223639Y136785D01*
X222739Y135226D01*
X222273Y133488D01*
Y131688D01*
X222739Y129950D01*
X223639Y128391D01*
X224911Y127119D01*
X226470Y126219D01*
X228208Y125753D01*
X230008D01*
X231746Y126219D01*
X233305Y127119D01*
X234577Y128391D01*
X235477Y129950D01*
X235943Y131688D01*
Y133488D01*
X235477Y135226D01*
X234577Y136785D01*
X233305Y138057D01*
X231746Y138957D01*
X230008Y139423D01*
D02*
G37*
G36*
X209688D02*
X207888D01*
X206150Y138957D01*
X204591Y138057D01*
X203319Y136785D01*
X202419Y135226D01*
X201953Y133488D01*
Y131688D01*
X202419Y129950D01*
X203319Y128391D01*
X204591Y127119D01*
X206150Y126219D01*
X207888Y125753D01*
X209688D01*
X211426Y126219D01*
X212985Y127119D01*
X214257Y128391D01*
X215157Y129950D01*
X215623Y131688D01*
Y133488D01*
X215157Y135226D01*
X214257Y136785D01*
X212985Y138057D01*
X211426Y138957D01*
X209688Y139423D01*
D02*
G37*
G36*
X173571Y126190D02*
X172377D01*
X171275Y125733D01*
X170431Y124889D01*
X169974Y123787D01*
Y122593D01*
X170431Y121491D01*
X171275Y120647D01*
X172377Y120190D01*
X173571D01*
X174673Y120647D01*
X175517Y121491D01*
X175974Y122593D01*
Y123787D01*
X175517Y124889D01*
X174673Y125733D01*
X173571Y126190D01*
D02*
G37*
G36*
X372640Y121420D02*
X371446D01*
X370344Y120963D01*
X369500Y120119D01*
X369043Y119017D01*
Y117823D01*
X369500Y116721D01*
X370344Y115877D01*
X371446Y115420D01*
X372640D01*
X373742Y115877D01*
X374586Y116721D01*
X375043Y117823D01*
Y119017D01*
X374586Y120119D01*
X373742Y120963D01*
X372640Y121420D01*
D02*
G37*
G36*
X338163Y112220D02*
X336969D01*
X335867Y111763D01*
X335023Y110919D01*
X334566Y109817D01*
Y108623D01*
X335023Y107521D01*
X335867Y106677D01*
X336969Y106220D01*
X338163D01*
X339265Y106677D01*
X340109Y107521D01*
X340566Y108623D01*
Y109817D01*
X340109Y110919D01*
X339265Y111763D01*
X338163Y112220D01*
D02*
G37*
G36*
X194653Y112173D02*
X193459D01*
X192357Y111716D01*
X191513Y110872D01*
X191056Y109770D01*
Y108576D01*
X191513Y107474D01*
X192357Y106630D01*
X193459Y106173D01*
X194653D01*
X195755Y106630D01*
X196599Y107474D01*
X197056Y108576D01*
Y109770D01*
X196599Y110872D01*
X195755Y111716D01*
X194653Y112173D01*
D02*
G37*
G36*
X333523Y87836D02*
X332329D01*
X331227Y87379D01*
X330383Y86535D01*
X329926Y85433D01*
Y84239D01*
X330383Y83137D01*
X331227Y82293D01*
X332329Y81836D01*
X333523D01*
X334625Y82293D01*
X335469Y83137D01*
X335926Y84239D01*
Y85433D01*
X335469Y86535D01*
X334625Y87379D01*
X333523Y87836D01*
D02*
G37*
G36*
X178397Y79200D02*
X177203D01*
X176101Y78743D01*
X175257Y77899D01*
X174800Y76797D01*
Y75603D01*
X175257Y74501D01*
X176101Y73657D01*
X177203Y73200D01*
X178397D01*
X179499Y73657D01*
X180343Y74501D01*
X180800Y75603D01*
Y76797D01*
X180343Y77899D01*
X179499Y78743D01*
X178397Y79200D01*
D02*
G37*
G36*
X114987Y72580D02*
X113793D01*
X112691Y72123D01*
X111847Y71279D01*
X111390Y70177D01*
Y68983D01*
X111847Y67881D01*
X112691Y67037D01*
X113793Y66580D01*
X114987D01*
X116089Y67037D01*
X116933Y67881D01*
X117390Y68983D01*
Y70177D01*
X116933Y71279D01*
X116089Y72123D01*
X114987Y72580D01*
D02*
G37*
G36*
X152235Y69040D02*
X151041D01*
X149939Y68583D01*
X149095Y67739D01*
X148638Y66637D01*
Y65443D01*
X149095Y64341D01*
X149939Y63497D01*
X151041Y63040D01*
X152235D01*
X153337Y63497D01*
X154181Y64341D01*
X154638Y65443D01*
Y66637D01*
X154181Y67739D01*
X153337Y68583D01*
X152235Y69040D01*
D02*
G37*
G36*
X36045Y62436D02*
X34851D01*
X33749Y61979D01*
X32905Y61135D01*
X32448Y60033D01*
Y58839D01*
X32905Y57737D01*
X33749Y56893D01*
X34851Y56436D01*
X36045D01*
X37147Y56893D01*
X37991Y57737D01*
X38448Y58839D01*
Y60033D01*
X37991Y61135D01*
X37147Y61979D01*
X36045Y62436D01*
D02*
G37*
G36*
X119438Y53943D02*
X117970D01*
X117817Y53879D01*
X117654Y53912D01*
X115520Y53488D01*
X115382Y53396D01*
X115216Y53396D01*
X113206Y52564D01*
X113088Y52446D01*
X112925Y52414D01*
X111116Y51206D01*
X111023Y51068D01*
X110870Y51005D01*
X109331Y49468D01*
X109267Y49314D01*
X109129Y49222D01*
X107919Y47414D01*
X107886Y47251D01*
X107768Y47134D01*
X106934Y45125D01*
X106934Y44959D01*
X106841Y44821D01*
X106524Y43234D01*
X106235Y42803D01*
X105932Y41279D01*
Y29972D01*
X106235Y28448D01*
X106521Y28021D01*
X106837Y26431D01*
X106930Y26293D01*
Y26127D01*
X107763Y24115D01*
X107881Y23998D01*
X107913Y23835D01*
X109123Y22024D01*
X109261Y21932D01*
X109325Y21778D01*
X110864Y20239D01*
X111018Y20175D01*
X111110Y20037D01*
X112920Y18827D01*
X113083Y18795D01*
X113201Y18677D01*
X115212Y17844D01*
X115379D01*
X115517Y17751D01*
X117653Y17327D01*
X117816Y17359D01*
X117969Y17296D01*
X119438D01*
X119736Y17419D01*
X120059Y17419D01*
X120760Y17710D01*
X120989Y17938D01*
X121287Y18062D01*
X121824Y18599D01*
X121948Y18897D01*
X122176Y19125D01*
X122467Y19827D01*
Y20150D01*
X122590Y20448D01*
Y20828D01*
Y21208D01*
X122467Y21506D01*
Y21829D01*
X122176Y22531D01*
X121948Y22759D01*
X121824Y23057D01*
X121287Y23594D01*
X120989Y23718D01*
X120760Y23946D01*
X120059Y24237D01*
X119736D01*
X119438Y24360D01*
X119098D01*
X118548Y24387D01*
X117431Y24610D01*
X116416Y25030D01*
X115503Y25640D01*
X114726Y26417D01*
X114116Y27330D01*
X113695Y28345D01*
X113634Y28656D01*
X113895Y29972D01*
Y41279D01*
X113635Y42589D01*
X113695Y42893D01*
X114116Y43908D01*
X114726Y44822D01*
X115503Y45598D01*
X116416Y46209D01*
X117431Y46629D01*
X118548Y46851D01*
X119098Y46878D01*
X119438D01*
X119736Y47002D01*
X120059Y47002D01*
X120760Y47292D01*
X120989Y47521D01*
X121287Y47644D01*
X121824Y48181D01*
X121948Y48480D01*
X122176Y48708D01*
X122467Y49410D01*
Y49732D01*
X122590Y50031D01*
Y50411D01*
Y50790D01*
X122467Y51089D01*
Y51412D01*
X122176Y52113D01*
X121948Y52342D01*
X121824Y52640D01*
X121287Y53177D01*
X120989Y53300D01*
X120760Y53529D01*
X120059Y53819D01*
X119736D01*
X119438Y53943D01*
D02*
G37*
G36*
X402531Y43132D02*
X401337D01*
X400235Y42675D01*
X399391Y41831D01*
X398934Y40729D01*
Y39535D01*
X399391Y38433D01*
X400235Y37589D01*
X401337Y37132D01*
X402531D01*
X403633Y37589D01*
X404477Y38433D01*
X404934Y39535D01*
Y40729D01*
X404477Y41831D01*
X403633Y42675D01*
X402531Y43132D01*
D02*
G37*
G36*
X235389Y41100D02*
X234195D01*
X233093Y40643D01*
X232249Y39799D01*
X231792Y38697D01*
Y37503D01*
X232249Y36401D01*
X233093Y35557D01*
X234195Y35100D01*
X235389D01*
X236491Y35557D01*
X237335Y36401D01*
X237792Y37503D01*
Y38697D01*
X237335Y39799D01*
X236491Y40643D01*
X235389Y41100D01*
D02*
G37*
G36*
X205463D02*
X204269D01*
X203167Y40643D01*
X202323Y39799D01*
X201866Y38697D01*
Y37503D01*
X202323Y36401D01*
X203167Y35557D01*
X204269Y35100D01*
X205463D01*
X206565Y35557D01*
X207409Y36401D01*
X207866Y37503D01*
Y38697D01*
X207409Y39799D01*
X206565Y40643D01*
X205463Y41100D01*
D02*
G37*
G36*
X303523Y40846D02*
X302329D01*
X301227Y40389D01*
X300383Y39545D01*
X299926Y38443D01*
Y37249D01*
X300383Y36147D01*
X301227Y35303D01*
X302329Y34846D01*
X303523D01*
X304625Y35303D01*
X305469Y36147D01*
X305926Y37249D01*
Y38443D01*
X305469Y39545D01*
X304625Y40389D01*
X303523Y40846D01*
D02*
G37*
G36*
X138944Y53943D02*
X137477D01*
X137178Y53819D01*
X136855D01*
X136154Y53529D01*
X135926Y53300D01*
X135627Y53177D01*
X135090Y52640D01*
X134967Y52341D01*
X134738Y52113D01*
X134448Y51412D01*
Y51089D01*
X134324Y50790D01*
Y50031D01*
X134448Y49733D01*
X134448Y49410D01*
X134738Y48708D01*
X134967Y48480D01*
X135090Y48181D01*
X135627Y47644D01*
X135926Y47521D01*
X136154Y47292D01*
X136855Y47002D01*
X137178D01*
X137477Y46878D01*
X137817D01*
X138366Y46851D01*
X139483Y46629D01*
X140498Y46209D01*
X141411Y45598D01*
X142188Y44822D01*
X142799Y43908D01*
X143219Y42893D01*
X143279Y42589D01*
X143019Y41279D01*
Y29972D01*
X143281Y28656D01*
X143219Y28345D01*
X142799Y27330D01*
X142188Y26417D01*
X141411Y25640D01*
X140498Y25030D01*
X139483Y24610D01*
X138366Y24387D01*
X137817Y24360D01*
X137477D01*
X137178Y24237D01*
X136855D01*
X136154Y23946D01*
X135926Y23718D01*
X135627Y23594D01*
X135090Y23057D01*
X134967Y22759D01*
X134738Y22531D01*
X134448Y21829D01*
Y21506D01*
X134324Y21208D01*
Y20448D01*
X134448Y20150D01*
X134448Y19827D01*
X134738Y19125D01*
X134967Y18897D01*
X135090Y18599D01*
X135627Y18062D01*
X135926Y17938D01*
X136154Y17710D01*
X136855Y17419D01*
X137178D01*
X137477Y17296D01*
X138945D01*
X139099Y17359D01*
X139262Y17327D01*
X141397Y17751D01*
X141536Y17844D01*
X141702D01*
X143713Y18677D01*
X143831Y18795D01*
X143994Y18827D01*
X145804Y20037D01*
X145897Y20175D01*
X146050Y20239D01*
X147590Y21778D01*
X147654Y21932D01*
X147792Y22024D01*
X149001Y23835D01*
X149034Y23998D01*
X149151Y24115D01*
X149985Y26127D01*
Y26293D01*
X150077Y26431D01*
X150393Y28021D01*
X150679Y28448D01*
X150982Y29972D01*
Y41279D01*
X150679Y42803D01*
X150391Y43234D01*
X150073Y44821D01*
X149980Y44959D01*
X149980Y45125D01*
X149146Y47134D01*
X149028Y47251D01*
X148996Y47414D01*
X147786Y49222D01*
X147647Y49314D01*
X147584Y49468D01*
X146045Y51005D01*
X145891Y51068D01*
X145799Y51206D01*
X143989Y52414D01*
X143826Y52446D01*
X143709Y52564D01*
X141699Y53396D01*
X141532Y53396D01*
X141394Y53488D01*
X139261Y53912D01*
X139098Y53879D01*
X138944Y53943D01*
D02*
G37*
G36*
X116485Y16304D02*
X115291D01*
X114189Y15847D01*
X113345Y15003D01*
X112888Y13901D01*
Y12707D01*
X113345Y11605D01*
X114189Y10761D01*
X115291Y10304D01*
X116485D01*
X117587Y10761D01*
X118431Y11605D01*
X118888Y12707D01*
Y13901D01*
X118431Y15003D01*
X117587Y15847D01*
X116485Y16304D01*
D02*
G37*
%LPD*%
D93*
X493014Y26670D02*
D03*
X25280D02*
D03*
X99996Y259100D02*
D03*
D94*
X493014Y259340D02*
D03*
D95*
X193548Y151638D02*
D03*
Y183388D02*
D03*
X244348D02*
D03*
Y151638D02*
D03*
D96*
X218948Y183388D02*
D03*
X229108Y132588D02*
D03*
X208788D02*
D03*
D97*
X24739Y171430D02*
D03*
Y257830D02*
D03*
D98*
X61539Y185730D02*
D03*
Y243530D02*
D03*
X403606Y208280D02*
D03*
D99*
X66539Y257830D02*
D03*
Y171430D02*
D03*
D100*
X206330Y264875D02*
D03*
X181330D02*
D03*
X426212Y22774D02*
D03*
X324612D02*
D03*
X99314Y186436D02*
D03*
X89875Y87927D02*
D03*
X114875D02*
D03*
X391922Y182118D02*
D03*
X307220Y99822D02*
D03*
X272542Y119178D02*
D03*
X394716Y22774D02*
D03*
X468163Y264875D02*
D03*
X401084D02*
D03*
X376084D02*
D03*
X401494Y244894D02*
D03*
X423926Y215900D02*
D03*
X426084Y264875D02*
D03*
X329184Y205994D02*
D03*
X307086D02*
D03*
X340106Y193294D02*
D03*
X319278D02*
D03*
X418592Y185166D02*
D03*
X307086Y184150D02*
D03*
X351028D02*
D03*
X403606Y175134D02*
D03*
X340106Y172212D02*
D03*
X319278D02*
D03*
X307086Y162052D02*
D03*
X351028D02*
D03*
X329184D02*
D03*
X497125Y156330D02*
D03*
Y131330D02*
D03*
Y106330D02*
D03*
Y81330D02*
D03*
X446934Y43688D02*
D03*
X454660Y22774D02*
D03*
X497125Y56330D02*
D03*
X375345Y108420D02*
D03*
X374142Y89662D02*
D03*
X354800Y22774D02*
D03*
X349825Y97418D02*
D03*
X347926Y37846D02*
D03*
X344469Y84836D02*
D03*
X376682Y156972D02*
D03*
X295364Y22774D02*
D03*
X292220Y99822D02*
D03*
X256330Y264875D02*
D03*
X231330D02*
D03*
X156330D02*
D03*
X131330D02*
D03*
X256330Y239875D02*
D03*
X206330D02*
D03*
X231330D02*
D03*
X181330D02*
D03*
X156330D02*
D03*
X172720Y193548D02*
D03*
X262636Y185166D02*
D03*
X162814Y184150D02*
D03*
X150114Y176022D02*
D03*
X170942Y162814D02*
D03*
X160274Y144780D02*
D03*
X271526Y139954D02*
D03*
X136754Y134620D02*
D03*
X196088Y126746D02*
D03*
X25000Y275000D02*
D03*
X50000D02*
D03*
X82550Y246380D02*
D03*
X107696Y227330D02*
D03*
X25000Y225000D02*
D03*
X110970Y209296D02*
D03*
X25000Y200000D02*
D03*
X111570Y184314D02*
D03*
X85852Y172212D02*
D03*
X110650Y153924D02*
D03*
X92964Y144018D02*
D03*
X66166Y143977D02*
D03*
X16166D02*
D03*
X41166D02*
D03*
X218948Y122988D02*
D03*
X249428Y119178D02*
D03*
X165608Y109173D02*
D03*
X132842Y108458D02*
D03*
X102108Y107950D02*
D03*
X89875Y68670D02*
D03*
X177800Y63882D02*
D03*
X165100Y43670D02*
D03*
X89875D02*
D03*
X249792Y38100D02*
D03*
X257264Y22774D02*
D03*
X227330D02*
D03*
X196812D02*
D03*
X165100Y18670D02*
D03*
X89875D02*
D03*
X154686Y13208D02*
D03*
X89252Y121106D02*
D03*
X64875Y43670D02*
D03*
Y68670D02*
D03*
X55594Y86868D02*
D03*
X22606Y85344D02*
D03*
X447125Y156330D02*
D03*
X472125D02*
D03*
X422125D02*
D03*
X447125Y131330D02*
D03*
X472125D02*
D03*
X422125D02*
D03*
X472125Y106330D02*
D03*
X406934Y97790D02*
D03*
X441934Y97282D02*
D03*
X473202Y81788D02*
D03*
X389890Y138430D02*
D03*
X468163Y237335D02*
D03*
X447750D02*
D03*
X451358Y207518D02*
D03*
Y186436D02*
D03*
X433578Y175768D02*
D03*
X426084Y237335D02*
D03*
X283718Y265176D02*
D03*
X289052Y254000D02*
D03*
X348742Y246634D02*
D03*
X349250Y232156D02*
D03*
X366776Y231394D02*
D03*
X288036Y231140D02*
D03*
X351028Y205994D02*
D03*
X283464Y242570D02*
D03*
X490982Y236220D02*
D03*
X489966Y219456D02*
D03*
X489458Y196650D02*
D03*
Y172466D02*
D03*
M02*
