G04*
G04 #@! TF.GenerationSoftware,Altium Limited,Altium Designer,23.0.1 (38)*
G04*
G04 Layer_Physical_Order=1*
G04 Layer_Color=255*
%FSLAX44Y44*%
%MOMM*%
G71*
G04*
G04 #@! TF.SameCoordinates,AA057BD2-FAE9-475E-A33E-1B252B641246*
G04*
G04*
G04 #@! TF.FilePolarity,Positive*
G04*
G01*
G75*
%ADD11C,0.2000*%
%ADD12C,0.2540*%
%ADD25R,0.5200X0.5200*%
%ADD27R,1.1000X1.9000*%
%ADD28R,0.3000X0.5000*%
%ADD29R,0.5200X0.5200*%
%ADD32R,0.2425X0.7826*%
G04:AMPARAMS|DCode=33|XSize=0.7826mm|YSize=0.2425mm|CornerRadius=0.1212mm|HoleSize=0mm|Usage=FLASHONLY|Rotation=90.000|XOffset=0mm|YOffset=0mm|HoleType=Round|Shape=RoundedRectangle|*
%AMROUNDEDRECTD33*
21,1,0.7826,0.0000,0,0,90.0*
21,1,0.5402,0.2425,0,0,90.0*
1,1,0.2425,0.0000,0.2701*
1,1,0.2425,0.0000,-0.2701*
1,1,0.2425,0.0000,-0.2701*
1,1,0.2425,0.0000,0.2701*
%
%ADD33ROUNDEDRECTD33*%
G04:AMPARAMS|DCode=34|XSize=0.2425mm|YSize=0.7826mm|CornerRadius=0.1212mm|HoleSize=0mm|Usage=FLASHONLY|Rotation=90.000|XOffset=0mm|YOffset=0mm|HoleType=Round|Shape=RoundedRectangle|*
%AMROUNDEDRECTD34*
21,1,0.2425,0.5402,0,0,90.0*
21,1,0.0000,0.7826,0,0,90.0*
1,1,0.2425,0.2701,0.0000*
1,1,0.2425,0.2701,0.0000*
1,1,0.2425,-0.2701,0.0000*
1,1,0.2425,-0.2701,0.0000*
%
%ADD34ROUNDEDRECTD34*%
%ADD35R,1.1500X1.0000*%
%ADD36R,0.6500X0.3500*%
%ADD38R,0.7000X0.6500*%
%ADD39R,0.7581X0.8121*%
%ADD40R,0.6600X1.0000*%
%ADD42R,0.8121X0.7581*%
%ADD43R,0.5153X0.4725*%
%ADD60R,5.7000X5.7000*%
G04:AMPARAMS|DCode=70|XSize=0.6mm|YSize=0.7mm|CornerRadius=0.075mm|HoleSize=0mm|Usage=FLASHONLY|Rotation=90.000|XOffset=0mm|YOffset=0mm|HoleType=Round|Shape=RoundedRectangle|*
%AMROUNDEDRECTD70*
21,1,0.6000,0.5500,0,0,90.0*
21,1,0.4500,0.7000,0,0,90.0*
1,1,0.1500,0.2750,0.2250*
1,1,0.1500,0.2750,-0.2250*
1,1,0.1500,-0.2750,-0.2250*
1,1,0.1500,-0.2750,0.2250*
%
%ADD70ROUNDEDRECTD70*%
G04:AMPARAMS|DCode=71|XSize=0.6mm|YSize=0.7mm|CornerRadius=0.075mm|HoleSize=0mm|Usage=FLASHONLY|Rotation=180.000|XOffset=0mm|YOffset=0mm|HoleType=Round|Shape=RoundedRectangle|*
%AMROUNDEDRECTD71*
21,1,0.6000,0.5500,0,0,180.0*
21,1,0.4500,0.7000,0,0,180.0*
1,1,0.1500,-0.2250,0.2750*
1,1,0.1500,0.2250,0.2750*
1,1,0.1500,0.2250,-0.2750*
1,1,0.1500,-0.2250,-0.2750*
%
%ADD71ROUNDEDRECTD71*%
%ADD72R,0.7500X0.8500*%
%ADD73R,0.4500X0.2900*%
G04:AMPARAMS|DCode=74|XSize=0.3mm|YSize=1.15mm|CornerRadius=0.0375mm|HoleSize=0mm|Usage=FLASHONLY|Rotation=270.000|XOffset=0mm|YOffset=0mm|HoleType=Round|Shape=RoundedRectangle|*
%AMROUNDEDRECTD74*
21,1,0.3000,1.0750,0,0,270.0*
21,1,0.2250,1.1500,0,0,270.0*
1,1,0.0750,-0.5375,-0.1125*
1,1,0.0750,-0.5375,0.1125*
1,1,0.0750,0.5375,0.1125*
1,1,0.0750,0.5375,-0.1125*
%
%ADD74ROUNDEDRECTD74*%
G04:AMPARAMS|DCode=75|XSize=0.6mm|YSize=1mm|CornerRadius=0.075mm|HoleSize=0mm|Usage=FLASHONLY|Rotation=270.000|XOffset=0mm|YOffset=0mm|HoleType=Round|Shape=RoundedRectangle|*
%AMROUNDEDRECTD75*
21,1,0.6000,0.8500,0,0,270.0*
21,1,0.4500,1.0000,0,0,270.0*
1,1,0.1500,-0.4250,-0.2250*
1,1,0.1500,-0.4250,0.2250*
1,1,0.1500,0.4250,0.2250*
1,1,0.1500,0.4250,-0.2250*
%
%ADD75ROUNDEDRECTD75*%
%ADD76R,1.0000X1.0000*%
%ADD77R,2.2000X0.7960*%
%ADD78R,2.2000X0.7706*%
%ADD79R,0.3500X0.7000*%
%ADD80R,0.7000X2.9000*%
%ADD81C,0.8630*%
%ADD82R,1.6000X2.0000*%
%ADD83R,1.0000X1.2500*%
%ADD84R,1.2000X0.6000*%
%ADD85C,0.3528*%
%ADD86C,0.3500*%
%ADD87C,0.6096*%
%ADD88C,0.3810*%
%ADD89C,0.3000*%
%ADD90C,0.2420*%
%ADD91C,0.3400*%
%ADD92C,0.6100*%
%ADD93O,3.0000X3.0480*%
%ADD94C,3.0000*%
%ADD95C,2.4000*%
%ADD96C,1.0670*%
%ADD97O,1.8000X1.0000*%
%ADD98C,0.6500*%
%ADD99O,2.1000X1.0000*%
%ADD100C,0.7000*%
G36*
X349504Y265684D02*
Y255524D01*
X348234Y254254D01*
X340106D01*
X330200Y244348D01*
Y227330D01*
X328168Y225298D01*
X324612D01*
X322580Y227330D01*
Y244856D01*
X336296Y258572D01*
Y265938D01*
X336804Y266446D01*
X348742D01*
X349504Y265684D01*
D02*
G37*
G36*
X130362Y229950D02*
Y227673D01*
X128858Y223296D01*
X113858D01*
Y223296D01*
X108858Y222889D01*
X106364Y223814D01*
X104838Y227310D01*
Y229880D01*
X107004Y233686D01*
X108128Y234857D01*
X125455D01*
X130362Y229950D01*
D02*
G37*
G36*
X371154Y238184D02*
Y232664D01*
X377444D01*
Y230124D01*
X371154D01*
Y224604D01*
X371154D01*
X369009Y220492D01*
X366451Y217935D01*
X364538Y218260D01*
X360253Y220326D01*
Y235720D01*
X365604Y241071D01*
X367350D01*
X371154Y238184D01*
D02*
G37*
G36*
X11424Y281400D02*
X12700Y281146D01*
X296728Y281146D01*
X297630Y280492D01*
X300229Y277027D01*
X298865Y272031D01*
X295160D01*
Y265430D01*
X293890D01*
Y264160D01*
X287559D01*
Y258829D01*
X293290D01*
Y255270D01*
X298430D01*
Y252730D01*
X293290D01*
Y249171D01*
X287559D01*
Y243840D01*
X293890D01*
Y241300D01*
X287559D01*
Y235969D01*
X293290D01*
Y232410D01*
X298430D01*
Y229870D01*
X293290D01*
Y226000D01*
X295921D01*
X296380Y225366D01*
X298692Y221000D01*
X298664Y220863D01*
X298664Y220863D01*
X298664Y219438D01*
X298403Y218952D01*
X294918Y215473D01*
X289800D01*
X289724Y215550D01*
X288483Y216378D01*
X287020Y216669D01*
X161642D01*
X157649Y220662D01*
X156409Y221491D01*
X154945Y221782D01*
X153858D01*
Y223296D01*
X138858D01*
X138038Y227956D01*
Y231540D01*
X137746Y233009D01*
X136914Y234254D01*
X136913Y234254D01*
X129759Y241409D01*
X128514Y242241D01*
X127045Y242533D01*
X127045Y242533D01*
X85335D01*
X80604Y244380D01*
Y245360D01*
X73000D01*
Y247900D01*
X80604D01*
Y248880D01*
X80349Y250164D01*
X79622Y251252D01*
X78485Y253221D01*
X78372Y256133D01*
X78595Y257830D01*
X78372Y259527D01*
X77717Y261108D01*
X76675Y262466D01*
X75317Y263508D01*
X73736Y264163D01*
X72039Y264386D01*
X61039D01*
X59342Y264163D01*
X57761Y263508D01*
X56403Y262466D01*
X55361Y261108D01*
X54706Y259527D01*
X54483Y257830D01*
X54706Y256133D01*
X55361Y254552D01*
X56403Y253194D01*
X57576Y252295D01*
X57812Y251405D01*
X58114Y246954D01*
X57065Y245383D01*
X56696Y243530D01*
X57065Y241677D01*
X58115Y240105D01*
X59686Y239056D01*
X61539Y238687D01*
X62448Y238260D01*
X62837Y237804D01*
X65148Y233986D01*
X65002Y233255D01*
Y231005D01*
X65002Y231005D01*
X65148Y230273D01*
Y230273D01*
X65562Y229653D01*
Y229607D01*
X65148Y228987D01*
X65002Y228255D01*
Y226005D01*
X65012Y225953D01*
X64516Y223951D01*
X63588Y222009D01*
X62630Y220726D01*
X62309Y220662D01*
X61069Y219834D01*
X59018Y217783D01*
X58190Y216543D01*
X57899Y215080D01*
Y209180D01*
X58190Y207717D01*
X59018Y206477D01*
X61069Y204426D01*
X62309Y203598D01*
X62630Y203534D01*
X63588Y202251D01*
X64516Y200309D01*
X65012Y198307D01*
X65002Y198255D01*
X65002Y198255D01*
Y196005D01*
X65148Y195273D01*
X62837Y191456D01*
X62448Y190999D01*
X61539Y190573D01*
X59686Y190204D01*
X58115Y189154D01*
X57065Y187583D01*
X56696Y185730D01*
X57065Y183877D01*
X58115Y182305D01*
X57812Y177855D01*
X57576Y176965D01*
X56403Y176066D01*
X55361Y174708D01*
X54706Y173127D01*
X54483Y171430D01*
X54706Y169733D01*
X55361Y168152D01*
X56403Y166794D01*
X57761Y165752D01*
X59342Y165097D01*
X61039Y164874D01*
X72039D01*
X73736Y165097D01*
X75317Y165752D01*
X76675Y166794D01*
X77717Y168152D01*
X78372Y169733D01*
X78595Y171430D01*
X78372Y173127D01*
X78485Y176039D01*
X79622Y178008D01*
X80349Y179096D01*
X80377Y179235D01*
X83407Y180772D01*
X85604Y181079D01*
X93083Y173601D01*
X93083Y173600D01*
X94328Y172768D01*
X95796Y172476D01*
X100842D01*
X104573Y169415D01*
X104573Y167476D01*
Y164084D01*
X110904D01*
Y162814D01*
X112174D01*
Y156213D01*
X113584D01*
X117235Y156213D01*
X117491Y156272D01*
X122250Y153008D01*
Y142690D01*
X130710D01*
Y141650D01*
X135280D01*
Y149190D01*
X137820D01*
Y141650D01*
X142390D01*
Y142690D01*
X148934D01*
X151058Y142408D01*
X153673Y138860D01*
Y137000D01*
X159004D01*
Y142061D01*
X155589D01*
X153465Y142343D01*
X150850Y145891D01*
Y153908D01*
X150850Y155690D01*
X152583Y157089D01*
X157341Y157674D01*
Y157674D01*
X161211D01*
Y162814D01*
Y167954D01*
X157341D01*
Y166914D01*
X150381D01*
Y166637D01*
X139807D01*
X139630Y171564D01*
X139630Y172564D01*
Y181064D01*
X138038D01*
Y190636D01*
X138858Y195296D01*
X153858D01*
Y195973D01*
X154108D01*
X155571Y196264D01*
X156812Y197092D01*
X161642Y201923D01*
X192598D01*
X192926Y196923D01*
X190024Y196541D01*
X186740Y195180D01*
X183920Y193016D01*
X181756Y190196D01*
X180396Y186912D01*
X179932Y183388D01*
X180396Y179864D01*
X181756Y176580D01*
X182555Y175538D01*
X182682Y175119D01*
X182709Y171173D01*
X181749Y169123D01*
X174334Y161708D01*
X173506Y160467D01*
X173215Y159004D01*
Y140716D01*
X173506Y139253D01*
X174334Y138012D01*
X177467Y134880D01*
X177296Y134022D01*
X174270Y129864D01*
X166875D01*
Y134460D01*
X160274D01*
X153673D01*
Y129864D01*
X146178D01*
X142620Y129864D01*
X142620Y129864D01*
X141250Y129690D01*
Y129166D01*
X141192Y129108D01*
X141192Y129108D01*
X140961Y128551D01*
X140961Y128551D01*
X140716Y127960D01*
X140716Y127960D01*
X140716Y125277D01*
X140716Y117940D01*
X140716Y117940D01*
X140717Y117938D01*
X141192Y116792D01*
X141217Y116767D01*
X141250Y116690D01*
X141377Y116607D01*
X142172Y115812D01*
X143320Y115336D01*
X143320Y115336D01*
X145689Y115336D01*
X165150Y115336D01*
X165502Y115161D01*
X166093Y114641D01*
X169104Y110443D01*
X174785D01*
Y107903D01*
X169181D01*
Y106423D01*
X169395Y105343D01*
X169419Y105098D01*
X167725Y101115D01*
X167085Y100343D01*
X73983D01*
X70166Y105344D01*
X70393Y106456D01*
X72960Y109006D01*
X81160D01*
Y115966D01*
X82200D01*
Y119836D01*
X77060D01*
Y121106D01*
X75790D01*
Y126246D01*
X71920D01*
Y121852D01*
X70820Y120519D01*
X67844Y118150D01*
X64573D01*
X63344Y118150D01*
X60594Y118090D01*
X57844Y118150D01*
X56615Y118150D01*
X53344D01*
X52466Y117975D01*
X51722Y117478D01*
X51355Y116929D01*
X31972D01*
Y124606D01*
X12972D01*
Y101606D01*
X31972D01*
Y109283D01*
X48606D01*
X49397Y108556D01*
X50037Y107603D01*
X50972Y102658D01*
X50245Y101570D01*
X49990Y100286D01*
Y98806D01*
X55594D01*
Y97536D01*
X56864D01*
Y91432D01*
X57844D01*
X59128Y91687D01*
X59128Y91687D01*
X60216Y92414D01*
X62466Y92667D01*
X63344Y92492D01*
X67844D01*
X68722Y92667D01*
X68767Y92697D01*
X129109D01*
X130676Y88625D01*
X130733Y87697D01*
X121686Y78650D01*
X120858Y77409D01*
X120828Y77259D01*
X117411Y74998D01*
X115567Y74444D01*
X114390Y74678D01*
X112439Y74290D01*
X110785Y73185D01*
X109680Y71531D01*
X109292Y69580D01*
X109680Y67629D01*
X110408Y66539D01*
Y63374D01*
X110021Y62794D01*
X109846Y61916D01*
Y56416D01*
X110000Y55641D01*
X110022Y55522D01*
X110282Y53287D01*
X109793Y50154D01*
X109669Y49805D01*
X109331Y49468D01*
X109267Y49314D01*
X109129Y49222D01*
X107919Y47414D01*
X107886Y47251D01*
X107768Y47134D01*
X106934Y45125D01*
X106934Y44959D01*
X106841Y44821D01*
X106524Y43234D01*
X106235Y42803D01*
X105932Y41279D01*
Y29972D01*
X106235Y28448D01*
X106521Y28021D01*
X106837Y26431D01*
X106930Y26293D01*
Y26127D01*
X107763Y24115D01*
X107881Y23998D01*
X107913Y23835D01*
X109123Y22024D01*
X109261Y21932D01*
X109325Y21778D01*
X109824Y21279D01*
X110975Y19234D01*
X111143Y17699D01*
X111178Y15255D01*
X110790Y13304D01*
X111178Y11353D01*
X112283Y9699D01*
X112561Y9514D01*
X111044Y4514D01*
X12700D01*
X11424Y4260D01*
X11299Y4177D01*
X10141Y4329D01*
X7756Y5317D01*
X5708Y6888D01*
X4137Y8936D01*
X3149Y11321D01*
X2987Y12554D01*
X3080Y12694D01*
X3334Y13970D01*
Y271780D01*
X3080Y273056D01*
X2997Y273181D01*
X3149Y274339D01*
X4137Y276724D01*
X5708Y278771D01*
X7756Y280343D01*
X10141Y281331D01*
X11299Y281483D01*
X11424Y281400D01*
D02*
G37*
G36*
X310896Y278130D02*
Y239014D01*
X309372Y237490D01*
Y228854D01*
Y223520D01*
X310134Y222758D01*
X311658D01*
X312674Y221742D01*
Y214630D01*
X312194Y214150D01*
X305534D01*
X305054Y214630D01*
Y222504D01*
X303784Y223774D01*
Y237236D01*
X302514Y238506D01*
Y249900D01*
X302530D01*
Y258100D01*
X302514D01*
Y278130D01*
X303530Y279146D01*
X309880D01*
X310896Y278130D01*
D02*
G37*
G36*
X400980Y221610D02*
Y215280D01*
X393750Y208050D01*
X369850D01*
X368880Y209020D01*
X373240Y213380D01*
X392690D01*
X394160Y214850D01*
X394190D01*
X394188Y221908D01*
X395300Y223020D01*
X399570D01*
X400980Y221610D01*
D02*
G37*
G36*
X135999Y213917D02*
X136105Y213318D01*
X136281Y212789D01*
X136528Y212330D01*
X136846Y211942D01*
X137234Y211624D01*
X137692Y211377D01*
X138222Y211201D01*
X138821Y211095D01*
X139492Y211060D01*
Y207532D01*
X138821Y207497D01*
X138222Y207391D01*
X137692Y207215D01*
X137234Y206968D01*
X136846Y206650D01*
X136528Y206262D01*
X136281Y205804D01*
X136105Y205274D01*
X135999Y204675D01*
X135964Y204004D01*
X132436Y209296D01*
X135964Y214588D01*
X135999Y213917D01*
D02*
G37*
G36*
X100504Y191000D02*
X101484D01*
X102768Y191255D01*
X103856Y191982D01*
X104583Y193070D01*
X105164Y194570D01*
X107284Y195973D01*
X113858D01*
Y195296D01*
X123222D01*
X126235Y190296D01*
X125790Y189454D01*
X121920D01*
Y184314D01*
X120650D01*
Y183044D01*
X115510D01*
Y180152D01*
X97386D01*
X92763Y184774D01*
X93747Y190506D01*
X95700Y191255D01*
X95700Y191255D01*
X96984Y191000D01*
X97964D01*
Y197104D01*
X100504D01*
Y191000D01*
D02*
G37*
G36*
X508019Y281331D02*
X510404Y280343D01*
X512452Y278771D01*
X514023Y276724D01*
X515011Y274339D01*
X515163Y273181D01*
X515080Y273056D01*
X514826Y271780D01*
Y13970D01*
X515080Y12694D01*
X515173Y12554D01*
X515011Y11321D01*
X514023Y8936D01*
X512452Y6888D01*
X510404Y5317D01*
X508019Y4329D01*
X506861Y4177D01*
X506736Y4260D01*
X505460Y4514D01*
X140789Y4514D01*
X137530Y9514D01*
Y12852D01*
X139262Y17327D01*
X141397Y17751D01*
X141536Y17844D01*
X141702D01*
X143713Y18677D01*
X143831Y18795D01*
X143994Y18827D01*
X145804Y20037D01*
X145897Y20175D01*
X146050Y20239D01*
X147590Y21778D01*
X147654Y21932D01*
X147792Y22024D01*
X149001Y23835D01*
X149034Y23998D01*
X149151Y24115D01*
X149985Y26127D01*
Y26293D01*
X150077Y26431D01*
X150393Y28021D01*
X150679Y28448D01*
X150982Y29972D01*
Y41279D01*
X150679Y42803D01*
X150391Y43234D01*
X150073Y44821D01*
X149980Y44959D01*
X149980Y45125D01*
X149146Y47134D01*
X149028Y47251D01*
X148996Y47414D01*
X147786Y49222D01*
X147647Y49314D01*
X147584Y49468D01*
X146045Y51005D01*
X145891Y51068D01*
X145799Y51206D01*
X143989Y52414D01*
X143826Y52446D01*
X143709Y52564D01*
X141699Y53396D01*
X141532Y53396D01*
X141394Y53488D01*
X139396Y53885D01*
X137617Y57025D01*
X140874Y60980D01*
X144640D01*
X145518Y61155D01*
X146262Y61652D01*
X146529Y62050D01*
X148609D01*
X149687Y61330D01*
X151638Y60942D01*
X153589Y61330D01*
X155243Y62435D01*
X156348Y64089D01*
X156736Y66040D01*
X156470Y67376D01*
X156886Y68757D01*
X159431Y72377D01*
X174522D01*
X175849Y71490D01*
X177800Y71102D01*
X179751Y71490D01*
X181405Y72595D01*
X182510Y74249D01*
X182898Y76200D01*
X182861Y76386D01*
X185425Y80600D01*
X186361Y81387D01*
X198857D01*
X199792Y76774D01*
X199792Y76386D01*
Y61513D01*
X199645Y60774D01*
X199682Y60588D01*
Y38137D01*
X200074Y36167D01*
X201190Y34498D01*
X201227Y34461D01*
X202896Y33345D01*
X204866Y32953D01*
X206836Y33345D01*
X208505Y34461D01*
X209621Y36130D01*
X210013Y38100D01*
X209976Y38286D01*
Y44330D01*
X214792Y44774D01*
X214976Y44774D01*
X224792D01*
Y73847D01*
X225428Y74145D01*
X229792Y71256D01*
Y44774D01*
X229792D01*
X230047Y40615D01*
X230027Y39774D01*
X229694Y38100D01*
X230082Y36149D01*
X231187Y34495D01*
X232841Y33390D01*
X234792Y33002D01*
X236743Y33390D01*
X238397Y34495D01*
X239502Y36149D01*
X239890Y38100D01*
X239557Y39774D01*
X242145Y42729D01*
X243549Y43780D01*
X243752Y43734D01*
X244361Y43734D01*
X248522D01*
Y60774D01*
X249792D01*
Y62044D01*
X255832D01*
Y76386D01*
X255832Y77814D01*
X259278Y81387D01*
X296991D01*
X297926Y76774D01*
X297926Y76386D01*
Y61513D01*
X297779Y60774D01*
Y37846D01*
X298171Y35876D01*
X299287Y34207D01*
X300956Y33091D01*
X302926Y32699D01*
X304896Y33091D01*
X306565Y34207D01*
X307681Y35876D01*
X308073Y37846D01*
Y44419D01*
X312926Y44774D01*
X313073Y44774D01*
X322926D01*
Y75860D01*
X324869Y77050D01*
X326533Y77286D01*
X327926Y75974D01*
Y44774D01*
X337317Y44774D01*
X341886Y43734D01*
X342495Y43734D01*
X346656D01*
Y60774D01*
Y77814D01*
X342495D01*
X341886Y77814D01*
X341410Y77706D01*
X340171Y78503D01*
X337636Y82885D01*
X338024Y84836D01*
X337636Y86787D01*
X336749Y88114D01*
Y99128D01*
X336726Y99245D01*
X337099Y101412D01*
X339403Y104364D01*
X339561Y104504D01*
X344703Y103798D01*
X345791Y103071D01*
X347075Y102816D01*
X348555D01*
Y108420D01*
X351095D01*
Y102816D01*
X352575D01*
X353858Y103071D01*
X354947Y103798D01*
X356253D01*
X357341Y103071D01*
X358625Y102816D01*
X360105D01*
Y108420D01*
X361375D01*
Y109690D01*
X367479D01*
Y110670D01*
X371898Y113273D01*
X372043D01*
X374012Y113665D01*
X375682Y114781D01*
X376691Y116291D01*
X376827Y116460D01*
X381966Y118087D01*
X390314Y109738D01*
X391555Y108910D01*
X393018Y108619D01*
X408088D01*
X409407Y107607D01*
X411890Y104692D01*
X411890Y103463D01*
Y100192D01*
X412065Y99314D01*
X412562Y98570D01*
X410196Y94137D01*
X409184Y93226D01*
X408204D01*
Y87122D01*
X406934D01*
Y85852D01*
X401329D01*
Y84372D01*
X401585Y83088D01*
X402312Y82000D01*
X402650Y81774D01*
X402451Y78574D01*
X401819Y76774D01*
X396934D01*
Y61343D01*
X396785Y60594D01*
Y40492D01*
X396846Y40184D01*
X396836Y40132D01*
X397224Y38181D01*
X398329Y36527D01*
X399983Y35422D01*
X401934Y35034D01*
X403885Y35422D01*
X405539Y36527D01*
X406644Y38181D01*
X407032Y40132D01*
X408794Y44541D01*
X411934Y44774D01*
X412083Y44774D01*
X421934D01*
Y76774D01*
X420757D01*
Y82717D01*
X420806Y82750D01*
X421303Y83494D01*
X421478Y84372D01*
Y89872D01*
X421303Y90750D01*
X420806Y91494D01*
X420757Y91527D01*
Y98203D01*
X421306Y98570D01*
X421803Y99314D01*
X421978Y100192D01*
Y103463D01*
X421978Y104692D01*
X421967Y105188D01*
X422066Y105312D01*
X424134Y105520D01*
X425040Y105426D01*
X428111Y102182D01*
Y91527D01*
X428062Y91494D01*
X427565Y90750D01*
X427390Y89872D01*
Y84372D01*
X427565Y83494D01*
X428062Y82750D01*
X428111Y82717D01*
Y76774D01*
X426934D01*
Y44774D01*
X436325Y44774D01*
X440894Y43734D01*
X441503Y43734D01*
X445664D01*
Y60774D01*
X446934D01*
Y62044D01*
X452974D01*
Y77814D01*
X449291D01*
X448020Y79759D01*
X447100Y82814D01*
X447283Y83088D01*
X447538Y84372D01*
Y85852D01*
X441934D01*
Y87122D01*
X440664D01*
Y93226D01*
X439684D01*
X436335Y96241D01*
X435757Y97155D01*
Y104703D01*
X436306Y105070D01*
X436803Y105814D01*
X436978Y106692D01*
Y109963D01*
X436978Y111192D01*
X436918Y113942D01*
X436978Y116692D01*
X436978Y117921D01*
Y121192D01*
X436803Y122070D01*
X436306Y122814D01*
X435562Y123311D01*
X434684Y123486D01*
X429184D01*
X428306Y123311D01*
X427562Y122814D01*
X427529Y122765D01*
X397500D01*
X379752Y140514D01*
X378511Y141342D01*
X377048Y141633D01*
X376792Y141582D01*
X361233D01*
X360202Y142613D01*
Y143830D01*
X359915Y145274D01*
X359703Y145592D01*
Y149067D01*
X359838Y150277D01*
X362903Y153432D01*
X363431Y153744D01*
X364085Y153884D01*
X365643Y153884D01*
X366702Y154095D01*
X366702Y154095D01*
X367599Y154694D01*
X367599Y154695D01*
X368198Y155592D01*
X368409Y156650D01*
X368409Y156650D01*
X368198Y157708D01*
X368198Y157708D01*
X367599Y158605D01*
Y159694D01*
X368198Y160592D01*
X368198Y160592D01*
X368409Y161650D01*
X368198Y162708D01*
X370719Y167209D01*
X373273Y167827D01*
X375571D01*
X375938Y167278D01*
X376682Y166781D01*
X377560Y166606D01*
X380831D01*
X382060Y166606D01*
X383098Y165722D01*
X385438Y161272D01*
X384941Y160528D01*
X384766Y159650D01*
Y155150D01*
X384941Y154272D01*
X384688Y152022D01*
X383961Y150934D01*
X383961Y150934D01*
X383706Y149650D01*
Y148670D01*
X389810D01*
X395914D01*
Y149650D01*
X395659Y150934D01*
X395659Y150934D01*
X394932Y152022D01*
X394679Y154272D01*
X394854Y155150D01*
Y159650D01*
X394679Y160528D01*
X394182Y161272D01*
X393633Y161639D01*
Y167245D01*
X393682Y167278D01*
X394179Y168022D01*
X394354Y168900D01*
Y174400D01*
X394179Y175278D01*
X393682Y176022D01*
X392938Y176519D01*
X392060Y176694D01*
X388789D01*
X387560Y176694D01*
X384810Y176634D01*
X384429Y176642D01*
X382153Y181277D01*
X384559Y185240D01*
X389378D01*
Y185353D01*
X389459Y186894D01*
X392502Y188553D01*
X397501Y185926D01*
Y184400D01*
X397757Y183116D01*
X398484Y182028D01*
X399572Y181301D01*
X400856Y181045D01*
X402336D01*
Y186650D01*
X403606D01*
Y187920D01*
X409711D01*
Y188900D01*
X414541Y190246D01*
X422643D01*
X427473Y188900D01*
Y187920D01*
X433578D01*
X439683D01*
Y188900D01*
X444513Y190246D01*
X467958D01*
Y190150D01*
X471687D01*
X475918Y188293D01*
X475918Y185150D01*
Y183170D01*
X488188D01*
Y188293D01*
X485189D01*
X480958Y190150D01*
X480958Y193293D01*
X480958Y203150D01*
X485241Y204880D01*
X488188D01*
Y210130D01*
X475918D01*
Y207706D01*
X475084Y204555D01*
X471614Y203200D01*
X398032D01*
X396196Y208200D01*
X402128Y214132D01*
X402604Y215280D01*
Y221610D01*
X402128Y222758D01*
X400718Y224168D01*
X399570Y224644D01*
X397780D01*
X395021Y225245D01*
X393194Y229183D01*
Y233535D01*
X394234Y238104D01*
X394234D01*
X394234Y238104D01*
Y243624D01*
X387944D01*
Y244894D01*
X386674D01*
Y251684D01*
X381654D01*
Y250644D01*
X372194D01*
Y248717D01*
X364020D01*
X362557Y248426D01*
X361316Y247598D01*
X353726Y240008D01*
X352898Y238767D01*
X352607Y237304D01*
Y228773D01*
X350419Y226712D01*
X347946Y226192D01*
X345522Y227546D01*
X345301Y228502D01*
Y231140D01*
X338970D01*
Y232410D01*
X337700D01*
Y239011D01*
X332639Y239011D01*
X331824Y243673D01*
Y243675D01*
X340779Y252630D01*
X348234D01*
X349382Y253106D01*
X350652Y254376D01*
X351128Y255524D01*
Y265684D01*
X350652Y266832D01*
X349890Y267594D01*
X348742Y268070D01*
X336804D01*
X335656Y267594D01*
X335148Y267086D01*
X334672Y265938D01*
Y259244D01*
X331220Y255792D01*
X326220Y257863D01*
Y267104D01*
X312520D01*
Y276146D01*
X312520Y278130D01*
X316682Y281146D01*
X505460Y281146D01*
X506736Y281400D01*
X506861Y281483D01*
X508019Y281331D01*
D02*
G37*
G36*
X283910Y193520D02*
Y193290D01*
X283830D01*
X280610Y190070D01*
X275390D01*
X274750Y189430D01*
Y183830D01*
X272850Y181930D01*
X268830D01*
X267780Y182980D01*
Y189400D01*
X268270Y189890D01*
X268240Y195080D01*
X268270Y195110D01*
X280760D01*
X281540Y195890D01*
X283910Y193520D01*
D02*
G37*
G36*
X378830Y187320D02*
X379680Y186470D01*
X379680Y180140D01*
X378260Y178720D01*
X374260Y178720D01*
X373030Y179950D01*
Y187140D01*
X369568Y190602D01*
X369898Y192798D01*
X369927Y192827D01*
X378830D01*
X378830Y187320D01*
D02*
G37*
G36*
X229307Y174664D02*
X229135Y174485D01*
X228862Y174160D01*
X228762Y174014D01*
X228687Y173880D01*
X228636Y173757D01*
X228608Y173645D01*
X228606Y173544D01*
X228627Y173455D01*
X228673Y173377D01*
X226224Y174902D01*
X226313Y174898D01*
X226420Y174921D01*
X226544Y174971D01*
X226685Y175048D01*
X226843Y175152D01*
X227019Y175283D01*
X227422Y175626D01*
X227893Y176078D01*
X229307Y174664D01*
D02*
G37*
G36*
X231799Y162014D02*
X231446Y161637D01*
X231122Y161241D01*
X230827Y160826D01*
X230561Y160392D01*
X230324Y159939D01*
X230115Y159467D01*
X229936Y158976D01*
X229785Y158466D01*
X229664Y157937D01*
X229571Y157389D01*
X224699Y162261D01*
X225247Y162354D01*
X225776Y162475D01*
X226286Y162626D01*
X226777Y162805D01*
X227250Y163014D01*
X227703Y163251D01*
X228137Y163517D01*
X228552Y163812D01*
X228948Y164136D01*
X229324Y164489D01*
X231799Y162014D01*
D02*
G37*
G36*
X208948Y164136D02*
X209345Y163812D01*
X209760Y163517D01*
X210194Y163251D01*
X210646Y163014D01*
X211119Y162805D01*
X211610Y162626D01*
X212120Y162475D01*
X212649Y162354D01*
X213197Y162261D01*
X208325Y157389D01*
X208232Y157937D01*
X208111Y158466D01*
X207960Y158976D01*
X207781Y159467D01*
X207572Y159939D01*
X207335Y160392D01*
X207069Y160826D01*
X206774Y161241D01*
X206450Y161637D01*
X206097Y162014D01*
X208572Y164489D01*
X208948Y164136D01*
D02*
G37*
G36*
X285750Y166370D02*
Y159512D01*
X287020Y158242D01*
X288768D01*
X288682Y158114D01*
X288391Y156650D01*
X288682Y155186D01*
X288846Y154940D01*
X286004D01*
X284988Y153924D01*
X278638D01*
X278638Y166370D01*
X279318Y167050D01*
X279728Y167132D01*
X284988Y167132D01*
X285750Y166370D01*
D02*
G37*
G36*
X216738Y143969D02*
X216724Y143664D01*
X216749Y143357D01*
X216813Y143048D01*
X216917Y142738D01*
X217060Y142426D01*
X217242Y142112D01*
X217464Y141796D01*
X217724Y141479D01*
X218025Y141160D01*
X216075Y139518D01*
X215758Y139818D01*
X215442Y140084D01*
X215126Y140315D01*
X214809Y140513D01*
X214494Y140677D01*
X214178Y140807D01*
X213863Y140902D01*
X213548Y140964D01*
X213233Y140991D01*
X212919Y140985D01*
X216792Y144272D01*
X216738Y143969D01*
D02*
G37*
G36*
X300482Y146304D02*
X288290D01*
X285750Y143764D01*
Y137668D01*
X283718Y135636D01*
X280162D01*
X278384Y137414D01*
Y140970D01*
X279400Y141986D01*
Y150114D01*
X279654Y150368D01*
X300482D01*
Y146304D01*
D02*
G37*
G36*
X276760Y140970D02*
Y137414D01*
X277236Y136266D01*
X279014Y134488D01*
X280162Y134012D01*
X283718D01*
X285720Y129430D01*
Y121790D01*
X285720Y121790D01*
X287176Y119010D01*
Y114510D01*
X287351Y113632D01*
X287098Y111382D01*
X286371Y110294D01*
X286371Y110294D01*
X286115Y109010D01*
Y108030D01*
X292220D01*
Y106760D01*
X293490D01*
Y101156D01*
X294970D01*
X296254Y101411D01*
X296789Y101769D01*
X297950Y102138D01*
X301490D01*
X302651Y101769D01*
X303186Y101411D01*
X305136Y98090D01*
X305557Y96156D01*
X305149Y95523D01*
X283264D01*
X279564Y99224D01*
X278323Y100052D01*
X276860Y100343D01*
X198841D01*
X197324Y105343D01*
X197661Y105568D01*
X198766Y107222D01*
X199154Y109173D01*
X198766Y111124D01*
X197661Y112778D01*
X196007Y113883D01*
X194056Y114271D01*
X193608Y114182D01*
X189587Y116530D01*
X188608Y117560D01*
Y132969D01*
X188430Y133866D01*
X188638Y134470D01*
X189529Y135771D01*
X191777Y138255D01*
X193548Y138021D01*
X197072Y138485D01*
X199012Y139289D01*
X201693Y136997D01*
X202633Y135590D01*
X202129Y134372D01*
X201894Y132588D01*
X202129Y130804D01*
X202818Y129141D01*
X203913Y127713D01*
X205341Y126618D01*
X207004Y125929D01*
X208788Y125694D01*
X210572Y125929D01*
X212235Y126618D01*
X213663Y127713D01*
X214758Y129141D01*
X215447Y130804D01*
X215682Y132588D01*
X215447Y134372D01*
X215787Y137130D01*
X221002Y138742D01*
X222777Y136688D01*
X222623Y134793D01*
X222449Y134372D01*
X222214Y132588D01*
X222449Y130804D01*
X223138Y129141D01*
X224233Y127713D01*
X225661Y126618D01*
X227324Y125929D01*
X229108Y125694D01*
X230892Y125929D01*
X232555Y126618D01*
X233983Y127713D01*
X235078Y129141D01*
X237619Y130800D01*
X239522Y130797D01*
X239522Y130796D01*
X240304Y130797D01*
X256032D01*
X257495Y131088D01*
X258736Y131916D01*
X265340Y138520D01*
X265575Y138872D01*
X268990Y142458D01*
X272141D01*
X276760Y140970D01*
D02*
G37*
G36*
X337696Y140462D02*
X347470Y130688D01*
Y126492D01*
X341760D01*
X335283Y132969D01*
Y142494D01*
X337696D01*
Y140462D01*
D02*
G37*
G36*
X176650Y125860D02*
Y119560D01*
X174050Y116960D01*
X143320Y116960D01*
X142340Y117940D01*
X142340Y127960D01*
X142620Y128240D01*
X174270Y128240D01*
X176650Y125860D01*
D02*
G37*
G36*
X321430Y85210D02*
X316688Y82943D01*
X316752Y83042D01*
X316735Y83129D01*
X316637Y83207D01*
X316459Y83274D01*
X316201Y83331D01*
X314365Y83455D01*
X313705Y83460D01*
X316180Y86960D01*
X316845Y86995D01*
X317440Y87100D01*
X317965Y87275D01*
X318420Y87520D01*
X318805Y87835D01*
X319120Y88220D01*
X319365Y88675D01*
X319540Y89200D01*
X319645Y89795D01*
X319680Y90460D01*
X319680Y90460D01*
Y90460D01*
X321430Y85210D01*
D02*
G37*
G36*
X230061Y83460D02*
X229371Y83435D01*
X228702Y83361D01*
X228053Y83237D01*
X227425Y83064D01*
X226817Y82841D01*
X226230Y82569D01*
X225663Y82247D01*
X225117Y81876D01*
X224591Y81455D01*
X224086Y80985D01*
X219136D01*
X219571Y81455D01*
X219887Y81876D01*
X220083Y82247D01*
X220160Y82569D01*
X220117Y82841D01*
X219955Y83064D01*
X219673Y83237D01*
X219272Y83361D01*
X218751Y83435D01*
X218111Y83460D01*
X225836Y86960D01*
X230061Y83460D01*
D02*
G37*
%LPC*%
G36*
X292620Y272031D02*
X287559D01*
Y266700D01*
X292620D01*
Y272031D01*
D02*
G37*
G36*
X28739Y264386D02*
X20739D01*
X19042Y264163D01*
X17461Y263508D01*
X16103Y262466D01*
X15061Y261108D01*
X14406Y259527D01*
X14183Y257830D01*
X14406Y256133D01*
X15061Y254552D01*
X16103Y253194D01*
X17461Y252152D01*
X19042Y251497D01*
X20739Y251274D01*
X28739D01*
X30436Y251497D01*
X32017Y252152D01*
X33375Y253194D01*
X34417Y254552D01*
X35072Y256133D01*
X35295Y257830D01*
X35072Y259527D01*
X34417Y261108D01*
X33375Y262466D01*
X32017Y263508D01*
X30436Y264163D01*
X28739Y264386D01*
D02*
G37*
G36*
Y177986D02*
X20739D01*
X19042Y177763D01*
X17461Y177108D01*
X16103Y176066D01*
X15061Y174708D01*
X14406Y173127D01*
X14183Y171430D01*
X14406Y169733D01*
X15061Y168152D01*
X16103Y166794D01*
X17461Y165752D01*
X19042Y165097D01*
X20739Y164874D01*
X28739D01*
X30436Y165097D01*
X32017Y165752D01*
X33375Y166794D01*
X34417Y168152D01*
X35072Y169733D01*
X35295Y171430D01*
X35072Y173127D01*
X34417Y174708D01*
X33375Y176066D01*
X32017Y177108D01*
X30436Y177763D01*
X28739Y177986D01*
D02*
G37*
G36*
X167621Y167954D02*
X163751D01*
Y164084D01*
X167621D01*
Y167954D01*
D02*
G37*
G36*
Y161544D02*
X163751D01*
Y157674D01*
X167621D01*
Y161544D01*
D02*
G37*
G36*
X109634D02*
X104573D01*
Y156213D01*
X109634D01*
Y161544D01*
D02*
G37*
G36*
X166875Y142061D02*
X161544D01*
Y137000D01*
X166875D01*
Y142061D01*
D02*
G37*
G36*
X82200Y126246D02*
X78330D01*
Y122376D01*
X82200D01*
Y126246D01*
D02*
G37*
G36*
X131850Y129690D02*
X122250D01*
Y116690D01*
X131850D01*
Y129690D01*
D02*
G37*
G36*
X54324Y96266D02*
X49990D01*
Y94786D01*
X50245Y93502D01*
X50972Y92414D01*
X52060Y91687D01*
X53344Y91432D01*
X54324D01*
Y96266D01*
D02*
G37*
G36*
X31972Y70606D02*
X12972D01*
Y47606D01*
X31972D01*
Y54287D01*
X35448D01*
X37418Y54679D01*
X39089Y55795D01*
X40205Y57466D01*
X40597Y59436D01*
X40205Y61406D01*
X39089Y63077D01*
X37418Y64193D01*
X35448Y64585D01*
X31972D01*
Y70606D01*
D02*
G37*
G36*
X119380Y189454D02*
X115510D01*
Y185584D01*
X119380D01*
Y189454D01*
D02*
G37*
G36*
X394234Y251684D02*
X389214D01*
Y246164D01*
X394234D01*
Y251684D01*
D02*
G37*
G36*
X340240Y239011D02*
Y233680D01*
X345301D01*
Y239011D01*
X340240D01*
D02*
G37*
G36*
X502998Y217920D02*
X490728D01*
Y212670D01*
X502998D01*
Y217920D01*
D02*
G37*
G36*
X488188D02*
X475918D01*
Y212670D01*
X488188D01*
Y217920D01*
D02*
G37*
G36*
X502998Y210130D02*
X490728D01*
Y204880D01*
X502998D01*
Y210130D01*
D02*
G37*
G36*
Y188293D02*
X490728D01*
Y183170D01*
X502998D01*
Y188293D01*
D02*
G37*
G36*
X439683Y185380D02*
X434848D01*
Y181045D01*
X436328D01*
X437612Y181301D01*
X438700Y182028D01*
X439427Y183116D01*
X439683Y184400D01*
Y185380D01*
D02*
G37*
G36*
X432308D02*
X427473D01*
Y184400D01*
X427729Y183116D01*
X428456Y182028D01*
X429544Y181301D01*
X430828Y181045D01*
X432308D01*
Y185380D01*
D02*
G37*
G36*
X409711D02*
X404876D01*
Y181045D01*
X406356D01*
X407640Y181301D01*
X408728Y182028D01*
X409455Y183116D01*
X409711Y184400D01*
Y185380D01*
D02*
G37*
G36*
X502998Y180630D02*
X490728D01*
Y175507D01*
X502998D01*
Y180630D01*
D02*
G37*
G36*
X488188D02*
X475918D01*
Y175507D01*
X488188D01*
Y180630D01*
D02*
G37*
G36*
X395914Y146130D02*
X391080D01*
Y141796D01*
X392560D01*
X393844Y142051D01*
X394932Y142778D01*
X395659Y143866D01*
X395914Y145150D01*
Y146130D01*
D02*
G37*
G36*
X388540D02*
X383706D01*
Y145150D01*
X383961Y143866D01*
X384688Y142778D01*
X385776Y142051D01*
X387060Y141796D01*
X388540D01*
Y146130D01*
D02*
G37*
G36*
X367479Y107150D02*
X362645D01*
Y102816D01*
X364125D01*
X365409Y103071D01*
X366497Y103798D01*
X367224Y104886D01*
X367479Y106170D01*
Y107150D01*
D02*
G37*
G36*
X443204Y93226D02*
Y88392D01*
X447538D01*
Y89872D01*
X447283Y91156D01*
X446556Y92244D01*
X445468Y92971D01*
X444184Y93226D01*
X443204D01*
D02*
G37*
G36*
X405664D02*
X404684D01*
X403400Y92971D01*
X402312Y92244D01*
X401585Y91156D01*
X401329Y89872D01*
Y88392D01*
X405664D01*
Y93226D01*
D02*
G37*
G36*
X349196Y77814D02*
Y62044D01*
X353966D01*
Y77814D01*
X349196D01*
D02*
G37*
G36*
X452974Y59504D02*
X448204D01*
Y43734D01*
X452974D01*
Y59504D01*
D02*
G37*
G36*
X353966D02*
X349196D01*
Y43734D01*
X353966D01*
Y59504D01*
D02*
G37*
G36*
X255832D02*
X251062D01*
Y43734D01*
X255832D01*
Y59504D01*
D02*
G37*
G36*
X474474Y34814D02*
X467704D01*
Y24044D01*
X474474D01*
Y34814D01*
D02*
G37*
G36*
X291466D02*
X284696D01*
Y24044D01*
X291466D01*
Y34814D01*
D02*
G37*
G36*
X193332D02*
X186562D01*
Y24044D01*
X193332D01*
Y34814D01*
D02*
G37*
G36*
X390474D02*
X383704D01*
Y24044D01*
X390474D01*
Y34814D01*
D02*
G37*
G36*
X184022D02*
X177252D01*
Y24044D01*
X184022D01*
Y34814D01*
D02*
G37*
G36*
X366156D02*
X359386D01*
Y24044D01*
X366156D01*
Y34814D01*
D02*
G37*
G36*
X465164D02*
X458394D01*
Y24044D01*
X465164D01*
Y34814D01*
D02*
G37*
G36*
X268022D02*
X261252D01*
Y24044D01*
X268022D01*
Y34814D01*
D02*
G37*
G36*
X474474Y21504D02*
X467704D01*
Y10734D01*
X474474D01*
Y21504D01*
D02*
G37*
G36*
X465164D02*
X458394D01*
Y10734D01*
X465164D01*
Y21504D01*
D02*
G37*
G36*
X390474D02*
X383704D01*
Y10734D01*
X390474D01*
Y21504D01*
D02*
G37*
G36*
X381164Y34814D02*
X368696D01*
Y22774D01*
Y10734D01*
X381164D01*
Y22774D01*
Y34814D01*
D02*
G37*
G36*
X366156Y21504D02*
X359386D01*
Y10734D01*
X366156D01*
Y21504D01*
D02*
G37*
G36*
X291466D02*
X284696D01*
Y10734D01*
X291466D01*
Y21504D01*
D02*
G37*
G36*
X282156Y34814D02*
X270562D01*
Y22774D01*
Y10734D01*
X282156D01*
Y22774D01*
Y34814D01*
D02*
G37*
G36*
X268022Y21504D02*
X261252D01*
Y10734D01*
X268022D01*
Y21504D01*
D02*
G37*
G36*
X193332D02*
X186562D01*
Y10734D01*
X193332D01*
Y21504D01*
D02*
G37*
G36*
X184022D02*
X177252D01*
Y10734D01*
X184022D01*
Y21504D01*
D02*
G37*
G36*
X290950Y105490D02*
X286115D01*
Y104510D01*
X286371Y103226D01*
X287098Y102138D01*
X288186Y101411D01*
X289470Y101156D01*
X290950D01*
Y105490D01*
D02*
G37*
%LPD*%
D11*
X289306Y201168D02*
X289788Y201650D01*
X281940Y201168D02*
X289306D01*
X289788Y201650D02*
X294918D01*
X279654Y198882D02*
X281940Y201168D01*
X232918Y198882D02*
X279654D01*
X228600Y175371D02*
Y194564D01*
X225298Y170688D02*
Y172069D01*
X228600Y175371D01*
Y194564D02*
X232918Y198882D01*
D12*
X402553Y208280D02*
X403606D01*
X386748Y202916D02*
X397189D01*
X402553Y208280D01*
X397338Y214628D02*
Y219188D01*
X393360Y210650D02*
X397338Y214628D01*
X386482Y210650D02*
X393360D01*
X397338Y219188D02*
X397510Y219360D01*
X376174Y210650D02*
X386482D01*
X282130Y147598D02*
X301372D01*
X386482Y202650D02*
X386748Y202916D01*
X376174Y202650D02*
X386482D01*
X362943Y201650D02*
X375174D01*
X376174Y202650D01*
X336430Y136010D02*
Y150138D01*
X451358Y198920D02*
Y207518D01*
X124390Y13304D02*
Y29926D01*
X218948Y122988D02*
Y138441D01*
X212598Y144791D02*
X218948Y138441D01*
X212598Y144791D02*
Y145288D01*
X336430Y136010D02*
X344424Y128016D01*
X362943Y191650D02*
X374968D01*
X376238Y190380D01*
X349504Y203708D02*
X351562Y201650D01*
X451358Y186436D02*
Y194380D01*
D25*
X386482Y210650D02*
D03*
Y202650D02*
D03*
X376174D02*
D03*
Y210650D02*
D03*
X77060Y121106D02*
D03*
Y113106D02*
D03*
X120650Y184314D02*
D03*
Y176314D02*
D03*
D27*
X269292Y22774D02*
D03*
X185292D02*
D03*
X283426D02*
D03*
X367426D02*
D03*
X466434D02*
D03*
X382434D02*
D03*
D28*
X132390Y42656D02*
D03*
X124390D02*
D03*
Y28656D02*
D03*
X132390D02*
D03*
D29*
Y13304D02*
D03*
X124390D02*
D03*
X262890Y192532D02*
D03*
X270890D02*
D03*
X162481Y162814D02*
D03*
X154481D02*
D03*
X376238Y190380D02*
D03*
X384238D02*
D03*
X298430Y231140D02*
D03*
X306430D02*
D03*
X298430Y254000D02*
D03*
X306430D02*
D03*
X282130Y156650D02*
D03*
X274130D02*
D03*
Y147598D02*
D03*
X282130D02*
D03*
D32*
X301430Y150138D02*
D03*
D33*
X306430D02*
D03*
X311430D02*
D03*
X316430D02*
D03*
X321430D02*
D03*
X326430D02*
D03*
X331430D02*
D03*
X336430D02*
D03*
X351430D02*
D03*
X356430D02*
D03*
Y218162D02*
D03*
X306430D02*
D03*
X341430Y150138D02*
D03*
X346430D02*
D03*
X351430Y218162D02*
D03*
X346430D02*
D03*
X341430D02*
D03*
X336430D02*
D03*
X331430D02*
D03*
X326430D02*
D03*
X321430D02*
D03*
X316430D02*
D03*
X311430D02*
D03*
X301430D02*
D03*
D34*
X362943Y171650D02*
D03*
Y191650D02*
D03*
Y196650D02*
D03*
Y201650D02*
D03*
Y206650D02*
D03*
Y211650D02*
D03*
X294918D02*
D03*
Y206650D02*
D03*
Y201650D02*
D03*
Y196650D02*
D03*
Y191650D02*
D03*
Y181650D02*
D03*
Y156650D02*
D03*
X362943D02*
D03*
Y161650D02*
D03*
Y166650D02*
D03*
Y176650D02*
D03*
Y181650D02*
D03*
Y186650D02*
D03*
X294918D02*
D03*
Y176650D02*
D03*
Y171650D02*
D03*
Y166650D02*
D03*
Y161650D02*
D03*
D35*
X318970Y260604D02*
D03*
X342470D02*
D03*
D36*
X316430Y237930D02*
D03*
Y229430D02*
D03*
D38*
X134630Y176314D02*
D03*
Y162814D02*
D03*
D39*
X110904D02*
D03*
X123444D02*
D03*
X326430Y232410D02*
D03*
X338970D02*
D03*
X306430Y242570D02*
D03*
X293890D02*
D03*
X306430Y265430D02*
D03*
X293890D02*
D03*
D40*
X146050Y123190D02*
D03*
X127050D02*
D03*
Y149190D02*
D03*
X136550D02*
D03*
X146050D02*
D03*
D42*
X160274Y135730D02*
D03*
Y123190D02*
D03*
D43*
X414806Y196650D02*
D03*
X422378D02*
D03*
D60*
X328930Y184150D02*
D03*
D70*
X349825Y108420D02*
D03*
Y118420D02*
D03*
X361375D02*
D03*
Y108420D02*
D03*
X416934Y102442D02*
D03*
Y112442D02*
D03*
X431934Y118942D02*
D03*
Y108942D02*
D03*
X389810Y157400D02*
D03*
X403606Y186650D02*
D03*
Y196650D02*
D03*
X433578Y186650D02*
D03*
Y196650D02*
D03*
X307220Y116760D02*
D03*
Y106760D02*
D03*
X389810Y147400D02*
D03*
X292220Y116760D02*
D03*
Y106760D02*
D03*
D71*
X114390Y59166D02*
D03*
X124390D02*
D03*
X379810Y171650D02*
D03*
X389810D02*
D03*
X441934Y87122D02*
D03*
X431934D02*
D03*
X406934D02*
D03*
X416934D02*
D03*
X184785Y109173D02*
D03*
X174785D02*
D03*
X65594Y113106D02*
D03*
X55594D02*
D03*
X65594Y97536D02*
D03*
X55594D02*
D03*
X132390Y66024D02*
D03*
X142390D02*
D03*
X99234Y227130D02*
D03*
X89234D02*
D03*
X99234Y197104D02*
D03*
X89234D02*
D03*
D72*
X377444Y231394D02*
D03*
X387944Y244894D02*
D03*
X377444D02*
D03*
X387944Y231394D02*
D03*
D73*
X451358Y198920D02*
D03*
Y194380D02*
D03*
D74*
X72289Y207130D02*
D03*
Y202130D02*
D03*
Y232130D02*
D03*
Y227130D02*
D03*
Y197130D02*
D03*
Y212130D02*
D03*
Y222130D02*
D03*
Y217130D02*
D03*
D75*
X73000Y246630D02*
D03*
Y190630D02*
D03*
Y182630D02*
D03*
Y238630D02*
D03*
D76*
X474458Y196650D02*
D03*
D77*
X489458Y211400D02*
D03*
D78*
Y181900D02*
D03*
D79*
X445238Y196650D02*
D03*
X457488D02*
D03*
D80*
X249792Y60774D02*
D03*
X234792D02*
D03*
X219792D02*
D03*
X204792D02*
D03*
X302926D02*
D03*
X317926D02*
D03*
X332926D02*
D03*
X347926D02*
D03*
X446934D02*
D03*
X431934D02*
D03*
X416934D02*
D03*
X401934D02*
D03*
D81*
X225298Y145288D02*
D03*
Y170688D02*
D03*
Y157988D02*
D03*
X212598D02*
D03*
Y170688D02*
D03*
Y145288D02*
D03*
D82*
X22472Y59106D02*
D03*
Y113106D02*
D03*
D83*
X307220Y129540D02*
D03*
X292220D02*
D03*
D84*
X121358Y199796D02*
D03*
Y218796D02*
D03*
X146358Y199796D02*
D03*
Y218796D02*
D03*
X121358Y209296D02*
D03*
X146358D02*
D03*
D85*
X99234Y197104D02*
X99274Y197064D01*
Y186476D02*
X99314Y186436D01*
X99274Y186476D02*
Y197064D01*
X391922Y182118D02*
Y182696D01*
X384238Y190380D02*
X391922Y182696D01*
X134200Y209296D02*
X146358D01*
X134200D02*
Y231540D01*
Y176744D02*
Y209296D01*
X120650Y176314D02*
X134630D01*
X95796D02*
X120650D01*
X72354Y238695D02*
X127045D01*
X72571Y190348D02*
X81762D01*
X307220Y99822D02*
Y106760D01*
X127045Y238695D02*
X134200Y231540D01*
Y176744D02*
X134630Y176314D01*
X110970Y209130D02*
X111053Y209213D01*
Y209296D02*
X121275D01*
Y209213D02*
X121358Y209296D01*
X162481Y162814D02*
X170942D01*
X280670Y192532D02*
X284814Y196676D01*
X270890Y192532D02*
X280670D01*
X339097Y232283D02*
X349123D01*
X349250Y232156D01*
X338970Y232410D02*
X339097Y232283D01*
X387944Y244894D02*
X388441Y245391D01*
Y244894D02*
X400997D01*
Y245391D02*
X401494Y245889D01*
X366776Y231394D02*
X377444D01*
X71053Y237394D02*
X72354Y238695D01*
X306430Y231140D02*
Y242570D01*
Y223668D02*
Y231140D01*
X321430Y191650D02*
Y193294D01*
X319278D02*
X321430Y195446D01*
X132438Y13256D02*
X154638D01*
X132390Y13304D02*
X132438Y13256D01*
X154638D02*
X154686Y13208D01*
X441934Y87122D02*
Y97282D01*
X406934Y87122D02*
Y97790D01*
X348207Y38127D02*
X348488Y37846D01*
X347926Y60774D02*
X348207Y60493D01*
X354800Y22774D02*
X367426D01*
X115888Y13304D02*
X124390D01*
X132390D02*
Y28656D01*
X165608Y109173D02*
X174785D01*
X173990Y108712D02*
X174324Y109046D01*
X262636Y192278D02*
X262890Y192532D01*
X55594Y86868D02*
Y97536D01*
X77060Y121106D02*
X86204D01*
X270890Y192532D02*
X271081Y192341D01*
Y185611D02*
X271272Y185420D01*
X271081Y185611D02*
Y192341D01*
X262636Y185166D02*
Y192278D01*
X284814Y196676D02*
X289306D01*
X329184Y184150D02*
Y203708D01*
X328930Y184150D02*
X329184D01*
X489458Y172466D02*
Y181900D01*
X489966Y211908D02*
Y219456D01*
X489458Y211400D02*
X489966Y211908D01*
X282130Y156650D02*
Y163576D01*
X273294Y142662D02*
Y146761D01*
X271526Y139954D02*
Y140894D01*
X273294Y142662D01*
Y146761D02*
X274130Y147598D01*
X282130Y139890D02*
Y147598D01*
X274130D02*
Y156650D01*
X306377Y265483D02*
Y275537D01*
Y265483D02*
X306430Y265430D01*
X306324Y275590D02*
X306377Y275537D01*
X376322Y182118D02*
Y190296D01*
X111657Y184314D02*
X120627D01*
X81762Y190348D02*
X95796Y176314D01*
X72414Y246505D02*
X82425D01*
X99234Y227330D02*
X107696D01*
X110650Y153924D02*
Y162814D01*
X282130Y156650D02*
X289814D01*
X306430Y254000D02*
Y265430D01*
Y242570D02*
Y254000D01*
X71053Y191866D02*
X72289Y190630D01*
X75039Y182630D02*
X85457Y172212D01*
X72753Y182630D02*
X75039D01*
X85457Y172212D02*
X85852D01*
X72289Y246630D02*
X72414Y246505D01*
X321430Y191650D02*
X328930Y184150D01*
X160274Y135636D02*
Y144780D01*
X136754Y134656D02*
Y145044D01*
X137668Y134620D02*
X137704Y134656D01*
X274098Y156682D02*
X274130Y156650D01*
X292220Y99822D02*
Y106760D01*
X283845Y265303D02*
X293763D01*
X293890Y265430D01*
X283718Y265176D02*
X283845Y265303D01*
X289052Y254000D02*
X298430D01*
X283464Y242570D02*
X293890D01*
X288036Y231140D02*
X298260D01*
X433578Y175768D02*
Y186650D01*
X403606Y175134D02*
Y186650D01*
D86*
X132390Y42656D02*
Y74150D01*
X134440Y76200D01*
X177800D01*
X349825Y118420D02*
X361375D01*
X146358Y218796D02*
X147195Y217959D01*
X154945D01*
X160058Y212846D01*
X304380Y140880D02*
X306430Y142930D01*
Y145270D01*
X296980Y140880D02*
X304380D01*
X294930Y138830D02*
X296980Y140880D01*
X292220Y129540D02*
X294930Y132250D01*
Y138830D01*
X307220Y116760D02*
Y130790D01*
X311430Y135000D02*
Y143450D01*
X80794Y212130D02*
X100220D01*
X106886Y218796D02*
X121358D01*
X100220Y212130D02*
X106886Y218796D01*
X107284Y199796D02*
X121358D01*
X72289Y207130D02*
X99950D01*
X107284Y199796D01*
X356750Y131100D02*
X374360D01*
X393018Y112442D02*
X416934D01*
X374360Y131100D02*
X393018Y112442D01*
X351430Y136420D02*
X356750Y131100D01*
X351430Y136420D02*
Y143774D01*
X377048Y137810D02*
X395916Y118942D01*
X356430Y220326D02*
Y237304D01*
X364020Y244894D01*
X275146Y177546D02*
X286750Y189150D01*
X265430Y177546D02*
X275146D01*
X311110Y91700D02*
X316430Y97020D01*
X281680Y91700D02*
X311110D01*
X316430Y97020D02*
Y143564D01*
X276860Y96520D02*
X281680Y91700D01*
X374142Y220218D02*
X384677D01*
X362943Y211650D02*
X365574D01*
X374142Y220218D01*
X368808Y171650D02*
X379810D01*
X316430Y237930D02*
Y258064D01*
X384677Y220218D02*
X387944Y223485D01*
Y231394D01*
X403606Y196650D02*
X414806D01*
X433578D02*
X445238D01*
X146000Y162814D02*
X154481D01*
X331460Y128850D02*
Y143534D01*
X331430Y143564D02*
X331460Y143534D01*
Y128850D02*
X337566Y122744D01*
Y109220D02*
Y122744D01*
X326430Y105624D02*
Y143564D01*
X321430Y85210D02*
Y143564D01*
X61722Y215080D02*
X63772Y217130D01*
X61722Y209180D02*
Y215080D01*
X63772Y217130D02*
X72289D01*
X316430Y223012D02*
Y229430D01*
X395916Y118942D02*
X431934D01*
Y87122D02*
Y108942D01*
Y60774D02*
Y87122D01*
X416934D02*
Y102442D01*
Y60774D02*
Y87122D01*
X225836Y85210D02*
X321430D01*
X219792Y79166D02*
X225836Y85210D01*
X133654D02*
X225836D01*
X124390Y75946D02*
X133654Y85210D01*
X332926Y60774D02*
Y84836D01*
X124390Y59166D02*
Y75946D01*
X219792Y60774D02*
Y79166D01*
X317926Y60774D02*
Y81706D01*
X321430Y85210D01*
X124390Y43926D02*
Y59166D01*
X326430Y105624D02*
X332926Y99128D01*
Y84836D02*
Y99128D01*
X234792Y60774D02*
Y65854D01*
Y38100D02*
Y60774D01*
X193825Y108942D02*
X194056Y108712D01*
X184785Y109173D02*
X194056D01*
X184785D02*
Y132969D01*
X177038Y140716D02*
X184785Y132969D01*
X177038Y140716D02*
Y159004D01*
X185420Y167386D02*
X203200D01*
X177038Y159004D02*
X185420Y167386D01*
X66610Y96520D02*
X276860D01*
X65594Y97536D02*
X66610Y96520D01*
X203200Y167386D02*
X212598Y157988D01*
X225298D02*
X234950Y167640D01*
X229830Y144312D02*
X239522Y134620D01*
X226274Y144312D02*
X229830D01*
X225298Y145288D02*
X226274Y144312D01*
X256032Y134620D02*
X262636Y141224D01*
X239522Y134620D02*
X256032D01*
X255524Y167640D02*
X265430Y177546D01*
X262636Y141224D02*
Y163322D01*
X234950Y167640D02*
X255524D01*
X457488Y196650D02*
X474458D01*
X65594Y97536D02*
Y113106D01*
X77060D01*
X22472D02*
X55594D01*
X160058Y205746D02*
X287020D01*
X154108Y199796D02*
X160058Y205746D01*
X146358Y199796D02*
X154108D01*
X160058Y212846D02*
X287020D01*
Y205746D02*
X287924Y206650D01*
X294918D01*
X287020Y212846D02*
X288216Y211650D01*
X294918D01*
X80794Y212130D02*
X82804Y214140D01*
X72237Y222130D02*
X80754D01*
X72289Y212130D02*
X80794D01*
X63772Y207130D02*
X72289D01*
X61722Y209180D02*
X63772Y207130D01*
X82804Y214140D02*
Y220080D01*
X80754Y222130D02*
X82804Y220080D01*
X307220Y130790D02*
X311430Y135000D01*
X292220Y116760D02*
Y129540D01*
X362943Y196650D02*
X369262D01*
X403606D01*
X326430Y232410D02*
Y245283D01*
X326390Y223266D02*
Y232370D01*
X326430Y232410D01*
X146000Y146558D02*
Y162814D01*
X127254Y146558D02*
Y162814D01*
X270002Y170688D02*
X278384D01*
X262636Y163322D02*
X270002Y170688D01*
X278384D02*
X289306Y181610D01*
X123444Y162814D02*
X127254D01*
X135446D01*
X146000D01*
X326430Y245283D02*
X338484Y257337D01*
Y257368D02*
X341720Y260604D01*
X338484Y257337D02*
Y257368D01*
X341720Y260604D02*
X342470D01*
X316430Y258064D02*
X318970Y260604D01*
X89221Y195339D02*
X89234Y195326D01*
X389810Y157400D02*
Y171650D01*
X364020Y244894D02*
X377444D01*
X422378Y196650D02*
X433578D01*
D87*
X382434Y22774D02*
X394716D01*
X344424Y123417D02*
Y128016D01*
Y123417D02*
X349373Y118468D01*
X302926Y37846D02*
Y60774D01*
X204829Y38137D02*
X204866Y38100D01*
X204792Y60774D02*
X204829Y60737D01*
Y38137D02*
Y60737D01*
X257264Y22774D02*
X269292D01*
X283426D02*
X295364D01*
X249792Y38100D02*
Y65854D01*
X185292Y22774D02*
X196812D01*
X361375Y118420D02*
X372043D01*
X454660Y22774D02*
X466434D01*
X446934Y43688D02*
Y65854D01*
X160274Y123190D02*
X172974D01*
X146254D02*
X160274D01*
D88*
X212598Y170688D02*
Y171992D01*
X207366Y192430D02*
X209804Y189992D01*
Y174786D02*
X212598Y171992D01*
X209804Y174786D02*
Y189992D01*
X142224Y66032D02*
X151638D01*
X114390Y59310D02*
Y69436D01*
X114000Y59310D02*
X114144Y59166D01*
X113856Y69580D02*
X114000Y69436D01*
X349825Y97418D02*
Y108420D01*
X361375D02*
X375345D01*
X207366Y192430D02*
Y198780D01*
X389850Y138470D02*
Y147360D01*
X389810Y147400D02*
X389850Y147360D01*
Y138470D02*
X389890Y138430D01*
D89*
X77198Y197130D02*
X77224Y197104D01*
X72315Y197130D02*
X77198D01*
X77224Y197104D02*
X89234D01*
X72289Y227130D02*
X89234D01*
D90*
X306430Y145270D02*
Y150138D01*
X311430Y143450D02*
Y150138D01*
X356430Y143830D02*
Y150138D01*
X351430Y143774D02*
Y150138D01*
X289250Y191650D02*
X294918D01*
X286750Y189150D02*
X289250Y191650D01*
X301430Y147600D02*
Y150138D01*
X301428Y147598D02*
X301430Y147600D01*
X301372Y147598D02*
X301428D01*
X289814Y156650D02*
X294918D01*
X362943Y171650D02*
X368808D01*
X331430Y143564D02*
Y150138D01*
X326430Y143564D02*
Y150138D01*
X321430Y143564D02*
Y150138D01*
X401574Y40132D02*
X401934Y40492D01*
X401754Y60594D02*
X401934Y60774D01*
X306430Y218162D02*
Y223668D01*
X321430Y195446D02*
Y218162D01*
X316430Y143564D02*
Y150138D01*
X289345Y181649D02*
X294917D01*
X294918Y181650D01*
X289306Y181610D02*
X289345Y181649D01*
X289306Y196676D02*
X294891D01*
X372194Y210650D02*
X376174D01*
X368194Y206650D02*
X372194Y210650D01*
X365586Y206650D02*
X368194D01*
X326390Y218202D02*
Y223266D01*
X316430Y218162D02*
Y223012D01*
X306430Y218162D02*
X311430D01*
D91*
X356430Y141050D02*
Y143830D01*
Y141050D02*
X359670Y137810D01*
X377048D01*
D92*
X401934Y40492D02*
Y60594D01*
X27904Y59436D02*
X35448D01*
X347926Y38127D02*
Y60493D01*
D93*
X493014Y26670D02*
D03*
X25280D02*
D03*
X99996Y259100D02*
D03*
D94*
X493014Y259340D02*
D03*
D95*
X193548Y151638D02*
D03*
Y183388D02*
D03*
X244348D02*
D03*
Y151638D02*
D03*
D96*
X218948Y183388D02*
D03*
X229108Y132588D02*
D03*
X208788D02*
D03*
D97*
X24739Y171430D02*
D03*
Y257830D02*
D03*
D98*
X61539Y185730D02*
D03*
Y243530D02*
D03*
X403606Y208280D02*
D03*
X397510Y219360D02*
D03*
X376322Y182118D02*
D03*
D99*
X66539Y257830D02*
D03*
Y171430D02*
D03*
D100*
X206330Y264875D02*
D03*
X181330D02*
D03*
X426212Y22774D02*
D03*
X324612D02*
D03*
X99314Y186436D02*
D03*
X89875Y87927D02*
D03*
X114875D02*
D03*
X391922Y182118D02*
D03*
X307220Y99822D02*
D03*
X272542Y119178D02*
D03*
X394716Y22774D02*
D03*
X468163Y264875D02*
D03*
X401084D02*
D03*
X376084D02*
D03*
X401494Y244894D02*
D03*
X423926Y215900D02*
D03*
X426084Y264875D02*
D03*
X329184Y205994D02*
D03*
X307086D02*
D03*
X340106Y193294D02*
D03*
X319278D02*
D03*
X418592Y185166D02*
D03*
X307086Y184150D02*
D03*
X351028D02*
D03*
X403606Y175134D02*
D03*
X340106Y172212D02*
D03*
X319278D02*
D03*
X282130Y163576D02*
D03*
X307086Y162052D02*
D03*
X351028D02*
D03*
X329184D02*
D03*
X497125Y156330D02*
D03*
Y131330D02*
D03*
Y106330D02*
D03*
Y81330D02*
D03*
X446934Y43688D02*
D03*
X401934Y40132D02*
D03*
X454660Y22774D02*
D03*
X497125Y56330D02*
D03*
X375345Y108420D02*
D03*
X374142Y89662D02*
D03*
X372043Y118420D02*
D03*
X354800Y22774D02*
D03*
X349825Y97418D02*
D03*
X347926Y37846D02*
D03*
X344469Y84836D02*
D03*
X337566Y109220D02*
D03*
X332926Y84836D02*
D03*
X376682Y156972D02*
D03*
X302926Y37846D02*
D03*
X295364Y22774D02*
D03*
X292220Y99822D02*
D03*
X282130Y139446D02*
D03*
X256330Y264875D02*
D03*
X231330D02*
D03*
X156330D02*
D03*
X131330D02*
D03*
X256330Y239875D02*
D03*
X206330D02*
D03*
X231330D02*
D03*
X181330D02*
D03*
X156330D02*
D03*
X207366Y198780D02*
D03*
X172720Y193548D02*
D03*
X271272Y185420D02*
D03*
X262636Y185166D02*
D03*
X162814Y184150D02*
D03*
X150114Y176022D02*
D03*
X170942Y162814D02*
D03*
X160274Y144780D02*
D03*
X271526Y139954D02*
D03*
X136754Y134620D02*
D03*
X196088Y126746D02*
D03*
X172974Y123190D02*
D03*
X25000Y275000D02*
D03*
X50000D02*
D03*
X82550Y246380D02*
D03*
X107696Y227330D02*
D03*
X25000Y225000D02*
D03*
X110970Y209296D02*
D03*
X25000Y200000D02*
D03*
X111570Y184314D02*
D03*
X85852Y172212D02*
D03*
X110650Y153924D02*
D03*
X92964Y144018D02*
D03*
X66166Y143977D02*
D03*
X16166D02*
D03*
X41166D02*
D03*
X218948Y122988D02*
D03*
X249428Y119178D02*
D03*
X165608Y109173D02*
D03*
X194056D02*
D03*
X132842Y108458D02*
D03*
X102108Y107950D02*
D03*
X177800Y76200D02*
D03*
X114390Y69580D02*
D03*
X89875Y68670D02*
D03*
X151638Y66040D02*
D03*
X177800Y63882D02*
D03*
X165100Y43670D02*
D03*
X89875D02*
D03*
X249792Y38100D02*
D03*
X234792D02*
D03*
X204866D02*
D03*
X257264Y22774D02*
D03*
X227330D02*
D03*
X196812D02*
D03*
X165100Y18670D02*
D03*
X89875D02*
D03*
X115888Y13304D02*
D03*
X154686Y13208D02*
D03*
X89252Y121106D02*
D03*
X64875Y43670D02*
D03*
Y68670D02*
D03*
X55594Y86868D02*
D03*
X35448Y59436D02*
D03*
X22606Y85344D02*
D03*
X447125Y156330D02*
D03*
X472125D02*
D03*
X422125D02*
D03*
X447125Y131330D02*
D03*
X472125D02*
D03*
X422125D02*
D03*
X472125Y106330D02*
D03*
X406934Y97790D02*
D03*
X441934Y97282D02*
D03*
X473202Y81788D02*
D03*
X389890Y138430D02*
D03*
X468163Y237335D02*
D03*
X447750D02*
D03*
X451358Y207518D02*
D03*
Y186436D02*
D03*
X433578Y175768D02*
D03*
X426084Y237335D02*
D03*
X306324Y275590D02*
D03*
X283718Y265176D02*
D03*
X289052Y254000D02*
D03*
X348742Y246634D02*
D03*
X349250Y232156D02*
D03*
X366776Y231394D02*
D03*
X288036Y231140D02*
D03*
X351028Y205994D02*
D03*
X283464Y242570D02*
D03*
X490982Y236220D02*
D03*
X489966Y219456D02*
D03*
X489458Y196650D02*
D03*
Y172466D02*
D03*
M02*
