G04*
G04 #@! TF.GenerationSoftware,Altium Limited,Altium Designer,23.0.1 (38)*
G04*
G04 Layer_Physical_Order=4*
G04 Layer_Color=16711680*
%FSLAX44Y44*%
%MOMM*%
G71*
G04*
G04 #@! TF.SameCoordinates,AA057BD2-FAE9-475E-A33E-1B252B641246*
G04*
G04*
G04 #@! TF.FilePolarity,Positive*
G04*
G01*
G75*
%ADD86C,0.3500*%
%ADD93O,3.0000X3.0480*%
%ADD94C,3.0000*%
%ADD95C,2.4000*%
%ADD96C,1.0670*%
%ADD97O,1.8000X1.0000*%
%ADD98C,0.6500*%
%ADD99O,2.1000X1.0000*%
%ADD100C,0.7000*%
G36*
X508019Y281331D02*
X510404Y280343D01*
X512452Y278771D01*
X514023Y276724D01*
X515011Y274339D01*
X515163Y273181D01*
X515080Y273056D01*
X514826Y271780D01*
Y13970D01*
X515080Y12694D01*
X515173Y12554D01*
X515011Y11321D01*
X514023Y8936D01*
X512452Y6888D01*
X510404Y5317D01*
X508019Y4329D01*
X506861Y4177D01*
X506736Y4260D01*
X505460Y4514D01*
X12700Y4514D01*
X11424Y4260D01*
X11299Y4177D01*
X10141Y4329D01*
X7756Y5317D01*
X5708Y6888D01*
X4137Y8936D01*
X3149Y11321D01*
X2987Y12554D01*
X3080Y12694D01*
X3334Y13970D01*
Y271780D01*
X3080Y273056D01*
X2997Y273181D01*
X3149Y274339D01*
X4137Y276724D01*
X5708Y278771D01*
X7756Y280343D01*
X10141Y281331D01*
X11299Y281483D01*
X11424Y281400D01*
X12700Y281146D01*
X505460Y281146D01*
X506736Y281400D01*
X506861Y281483D01*
X508019Y281331D01*
D02*
G37*
%LPC*%
G36*
X50597Y278000D02*
X49403D01*
X48301Y277543D01*
X47457Y276699D01*
X47000Y275597D01*
Y274403D01*
X47457Y273301D01*
X48301Y272457D01*
X49403Y272000D01*
X50597D01*
X51699Y272457D01*
X52543Y273301D01*
X53000Y274403D01*
Y275597D01*
X52543Y276699D01*
X51699Y277543D01*
X50597Y278000D01*
D02*
G37*
G36*
X25597D02*
X24403D01*
X23301Y277543D01*
X22457Y276699D01*
X22000Y275597D01*
Y274403D01*
X22457Y273301D01*
X23301Y272457D01*
X24403Y272000D01*
X25597D01*
X26699Y272457D01*
X27543Y273301D01*
X28000Y274403D01*
Y275597D01*
X27543Y276699D01*
X26699Y277543D01*
X25597Y278000D01*
D02*
G37*
G36*
X284315Y268176D02*
X283121D01*
X282019Y267719D01*
X281175Y266875D01*
X280718Y265773D01*
Y264579D01*
X281175Y263477D01*
X282019Y262633D01*
X283121Y262176D01*
X284315D01*
X285417Y262633D01*
X286261Y263477D01*
X286718Y264579D01*
Y265773D01*
X286261Y266875D01*
X285417Y267719D01*
X284315Y268176D01*
D02*
G37*
G36*
X468760Y267875D02*
X467567D01*
X466464Y267418D01*
X465620Y266574D01*
X465163Y265471D01*
Y264278D01*
X465620Y263175D01*
X466464Y262331D01*
X467567Y261875D01*
X468760D01*
X469863Y262331D01*
X470707Y263175D01*
X471163Y264278D01*
Y265471D01*
X470707Y266574D01*
X469863Y267418D01*
X468760Y267875D01*
D02*
G37*
G36*
X426680D02*
X425487D01*
X424384Y267418D01*
X423540Y266574D01*
X423084Y265471D01*
Y264278D01*
X423540Y263175D01*
X424384Y262331D01*
X425487Y261875D01*
X426680D01*
X427783Y262331D01*
X428627Y263175D01*
X429084Y264278D01*
Y265471D01*
X428627Y266574D01*
X427783Y267418D01*
X426680Y267875D01*
D02*
G37*
G36*
X401680D02*
X400487D01*
X399384Y267418D01*
X398540Y266574D01*
X398084Y265471D01*
Y264278D01*
X398540Y263175D01*
X399384Y262331D01*
X400487Y261875D01*
X401680D01*
X402783Y262331D01*
X403627Y263175D01*
X404084Y264278D01*
Y265471D01*
X403627Y266574D01*
X402783Y267418D01*
X401680Y267875D01*
D02*
G37*
G36*
X376680D02*
X375487D01*
X374384Y267418D01*
X373540Y266574D01*
X373084Y265471D01*
Y264278D01*
X373540Y263175D01*
X374384Y262331D01*
X375487Y261875D01*
X376680D01*
X377783Y262331D01*
X378627Y263175D01*
X379084Y264278D01*
Y265471D01*
X378627Y266574D01*
X377783Y267418D01*
X376680Y267875D01*
D02*
G37*
G36*
X256926D02*
X255733D01*
X254630Y267418D01*
X253786Y266574D01*
X253330Y265471D01*
Y264278D01*
X253786Y263175D01*
X254630Y262331D01*
X255733Y261875D01*
X256926D01*
X258029Y262331D01*
X258873Y263175D01*
X259330Y264278D01*
Y265471D01*
X258873Y266574D01*
X258029Y267418D01*
X256926Y267875D01*
D02*
G37*
G36*
X231926D02*
X230733D01*
X229630Y267418D01*
X228786Y266574D01*
X228330Y265471D01*
Y264278D01*
X228786Y263175D01*
X229630Y262331D01*
X230733Y261875D01*
X231926D01*
X233029Y262331D01*
X233873Y263175D01*
X234330Y264278D01*
Y265471D01*
X233873Y266574D01*
X233029Y267418D01*
X231926Y267875D01*
D02*
G37*
G36*
X206926D02*
X205733D01*
X204630Y267418D01*
X203786Y266574D01*
X203330Y265471D01*
Y264278D01*
X203786Y263175D01*
X204630Y262331D01*
X205733Y261875D01*
X206926D01*
X208029Y262331D01*
X208873Y263175D01*
X209330Y264278D01*
Y265471D01*
X208873Y266574D01*
X208029Y267418D01*
X206926Y267875D01*
D02*
G37*
G36*
X181926D02*
X180733D01*
X179630Y267418D01*
X178786Y266574D01*
X178330Y265471D01*
Y264278D01*
X178786Y263175D01*
X179630Y262331D01*
X180733Y261875D01*
X181926D01*
X183029Y262331D01*
X183873Y263175D01*
X184330Y264278D01*
Y265471D01*
X183873Y266574D01*
X183029Y267418D01*
X181926Y267875D01*
D02*
G37*
G36*
X156926D02*
X155733D01*
X154630Y267418D01*
X153786Y266574D01*
X153330Y265471D01*
Y264278D01*
X153786Y263175D01*
X154630Y262331D01*
X155733Y261875D01*
X156926D01*
X158029Y262331D01*
X158873Y263175D01*
X159330Y264278D01*
Y265471D01*
X158873Y266574D01*
X158029Y267418D01*
X156926Y267875D01*
D02*
G37*
G36*
X131926D02*
X130733D01*
X129630Y267418D01*
X128786Y266574D01*
X128330Y265471D01*
Y264278D01*
X128786Y263175D01*
X129630Y262331D01*
X130733Y261875D01*
X131926D01*
X133029Y262331D01*
X133873Y263175D01*
X134330Y264278D01*
Y265471D01*
X133873Y266574D01*
X133029Y267418D01*
X131926Y267875D01*
D02*
G37*
G36*
X72039Y264386D02*
X61039D01*
X59342Y264163D01*
X57761Y263508D01*
X56403Y262466D01*
X55361Y261108D01*
X54706Y259527D01*
X54483Y257830D01*
X54706Y256133D01*
X55361Y254552D01*
X56403Y253194D01*
X57761Y252152D01*
X59342Y251497D01*
X61039Y251274D01*
X72039D01*
X73736Y251497D01*
X75317Y252152D01*
X76675Y253194D01*
X77717Y254552D01*
X78372Y256133D01*
X78595Y257830D01*
X78372Y259527D01*
X77717Y261108D01*
X76675Y262466D01*
X75317Y263508D01*
X73736Y264163D01*
X72039Y264386D01*
D02*
G37*
G36*
X28739D02*
X20739D01*
X19042Y264163D01*
X17461Y263508D01*
X16103Y262466D01*
X15061Y261108D01*
X14406Y259527D01*
X14183Y257830D01*
X14406Y256133D01*
X15061Y254552D01*
X16103Y253194D01*
X17461Y252152D01*
X19042Y251497D01*
X20739Y251274D01*
X28739D01*
X30436Y251497D01*
X32017Y252152D01*
X33375Y253194D01*
X34417Y254552D01*
X35072Y256133D01*
X35295Y257830D01*
X35072Y259527D01*
X34417Y261108D01*
X33375Y262466D01*
X32017Y263508D01*
X30436Y264163D01*
X28739Y264386D01*
D02*
G37*
G36*
X289649Y257000D02*
X288455D01*
X287353Y256543D01*
X286509Y255699D01*
X286052Y254597D01*
Y253403D01*
X286509Y252301D01*
X287353Y251457D01*
X288455Y251000D01*
X289649D01*
X290751Y251457D01*
X291595Y252301D01*
X292052Y253403D01*
Y254597D01*
X291595Y255699D01*
X290751Y256543D01*
X289649Y257000D01*
D02*
G37*
G36*
X349339Y249634D02*
X348145D01*
X347043Y249177D01*
X346199Y248333D01*
X345742Y247231D01*
Y246037D01*
X346199Y244935D01*
X347043Y244091D01*
X348145Y243634D01*
X349339D01*
X350441Y244091D01*
X351285Y244935D01*
X351742Y246037D01*
Y247231D01*
X351285Y248333D01*
X350441Y249177D01*
X349339Y249634D01*
D02*
G37*
G36*
X83147Y249380D02*
X81953D01*
X80851Y248923D01*
X80007Y248079D01*
X79550Y246977D01*
Y245783D01*
X80007Y244681D01*
X80851Y243837D01*
X81953Y243380D01*
X83147D01*
X84249Y243837D01*
X85093Y244681D01*
X85550Y245783D01*
Y246977D01*
X85093Y248079D01*
X84249Y248923D01*
X83147Y249380D01*
D02*
G37*
G36*
X494639Y275840D02*
X491389D01*
X488201Y275206D01*
X485198Y273962D01*
X482496Y272156D01*
X480198Y269858D01*
X478392Y267155D01*
X477148Y264153D01*
X476514Y260965D01*
Y257715D01*
X477148Y254527D01*
X478392Y251524D01*
X480198Y248822D01*
X482496Y246523D01*
X485198Y244718D01*
X488201Y243474D01*
X491389Y242840D01*
X494639D01*
X497827Y243474D01*
X500830Y244718D01*
X503532Y246523D01*
X505830Y248822D01*
X507636Y251524D01*
X508880Y254527D01*
X509514Y257715D01*
Y260965D01*
X508880Y264153D01*
X507636Y267155D01*
X505830Y269858D01*
X503532Y272156D01*
X500830Y273962D01*
X497827Y275206D01*
X494639Y275840D01*
D02*
G37*
G36*
X99996Y275920D02*
X96762Y275601D01*
X93651Y274658D01*
X90785Y273125D01*
X88272Y271064D01*
X86210Y268551D01*
X84678Y265685D01*
X83735Y262574D01*
X83416Y259340D01*
Y258860D01*
X83735Y255625D01*
X84678Y252515D01*
X86210Y249649D01*
X88272Y247136D01*
X90785Y245074D01*
X93651Y243542D01*
X96762Y242599D01*
X99996Y242280D01*
X103231Y242599D01*
X106341Y243542D01*
X109207Y245074D01*
X111720Y247136D01*
X113782Y249649D01*
X115314Y252515D01*
X116257Y255625D01*
X116576Y258860D01*
Y259340D01*
X116257Y262574D01*
X115314Y265685D01*
X113782Y268551D01*
X111720Y271064D01*
X109207Y273125D01*
X106341Y274658D01*
X103231Y275601D01*
X99996Y275920D01*
D02*
G37*
G36*
X402091Y247894D02*
X400897D01*
X399795Y247437D01*
X398951Y246593D01*
X398494Y245491D01*
Y244297D01*
X398951Y243195D01*
X399795Y242351D01*
X400897Y241894D01*
X402091D01*
X403193Y242351D01*
X404037Y243195D01*
X404494Y244297D01*
Y245491D01*
X404037Y246593D01*
X403193Y247437D01*
X402091Y247894D01*
D02*
G37*
G36*
X284061Y245570D02*
X282867D01*
X281765Y245113D01*
X280921Y244269D01*
X280464Y243167D01*
Y241973D01*
X280921Y240871D01*
X281765Y240027D01*
X282867Y239570D01*
X284061D01*
X285163Y240027D01*
X286007Y240871D01*
X286464Y241973D01*
Y243167D01*
X286007Y244269D01*
X285163Y245113D01*
X284061Y245570D01*
D02*
G37*
G36*
X62484Y248280D02*
X60594D01*
X58848Y247557D01*
X57512Y246221D01*
X56789Y244475D01*
Y242585D01*
X57512Y240839D01*
X58848Y239503D01*
X60594Y238780D01*
X62484D01*
X64230Y239503D01*
X65566Y240839D01*
X66289Y242585D01*
Y244475D01*
X65566Y246221D01*
X64230Y247557D01*
X62484Y248280D01*
D02*
G37*
G36*
X256926Y242875D02*
X255733D01*
X254630Y242418D01*
X253786Y241574D01*
X253330Y240471D01*
Y239278D01*
X253786Y238175D01*
X254630Y237331D01*
X255733Y236875D01*
X256926D01*
X258029Y237331D01*
X258873Y238175D01*
X259330Y239278D01*
Y240471D01*
X258873Y241574D01*
X258029Y242418D01*
X256926Y242875D01*
D02*
G37*
G36*
X231926D02*
X230733D01*
X229630Y242418D01*
X228786Y241574D01*
X228330Y240471D01*
Y239278D01*
X228786Y238175D01*
X229630Y237331D01*
X230733Y236875D01*
X231926D01*
X233029Y237331D01*
X233873Y238175D01*
X234330Y239278D01*
Y240471D01*
X233873Y241574D01*
X233029Y242418D01*
X231926Y242875D01*
D02*
G37*
G36*
X206926D02*
X205733D01*
X204630Y242418D01*
X203786Y241574D01*
X203330Y240471D01*
Y239278D01*
X203786Y238175D01*
X204630Y237331D01*
X205733Y236875D01*
X206926D01*
X208029Y237331D01*
X208873Y238175D01*
X209330Y239278D01*
Y240471D01*
X208873Y241574D01*
X208029Y242418D01*
X206926Y242875D01*
D02*
G37*
G36*
X181926D02*
X180733D01*
X179630Y242418D01*
X178786Y241574D01*
X178330Y240471D01*
Y239278D01*
X178786Y238175D01*
X179630Y237331D01*
X180733Y236875D01*
X181926D01*
X183029Y237331D01*
X183873Y238175D01*
X184330Y239278D01*
Y240471D01*
X183873Y241574D01*
X183029Y242418D01*
X181926Y242875D01*
D02*
G37*
G36*
X156926D02*
X155733D01*
X154630Y242418D01*
X153786Y241574D01*
X153330Y240471D01*
Y239278D01*
X153786Y238175D01*
X154630Y237331D01*
X155733Y236875D01*
X156926D01*
X158029Y237331D01*
X158873Y238175D01*
X159330Y239278D01*
Y240471D01*
X158873Y241574D01*
X158029Y242418D01*
X156926Y242875D01*
D02*
G37*
G36*
X468760Y240335D02*
X467567D01*
X466464Y239879D01*
X465620Y239035D01*
X465163Y237932D01*
Y236739D01*
X465620Y235636D01*
X466464Y234792D01*
X467567Y234335D01*
X468760D01*
X469863Y234792D01*
X470707Y235636D01*
X471163Y236739D01*
Y237932D01*
X470707Y239035D01*
X469863Y239879D01*
X468760Y240335D01*
D02*
G37*
G36*
X448347D02*
X447153D01*
X446051Y239879D01*
X445207Y239035D01*
X444750Y237932D01*
Y236739D01*
X445207Y235636D01*
X446051Y234792D01*
X447153Y234335D01*
X448347D01*
X449449Y234792D01*
X450293Y235636D01*
X450750Y236739D01*
Y237932D01*
X450293Y239035D01*
X449449Y239879D01*
X448347Y240335D01*
D02*
G37*
G36*
X426680D02*
X425487D01*
X424384Y239879D01*
X423540Y239035D01*
X423084Y237932D01*
Y236739D01*
X423540Y235636D01*
X424384Y234792D01*
X425487Y234335D01*
X426680D01*
X427783Y234792D01*
X428627Y235636D01*
X429084Y236739D01*
Y237932D01*
X428627Y239035D01*
X427783Y239879D01*
X426680Y240335D01*
D02*
G37*
G36*
X491579Y239220D02*
X490385D01*
X489283Y238763D01*
X488439Y237919D01*
X487982Y236817D01*
Y235623D01*
X488439Y234521D01*
X489283Y233677D01*
X490385Y233220D01*
X491579D01*
X492681Y233677D01*
X493525Y234521D01*
X493982Y235623D01*
Y236817D01*
X493525Y237919D01*
X492681Y238763D01*
X491579Y239220D01*
D02*
G37*
G36*
X349847Y235156D02*
X348653D01*
X347551Y234699D01*
X346707Y233855D01*
X346250Y232753D01*
Y231559D01*
X346707Y230457D01*
X347551Y229613D01*
X348653Y229156D01*
X349847D01*
X350949Y229613D01*
X351793Y230457D01*
X352250Y231559D01*
Y232753D01*
X351793Y233855D01*
X350949Y234699D01*
X349847Y235156D01*
D02*
G37*
G36*
X367373Y234394D02*
X366179D01*
X365077Y233937D01*
X364233Y233093D01*
X363776Y231991D01*
Y230797D01*
X364233Y229695D01*
X365077Y228851D01*
X366179Y228394D01*
X367373D01*
X368475Y228851D01*
X369319Y229695D01*
X369776Y230797D01*
Y231991D01*
X369319Y233093D01*
X368475Y233937D01*
X367373Y234394D01*
D02*
G37*
G36*
X288633Y234140D02*
X287439D01*
X286337Y233683D01*
X285493Y232839D01*
X285036Y231737D01*
Y230543D01*
X285493Y229441D01*
X286337Y228597D01*
X287439Y228140D01*
X288633D01*
X289735Y228597D01*
X290579Y229441D01*
X291036Y230543D01*
Y231737D01*
X290579Y232839D01*
X289735Y233683D01*
X288633Y234140D01*
D02*
G37*
G36*
X108293Y230330D02*
X107099D01*
X105997Y229873D01*
X105153Y229029D01*
X104696Y227927D01*
Y226733D01*
X105153Y225631D01*
X105997Y224787D01*
X107099Y224330D01*
X108293D01*
X109395Y224787D01*
X110239Y225631D01*
X110696Y226733D01*
Y227927D01*
X110239Y229029D01*
X109395Y229873D01*
X108293Y230330D01*
D02*
G37*
G36*
X25597Y228000D02*
X24403D01*
X23301Y227543D01*
X22457Y226699D01*
X22000Y225597D01*
Y224403D01*
X22457Y223301D01*
X23301Y222457D01*
X24403Y222000D01*
X25597D01*
X26699Y222457D01*
X27543Y223301D01*
X28000Y224403D01*
Y225597D01*
X27543Y226699D01*
X26699Y227543D01*
X25597Y228000D01*
D02*
G37*
G36*
X490563Y222456D02*
X489369D01*
X488267Y221999D01*
X487423Y221155D01*
X486966Y220053D01*
Y218859D01*
X487423Y217757D01*
X488267Y216913D01*
X489369Y216456D01*
X490563D01*
X491665Y216913D01*
X492509Y217757D01*
X492966Y218859D01*
Y220053D01*
X492509Y221155D01*
X491665Y221999D01*
X490563Y222456D01*
D02*
G37*
G36*
X424523Y218900D02*
X423329D01*
X422227Y218443D01*
X421383Y217599D01*
X420926Y216497D01*
Y215303D01*
X421383Y214201D01*
X422227Y213357D01*
X423329Y212900D01*
X424523D01*
X425625Y213357D01*
X426469Y214201D01*
X426926Y215303D01*
Y216497D01*
X426469Y217599D01*
X425625Y218443D01*
X424523Y218900D01*
D02*
G37*
G36*
X111567Y212296D02*
X110373D01*
X109271Y211839D01*
X108427Y210995D01*
X107970Y209893D01*
Y208699D01*
X108427Y207597D01*
X109271Y206753D01*
X110373Y206296D01*
X111567D01*
X112669Y206753D01*
X113513Y207597D01*
X113970Y208699D01*
Y209893D01*
X113513Y210995D01*
X112669Y211839D01*
X111567Y212296D01*
D02*
G37*
G36*
X404153Y211030D02*
X403059D01*
X402048Y210611D01*
X401275Y209838D01*
X400856Y208827D01*
Y207733D01*
X401275Y206722D01*
X402048Y205949D01*
X403059Y205530D01*
X404153D01*
X405164Y205949D01*
X405937Y206722D01*
X406356Y207733D01*
Y208827D01*
X405937Y209838D01*
X405164Y210611D01*
X404153Y211030D01*
D02*
G37*
G36*
X451955Y210518D02*
X450761D01*
X449659Y210061D01*
X448815Y209217D01*
X448358Y208115D01*
Y206921D01*
X448815Y205819D01*
X449659Y204975D01*
X450761Y204518D01*
X451955D01*
X453057Y204975D01*
X453901Y205819D01*
X454358Y206921D01*
Y208115D01*
X453901Y209217D01*
X453057Y210061D01*
X451955Y210518D01*
D02*
G37*
G36*
X351625Y208994D02*
X350431D01*
X349328Y208537D01*
X348485Y207693D01*
X348028Y206591D01*
Y205397D01*
X348485Y204295D01*
X349328Y203451D01*
X350431Y202994D01*
X351625D01*
X352727Y203451D01*
X353571Y204295D01*
X354028Y205397D01*
Y206591D01*
X353571Y207693D01*
X352727Y208537D01*
X351625Y208994D01*
D02*
G37*
G36*
X329781D02*
X328587D01*
X327485Y208537D01*
X326641Y207693D01*
X326184Y206591D01*
Y205397D01*
X326641Y204295D01*
X327485Y203451D01*
X328587Y202994D01*
X329781D01*
X330883Y203451D01*
X331727Y204295D01*
X332184Y205397D01*
Y206591D01*
X331727Y207693D01*
X330883Y208537D01*
X329781Y208994D01*
D02*
G37*
G36*
X307683D02*
X306489D01*
X305387Y208537D01*
X304543Y207693D01*
X304086Y206591D01*
Y205397D01*
X304543Y204295D01*
X305387Y203451D01*
X306489Y202994D01*
X307683D01*
X308785Y203451D01*
X309629Y204295D01*
X310086Y205397D01*
Y206591D01*
X309629Y207693D01*
X308785Y208537D01*
X307683Y208994D01*
D02*
G37*
G36*
X25597Y203000D02*
X24403D01*
X23301Y202543D01*
X22457Y201699D01*
X22000Y200597D01*
Y199403D01*
X22457Y198301D01*
X23301Y197457D01*
X24403Y197000D01*
X25597D01*
X26699Y197457D01*
X27543Y198301D01*
X28000Y199403D01*
Y200597D01*
X27543Y201699D01*
X26699Y202543D01*
X25597Y203000D01*
D02*
G37*
G36*
X490055Y199650D02*
X488861D01*
X487759Y199193D01*
X486915Y198349D01*
X486458Y197247D01*
Y196053D01*
X486915Y194951D01*
X487759Y194107D01*
X488861Y193650D01*
X490055D01*
X491157Y194107D01*
X492001Y194951D01*
X492458Y196053D01*
Y197247D01*
X492001Y198349D01*
X491157Y199193D01*
X490055Y199650D01*
D02*
G37*
G36*
X173317Y196548D02*
X172123D01*
X171021Y196091D01*
X170177Y195247D01*
X169720Y194145D01*
Y192951D01*
X170177Y191849D01*
X171021Y191005D01*
X172123Y190548D01*
X173317D01*
X174419Y191005D01*
X175263Y191849D01*
X175720Y192951D01*
Y194145D01*
X175263Y195247D01*
X174419Y196091D01*
X173317Y196548D01*
D02*
G37*
G36*
X340703Y196294D02*
X339509D01*
X338407Y195837D01*
X337563Y194993D01*
X337106Y193891D01*
Y192697D01*
X337563Y191595D01*
X338407Y190751D01*
X339509Y190294D01*
X340703D01*
X341805Y190751D01*
X342649Y191595D01*
X343106Y192697D01*
Y193891D01*
X342649Y194993D01*
X341805Y195837D01*
X340703Y196294D01*
D02*
G37*
G36*
X319875D02*
X318681D01*
X317579Y195837D01*
X316735Y194993D01*
X316278Y193891D01*
Y192697D01*
X316735Y191595D01*
X317579Y190751D01*
X318681Y190294D01*
X319875D01*
X320977Y190751D01*
X321821Y191595D01*
X322278Y192697D01*
Y193891D01*
X321821Y194993D01*
X320977Y195837D01*
X319875Y196294D01*
D02*
G37*
G36*
X451955Y189436D02*
X450761D01*
X449659Y188979D01*
X448815Y188135D01*
X448358Y187033D01*
Y185839D01*
X448815Y184737D01*
X449659Y183893D01*
X450761Y183436D01*
X451955D01*
X453057Y183893D01*
X453901Y184737D01*
X454358Y185839D01*
Y187033D01*
X453901Y188135D01*
X453057Y188979D01*
X451955Y189436D01*
D02*
G37*
G36*
X99911D02*
X98717D01*
X97615Y188979D01*
X96771Y188135D01*
X96314Y187033D01*
Y185839D01*
X96771Y184737D01*
X97615Y183893D01*
X98717Y183436D01*
X99911D01*
X101013Y183893D01*
X101857Y184737D01*
X102314Y185839D01*
Y187033D01*
X101857Y188135D01*
X101013Y188979D01*
X99911Y189436D01*
D02*
G37*
G36*
X419189Y188166D02*
X417995D01*
X416893Y187709D01*
X416049Y186865D01*
X415592Y185763D01*
Y184569D01*
X416049Y183467D01*
X416893Y182623D01*
X417995Y182166D01*
X419189D01*
X420291Y182623D01*
X421135Y183467D01*
X421592Y184569D01*
Y185763D01*
X421135Y186865D01*
X420291Y187709D01*
X419189Y188166D01*
D02*
G37*
G36*
X263233D02*
X262039D01*
X260937Y187709D01*
X260093Y186865D01*
X259636Y185763D01*
Y184569D01*
X260093Y183467D01*
X260937Y182623D01*
X262039Y182166D01*
X263233D01*
X264335Y182623D01*
X265179Y183467D01*
X265636Y184569D01*
Y185763D01*
X265179Y186865D01*
X264335Y187709D01*
X263233Y188166D01*
D02*
G37*
G36*
X112167Y187314D02*
X110973D01*
X109871Y186857D01*
X109027Y186013D01*
X108570Y184911D01*
Y183717D01*
X109027Y182615D01*
X109871Y181771D01*
X110973Y181314D01*
X112167D01*
X113269Y181771D01*
X114113Y182615D01*
X114570Y183717D01*
Y184911D01*
X114113Y186013D01*
X113269Y186857D01*
X112167Y187314D01*
D02*
G37*
G36*
X351625Y187150D02*
X350431D01*
X349328Y186693D01*
X348485Y185849D01*
X348028Y184747D01*
Y183553D01*
X348485Y182451D01*
X349328Y181607D01*
X350431Y181150D01*
X351625D01*
X352727Y181607D01*
X353571Y182451D01*
X354028Y183553D01*
Y184747D01*
X353571Y185849D01*
X352727Y186693D01*
X351625Y187150D01*
D02*
G37*
G36*
X307683D02*
X306489D01*
X305387Y186693D01*
X304543Y185849D01*
X304086Y184747D01*
Y183553D01*
X304543Y182451D01*
X305387Y181607D01*
X306489Y181150D01*
X307683D01*
X308785Y181607D01*
X309629Y182451D01*
X310086Y183553D01*
Y184747D01*
X309629Y185849D01*
X308785Y186693D01*
X307683Y187150D01*
D02*
G37*
G36*
X163411D02*
X162217D01*
X161115Y186693D01*
X160271Y185849D01*
X159814Y184747D01*
Y183553D01*
X160271Y182451D01*
X161115Y181607D01*
X162217Y181150D01*
X163411D01*
X164513Y181607D01*
X165357Y182451D01*
X165814Y183553D01*
Y184747D01*
X165357Y185849D01*
X164513Y186693D01*
X163411Y187150D01*
D02*
G37*
G36*
X62484Y190480D02*
X60594D01*
X58848Y189757D01*
X57512Y188421D01*
X56789Y186675D01*
Y184785D01*
X57512Y183039D01*
X58848Y181703D01*
X60594Y180980D01*
X62484D01*
X64230Y181703D01*
X65566Y183039D01*
X66289Y184785D01*
Y186675D01*
X65566Y188421D01*
X64230Y189757D01*
X62484Y190480D01*
D02*
G37*
G36*
X392519Y185118D02*
X391325D01*
X390223Y184661D01*
X389379Y183817D01*
X388922Y182715D01*
Y181521D01*
X389379Y180419D01*
X390223Y179575D01*
X391325Y179118D01*
X392519D01*
X393621Y179575D01*
X394465Y180419D01*
X394922Y181521D01*
Y182715D01*
X394465Y183817D01*
X393621Y184661D01*
X392519Y185118D01*
D02*
G37*
G36*
X219848Y190223D02*
X218048D01*
X216310Y189757D01*
X214751Y188857D01*
X213479Y187585D01*
X212579Y186026D01*
X212113Y184288D01*
Y182488D01*
X212579Y180750D01*
X213479Y179191D01*
X214751Y177919D01*
X216310Y177019D01*
X218048Y176553D01*
X219848D01*
X221586Y177019D01*
X223145Y177919D01*
X224417Y179191D01*
X225317Y180750D01*
X225783Y182488D01*
Y184288D01*
X225317Y186026D01*
X224417Y187585D01*
X223145Y188857D01*
X221586Y189757D01*
X219848Y190223D01*
D02*
G37*
G36*
X150711Y179022D02*
X149517D01*
X148415Y178565D01*
X147571Y177721D01*
X147114Y176619D01*
Y175425D01*
X147571Y174323D01*
X148415Y173479D01*
X149517Y173022D01*
X150711D01*
X151813Y173479D01*
X152657Y174323D01*
X153114Y175425D01*
Y176619D01*
X152657Y177721D01*
X151813Y178565D01*
X150711Y179022D01*
D02*
G37*
G36*
X434175Y178768D02*
X432981D01*
X431879Y178311D01*
X431035Y177467D01*
X430578Y176365D01*
Y175171D01*
X431035Y174069D01*
X431879Y173225D01*
X432981Y172768D01*
X434175D01*
X435277Y173225D01*
X436121Y174069D01*
X436578Y175171D01*
Y176365D01*
X436121Y177467D01*
X435277Y178311D01*
X434175Y178768D01*
D02*
G37*
G36*
X404203Y178134D02*
X403009D01*
X401907Y177677D01*
X401063Y176833D01*
X400606Y175731D01*
Y174537D01*
X401063Y173435D01*
X401907Y172591D01*
X403009Y172134D01*
X404203D01*
X405305Y172591D01*
X406149Y173435D01*
X406606Y174537D01*
Y175731D01*
X406149Y176833D01*
X405305Y177677D01*
X404203Y178134D01*
D02*
G37*
G36*
X246125Y196888D02*
X242571D01*
X239137Y195968D01*
X236059Y194191D01*
X233545Y191677D01*
X231768Y188599D01*
X230848Y185165D01*
Y181611D01*
X231768Y178177D01*
X233545Y175099D01*
X236059Y172585D01*
X239137Y170808D01*
X242571Y169888D01*
X246125D01*
X249559Y170808D01*
X252637Y172585D01*
X255151Y175099D01*
X256928Y178177D01*
X257848Y181611D01*
Y185165D01*
X256928Y188599D01*
X255151Y191677D01*
X252637Y194191D01*
X249559Y195968D01*
X246125Y196888D01*
D02*
G37*
G36*
X195325D02*
X191771D01*
X188337Y195968D01*
X185259Y194191D01*
X182745Y191677D01*
X180968Y188599D01*
X180048Y185165D01*
Y181611D01*
X180968Y178177D01*
X182745Y175099D01*
X185259Y172585D01*
X188337Y170808D01*
X191771Y169888D01*
X195325D01*
X198759Y170808D01*
X201837Y172585D01*
X204351Y175099D01*
X206128Y178177D01*
X207048Y181611D01*
Y185165D01*
X206128Y188599D01*
X204351Y191677D01*
X201837Y194191D01*
X198759Y195968D01*
X195325Y196888D01*
D02*
G37*
G36*
X490055Y175466D02*
X488861D01*
X487759Y175009D01*
X486915Y174165D01*
X486458Y173063D01*
Y171869D01*
X486915Y170767D01*
X487759Y169923D01*
X488861Y169466D01*
X490055D01*
X491157Y169923D01*
X492001Y170767D01*
X492458Y171869D01*
Y173063D01*
X492001Y174165D01*
X491157Y175009D01*
X490055Y175466D01*
D02*
G37*
G36*
X340703Y175212D02*
X339509D01*
X338407Y174755D01*
X337563Y173911D01*
X337106Y172809D01*
Y171615D01*
X337563Y170513D01*
X338407Y169669D01*
X339509Y169212D01*
X340703D01*
X341805Y169669D01*
X342649Y170513D01*
X343106Y171615D01*
Y172809D01*
X342649Y173911D01*
X341805Y174755D01*
X340703Y175212D01*
D02*
G37*
G36*
X319875D02*
X318681D01*
X317579Y174755D01*
X316735Y173911D01*
X316278Y172809D01*
Y171615D01*
X316735Y170513D01*
X317579Y169669D01*
X318681Y169212D01*
X319875D01*
X320977Y169669D01*
X321821Y170513D01*
X322278Y171615D01*
Y172809D01*
X321821Y173911D01*
X320977Y174755D01*
X319875Y175212D01*
D02*
G37*
G36*
X86449D02*
X85255D01*
X84153Y174755D01*
X83309Y173911D01*
X82852Y172809D01*
Y171615D01*
X83309Y170513D01*
X84153Y169669D01*
X85255Y169212D01*
X86449D01*
X87551Y169669D01*
X88395Y170513D01*
X88852Y171615D01*
Y172809D01*
X88395Y173911D01*
X87551Y174755D01*
X86449Y175212D01*
D02*
G37*
G36*
X72039Y177986D02*
X61039D01*
X59342Y177763D01*
X57761Y177108D01*
X56403Y176066D01*
X55361Y174708D01*
X54706Y173127D01*
X54483Y171430D01*
X54706Y169733D01*
X55361Y168152D01*
X56403Y166794D01*
X57761Y165752D01*
X59342Y165097D01*
X61039Y164874D01*
X72039D01*
X73736Y165097D01*
X75317Y165752D01*
X76675Y166794D01*
X77717Y168152D01*
X78372Y169733D01*
X78595Y171430D01*
X78372Y173127D01*
X77717Y174708D01*
X76675Y176066D01*
X75317Y177108D01*
X73736Y177763D01*
X72039Y177986D01*
D02*
G37*
G36*
X28739D02*
X20739D01*
X19042Y177763D01*
X17461Y177108D01*
X16103Y176066D01*
X15061Y174708D01*
X14406Y173127D01*
X14183Y171430D01*
X14406Y169733D01*
X15061Y168152D01*
X16103Y166794D01*
X17461Y165752D01*
X19042Y165097D01*
X20739Y164874D01*
X28739D01*
X30436Y165097D01*
X32017Y165752D01*
X33375Y166794D01*
X34417Y168152D01*
X35072Y169733D01*
X35295Y171430D01*
X35072Y173127D01*
X34417Y174708D01*
X33375Y176066D01*
X32017Y177108D01*
X30436Y177763D01*
X28739Y177986D01*
D02*
G37*
G36*
X171539Y165814D02*
X170345D01*
X169243Y165357D01*
X168399Y164513D01*
X167942Y163411D01*
Y162217D01*
X168399Y161115D01*
X169243Y160271D01*
X170345Y159814D01*
X171539D01*
X172641Y160271D01*
X173485Y161115D01*
X173942Y162217D01*
Y163411D01*
X173485Y164513D01*
X172641Y165357D01*
X171539Y165814D01*
D02*
G37*
G36*
X351625Y165052D02*
X350431D01*
X349328Y164595D01*
X348485Y163751D01*
X348028Y162649D01*
Y161455D01*
X348485Y160353D01*
X349328Y159509D01*
X350431Y159052D01*
X351625D01*
X352727Y159509D01*
X353571Y160353D01*
X354028Y161455D01*
Y162649D01*
X353571Y163751D01*
X352727Y164595D01*
X351625Y165052D01*
D02*
G37*
G36*
X329781D02*
X328587D01*
X327485Y164595D01*
X326641Y163751D01*
X326184Y162649D01*
Y161455D01*
X326641Y160353D01*
X327485Y159509D01*
X328587Y159052D01*
X329781D01*
X330883Y159509D01*
X331727Y160353D01*
X332184Y161455D01*
Y162649D01*
X331727Y163751D01*
X330883Y164595D01*
X329781Y165052D01*
D02*
G37*
G36*
X307683D02*
X306489D01*
X305387Y164595D01*
X304543Y163751D01*
X304086Y162649D01*
Y161455D01*
X304543Y160353D01*
X305387Y159509D01*
X306489Y159052D01*
X307683D01*
X308785Y159509D01*
X309629Y160353D01*
X310086Y161455D01*
Y162649D01*
X309629Y163751D01*
X308785Y164595D01*
X307683Y165052D01*
D02*
G37*
G36*
X377279Y159972D02*
X376085D01*
X374983Y159515D01*
X374139Y158671D01*
X373682Y157569D01*
Y156375D01*
X374139Y155273D01*
X374983Y154429D01*
X376085Y153972D01*
X377279D01*
X378381Y154429D01*
X379225Y155273D01*
X379682Y156375D01*
Y157569D01*
X379225Y158671D01*
X378381Y159515D01*
X377279Y159972D01*
D02*
G37*
G36*
X497722Y159330D02*
X496529D01*
X495426Y158873D01*
X494582Y158029D01*
X494125Y156926D01*
Y155733D01*
X494582Y154630D01*
X495426Y153786D01*
X496529Y153330D01*
X497722D01*
X498825Y153786D01*
X499669Y154630D01*
X500125Y155733D01*
Y156926D01*
X499669Y158029D01*
X498825Y158873D01*
X497722Y159330D01*
D02*
G37*
G36*
X472722D02*
X471529D01*
X470426Y158873D01*
X469582Y158029D01*
X469125Y156926D01*
Y155733D01*
X469582Y154630D01*
X470426Y153786D01*
X471529Y153330D01*
X472722D01*
X473825Y153786D01*
X474669Y154630D01*
X475125Y155733D01*
Y156926D01*
X474669Y158029D01*
X473825Y158873D01*
X472722Y159330D01*
D02*
G37*
G36*
X447722D02*
X446529D01*
X445426Y158873D01*
X444582Y158029D01*
X444125Y156926D01*
Y155733D01*
X444582Y154630D01*
X445426Y153786D01*
X446529Y153330D01*
X447722D01*
X448825Y153786D01*
X449669Y154630D01*
X450125Y155733D01*
Y156926D01*
X449669Y158029D01*
X448825Y158873D01*
X447722Y159330D01*
D02*
G37*
G36*
X422722D02*
X421529D01*
X420426Y158873D01*
X419582Y158029D01*
X419125Y156926D01*
Y155733D01*
X419582Y154630D01*
X420426Y153786D01*
X421529Y153330D01*
X422722D01*
X423825Y153786D01*
X424669Y154630D01*
X425125Y155733D01*
Y156926D01*
X424669Y158029D01*
X423825Y158873D01*
X422722Y159330D01*
D02*
G37*
G36*
X111247Y156924D02*
X110053D01*
X108951Y156467D01*
X108107Y155623D01*
X107650Y154521D01*
Y153327D01*
X108107Y152225D01*
X108951Y151381D01*
X110053Y150924D01*
X111247D01*
X112350Y151381D01*
X113193Y152225D01*
X113650Y153327D01*
Y154521D01*
X113193Y155623D01*
X112350Y156467D01*
X111247Y156924D01*
D02*
G37*
G36*
X160871Y147780D02*
X159677D01*
X158575Y147323D01*
X157731Y146479D01*
X157274Y145377D01*
Y144183D01*
X157731Y143081D01*
X158575Y142237D01*
X159677Y141780D01*
X160871D01*
X161973Y142237D01*
X162817Y143081D01*
X163274Y144183D01*
Y145377D01*
X162817Y146479D01*
X161973Y147323D01*
X160871Y147780D01*
D02*
G37*
G36*
X93561Y147018D02*
X92367D01*
X91265Y146561D01*
X90421Y145717D01*
X89964Y144615D01*
Y143421D01*
X90421Y142319D01*
X91265Y141475D01*
X92367Y141018D01*
X93561D01*
X94663Y141475D01*
X95507Y142319D01*
X95964Y143421D01*
Y144615D01*
X95507Y145717D01*
X94663Y146561D01*
X93561Y147018D01*
D02*
G37*
G36*
X66762Y146977D02*
X65569D01*
X64466Y146520D01*
X63622Y145676D01*
X63166Y144573D01*
Y143380D01*
X63622Y142277D01*
X64466Y141433D01*
X65569Y140977D01*
X66762D01*
X67865Y141433D01*
X68709Y142277D01*
X69166Y143380D01*
Y144573D01*
X68709Y145676D01*
X67865Y146520D01*
X66762Y146977D01*
D02*
G37*
G36*
X41762D02*
X40569D01*
X39466Y146520D01*
X38622Y145676D01*
X38166Y144573D01*
Y143380D01*
X38622Y142277D01*
X39466Y141433D01*
X40569Y140977D01*
X41762D01*
X42865Y141433D01*
X43709Y142277D01*
X44166Y143380D01*
Y144573D01*
X43709Y145676D01*
X42865Y146520D01*
X41762Y146977D01*
D02*
G37*
G36*
X16762D02*
X15569D01*
X14466Y146520D01*
X13622Y145676D01*
X13166Y144573D01*
Y143380D01*
X13622Y142277D01*
X14466Y141433D01*
X15569Y140977D01*
X16762D01*
X17865Y141433D01*
X18709Y142277D01*
X19166Y143380D01*
Y144573D01*
X18709Y145676D01*
X17865Y146520D01*
X16762Y146977D01*
D02*
G37*
G36*
X246125Y165138D02*
X242571D01*
X239137Y164218D01*
X236059Y162441D01*
X233545Y159927D01*
X231768Y156849D01*
X230848Y153415D01*
Y149861D01*
X231768Y146427D01*
X233545Y143349D01*
X236059Y140835D01*
X239137Y139058D01*
X242571Y138138D01*
X246125D01*
X249559Y139058D01*
X252637Y140835D01*
X255151Y143349D01*
X256928Y146427D01*
X257848Y149861D01*
Y153415D01*
X256928Y156849D01*
X255151Y159927D01*
X252637Y162441D01*
X249559Y164218D01*
X246125Y165138D01*
D02*
G37*
G36*
X195325D02*
X191771D01*
X188337Y164218D01*
X185259Y162441D01*
X182745Y159927D01*
X180968Y156849D01*
X180048Y153415D01*
Y149861D01*
X180968Y146427D01*
X182745Y143349D01*
X185259Y140835D01*
X188337Y139058D01*
X191771Y138138D01*
X195325D01*
X198759Y139058D01*
X201837Y140835D01*
X204351Y143349D01*
X206128Y146427D01*
X207048Y149861D01*
Y153415D01*
X206128Y156849D01*
X204351Y159927D01*
X201837Y162441D01*
X198759Y164218D01*
X195325Y165138D01*
D02*
G37*
G36*
X272123Y142954D02*
X270929D01*
X269827Y142497D01*
X268983Y141653D01*
X268526Y140551D01*
Y139357D01*
X268983Y138255D01*
X269827Y137411D01*
X270929Y136954D01*
X272123D01*
X273225Y137411D01*
X274069Y138255D01*
X274526Y139357D01*
Y140551D01*
X274069Y141653D01*
X273225Y142497D01*
X272123Y142954D01*
D02*
G37*
G36*
X390487Y141430D02*
X389293D01*
X388191Y140973D01*
X387347Y140129D01*
X386890Y139027D01*
Y137833D01*
X387347Y136731D01*
X388191Y135887D01*
X389293Y135430D01*
X390487D01*
X391589Y135887D01*
X392433Y136731D01*
X392890Y137833D01*
Y139027D01*
X392433Y140129D01*
X391589Y140973D01*
X390487Y141430D01*
D02*
G37*
G36*
X137351Y137620D02*
X136157D01*
X135055Y137163D01*
X134211Y136319D01*
X133754Y135217D01*
Y134023D01*
X134211Y132921D01*
X135055Y132077D01*
X136157Y131620D01*
X137351D01*
X138453Y132077D01*
X139297Y132921D01*
X139754Y134023D01*
Y135217D01*
X139297Y136319D01*
X138453Y137163D01*
X137351Y137620D01*
D02*
G37*
G36*
X497722Y134330D02*
X496529D01*
X495426Y133873D01*
X494582Y133029D01*
X494125Y131926D01*
Y130733D01*
X494582Y129630D01*
X495426Y128786D01*
X496529Y128330D01*
X497722D01*
X498825Y128786D01*
X499669Y129630D01*
X500125Y130733D01*
Y131926D01*
X499669Y133029D01*
X498825Y133873D01*
X497722Y134330D01*
D02*
G37*
G36*
X472722D02*
X471529D01*
X470426Y133873D01*
X469582Y133029D01*
X469125Y131926D01*
Y130733D01*
X469582Y129630D01*
X470426Y128786D01*
X471529Y128330D01*
X472722D01*
X473825Y128786D01*
X474669Y129630D01*
X475125Y130733D01*
Y131926D01*
X474669Y133029D01*
X473825Y133873D01*
X472722Y134330D01*
D02*
G37*
G36*
X447722D02*
X446529D01*
X445426Y133873D01*
X444582Y133029D01*
X444125Y131926D01*
Y130733D01*
X444582Y129630D01*
X445426Y128786D01*
X446529Y128330D01*
X447722D01*
X448825Y128786D01*
X449669Y129630D01*
X450125Y130733D01*
Y131926D01*
X449669Y133029D01*
X448825Y133873D01*
X447722Y134330D01*
D02*
G37*
G36*
X422722D02*
X421529D01*
X420426Y133873D01*
X419582Y133029D01*
X419125Y131926D01*
Y130733D01*
X419582Y129630D01*
X420426Y128786D01*
X421529Y128330D01*
X422722D01*
X423825Y128786D01*
X424669Y129630D01*
X425125Y130733D01*
Y131926D01*
X424669Y133029D01*
X423825Y133873D01*
X422722Y134330D01*
D02*
G37*
G36*
X230008Y139423D02*
X228208D01*
X226470Y138957D01*
X224911Y138057D01*
X223639Y136785D01*
X222739Y135226D01*
X222273Y133488D01*
Y131688D01*
X222739Y129950D01*
X223639Y128391D01*
X224911Y127119D01*
X226470Y126219D01*
X228208Y125753D01*
X230008D01*
X231746Y126219D01*
X233305Y127119D01*
X234577Y128391D01*
X235477Y129950D01*
X235943Y131688D01*
Y133488D01*
X235477Y135226D01*
X234577Y136785D01*
X233305Y138057D01*
X231746Y138957D01*
X230008Y139423D01*
D02*
G37*
G36*
X209688D02*
X207888D01*
X206150Y138957D01*
X204591Y138057D01*
X203319Y136785D01*
X202419Y135226D01*
X201953Y133488D01*
Y131688D01*
X202419Y129950D01*
X203319Y128391D01*
X204591Y127119D01*
X206150Y126219D01*
X207888Y125753D01*
X209688D01*
X211426Y126219D01*
X212985Y127119D01*
X214257Y128391D01*
X215157Y129950D01*
X215623Y131688D01*
Y133488D01*
X215157Y135226D01*
X214257Y136785D01*
X212985Y138057D01*
X211426Y138957D01*
X209688Y139423D01*
D02*
G37*
G36*
X196685Y129746D02*
X195491D01*
X194389Y129289D01*
X193545Y128445D01*
X193088Y127343D01*
Y126149D01*
X193545Y125047D01*
X194389Y124203D01*
X195491Y123746D01*
X196685D01*
X197787Y124203D01*
X198631Y125047D01*
X199088Y126149D01*
Y127343D01*
X198631Y128445D01*
X197787Y129289D01*
X196685Y129746D01*
D02*
G37*
G36*
X219545Y125988D02*
X218351D01*
X217249Y125531D01*
X216405Y124687D01*
X215948Y123585D01*
Y122391D01*
X216405Y121289D01*
X217249Y120445D01*
X218351Y119988D01*
X219545D01*
X220647Y120445D01*
X221491Y121289D01*
X221948Y122391D01*
Y123585D01*
X221491Y124687D01*
X220647Y125531D01*
X219545Y125988D01*
D02*
G37*
G36*
X89849Y124106D02*
X88655D01*
X87553Y123649D01*
X86709Y122805D01*
X86252Y121703D01*
Y120509D01*
X86709Y119407D01*
X87553Y118563D01*
X88655Y118106D01*
X89849D01*
X90951Y118563D01*
X91795Y119407D01*
X92252Y120509D01*
Y121703D01*
X91795Y122805D01*
X90951Y123649D01*
X89849Y124106D01*
D02*
G37*
G36*
X273139Y122178D02*
X271945D01*
X270843Y121721D01*
X269999Y120877D01*
X269542Y119775D01*
Y118581D01*
X269999Y117479D01*
X270843Y116635D01*
X271945Y116178D01*
X273139D01*
X274241Y116635D01*
X275085Y117479D01*
X275542Y118581D01*
Y119775D01*
X275085Y120877D01*
X274241Y121721D01*
X273139Y122178D01*
D02*
G37*
G36*
X250025D02*
X248831D01*
X247729Y121721D01*
X246885Y120877D01*
X246428Y119775D01*
Y118581D01*
X246885Y117479D01*
X247729Y116635D01*
X248831Y116178D01*
X250025D01*
X251127Y116635D01*
X251971Y117479D01*
X252428Y118581D01*
Y119775D01*
X251971Y120877D01*
X251127Y121721D01*
X250025Y122178D01*
D02*
G37*
G36*
X338561Y114220D02*
X336571D01*
X334734Y113459D01*
X334295Y113020D01*
X197280D01*
X196888Y113412D01*
X195051Y114173D01*
X193061D01*
X191224Y113412D01*
X189817Y112005D01*
X189056Y110168D01*
Y108178D01*
X189817Y106341D01*
X191224Y104934D01*
X193061Y104173D01*
X195051D01*
X196888Y104934D01*
X197327Y105373D01*
X334342D01*
X334734Y104981D01*
X336571Y104220D01*
X338561D01*
X340398Y104981D01*
X341805Y106388D01*
X342566Y108225D01*
Y110215D01*
X341805Y112052D01*
X340398Y113459D01*
X338561Y114220D01*
D02*
G37*
G36*
X166205Y112173D02*
X165011D01*
X163909Y111716D01*
X163065Y110872D01*
X162608Y109770D01*
Y108576D01*
X163065Y107474D01*
X163909Y106630D01*
X165011Y106173D01*
X166205D01*
X167307Y106630D01*
X168151Y107474D01*
X168608Y108576D01*
Y109770D01*
X168151Y110872D01*
X167307Y111716D01*
X166205Y112173D01*
D02*
G37*
G36*
X133439Y111458D02*
X132245D01*
X131143Y111001D01*
X130299Y110157D01*
X129842Y109055D01*
Y107861D01*
X130299Y106759D01*
X131143Y105915D01*
X132245Y105458D01*
X133439D01*
X134541Y105915D01*
X135385Y106759D01*
X135842Y107861D01*
Y109055D01*
X135385Y110157D01*
X134541Y111001D01*
X133439Y111458D01*
D02*
G37*
G36*
X375942Y111420D02*
X374748D01*
X373646Y110963D01*
X372802Y110119D01*
X372345Y109017D01*
Y107823D01*
X372802Y106721D01*
X373646Y105877D01*
X374748Y105420D01*
X375942D01*
X377044Y105877D01*
X377888Y106721D01*
X378345Y107823D01*
Y109017D01*
X377888Y110119D01*
X377044Y110963D01*
X375942Y111420D01*
D02*
G37*
G36*
X102705Y110950D02*
X101511D01*
X100409Y110493D01*
X99565Y109649D01*
X99108Y108547D01*
Y107353D01*
X99565Y106251D01*
X100409Y105407D01*
X101511Y104950D01*
X102705D01*
X103807Y105407D01*
X104651Y106251D01*
X105108Y107353D01*
Y108547D01*
X104651Y109649D01*
X103807Y110493D01*
X102705Y110950D01*
D02*
G37*
G36*
X497722Y109330D02*
X496529D01*
X495426Y108873D01*
X494582Y108029D01*
X494125Y106926D01*
Y105733D01*
X494582Y104630D01*
X495426Y103786D01*
X496529Y103330D01*
X497722D01*
X498825Y103786D01*
X499669Y104630D01*
X500125Y105733D01*
Y106926D01*
X499669Y108029D01*
X498825Y108873D01*
X497722Y109330D01*
D02*
G37*
G36*
X472722D02*
X471529D01*
X470426Y108873D01*
X469582Y108029D01*
X469125Y106926D01*
Y105733D01*
X469582Y104630D01*
X470426Y103786D01*
X471529Y103330D01*
X472722D01*
X473825Y103786D01*
X474669Y104630D01*
X475125Y105733D01*
Y106926D01*
X474669Y108029D01*
X473825Y108873D01*
X472722Y109330D01*
D02*
G37*
G36*
X307817Y102822D02*
X306623D01*
X305521Y102365D01*
X304677Y101521D01*
X304220Y100419D01*
Y99225D01*
X304677Y98123D01*
X305521Y97279D01*
X306623Y96822D01*
X307817D01*
X308919Y97279D01*
X309763Y98123D01*
X310220Y99225D01*
Y100419D01*
X309763Y101521D01*
X308919Y102365D01*
X307817Y102822D01*
D02*
G37*
G36*
X292817D02*
X291623D01*
X290521Y102365D01*
X289677Y101521D01*
X289220Y100419D01*
Y99225D01*
X289677Y98123D01*
X290521Y97279D01*
X291623Y96822D01*
X292817D01*
X293919Y97279D01*
X294763Y98123D01*
X295220Y99225D01*
Y100419D01*
X294763Y101521D01*
X293919Y102365D01*
X292817Y102822D01*
D02*
G37*
G36*
X407531Y100790D02*
X406337D01*
X405235Y100333D01*
X404391Y99489D01*
X403934Y98387D01*
Y97193D01*
X404391Y96091D01*
X405235Y95247D01*
X406337Y94790D01*
X407531D01*
X408633Y95247D01*
X409477Y96091D01*
X409934Y97193D01*
Y98387D01*
X409477Y99489D01*
X408633Y100333D01*
X407531Y100790D01*
D02*
G37*
G36*
X350422Y100418D02*
X349228D01*
X348125Y99961D01*
X347282Y99117D01*
X346825Y98015D01*
Y96821D01*
X347282Y95719D01*
X348125Y94875D01*
X349228Y94418D01*
X350422D01*
X351524Y94875D01*
X352368Y95719D01*
X352825Y96821D01*
Y98015D01*
X352368Y99117D01*
X351524Y99961D01*
X350422Y100418D01*
D02*
G37*
G36*
X442531Y100282D02*
X441337D01*
X440235Y99825D01*
X439391Y98981D01*
X438934Y97879D01*
Y96685D01*
X439391Y95583D01*
X440235Y94739D01*
X441337Y94282D01*
X442531D01*
X443633Y94739D01*
X444477Y95583D01*
X444934Y96685D01*
Y97879D01*
X444477Y98981D01*
X443633Y99825D01*
X442531Y100282D01*
D02*
G37*
G36*
X374739Y92662D02*
X373545D01*
X372443Y92205D01*
X371599Y91361D01*
X371142Y90259D01*
Y89065D01*
X371599Y87963D01*
X372443Y87119D01*
X373545Y86662D01*
X374739D01*
X375841Y87119D01*
X376685Y87963D01*
X377142Y89065D01*
Y90259D01*
X376685Y91361D01*
X375841Y92205D01*
X374739Y92662D01*
D02*
G37*
G36*
X115471Y90927D02*
X114278D01*
X113175Y90471D01*
X112331Y89627D01*
X111875Y88524D01*
Y87331D01*
X112331Y86228D01*
X113175Y85384D01*
X114278Y84927D01*
X115471D01*
X116574Y85384D01*
X117418Y86228D01*
X117875Y87331D01*
Y88524D01*
X117418Y89627D01*
X116574Y90471D01*
X115471Y90927D01*
D02*
G37*
G36*
X90471D02*
X89278D01*
X88175Y90471D01*
X87331Y89627D01*
X86875Y88524D01*
Y87331D01*
X87331Y86228D01*
X88175Y85384D01*
X89278Y84927D01*
X90471D01*
X91574Y85384D01*
X92418Y86228D01*
X92875Y87331D01*
Y88524D01*
X92418Y89627D01*
X91574Y90471D01*
X90471Y90927D01*
D02*
G37*
G36*
X56191Y89868D02*
X54997D01*
X53895Y89411D01*
X53051Y88567D01*
X52594Y87465D01*
Y86271D01*
X53051Y85169D01*
X53895Y84325D01*
X54997Y83868D01*
X56191D01*
X57293Y84325D01*
X58137Y85169D01*
X58594Y86271D01*
Y87465D01*
X58137Y88567D01*
X57293Y89411D01*
X56191Y89868D01*
D02*
G37*
G36*
X23203Y88344D02*
X22009D01*
X20907Y87887D01*
X20063Y87043D01*
X19606Y85941D01*
Y84747D01*
X20063Y83645D01*
X20907Y82801D01*
X22009Y82344D01*
X23203D01*
X24305Y82801D01*
X25149Y83645D01*
X25606Y84747D01*
Y85941D01*
X25149Y87043D01*
X24305Y87887D01*
X23203Y88344D01*
D02*
G37*
G36*
X345066Y87836D02*
X343873D01*
X342770Y87379D01*
X341926Y86535D01*
X341469Y85433D01*
Y84239D01*
X341926Y83137D01*
X342770Y82293D01*
X343873Y81836D01*
X345066D01*
X346169Y82293D01*
X347013Y83137D01*
X347469Y84239D01*
Y85433D01*
X347013Y86535D01*
X346169Y87379D01*
X345066Y87836D01*
D02*
G37*
G36*
X333921Y89836D02*
X331931D01*
X330094Y89075D01*
X329678Y88659D01*
X206248D01*
X204785Y88368D01*
X203544Y87540D01*
X196028Y80023D01*
X181048D01*
X180632Y80439D01*
X178795Y81200D01*
X176805D01*
X174968Y80439D01*
X173561Y79032D01*
X172800Y77195D01*
Y75205D01*
X173561Y73368D01*
X174968Y71961D01*
X176805Y71200D01*
X178795D01*
X180632Y71961D01*
X181048Y72377D01*
X197612D01*
X199075Y72668D01*
X200316Y73496D01*
X207832Y81013D01*
X235625D01*
X232088Y77476D01*
X231260Y76235D01*
X230969Y74772D01*
Y41348D01*
X230553Y40932D01*
X229792Y39095D01*
Y37105D01*
X230553Y35268D01*
X231960Y33861D01*
X233797Y33100D01*
X235787D01*
X237624Y33861D01*
X239031Y35268D01*
X239792Y37105D01*
Y39095D01*
X239031Y40932D01*
X238615Y41348D01*
Y73188D01*
X246440Y81013D01*
X329678D01*
X330094Y80597D01*
X331931Y79836D01*
X333921D01*
X335758Y80597D01*
X337165Y82004D01*
X337926Y83841D01*
Y85831D01*
X337165Y87668D01*
X335758Y89075D01*
X333921Y89836D01*
D02*
G37*
G36*
X473799Y84788D02*
X472605D01*
X471503Y84331D01*
X470659Y83487D01*
X470202Y82385D01*
Y81191D01*
X470659Y80089D01*
X471503Y79245D01*
X472605Y78788D01*
X473799D01*
X474901Y79245D01*
X475745Y80089D01*
X476202Y81191D01*
Y82385D01*
X475745Y83487D01*
X474901Y84331D01*
X473799Y84788D01*
D02*
G37*
G36*
X497722Y84330D02*
X496529D01*
X495426Y83873D01*
X494582Y83029D01*
X494125Y81926D01*
Y80733D01*
X494582Y79630D01*
X495426Y78786D01*
X496529Y78330D01*
X497722D01*
X498825Y78786D01*
X499669Y79630D01*
X500125Y80733D01*
Y81926D01*
X499669Y83029D01*
X498825Y83873D01*
X497722Y84330D01*
D02*
G37*
G36*
X90471Y71670D02*
X89278D01*
X88175Y71214D01*
X87331Y70370D01*
X86875Y69267D01*
Y68074D01*
X87331Y66971D01*
X88175Y66127D01*
X89278Y65670D01*
X90471D01*
X91574Y66127D01*
X92418Y66971D01*
X92875Y68074D01*
Y69267D01*
X92418Y70370D01*
X91574Y71214D01*
X90471Y71670D01*
D02*
G37*
G36*
X65471D02*
X64278D01*
X63175Y71214D01*
X62331Y70370D01*
X61875Y69267D01*
Y68074D01*
X62331Y66971D01*
X63175Y66127D01*
X64278Y65670D01*
X65471D01*
X66574Y66127D01*
X67418Y66971D01*
X67875Y68074D01*
Y69267D01*
X67418Y70370D01*
X66574Y71214D01*
X65471Y71670D01*
D02*
G37*
G36*
X178397Y66882D02*
X177203D01*
X176101Y66426D01*
X175257Y65582D01*
X174800Y64479D01*
Y63286D01*
X175257Y62183D01*
X176101Y61339D01*
X177203Y60882D01*
X178397D01*
X179499Y61339D01*
X180343Y62183D01*
X180800Y63286D01*
Y64479D01*
X180343Y65582D01*
X179499Y66426D01*
X178397Y66882D01*
D02*
G37*
G36*
X119438Y53943D02*
X117970D01*
X117817Y53879D01*
X117654Y53912D01*
X115520Y53488D01*
X115382Y53396D01*
X115216Y53396D01*
X113206Y52564D01*
X113088Y52446D01*
X112925Y52414D01*
X111116Y51206D01*
X111023Y51068D01*
X110870Y51005D01*
X109331Y49468D01*
X109267Y49314D01*
X109129Y49222D01*
X107919Y47414D01*
X107886Y47251D01*
X107768Y47134D01*
X106934Y45125D01*
X106934Y44959D01*
X106841Y44821D01*
X106524Y43234D01*
X106235Y42803D01*
X105932Y41279D01*
Y29972D01*
X106235Y28448D01*
X106521Y28021D01*
X106837Y26431D01*
X106930Y26293D01*
Y26127D01*
X107763Y24115D01*
X107881Y23998D01*
X107913Y23835D01*
X109123Y22024D01*
X109261Y21932D01*
X109325Y21778D01*
X110864Y20239D01*
X111018Y20175D01*
X111110Y20037D01*
X112920Y18827D01*
X113083Y18795D01*
X113201Y18677D01*
X115212Y17844D01*
X115379D01*
X115517Y17751D01*
X117653Y17327D01*
X117816Y17359D01*
X117969Y17296D01*
X119438D01*
X119736Y17419D01*
X120059Y17419D01*
X120760Y17710D01*
X120989Y17938D01*
X121287Y18062D01*
X121824Y18599D01*
X121948Y18897D01*
X122176Y19125D01*
X122467Y19827D01*
Y20150D01*
X122590Y20448D01*
Y20828D01*
Y21208D01*
X122467Y21506D01*
Y21829D01*
X122176Y22531D01*
X121948Y22759D01*
X121824Y23057D01*
X121287Y23594D01*
X120989Y23718D01*
X120760Y23946D01*
X120059Y24237D01*
X119736D01*
X119438Y24360D01*
X119098D01*
X118548Y24387D01*
X117431Y24610D01*
X116416Y25030D01*
X115503Y25640D01*
X114726Y26417D01*
X114116Y27330D01*
X113695Y28345D01*
X113634Y28656D01*
X113895Y29972D01*
Y41279D01*
X113635Y42589D01*
X113695Y42893D01*
X114116Y43908D01*
X114726Y44822D01*
X115503Y45598D01*
X116416Y46209D01*
X117431Y46629D01*
X118548Y46851D01*
X119098Y46878D01*
X119438D01*
X119736Y47002D01*
X120059Y47002D01*
X120760Y47292D01*
X120989Y47521D01*
X121287Y47644D01*
X121824Y48181D01*
X121948Y48480D01*
X122176Y48708D01*
X122467Y49410D01*
Y49732D01*
X122590Y50031D01*
Y50411D01*
Y50790D01*
X122467Y51089D01*
Y51412D01*
X122176Y52113D01*
X121948Y52342D01*
X121824Y52640D01*
X121287Y53177D01*
X120989Y53300D01*
X120760Y53529D01*
X120059Y53819D01*
X119736D01*
X119438Y53943D01*
D02*
G37*
G36*
X497722Y59330D02*
X496529D01*
X495426Y58873D01*
X494582Y58029D01*
X494125Y56926D01*
Y55733D01*
X494582Y54630D01*
X495426Y53786D01*
X496529Y53330D01*
X497722D01*
X498825Y53786D01*
X499669Y54630D01*
X500125Y55733D01*
Y56926D01*
X499669Y58029D01*
X498825Y58873D01*
X497722Y59330D01*
D02*
G37*
G36*
X447531Y46688D02*
X446337D01*
X445235Y46231D01*
X444391Y45387D01*
X443934Y44285D01*
Y43091D01*
X444391Y41989D01*
X445235Y41145D01*
X446337Y40688D01*
X447531D01*
X448633Y41145D01*
X449477Y41989D01*
X449934Y43091D01*
Y44285D01*
X449477Y45387D01*
X448633Y46231D01*
X447531Y46688D01*
D02*
G37*
G36*
X165697Y46670D02*
X164503D01*
X163401Y46214D01*
X162557Y45370D01*
X162100Y44267D01*
Y43074D01*
X162557Y41971D01*
X163401Y41127D01*
X164503Y40670D01*
X165697D01*
X166799Y41127D01*
X167643Y41971D01*
X168100Y43074D01*
Y44267D01*
X167643Y45370D01*
X166799Y46214D01*
X165697Y46670D01*
D02*
G37*
G36*
X90471D02*
X89278D01*
X88175Y46214D01*
X87331Y45370D01*
X86875Y44267D01*
Y43074D01*
X87331Y41971D01*
X88175Y41127D01*
X89278Y40670D01*
X90471D01*
X91574Y41127D01*
X92418Y41971D01*
X92875Y43074D01*
Y44267D01*
X92418Y45370D01*
X91574Y46214D01*
X90471Y46670D01*
D02*
G37*
G36*
X65471D02*
X64278D01*
X63175Y46214D01*
X62331Y45370D01*
X61875Y44267D01*
Y43074D01*
X62331Y41971D01*
X63175Y41127D01*
X64278Y40670D01*
X65471D01*
X66574Y41127D01*
X67418Y41971D01*
X67875Y43074D01*
Y44267D01*
X67418Y45370D01*
X66574Y46214D01*
X65471Y46670D01*
D02*
G37*
G36*
X250389Y41100D02*
X249195D01*
X248093Y40643D01*
X247249Y39799D01*
X246792Y38697D01*
Y37503D01*
X247249Y36401D01*
X248093Y35557D01*
X249195Y35100D01*
X250389D01*
X251491Y35557D01*
X252335Y36401D01*
X252792Y37503D01*
Y38697D01*
X252335Y39799D01*
X251491Y40643D01*
X250389Y41100D01*
D02*
G37*
G36*
X348523Y40846D02*
X347329D01*
X346227Y40389D01*
X345383Y39545D01*
X344926Y38443D01*
Y37249D01*
X345383Y36147D01*
X346227Y35303D01*
X347329Y34846D01*
X348523D01*
X349625Y35303D01*
X350469Y36147D01*
X350926Y37249D01*
Y38443D01*
X350469Y39545D01*
X349625Y40389D01*
X348523Y40846D01*
D02*
G37*
G36*
X455257Y25774D02*
X454063D01*
X452961Y25317D01*
X452117Y24473D01*
X451660Y23371D01*
Y22177D01*
X452117Y21075D01*
X452961Y20231D01*
X454063Y19774D01*
X455257D01*
X456359Y20231D01*
X457203Y21075D01*
X457660Y22177D01*
Y23371D01*
X457203Y24473D01*
X456359Y25317D01*
X455257Y25774D01*
D02*
G37*
G36*
X426809D02*
X425615D01*
X424513Y25317D01*
X423669Y24473D01*
X423212Y23371D01*
Y22177D01*
X423669Y21075D01*
X424513Y20231D01*
X425615Y19774D01*
X426809D01*
X427911Y20231D01*
X428755Y21075D01*
X429212Y22177D01*
Y23371D01*
X428755Y24473D01*
X427911Y25317D01*
X426809Y25774D01*
D02*
G37*
G36*
X395313D02*
X394119D01*
X393017Y25317D01*
X392173Y24473D01*
X391716Y23371D01*
Y22177D01*
X392173Y21075D01*
X393017Y20231D01*
X394119Y19774D01*
X395313D01*
X396415Y20231D01*
X397259Y21075D01*
X397716Y22177D01*
Y23371D01*
X397259Y24473D01*
X396415Y25317D01*
X395313Y25774D01*
D02*
G37*
G36*
X355397D02*
X354203D01*
X353101Y25317D01*
X352257Y24473D01*
X351800Y23371D01*
Y22177D01*
X352257Y21075D01*
X353101Y20231D01*
X354203Y19774D01*
X355397D01*
X356499Y20231D01*
X357343Y21075D01*
X357800Y22177D01*
Y23371D01*
X357343Y24473D01*
X356499Y25317D01*
X355397Y25774D01*
D02*
G37*
G36*
X325209D02*
X324015D01*
X322913Y25317D01*
X322069Y24473D01*
X321612Y23371D01*
Y22177D01*
X322069Y21075D01*
X322913Y20231D01*
X324015Y19774D01*
X325209D01*
X326311Y20231D01*
X327155Y21075D01*
X327612Y22177D01*
Y23371D01*
X327155Y24473D01*
X326311Y25317D01*
X325209Y25774D01*
D02*
G37*
G36*
X295961D02*
X294767D01*
X293665Y25317D01*
X292821Y24473D01*
X292364Y23371D01*
Y22177D01*
X292821Y21075D01*
X293665Y20231D01*
X294767Y19774D01*
X295961D01*
X297063Y20231D01*
X297907Y21075D01*
X298364Y22177D01*
Y23371D01*
X297907Y24473D01*
X297063Y25317D01*
X295961Y25774D01*
D02*
G37*
G36*
X257861D02*
X256667D01*
X255565Y25317D01*
X254721Y24473D01*
X254264Y23371D01*
Y22177D01*
X254721Y21075D01*
X255565Y20231D01*
X256667Y19774D01*
X257861D01*
X258963Y20231D01*
X259807Y21075D01*
X260264Y22177D01*
Y23371D01*
X259807Y24473D01*
X258963Y25317D01*
X257861Y25774D01*
D02*
G37*
G36*
X227927D02*
X226733D01*
X225631Y25317D01*
X224787Y24473D01*
X224330Y23371D01*
Y22177D01*
X224787Y21075D01*
X225631Y20231D01*
X226733Y19774D01*
X227927D01*
X229029Y20231D01*
X229873Y21075D01*
X230330Y22177D01*
Y23371D01*
X229873Y24473D01*
X229029Y25317D01*
X227927Y25774D01*
D02*
G37*
G36*
X197409D02*
X196215D01*
X195113Y25317D01*
X194269Y24473D01*
X193812Y23371D01*
Y22177D01*
X194269Y21075D01*
X195113Y20231D01*
X196215Y19774D01*
X197409D01*
X198511Y20231D01*
X199355Y21075D01*
X199812Y22177D01*
Y23371D01*
X199355Y24473D01*
X198511Y25317D01*
X197409Y25774D01*
D02*
G37*
G36*
X138944Y53943D02*
X137477D01*
X137178Y53819D01*
X136855D01*
X136154Y53529D01*
X135926Y53300D01*
X135627Y53177D01*
X135090Y52640D01*
X134967Y52341D01*
X134738Y52113D01*
X134448Y51412D01*
Y51089D01*
X134324Y50790D01*
Y50031D01*
X134448Y49733D01*
X134448Y49410D01*
X134738Y48708D01*
X134967Y48480D01*
X135090Y48181D01*
X135627Y47644D01*
X135926Y47521D01*
X136154Y47292D01*
X136855Y47002D01*
X137178D01*
X137477Y46878D01*
X137817D01*
X138366Y46851D01*
X139483Y46629D01*
X140498Y46209D01*
X141411Y45598D01*
X142188Y44822D01*
X142799Y43908D01*
X143219Y42893D01*
X143279Y42589D01*
X143019Y41279D01*
Y29972D01*
X143281Y28656D01*
X143219Y28345D01*
X142799Y27330D01*
X142188Y26417D01*
X141411Y25640D01*
X140498Y25030D01*
X139483Y24610D01*
X138366Y24387D01*
X137817Y24360D01*
X137477D01*
X137178Y24237D01*
X136855D01*
X136154Y23946D01*
X135926Y23718D01*
X135627Y23594D01*
X135090Y23057D01*
X134967Y22759D01*
X134738Y22531D01*
X134448Y21829D01*
Y21506D01*
X134324Y21208D01*
Y20448D01*
X134448Y20150D01*
X134448Y19827D01*
X134738Y19125D01*
X134967Y18897D01*
X135090Y18599D01*
X135627Y18062D01*
X135926Y17938D01*
X136154Y17710D01*
X136855Y17419D01*
X137178D01*
X137477Y17296D01*
X138945D01*
X139099Y17359D01*
X139262Y17327D01*
X141397Y17751D01*
X141536Y17844D01*
X141702D01*
X143713Y18677D01*
X143831Y18795D01*
X143994Y18827D01*
X145804Y20037D01*
X145897Y20175D01*
X146050Y20239D01*
X147590Y21778D01*
X147654Y21932D01*
X147792Y22024D01*
X149001Y23835D01*
X149034Y23998D01*
X149151Y24115D01*
X149985Y26127D01*
Y26293D01*
X150077Y26431D01*
X150393Y28021D01*
X150679Y28448D01*
X150982Y29972D01*
Y41279D01*
X150679Y42803D01*
X150391Y43234D01*
X150073Y44821D01*
X149980Y44959D01*
X149980Y45125D01*
X149146Y47134D01*
X149028Y47251D01*
X148996Y47414D01*
X147786Y49222D01*
X147647Y49314D01*
X147584Y49468D01*
X146045Y51005D01*
X145891Y51068D01*
X145799Y51206D01*
X143989Y52414D01*
X143826Y52446D01*
X143709Y52564D01*
X141699Y53396D01*
X141532Y53396D01*
X141394Y53488D01*
X139261Y53912D01*
X139098Y53879D01*
X138944Y53943D01*
D02*
G37*
G36*
X165697Y21670D02*
X164503D01*
X163401Y21214D01*
X162557Y20370D01*
X162100Y19267D01*
Y18074D01*
X162557Y16971D01*
X163401Y16127D01*
X164503Y15670D01*
X165697D01*
X166799Y16127D01*
X167643Y16971D01*
X168100Y18074D01*
Y19267D01*
X167643Y20370D01*
X166799Y21214D01*
X165697Y21670D01*
D02*
G37*
G36*
X90471D02*
X89278D01*
X88175Y21214D01*
X87331Y20370D01*
X86875Y19267D01*
Y18074D01*
X87331Y16971D01*
X88175Y16127D01*
X89278Y15670D01*
X90471D01*
X91574Y16127D01*
X92418Y16971D01*
X92875Y18074D01*
Y19267D01*
X92418Y20370D01*
X91574Y21214D01*
X90471Y21670D01*
D02*
G37*
G36*
X155283Y16208D02*
X154089D01*
X152987Y15751D01*
X152143Y14907D01*
X151686Y13805D01*
Y12611D01*
X152143Y11509D01*
X152987Y10665D01*
X154089Y10208D01*
X155283D01*
X156385Y10665D01*
X157229Y11509D01*
X157686Y12611D01*
Y13805D01*
X157229Y14907D01*
X156385Y15751D01*
X155283Y16208D01*
D02*
G37*
G36*
X493014Y43490D02*
X489779Y43171D01*
X486669Y42228D01*
X483803Y40696D01*
X481290Y38634D01*
X479228Y36121D01*
X477696Y33255D01*
X476753Y30145D01*
X476434Y26910D01*
Y26430D01*
X476753Y23195D01*
X477696Y20085D01*
X479228Y17219D01*
X481290Y14706D01*
X483803Y12644D01*
X486669Y11112D01*
X489779Y10169D01*
X493014Y9850D01*
X496249Y10169D01*
X499359Y11112D01*
X502225Y12644D01*
X504738Y14706D01*
X506800Y17219D01*
X508332Y20085D01*
X509275Y23195D01*
X509594Y26430D01*
Y26910D01*
X509275Y30145D01*
X508332Y33255D01*
X506800Y36121D01*
X504738Y38634D01*
X502225Y40696D01*
X499359Y42228D01*
X496249Y43171D01*
X493014Y43490D01*
D02*
G37*
G36*
X25280D02*
X22045Y43171D01*
X18935Y42228D01*
X16069Y40696D01*
X13556Y38634D01*
X11494Y36121D01*
X9962Y33255D01*
X9019Y30145D01*
X8700Y26910D01*
Y26430D01*
X9019Y23195D01*
X9962Y20085D01*
X11494Y17219D01*
X13556Y14706D01*
X16069Y12644D01*
X18935Y11112D01*
X22045Y10169D01*
X25280Y9850D01*
X28515Y10169D01*
X31625Y11112D01*
X34491Y12644D01*
X37004Y14706D01*
X39066Y17219D01*
X40598Y20085D01*
X41541Y23195D01*
X41860Y26430D01*
Y26910D01*
X41541Y30145D01*
X40598Y33255D01*
X39066Y36121D01*
X37004Y38634D01*
X34491Y40696D01*
X31625Y42228D01*
X28515Y43171D01*
X25280Y43490D01*
D02*
G37*
%LPD*%
D86*
X197612Y76200D02*
X206248Y84836D01*
X177800Y76200D02*
X197612D01*
X234792Y40640D02*
Y74772D01*
X244856Y84836D01*
X206248D02*
X244856D01*
X332486D01*
X194079Y109197D02*
X337542D01*
X194056Y109173D02*
X194079Y109197D01*
D93*
X493014Y26670D02*
D03*
X25280D02*
D03*
X99996Y259100D02*
D03*
D94*
X493014Y259340D02*
D03*
D95*
X193548Y151638D02*
D03*
Y183388D02*
D03*
X244348D02*
D03*
Y151638D02*
D03*
D96*
X218948Y183388D02*
D03*
X229108Y132588D02*
D03*
X208788D02*
D03*
D97*
X24739Y171430D02*
D03*
Y257830D02*
D03*
D98*
X61539Y185730D02*
D03*
Y243530D02*
D03*
X397510Y219360D02*
D03*
X376322Y182118D02*
D03*
D99*
X66539Y257830D02*
D03*
Y171430D02*
D03*
D100*
X282130Y163576D02*
D03*
X401934Y40132D02*
D03*
X372043Y118420D02*
D03*
X337566Y109220D02*
D03*
X332926Y84836D02*
D03*
X302926Y37846D02*
D03*
X282130Y139446D02*
D03*
X207366Y198780D02*
D03*
X271272Y185420D02*
D03*
X172974Y123190D02*
D03*
X194056Y109173D02*
D03*
X177800Y76200D02*
D03*
X114390Y69580D02*
D03*
X151638Y66040D02*
D03*
X234792Y38100D02*
D03*
X204866D02*
D03*
X115888Y13304D02*
D03*
X35448Y59436D02*
D03*
X306324Y275590D02*
D03*
M02*
