G04*
G04 #@! TF.GenerationSoftware,Altium Limited,Altium Designer,23.0.1 (38)*
G04*
G04 Layer_Color=32768*
%FSLAX44Y44*%
%MOMM*%
G71*
G04*
G04 #@! TF.SameCoordinates,AA057BD2-FAE9-475E-A33E-1B252B641246*
G04*
G04*
G04 #@! TF.FilePolarity,Positive*
G04*
G01*
G75*
%ADD11C,0.2000*%
%ADD102C,0.1000*%
%ADD106C,0.0500*%
D11*
X390482Y198650D02*
Y214650D01*
X382482Y198650D02*
X390482D01*
X382482D02*
Y214650D01*
X390482D01*
X372174D02*
X380174D01*
X372174Y198650D02*
Y214650D01*
Y198650D02*
X380174D01*
Y214650D01*
X178792Y2274D02*
X275792D01*
X178792D02*
Y76274D01*
X275792D01*
Y2274D02*
Y76274D01*
X373926Y2274D02*
Y76274D01*
X276926D02*
X373926D01*
X276926Y2274D02*
Y76274D01*
Y2274D02*
X373926D01*
X137390Y25156D02*
Y46156D01*
X119390Y25156D02*
X137390D01*
X119390D02*
Y46156D01*
X137390D01*
X120390Y9304D02*
Y17304D01*
Y9304D02*
X136390D01*
Y17304D01*
X120390D02*
X136390D01*
X73060Y109106D02*
X81060D01*
Y125106D01*
X73060D02*
X81060D01*
X73060Y109106D02*
Y125106D01*
X375934Y2274D02*
X472934D01*
X375934D02*
Y76274D01*
X472934D01*
Y2274D02*
Y76274D01*
X274890Y188532D02*
Y196532D01*
X258890D02*
X274890D01*
X258890Y188532D02*
Y196532D01*
Y188532D02*
X274890D01*
X150481Y158814D02*
Y166814D01*
Y158814D02*
X166481D01*
Y166814D01*
X150481D02*
X166481D01*
X140380Y158564D02*
Y180564D01*
X128880Y158564D02*
X140380D01*
X128880D02*
Y180564D01*
X140380D01*
X116650Y172314D02*
X124650D01*
Y188314D01*
X116650D02*
X124650D01*
X116650Y172314D02*
Y188314D01*
X128235Y157314D02*
Y168314D01*
X106113D02*
X128235D01*
X106113Y157314D02*
Y168314D01*
Y157314D02*
X128235D01*
X120550Y155190D02*
X152550D01*
X120550Y117190D02*
Y155190D01*
Y117190D02*
X152550D01*
Y155190D01*
X154774Y118399D02*
X165774D01*
Y140521D01*
X154774D02*
X165774D01*
X154774Y118399D02*
Y140521D01*
X372238Y194380D02*
X388238D01*
Y186380D02*
Y194380D01*
X372238Y186380D02*
X388238D01*
X372238D02*
Y194380D01*
X287869Y143089D02*
Y225211D01*
X369991D01*
Y143089D02*
Y225211D01*
X287869Y143089D02*
X369991D01*
X312180Y240680D02*
X320680D01*
X312180Y226680D02*
Y240680D01*
Y226680D02*
X320680D01*
Y240680D01*
X310430Y227140D02*
Y235140D01*
X294430D02*
X310430D01*
X294430Y227140D02*
Y235140D01*
Y227140D02*
X310430D01*
X321639Y237910D02*
X343761D01*
Y226910D02*
Y237910D01*
X321639Y226910D02*
X343761D01*
X321639D02*
Y237910D01*
X289099Y237070D02*
X311221D01*
X289099D02*
Y248070D01*
X311221D01*
Y237070D02*
Y248070D01*
X310430Y250000D02*
Y258000D01*
X294430D02*
X310430D01*
X294430Y250000D02*
Y258000D01*
Y250000D02*
X310430D01*
X349220Y252354D02*
Y268854D01*
X312220D02*
X349220D01*
X312220Y252354D02*
Y268854D01*
Y252354D02*
X349220D01*
X289099Y259930D02*
X311221D01*
X289099D02*
Y270930D01*
X311221D01*
Y259930D02*
Y270930D01*
X411230Y200400D02*
X425954D01*
Y192900D02*
Y200400D01*
X411230Y192900D02*
X425954D01*
X411230D02*
Y200400D01*
X270130Y152650D02*
X286130D01*
X270130D02*
Y160650D01*
X286130D01*
Y152650D02*
Y160650D01*
Y143598D02*
Y151597D01*
X270130D02*
X286130D01*
X270130Y143598D02*
Y151597D01*
Y143598D02*
X286130D01*
D102*
X489458Y191650D02*
Y201650D01*
X484458Y196650D02*
X494458D01*
X441198Y190300D02*
Y203000D01*
X461518D01*
Y190300D02*
Y203000D01*
X441198Y190300D02*
X461518D01*
D106*
X510458Y175650D02*
Y217650D01*
X468458Y175650D02*
X510458D01*
X468458D02*
Y217650D01*
X510458D01*
X112858Y227046D02*
X154858D01*
Y191546D02*
Y227046D01*
X112858Y191546D02*
X154858D01*
X112858D02*
Y227046D01*
X371194Y224644D02*
Y251644D01*
Y224644D02*
X394194D01*
Y251644D01*
X371194D02*
X394194D01*
X314720Y120790D02*
Y138290D01*
X284720D02*
X314720D01*
X284720Y120790D02*
Y138290D01*
Y120790D02*
X314720D01*
M02*
