G04*
G04 #@! TF.GenerationSoftware,Altium Limited,Altium Designer,23.0.1 (38)*
G04*
G04 Layer_Color=65535*
%FSLAX44Y44*%
%MOMM*%
G71*
G04*
G04 #@! TF.SameCoordinates,AA057BD2-FAE9-475E-A33E-1B252B641246*
G04*
G04*
G04 #@! TF.FilePolarity,Positive*
G04*
G01*
G75*
%ADD10C,0.2500*%
%ADD11C,0.2000*%
%ADD12C,0.2540*%
%ADD13C,0.2032*%
G36*
X227751Y271154D02*
Y271122D01*
Y270003D01*
X223968D01*
Y271253D01*
X227751D01*
Y271154D01*
D02*
G37*
G36*
X221468Y270990D02*
Y270957D01*
Y270003D01*
X220218D01*
Y271253D01*
X221468D01*
Y270990D01*
D02*
G37*
G36*
X218935Y268753D02*
X217685D01*
Y269082D01*
Y269115D01*
Y271253D01*
X218935D01*
Y268753D01*
D02*
G37*
G36*
X212685D02*
X211402D01*
Y271253D01*
X212685D01*
Y268753D01*
D02*
G37*
G36*
X223968D02*
X225218D01*
Y267503D01*
X223968D01*
Y267865D01*
Y267898D01*
Y268753D01*
X222718D01*
Y270003D01*
X223968D01*
Y268753D01*
D02*
G37*
G36*
X221468Y267503D02*
X220218D01*
Y268753D01*
X221468D01*
Y267503D01*
D02*
G37*
G36*
X227751Y266253D02*
X226468D01*
Y267503D01*
X227751D01*
Y266253D01*
D02*
G37*
G36*
X223968Y265003D02*
X225218D01*
Y266253D01*
X226468D01*
Y263720D01*
X227751D01*
Y262470D01*
X226468D01*
Y263720D01*
X225218D01*
Y262470D01*
X223968D01*
Y263720D01*
X222718D01*
Y265003D01*
X218935D01*
Y267503D01*
X220218D01*
Y266253D01*
X222718D01*
Y267503D01*
X223968D01*
Y265003D01*
D02*
G37*
G36*
X215185Y267503D02*
X217685D01*
Y266253D01*
X215185D01*
Y267503D01*
X213935D01*
Y270003D01*
X215185D01*
Y267503D01*
D02*
G37*
G36*
X237785Y271187D02*
Y271154D01*
Y262470D01*
X229002D01*
Y271253D01*
X237785D01*
Y271187D01*
D02*
G37*
G36*
X218935Y263720D02*
X220218D01*
Y263062D01*
Y263029D01*
Y262470D01*
X218935D01*
Y263720D01*
X217685D01*
Y265003D01*
X218935D01*
Y263720D01*
D02*
G37*
G36*
X217685Y262930D02*
Y262897D01*
Y262470D01*
X216435D01*
Y263720D01*
X217685D01*
Y262930D01*
D02*
G37*
G36*
X210152Y262470D02*
X201368D01*
Y263128D01*
Y263161D01*
Y271253D01*
X210152D01*
Y262470D01*
D02*
G37*
G36*
X213935Y266253D02*
X215185D01*
Y265003D01*
X213935D01*
Y263720D01*
X215185D01*
Y262470D01*
X216435D01*
Y261220D01*
X215185D01*
Y262470D01*
X213935D01*
Y263720D01*
X212685D01*
Y264509D01*
Y264542D01*
Y266253D01*
X211402D01*
Y267503D01*
X213935D01*
Y266253D01*
D02*
G37*
G36*
X234002Y259970D02*
X232752D01*
Y260035D01*
Y260068D01*
Y261220D01*
X234002D01*
Y259970D01*
D02*
G37*
G36*
X212685Y261220D02*
X213935D01*
Y259970D01*
X215185D01*
Y258720D01*
X216435D01*
Y259970D01*
X217685D01*
Y261220D01*
X218935D01*
Y259970D01*
X220218D01*
Y258720D01*
X218935D01*
Y257469D01*
X217685D01*
Y256186D01*
X216435D01*
Y257469D01*
X215185D01*
Y258720D01*
X213935D01*
Y256186D01*
X212685D01*
Y257469D01*
X211402D01*
Y258720D01*
X210152D01*
Y259970D01*
X208902D01*
Y258720D01*
X210152D01*
Y257469D01*
X211402D01*
Y256186D01*
X212685D01*
Y252436D01*
X211402D01*
Y254936D01*
X208902D01*
Y256186D01*
X205151D01*
Y257469D01*
X203868D01*
Y258456D01*
Y258489D01*
Y258720D01*
X202618D01*
Y259970D01*
X201368D01*
Y261220D01*
X202618D01*
Y260233D01*
Y260200D01*
Y259970D01*
X203868D01*
Y258720D01*
X205151D01*
Y257469D01*
X206401D01*
Y258720D01*
X205151D01*
Y258785D01*
Y258818D01*
Y259970D01*
X203868D01*
Y261220D01*
X206401D01*
Y258720D01*
X207651D01*
Y261220D01*
X211402D01*
Y259970D01*
X212685D01*
Y261220D01*
X211402D01*
Y263720D01*
X212685D01*
Y261220D01*
D02*
G37*
G36*
X237785Y258720D02*
X236535D01*
Y259706D01*
Y259739D01*
Y259970D01*
X235285D01*
Y261220D01*
X237785D01*
Y258720D01*
D02*
G37*
G36*
X236535Y257469D02*
X237785D01*
Y256186D01*
X236535D01*
Y257469D01*
X234002D01*
Y258720D01*
X236535D01*
Y257469D01*
D02*
G37*
G36*
X222718Y262470D02*
X223968D01*
Y261220D01*
X225218D01*
Y259970D01*
X227751D01*
Y258720D01*
X229002D01*
Y257469D01*
X230252D01*
Y256186D01*
X227751D01*
Y258720D01*
X223968D01*
Y257469D01*
X226468D01*
Y256186D01*
X225218D01*
Y254936D01*
X222718D01*
Y256186D01*
X223968D01*
Y257469D01*
X221468D01*
Y263720D01*
X222718D01*
Y262470D01*
D02*
G37*
G36*
X230252Y259970D02*
X232752D01*
Y258720D01*
X231502D01*
Y257469D01*
X232752D01*
Y256186D01*
X235285D01*
Y254936D01*
X237785D01*
Y252436D01*
X236535D01*
Y248653D01*
X235285D01*
Y244903D01*
X237785D01*
Y243653D01*
X236535D01*
Y242403D01*
X237785D01*
Y242041D01*
Y242008D01*
Y241120D01*
X236535D01*
Y242403D01*
X235285D01*
Y243653D01*
X234002D01*
Y241120D01*
X235285D01*
Y239869D01*
X234002D01*
Y241120D01*
X232752D01*
Y239869D01*
X234002D01*
Y238619D01*
X235285D01*
Y237369D01*
X236535D01*
Y234869D01*
X235285D01*
Y237369D01*
X234002D01*
Y238619D01*
X231502D01*
Y236119D01*
X230252D01*
Y239869D01*
X229002D01*
Y238619D01*
X227751D01*
Y239869D01*
X226468D01*
Y242403D01*
X225218D01*
Y241120D01*
X223968D01*
Y243653D01*
X222718D01*
Y241120D01*
X223968D01*
Y239869D01*
X222718D01*
Y241120D01*
X221468D01*
Y244903D01*
X217685D01*
Y247403D01*
X215185D01*
Y248653D01*
X211402D01*
Y251186D01*
X210152D01*
Y252436D01*
X208902D01*
Y253686D01*
X205151D01*
Y254936D01*
X203868D01*
Y256186D01*
X202618D01*
Y254936D01*
X203868D01*
Y252436D01*
X205151D01*
Y251186D01*
X206401D01*
Y248653D01*
X210152D01*
Y247403D01*
X208902D01*
Y246153D01*
X211402D01*
Y244903D01*
X212685D01*
Y241350D01*
Y241317D01*
Y241120D01*
X216435D01*
Y239869D01*
X218935D01*
Y238619D01*
X217685D01*
Y237369D01*
X220218D01*
Y236119D01*
X217685D01*
Y234869D01*
X216435D01*
Y236119D01*
X215185D01*
Y237369D01*
X211402D01*
Y239869D01*
X212685D01*
Y241120D01*
X211402D01*
Y244903D01*
X208902D01*
Y246153D01*
X206401D01*
Y247403D01*
X205151D01*
Y249837D01*
Y249870D01*
Y251186D01*
X203868D01*
Y252436D01*
X202618D01*
Y252699D01*
Y252732D01*
Y254936D01*
X201368D01*
Y258720D01*
X202618D01*
Y257568D01*
Y257535D01*
Y257469D01*
X203868D01*
Y256186D01*
X205151D01*
Y254936D01*
X208902D01*
Y253686D01*
X210152D01*
Y252436D01*
X211402D01*
Y251186D01*
X213935D01*
Y252436D01*
X215185D01*
Y254936D01*
X217685D01*
Y253686D01*
X218935D01*
Y252436D01*
X221468D01*
Y253686D01*
X218935D01*
Y256186D01*
X221468D01*
Y254936D01*
X222718D01*
Y251186D01*
X225218D01*
Y252436D01*
X223968D01*
Y253686D01*
X227751D01*
Y252436D01*
X229002D01*
Y254936D01*
X230252D01*
Y252436D01*
X232752D01*
Y251186D01*
X234002D01*
Y249936D01*
X235285D01*
Y252436D01*
X234002D01*
Y254936D01*
X232752D01*
Y256186D01*
X231502D01*
Y257469D01*
X230252D01*
Y258720D01*
X229002D01*
Y261220D01*
X230252D01*
Y259970D01*
D02*
G37*
G36*
X207651Y251252D02*
Y251219D01*
Y251186D01*
X210152D01*
Y250199D01*
Y250166D01*
Y249936D01*
X207651D01*
Y251186D01*
X206401D01*
Y252436D01*
X207651D01*
Y251252D01*
D02*
G37*
G36*
X202618Y251186D02*
X203868D01*
Y251087D01*
Y251054D01*
Y249936D01*
X202618D01*
Y251186D01*
X201368D01*
Y251712D01*
Y251745D01*
Y252436D01*
X202618D01*
Y251186D01*
D02*
G37*
G36*
Y247403D02*
X201368D01*
Y248653D01*
X202618D01*
Y247403D01*
D02*
G37*
G36*
X213935Y246153D02*
X216435D01*
Y244903D01*
X212685D01*
Y246153D01*
X211402D01*
Y247403D01*
X213935D01*
Y246153D01*
D02*
G37*
G36*
X205151D02*
X206401D01*
Y244903D01*
X205151D01*
Y245725D01*
Y245758D01*
Y246153D01*
X203868D01*
Y247403D01*
X205151D01*
Y246153D01*
D02*
G37*
G36*
X203868Y244903D02*
X202618D01*
Y246087D01*
Y246120D01*
Y246153D01*
X203868D01*
Y244903D01*
D02*
G37*
G36*
X220218Y241120D02*
X221468D01*
Y239869D01*
X222718D01*
Y238619D01*
X225218D01*
Y237369D01*
X221468D01*
Y238619D01*
X220218D01*
Y241120D01*
X216435D01*
Y242403D01*
X215185D01*
Y243126D01*
Y243159D01*
Y243653D01*
X216435D01*
Y242403D01*
X218935D01*
Y243653D01*
X220218D01*
Y241120D01*
D02*
G37*
G36*
X237785Y237369D02*
X236535D01*
Y239869D01*
X237785D01*
Y237369D01*
D02*
G37*
G36*
X234002Y236119D02*
X232752D01*
Y237369D01*
X234002D01*
Y236119D01*
D02*
G37*
G36*
X226468Y238619D02*
X227751D01*
Y237369D01*
X229002D01*
Y236119D01*
X230252D01*
Y234869D01*
X223968D01*
Y236119D01*
X226468D01*
Y238619D01*
X225218D01*
Y239869D01*
X226468D01*
Y238619D01*
D02*
G37*
G36*
X222718Y235626D02*
Y235593D01*
Y234869D01*
X221468D01*
Y236119D01*
X222718D01*
Y235626D01*
D02*
G37*
G36*
X215185Y234869D02*
X213935D01*
Y236119D01*
X215185D01*
Y234869D01*
D02*
G37*
G36*
X212685Y235593D02*
Y235560D01*
Y234869D01*
X211402D01*
Y236119D01*
X212685D01*
Y235593D01*
D02*
G37*
G36*
X210152Y234869D02*
X201368D01*
Y235889D01*
Y235922D01*
Y243653D01*
X210152D01*
Y234869D01*
D02*
G37*
G36*
X47192Y127000D02*
X11176D01*
Y142247D01*
X47192D01*
Y127000D01*
D02*
G37*
G36*
X66725Y265938D02*
X11176D01*
Y281185D01*
X66725D01*
Y265938D01*
D02*
G37*
G36*
X514774Y82042D02*
X465836D01*
Y97289D01*
X514774D01*
Y82042D01*
D02*
G37*
G36*
X352957D02*
X297895D01*
Y97289D01*
X352957D01*
Y82042D01*
D02*
G37*
G36*
X146940Y97289D02*
Y81980D01*
X109840D01*
Y97289D01*
X146940D01*
D02*
G37*
G36*
X254823Y82042D02*
X199761D01*
Y97289D01*
X254823D01*
Y82042D01*
D02*
G37*
G36*
X240364Y207518D02*
X198374D01*
Y222765D01*
X240364D01*
Y207518D01*
D02*
G37*
G36*
X505474Y158242D02*
X471932D01*
Y173051D01*
X505474D01*
Y158242D01*
D02*
G37*
%LPC*%
G36*
X236535Y270003D02*
X230252D01*
Y263720D01*
X236535D01*
Y270003D01*
D02*
G37*
%LPD*%
G36*
X235285Y265003D02*
X231502D01*
Y265398D01*
Y265431D01*
Y268753D01*
X235285D01*
Y265003D01*
D02*
G37*
%LPC*%
G36*
X208902Y270003D02*
X202618D01*
Y264180D01*
Y264147D01*
Y263720D01*
X208902D01*
Y270003D01*
D02*
G37*
%LPD*%
G36*
X207651Y265003D02*
X203868D01*
Y268753D01*
X207651D01*
Y265003D01*
D02*
G37*
%LPC*%
G36*
X210152Y257469D02*
X208902D01*
Y256186D01*
X210152D01*
Y257469D01*
D02*
G37*
G36*
X218935Y252436D02*
X216435D01*
Y251186D01*
X215185D01*
Y249936D01*
X217685D01*
Y248653D01*
X218935D01*
Y252436D01*
D02*
G37*
G36*
X222718Y251186D02*
X220218D01*
Y249936D01*
X221468D01*
Y247403D01*
X222718D01*
Y251186D01*
D02*
G37*
G36*
X231502D02*
X227751D01*
Y249936D01*
X223968D01*
Y246153D01*
X225218D01*
Y243653D01*
X226468D01*
Y244870D01*
Y244903D01*
Y246153D01*
X229002D01*
Y248653D01*
X230252D01*
Y249936D01*
X231502D01*
Y248653D01*
X232752D01*
Y246153D01*
X234002D01*
Y248653D01*
X232752D01*
Y249936D01*
X231502D01*
Y251186D01*
D02*
G37*
G36*
X221468Y247403D02*
X220218D01*
Y246153D01*
X221468D01*
Y247403D01*
D02*
G37*
G36*
X231502Y244903D02*
X227751D01*
Y241120D01*
X231502D01*
Y244080D01*
Y244113D01*
Y244903D01*
D02*
G37*
G36*
X216435Y239869D02*
X215185D01*
Y238619D01*
X216435D01*
Y239869D01*
D02*
G37*
%LPD*%
G36*
X227751Y248620D02*
Y248587D01*
Y247403D01*
X226468D01*
Y248653D01*
X227751D01*
Y248620D01*
D02*
G37*
G36*
X230252Y242403D02*
X229002D01*
Y243653D01*
X230252D01*
Y242403D01*
D02*
G37*
%LPC*%
G36*
X208902D02*
X202618D01*
Y236119D01*
X208902D01*
Y238093D01*
Y238126D01*
Y242403D01*
D02*
G37*
%LPD*%
G36*
X207651Y237369D02*
X203868D01*
Y241120D01*
X207651D01*
Y237369D01*
D02*
G37*
%LPC*%
G36*
X29609Y141247D02*
X29472D01*
X28997Y141234D01*
X28559Y141184D01*
X28359Y141147D01*
X28159Y141109D01*
X27984Y141072D01*
X27810Y141034D01*
X27659Y140984D01*
X27522Y140947D01*
X27410Y140909D01*
X27310Y140884D01*
X27235Y140847D01*
X27172Y140834D01*
X27135Y140809D01*
X27122D01*
X26747Y140634D01*
X26435Y140422D01*
X26160Y140209D01*
X25935Y139997D01*
X25747Y139810D01*
X25685Y139734D01*
X25623Y139660D01*
X25585Y139609D01*
X25548Y139559D01*
X25535Y139535D01*
X25523Y139522D01*
X25423Y139360D01*
X25348Y139197D01*
X25210Y138885D01*
X25110Y138572D01*
X25048Y138297D01*
X25023Y138172D01*
X24998Y138060D01*
X24985Y137960D01*
Y137872D01*
X24973Y137810D01*
Y137747D01*
Y137723D01*
Y137710D01*
X24998Y137385D01*
X25048Y137085D01*
X25110Y136810D01*
X25198Y136573D01*
X25285Y136385D01*
X25323Y136298D01*
X25348Y136235D01*
X25385Y136185D01*
X25398Y136148D01*
X25423Y136123D01*
Y136110D01*
X25610Y135861D01*
X25823Y135623D01*
X26047Y135423D01*
X26272Y135248D01*
X26472Y135098D01*
X26560Y135048D01*
X26635Y134998D01*
X26697Y134961D01*
X26747Y134936D01*
X26772Y134911D01*
X26785D01*
X26935Y134836D01*
X27097Y134773D01*
X27272Y134698D01*
X27472Y134623D01*
X27885Y134498D01*
X28284Y134373D01*
X28484Y134311D01*
X28659Y134261D01*
X28834Y134223D01*
X28972Y134186D01*
X29097Y134148D01*
X29184Y134136D01*
X29234Y134111D01*
X29259D01*
X29571Y134036D01*
X29859Y133961D01*
X30121Y133898D01*
X30359Y133836D01*
X30571Y133786D01*
X30759Y133736D01*
X30921Y133686D01*
X31059Y133649D01*
X31184Y133611D01*
X31284Y133574D01*
X31359Y133549D01*
X31421Y133524D01*
X31471Y133511D01*
X31509Y133499D01*
X31534Y133486D01*
X31821Y133374D01*
X32058Y133249D01*
X32258Y133124D01*
X32421Y132999D01*
X32546Y132899D01*
X32633Y132811D01*
X32683Y132761D01*
X32696Y132736D01*
X32808Y132561D01*
X32896Y132386D01*
X32958Y132211D01*
X33008Y132049D01*
X33033Y131899D01*
X33046Y131786D01*
Y131712D01*
Y131699D01*
Y131687D01*
X33033Y131462D01*
X32996Y131262D01*
X32933Y131074D01*
X32871Y130912D01*
X32796Y130774D01*
X32746Y130674D01*
X32696Y130612D01*
X32683Y130587D01*
X32533Y130412D01*
X32358Y130249D01*
X32171Y130125D01*
X31996Y130012D01*
X31834Y129912D01*
X31696Y129850D01*
X31646Y129824D01*
X31609Y129812D01*
X31583Y129799D01*
X31571D01*
X31284Y129700D01*
X30996Y129637D01*
X30709Y129587D01*
X30446Y129550D01*
X30221Y129525D01*
X30121D01*
X30034Y129512D01*
X29871D01*
X29472Y129525D01*
X29097Y129575D01*
X28759Y129637D01*
X28609Y129662D01*
X28472Y129700D01*
X28347Y129737D01*
X28234Y129775D01*
X28134Y129799D01*
X28047Y129824D01*
X27984Y129850D01*
X27935Y129874D01*
X27910Y129887D01*
X27897D01*
X27597Y130037D01*
X27335Y130212D01*
X27110Y130374D01*
X26935Y130537D01*
X26797Y130674D01*
X26697Y130787D01*
X26647Y130862D01*
X26622Y130874D01*
Y130887D01*
X26485Y131137D01*
X26372Y131399D01*
X26272Y131662D01*
X26210Y131911D01*
X26160Y132136D01*
X26135Y132224D01*
X26122Y132311D01*
X26110Y132386D01*
X26097Y132436D01*
Y132461D01*
Y132474D01*
X24498Y132336D01*
X24510Y132099D01*
X24535Y131874D01*
X24610Y131437D01*
X24673Y131224D01*
X24723Y131037D01*
X24785Y130862D01*
X24848Y130699D01*
X24910Y130549D01*
X24973Y130412D01*
X25035Y130299D01*
X25085Y130199D01*
X25123Y130125D01*
X25160Y130075D01*
X25173Y130037D01*
X25185Y130024D01*
X25460Y129675D01*
X25760Y129362D01*
X26072Y129100D01*
X26360Y128887D01*
X26497Y128787D01*
X26622Y128712D01*
X26747Y128650D01*
X26847Y128600D01*
X26922Y128550D01*
X26985Y128525D01*
X27022Y128512D01*
X27035Y128500D01*
X27260Y128412D01*
X27497Y128337D01*
X27984Y128212D01*
X28472Y128125D01*
X28709Y128088D01*
X28934Y128062D01*
X29147Y128038D01*
X29334Y128025D01*
X29509Y128013D01*
X29659D01*
X29784Y128000D01*
X29946D01*
X30446Y128025D01*
X30909Y128075D01*
X31121Y128112D01*
X31334Y128162D01*
X31521Y128200D01*
X31696Y128250D01*
X31846Y128300D01*
X31996Y128337D01*
X32108Y128387D01*
X32221Y128425D01*
X32296Y128450D01*
X32358Y128475D01*
X32396Y128500D01*
X32408D01*
X32796Y128700D01*
X33133Y128925D01*
X33283Y129050D01*
X33421Y129162D01*
X33545Y129275D01*
X33670Y129387D01*
X33770Y129487D01*
X33858Y129587D01*
X33920Y129675D01*
X33983Y129749D01*
X34033Y129812D01*
X34070Y129862D01*
X34083Y129887D01*
X34095Y129900D01*
X34195Y130075D01*
X34295Y130237D01*
X34433Y130574D01*
X34545Y130899D01*
X34608Y131199D01*
X34633Y131337D01*
X34658Y131449D01*
X34670Y131562D01*
Y131649D01*
X34683Y131724D01*
Y132011D01*
X34658Y132199D01*
X34595Y132549D01*
X34508Y132861D01*
X34420Y133124D01*
X34370Y133236D01*
X34320Y133349D01*
X34270Y133436D01*
X34233Y133511D01*
X34195Y133574D01*
X34170Y133611D01*
X34158Y133636D01*
X34145Y133649D01*
X34033Y133799D01*
X33920Y133936D01*
X33658Y134186D01*
X33383Y134411D01*
X33121Y134598D01*
X32871Y134748D01*
X32771Y134811D01*
X32683Y134861D01*
X32608Y134898D01*
X32546Y134923D01*
X32508Y134948D01*
X32496D01*
X32333Y135011D01*
X32146Y135086D01*
X31946Y135148D01*
X31721Y135223D01*
X31259Y135361D01*
X30784Y135486D01*
X30559Y135548D01*
X30346Y135598D01*
X30146Y135648D01*
X29984Y135686D01*
X29846Y135710D01*
X29734Y135736D01*
X29671Y135760D01*
X29646D01*
X29284Y135848D01*
X28947Y135935D01*
X28647Y136023D01*
X28384Y136110D01*
X28147Y136185D01*
X27935Y136260D01*
X27759Y136335D01*
X27597Y136398D01*
X27472Y136460D01*
X27360Y136523D01*
X27272Y136573D01*
X27210Y136610D01*
X27160Y136635D01*
X27122Y136660D01*
X27110Y136685D01*
X27097D01*
X26935Y136860D01*
X26810Y137048D01*
X26735Y137235D01*
X26672Y137423D01*
X26635Y137572D01*
X26622Y137710D01*
X26610Y137760D01*
Y137797D01*
Y137810D01*
Y137823D01*
X26622Y137972D01*
X26635Y138110D01*
X26722Y138360D01*
X26835Y138597D01*
X26960Y138797D01*
X27085Y138947D01*
X27197Y139072D01*
X27285Y139147D01*
X27297Y139172D01*
X27310D01*
X27447Y139272D01*
X27610Y139360D01*
X27772Y139435D01*
X27959Y139510D01*
X28322Y139609D01*
X28697Y139672D01*
X28859Y139697D01*
X29022Y139722D01*
X29172Y139734D01*
X29297D01*
X29397Y139747D01*
X29546D01*
X29809Y139734D01*
X30071Y139722D01*
X30296Y139684D01*
X30521Y139647D01*
X30721Y139597D01*
X30896Y139547D01*
X31059Y139497D01*
X31209Y139435D01*
X31346Y139372D01*
X31459Y139322D01*
X31558Y139272D01*
X31634Y139222D01*
X31696Y139185D01*
X31734Y139147D01*
X31758Y139135D01*
X31771Y139122D01*
X31908Y138997D01*
X32033Y138860D01*
X32133Y138722D01*
X32233Y138572D01*
X32396Y138272D01*
X32508Y137972D01*
X32546Y137835D01*
X32583Y137710D01*
X32621Y137598D01*
X32633Y137498D01*
X32658Y137410D01*
Y137348D01*
X32671Y137310D01*
Y137298D01*
X34295Y137423D01*
X34283Y137635D01*
X34258Y137835D01*
X34170Y138210D01*
X34070Y138560D01*
X34020Y138710D01*
X33958Y138847D01*
X33895Y138985D01*
X33845Y139097D01*
X33795Y139197D01*
X33746Y139285D01*
X33708Y139347D01*
X33683Y139397D01*
X33670Y139422D01*
X33658Y139435D01*
X33421Y139747D01*
X33146Y140022D01*
X32871Y140247D01*
X32596Y140447D01*
X32358Y140597D01*
X32258Y140647D01*
X32158Y140697D01*
X32083Y140734D01*
X32033Y140759D01*
X31996Y140784D01*
X31983D01*
X31558Y140934D01*
X31134Y141047D01*
X30709Y141134D01*
X30509Y141159D01*
X30321Y141184D01*
X30146Y141209D01*
X29984Y141222D01*
X29834Y141234D01*
X29709D01*
X29609Y141247D01*
D02*
G37*
G36*
X46192Y141022D02*
X36032D01*
Y139510D01*
X40256D01*
Y128212D01*
X41956D01*
Y139510D01*
X46192D01*
Y141022D01*
D02*
G37*
G36*
X18137D02*
X12176D01*
Y128212D01*
X13876D01*
Y133898D01*
X16063D01*
X16263Y133886D01*
X16425Y133874D01*
X16550D01*
X16650Y133861D01*
X16725Y133848D01*
X16762Y133836D01*
X16775D01*
X16925Y133799D01*
X17062Y133736D01*
X17187Y133686D01*
X17300Y133624D01*
X17400Y133574D01*
X17475Y133524D01*
X17525Y133499D01*
X17537Y133486D01*
X17687Y133386D01*
X17837Y133249D01*
X17974Y133111D01*
X18112Y132974D01*
X18224Y132849D01*
X18324Y132736D01*
X18374Y132661D01*
X18399Y132649D01*
Y132636D01*
X18499Y132511D01*
X18587Y132386D01*
X18799Y132099D01*
X18999Y131812D01*
X19199Y131524D01*
X19362Y131274D01*
X19437Y131162D01*
X19499Y131062D01*
X19549Y130987D01*
X19587Y130924D01*
X19612Y130887D01*
X19624Y130874D01*
X21324Y128212D01*
X23436D01*
X21224Y131687D01*
X20974Y132049D01*
X20724Y132386D01*
X20486Y132674D01*
X20274Y132924D01*
X20174Y133036D01*
X20087Y133124D01*
X20011Y133211D01*
X19949Y133274D01*
X19899Y133324D01*
X19862Y133374D01*
X19836Y133386D01*
X19824Y133399D01*
X19674Y133511D01*
X19512Y133636D01*
X19349Y133736D01*
X19187Y133836D01*
X19037Y133911D01*
X18912Y133986D01*
X18862Y133998D01*
X18824Y134024D01*
X18812Y134036D01*
X18799D01*
X19137Y134086D01*
X19449Y134161D01*
X19737Y134236D01*
X19999Y134323D01*
X20249Y134423D01*
X20474Y134523D01*
X20674Y134623D01*
X20849Y134723D01*
X21011Y134823D01*
X21149Y134911D01*
X21261Y134998D01*
X21361Y135073D01*
X21436Y135136D01*
X21486Y135186D01*
X21511Y135211D01*
X21524Y135223D01*
X21686Y135398D01*
X21811Y135586D01*
X21936Y135786D01*
X22036Y135973D01*
X22123Y136173D01*
X22198Y136360D01*
X22248Y136548D01*
X22298Y136723D01*
X22336Y136885D01*
X22361Y137048D01*
X22386Y137173D01*
X22398Y137298D01*
X22411Y137385D01*
Y137460D01*
Y137510D01*
Y137523D01*
Y137723D01*
X22386Y137910D01*
X22323Y138272D01*
X22236Y138597D01*
X22148Y138885D01*
X22099Y139010D01*
X22048Y139110D01*
X21999Y139210D01*
X21961Y139297D01*
X21923Y139360D01*
X21899Y139410D01*
X21886Y139435D01*
X21874Y139447D01*
X21661Y139747D01*
X21424Y140009D01*
X21186Y140222D01*
X20961Y140384D01*
X20761Y140509D01*
X20674Y140559D01*
X20599Y140609D01*
X20536Y140634D01*
X20486Y140659D01*
X20461Y140672D01*
X20449D01*
X20274Y140734D01*
X20087Y140784D01*
X19674Y140872D01*
X19237Y140934D01*
X18812Y140984D01*
X18624Y140997D01*
X18437Y141009D01*
X18274D01*
X18137Y141022D01*
D02*
G37*
%LPD*%
G36*
X18424Y139585D02*
X18637Y139559D01*
X18849Y139522D01*
X19037Y139472D01*
X19199Y139422D01*
X19349Y139372D01*
X19487Y139322D01*
X19612Y139260D01*
X19712Y139210D01*
X19799Y139160D01*
X19874Y139110D01*
X19924Y139072D01*
X19974Y139047D01*
X19986Y139035D01*
X19999Y139022D01*
X20111Y138910D01*
X20224Y138785D01*
X20311Y138672D01*
X20386Y138535D01*
X20499Y138285D01*
X20574Y138047D01*
X20624Y137847D01*
X20636Y137747D01*
X20649Y137673D01*
X20661Y137610D01*
Y137560D01*
Y137535D01*
Y137523D01*
X20649Y137298D01*
X20611Y137073D01*
X20549Y136885D01*
X20486Y136710D01*
X20424Y136560D01*
X20361Y136460D01*
X20324Y136385D01*
X20311Y136373D01*
Y136360D01*
X20174Y136173D01*
X20011Y136023D01*
X19849Y135885D01*
X19687Y135786D01*
X19549Y135698D01*
X19437Y135648D01*
X19349Y135611D01*
X19337Y135598D01*
X19324D01*
X19062Y135523D01*
X18762Y135461D01*
X18462Y135423D01*
X18175Y135386D01*
X18037D01*
X17912Y135373D01*
X17800D01*
X17700Y135361D01*
X13876D01*
Y139609D01*
X18187D01*
X18424Y139585D01*
D02*
G37*
%LPC*%
G36*
X29609Y280185D02*
X29472D01*
X28997Y280172D01*
X28559Y280122D01*
X28359Y280085D01*
X28159Y280047D01*
X27984Y280010D01*
X27810Y279972D01*
X27659Y279922D01*
X27522Y279885D01*
X27410Y279847D01*
X27310Y279822D01*
X27235Y279785D01*
X27172Y279772D01*
X27135Y279747D01*
X27122D01*
X26747Y279572D01*
X26435Y279360D01*
X26160Y279147D01*
X25935Y278935D01*
X25747Y278748D01*
X25685Y278673D01*
X25623Y278598D01*
X25585Y278547D01*
X25548Y278498D01*
X25535Y278472D01*
X25523Y278460D01*
X25423Y278298D01*
X25348Y278135D01*
X25210Y277823D01*
X25110Y277510D01*
X25048Y277235D01*
X25023Y277110D01*
X24998Y276998D01*
X24985Y276898D01*
Y276810D01*
X24973Y276748D01*
Y276686D01*
Y276660D01*
Y276648D01*
X24998Y276323D01*
X25048Y276023D01*
X25110Y275748D01*
X25198Y275511D01*
X25285Y275323D01*
X25323Y275236D01*
X25348Y275173D01*
X25385Y275123D01*
X25398Y275086D01*
X25423Y275061D01*
Y275048D01*
X25610Y274799D01*
X25823Y274561D01*
X26047Y274361D01*
X26272Y274186D01*
X26472Y274036D01*
X26560Y273986D01*
X26635Y273936D01*
X26697Y273899D01*
X26747Y273874D01*
X26772Y273849D01*
X26785D01*
X26935Y273774D01*
X27097Y273711D01*
X27272Y273636D01*
X27472Y273561D01*
X27885Y273436D01*
X28284Y273311D01*
X28484Y273249D01*
X28659Y273199D01*
X28834Y273161D01*
X28972Y273124D01*
X29097Y273086D01*
X29184Y273074D01*
X29234Y273049D01*
X29259D01*
X29571Y272974D01*
X29859Y272899D01*
X30121Y272836D01*
X30359Y272774D01*
X30571Y272724D01*
X30759Y272674D01*
X30921Y272624D01*
X31059Y272587D01*
X31184Y272549D01*
X31284Y272512D01*
X31359Y272487D01*
X31421Y272462D01*
X31471Y272449D01*
X31509Y272437D01*
X31534Y272424D01*
X31821Y272312D01*
X32058Y272187D01*
X32258Y272062D01*
X32421Y271937D01*
X32546Y271837D01*
X32633Y271749D01*
X32683Y271699D01*
X32696Y271674D01*
X32808Y271499D01*
X32896Y271324D01*
X32958Y271149D01*
X33008Y270987D01*
X33033Y270837D01*
X33046Y270725D01*
Y270650D01*
Y270637D01*
Y270625D01*
X33033Y270400D01*
X32996Y270200D01*
X32933Y270012D01*
X32871Y269850D01*
X32796Y269712D01*
X32746Y269612D01*
X32696Y269550D01*
X32683Y269525D01*
X32533Y269350D01*
X32358Y269187D01*
X32171Y269062D01*
X31996Y268950D01*
X31834Y268850D01*
X31696Y268787D01*
X31646Y268762D01*
X31609Y268750D01*
X31583Y268738D01*
X31571D01*
X31284Y268638D01*
X30996Y268575D01*
X30709Y268525D01*
X30446Y268488D01*
X30221Y268463D01*
X30121D01*
X30034Y268450D01*
X29871D01*
X29472Y268463D01*
X29097Y268513D01*
X28759Y268575D01*
X28609Y268600D01*
X28472Y268638D01*
X28347Y268675D01*
X28234Y268713D01*
X28134Y268738D01*
X28047Y268762D01*
X27984Y268787D01*
X27935Y268813D01*
X27910Y268825D01*
X27897D01*
X27597Y268975D01*
X27335Y269150D01*
X27110Y269312D01*
X26935Y269475D01*
X26797Y269612D01*
X26697Y269725D01*
X26647Y269800D01*
X26622Y269812D01*
Y269825D01*
X26485Y270075D01*
X26372Y270337D01*
X26272Y270600D01*
X26210Y270849D01*
X26160Y271074D01*
X26135Y271162D01*
X26122Y271249D01*
X26110Y271324D01*
X26097Y271374D01*
Y271399D01*
Y271412D01*
X24498Y271274D01*
X24510Y271037D01*
X24535Y270812D01*
X24610Y270375D01*
X24673Y270162D01*
X24723Y269975D01*
X24785Y269800D01*
X24848Y269637D01*
X24910Y269487D01*
X24973Y269350D01*
X25035Y269237D01*
X25085Y269137D01*
X25123Y269062D01*
X25160Y269013D01*
X25173Y268975D01*
X25185Y268962D01*
X25460Y268613D01*
X25760Y268300D01*
X26072Y268038D01*
X26360Y267825D01*
X26497Y267725D01*
X26622Y267650D01*
X26747Y267588D01*
X26847Y267538D01*
X26922Y267488D01*
X26985Y267463D01*
X27022Y267450D01*
X27035Y267438D01*
X27260Y267350D01*
X27497Y267275D01*
X27984Y267150D01*
X28472Y267063D01*
X28709Y267026D01*
X28934Y267001D01*
X29147Y266975D01*
X29334Y266963D01*
X29509Y266950D01*
X29659D01*
X29784Y266938D01*
X29946D01*
X30446Y266963D01*
X30909Y267013D01*
X31121Y267050D01*
X31334Y267101D01*
X31521Y267138D01*
X31696Y267188D01*
X31846Y267238D01*
X31996Y267275D01*
X32108Y267325D01*
X32221Y267363D01*
X32296Y267388D01*
X32358Y267413D01*
X32396Y267438D01*
X32408D01*
X32796Y267638D01*
X33133Y267863D01*
X33283Y267988D01*
X33421Y268100D01*
X33545Y268213D01*
X33670Y268325D01*
X33770Y268425D01*
X33858Y268525D01*
X33920Y268613D01*
X33983Y268688D01*
X34033Y268750D01*
X34070Y268800D01*
X34083Y268825D01*
X34095Y268838D01*
X34195Y269013D01*
X34295Y269175D01*
X34433Y269512D01*
X34545Y269837D01*
X34608Y270137D01*
X34633Y270275D01*
X34658Y270387D01*
X34670Y270500D01*
Y270587D01*
X34683Y270662D01*
Y270949D01*
X34658Y271137D01*
X34595Y271487D01*
X34508Y271799D01*
X34420Y272062D01*
X34370Y272174D01*
X34320Y272287D01*
X34270Y272374D01*
X34233Y272449D01*
X34195Y272512D01*
X34170Y272549D01*
X34158Y272574D01*
X34145Y272587D01*
X34033Y272736D01*
X33920Y272874D01*
X33658Y273124D01*
X33383Y273349D01*
X33121Y273536D01*
X32871Y273686D01*
X32771Y273749D01*
X32683Y273799D01*
X32608Y273836D01*
X32546Y273861D01*
X32508Y273886D01*
X32496D01*
X32333Y273949D01*
X32146Y274024D01*
X31946Y274086D01*
X31721Y274161D01*
X31259Y274299D01*
X30784Y274424D01*
X30559Y274486D01*
X30346Y274536D01*
X30146Y274586D01*
X29984Y274624D01*
X29846Y274648D01*
X29734Y274674D01*
X29671Y274699D01*
X29646D01*
X29284Y274786D01*
X28947Y274874D01*
X28647Y274961D01*
X28384Y275048D01*
X28147Y275123D01*
X27935Y275198D01*
X27759Y275273D01*
X27597Y275336D01*
X27472Y275398D01*
X27360Y275461D01*
X27272Y275511D01*
X27210Y275548D01*
X27160Y275573D01*
X27122Y275598D01*
X27110Y275623D01*
X27097D01*
X26935Y275798D01*
X26810Y275986D01*
X26735Y276173D01*
X26672Y276361D01*
X26635Y276511D01*
X26622Y276648D01*
X26610Y276698D01*
Y276735D01*
Y276748D01*
Y276761D01*
X26622Y276910D01*
X26635Y277048D01*
X26722Y277298D01*
X26835Y277535D01*
X26960Y277735D01*
X27085Y277885D01*
X27197Y278010D01*
X27285Y278085D01*
X27297Y278110D01*
X27310D01*
X27447Y278210D01*
X27610Y278298D01*
X27772Y278373D01*
X27959Y278448D01*
X28322Y278547D01*
X28697Y278610D01*
X28859Y278635D01*
X29022Y278660D01*
X29172Y278673D01*
X29297D01*
X29397Y278685D01*
X29546D01*
X29809Y278673D01*
X30071Y278660D01*
X30296Y278622D01*
X30521Y278585D01*
X30721Y278535D01*
X30896Y278485D01*
X31059Y278435D01*
X31209Y278373D01*
X31346Y278310D01*
X31459Y278260D01*
X31558Y278210D01*
X31634Y278160D01*
X31696Y278123D01*
X31734Y278085D01*
X31758Y278073D01*
X31771Y278060D01*
X31908Y277935D01*
X32033Y277798D01*
X32133Y277660D01*
X32233Y277510D01*
X32396Y277210D01*
X32508Y276910D01*
X32546Y276773D01*
X32583Y276648D01*
X32621Y276535D01*
X32633Y276436D01*
X32658Y276348D01*
Y276286D01*
X32671Y276248D01*
Y276236D01*
X34295Y276361D01*
X34283Y276573D01*
X34258Y276773D01*
X34170Y277148D01*
X34070Y277498D01*
X34020Y277648D01*
X33958Y277785D01*
X33895Y277923D01*
X33845Y278035D01*
X33795Y278135D01*
X33746Y278223D01*
X33708Y278285D01*
X33683Y278335D01*
X33670Y278360D01*
X33658Y278373D01*
X33421Y278685D01*
X33146Y278960D01*
X32871Y279185D01*
X32596Y279385D01*
X32358Y279535D01*
X32258Y279585D01*
X32158Y279635D01*
X32083Y279672D01*
X32033Y279697D01*
X31996Y279722D01*
X31983D01*
X31558Y279872D01*
X31134Y279985D01*
X30709Y280072D01*
X30509Y280097D01*
X30321Y280122D01*
X30146Y280147D01*
X29984Y280160D01*
X29834Y280172D01*
X29709D01*
X29609Y280185D01*
D02*
G37*
G36*
X60639D02*
X60451D01*
X60139Y280172D01*
X59826Y280147D01*
X59539Y280110D01*
X59251Y280060D01*
X58976Y280010D01*
X58714Y279935D01*
X58477Y279872D01*
X58264Y279797D01*
X58052Y279722D01*
X57877Y279660D01*
X57714Y279585D01*
X57589Y279535D01*
X57477Y279485D01*
X57402Y279447D01*
X57352Y279422D01*
X57339Y279410D01*
X57077Y279260D01*
X56840Y279085D01*
X56615Y278910D01*
X56402Y278722D01*
X56215Y278535D01*
X56027Y278348D01*
X55865Y278160D01*
X55727Y277985D01*
X55590Y277810D01*
X55477Y277648D01*
X55390Y277510D01*
X55303Y277385D01*
X55240Y277285D01*
X55202Y277198D01*
X55177Y277148D01*
X55165Y277135D01*
X55027Y276848D01*
X54915Y276560D01*
X54815Y276261D01*
X54728Y275961D01*
X54653Y275673D01*
X54590Y275373D01*
X54540Y275098D01*
X54503Y274836D01*
X54465Y274586D01*
X54440Y274361D01*
X54428Y274161D01*
X54415Y273986D01*
X54403Y273849D01*
Y273649D01*
X54415Y273311D01*
X54428Y272974D01*
X54465Y272649D01*
X54503Y272337D01*
X54565Y272037D01*
X54615Y271749D01*
X54678Y271487D01*
X54740Y271237D01*
X54803Y271012D01*
X54865Y270812D01*
X54928Y270637D01*
X54977Y270487D01*
X55015Y270375D01*
X55052Y270287D01*
X55065Y270237D01*
X55078Y270212D01*
X55215Y269925D01*
X55352Y269650D01*
X55515Y269400D01*
X55665Y269162D01*
X55827Y268937D01*
X55990Y268738D01*
X56152Y268563D01*
X56315Y268400D01*
X56465Y268250D01*
X56602Y268125D01*
X56715Y268013D01*
X56827Y267938D01*
X56915Y267863D01*
X56989Y267813D01*
X57027Y267788D01*
X57039Y267775D01*
X57289Y267625D01*
X57552Y267500D01*
X57839Y267388D01*
X58114Y267288D01*
X58402Y267213D01*
X58677Y267138D01*
X58952Y267088D01*
X59214Y267038D01*
X59464Y267013D01*
X59689Y266988D01*
X59889Y266963D01*
X60064Y266950D01*
X60214Y266938D01*
X60414D01*
X60776Y266950D01*
X61139Y266988D01*
X61463Y267038D01*
X61788Y267113D01*
X62088Y267188D01*
X62363Y267288D01*
X62626Y267375D01*
X62863Y267488D01*
X63063Y267588D01*
X63250Y267688D01*
X63413Y267775D01*
X63550Y267850D01*
X63663Y267925D01*
X63738Y267975D01*
X63788Y268013D01*
X63800Y268025D01*
X64050Y268238D01*
X64288Y268475D01*
X64488Y268725D01*
X64688Y268988D01*
X64862Y269250D01*
X65025Y269512D01*
X65162Y269775D01*
X65287Y270037D01*
X65387Y270275D01*
X65487Y270500D01*
X65562Y270700D01*
X65625Y270875D01*
X65662Y271012D01*
X65700Y271124D01*
X65725Y271187D01*
Y271212D01*
X64025Y271637D01*
X63950Y271349D01*
X63863Y271074D01*
X63775Y270812D01*
X63675Y270575D01*
X63563Y270362D01*
X63450Y270162D01*
X63338Y269975D01*
X63225Y269812D01*
X63126Y269675D01*
X63025Y269550D01*
X62926Y269437D01*
X62850Y269350D01*
X62788Y269287D01*
X62726Y269237D01*
X62701Y269212D01*
X62688Y269200D01*
X62501Y269062D01*
X62301Y268937D01*
X62101Y268825D01*
X61901Y268725D01*
X61688Y268650D01*
X61488Y268588D01*
X61114Y268488D01*
X60939Y268450D01*
X60776Y268425D01*
X60639Y268413D01*
X60514Y268400D01*
X60414Y268388D01*
X60276D01*
X60064Y268400D01*
X59851Y268413D01*
X59439Y268488D01*
X59076Y268575D01*
X58902Y268638D01*
X58752Y268688D01*
X58602Y268750D01*
X58477Y268800D01*
X58364Y268850D01*
X58277Y268900D01*
X58202Y268937D01*
X58152Y268962D01*
X58114Y268975D01*
X58102Y268988D01*
X57927Y269112D01*
X57752Y269237D01*
X57452Y269525D01*
X57202Y269825D01*
X56989Y270125D01*
X56827Y270387D01*
X56765Y270500D01*
X56715Y270600D01*
X56677Y270687D01*
X56652Y270749D01*
X56627Y270787D01*
Y270800D01*
X56465Y271274D01*
X56352Y271762D01*
X56265Y272249D01*
X56240Y272474D01*
X56215Y272687D01*
X56190Y272899D01*
X56177Y273074D01*
X56165Y273249D01*
Y273386D01*
X56152Y273499D01*
Y273586D01*
Y273649D01*
Y273661D01*
X56165Y274124D01*
X56215Y274573D01*
X56277Y274986D01*
X56315Y275186D01*
X56352Y275361D01*
X56390Y275523D01*
X56427Y275673D01*
X56465Y275798D01*
X56490Y275911D01*
X56515Y275998D01*
X56540Y276061D01*
X56552Y276098D01*
Y276111D01*
X56640Y276336D01*
X56727Y276535D01*
X56827Y276735D01*
X56940Y276910D01*
X57052Y277085D01*
X57165Y277248D01*
X57277Y277385D01*
X57402Y277523D01*
X57502Y277635D01*
X57602Y277735D01*
X57702Y277823D01*
X57777Y277898D01*
X57852Y277948D01*
X57902Y277985D01*
X57927Y278010D01*
X57939Y278023D01*
X58127Y278148D01*
X58327Y278260D01*
X58539Y278348D01*
X58739Y278435D01*
X58952Y278510D01*
X59152Y278560D01*
X59551Y278647D01*
X59726Y278673D01*
X59889Y278697D01*
X60039Y278710D01*
X60164Y278722D01*
X60276Y278735D01*
X60414D01*
X60651Y278722D01*
X60876Y278710D01*
X61288Y278635D01*
X61476Y278585D01*
X61651Y278535D01*
X61813Y278472D01*
X61951Y278410D01*
X62088Y278348D01*
X62201Y278285D01*
X62301Y278235D01*
X62388Y278185D01*
X62451Y278148D01*
X62501Y278110D01*
X62526Y278098D01*
X62538Y278085D01*
X62688Y277960D01*
X62838Y277810D01*
X63101Y277498D01*
X63325Y277160D01*
X63513Y276835D01*
X63588Y276673D01*
X63650Y276535D01*
X63713Y276398D01*
X63750Y276286D01*
X63788Y276198D01*
X63813Y276123D01*
X63838Y276073D01*
Y276061D01*
X65512Y276448D01*
X65400Y276773D01*
X65287Y277073D01*
X65150Y277360D01*
X65000Y277623D01*
X64850Y277873D01*
X64700Y278098D01*
X64550Y278298D01*
X64400Y278485D01*
X64250Y278647D01*
X64113Y278797D01*
X64000Y278922D01*
X63888Y279022D01*
X63800Y279097D01*
X63738Y279147D01*
X63688Y279185D01*
X63675Y279197D01*
X63425Y279372D01*
X63163Y279522D01*
X62888Y279660D01*
X62613Y279772D01*
X62351Y279860D01*
X62076Y279947D01*
X61813Y280010D01*
X61576Y280060D01*
X61338Y280097D01*
X61126Y280135D01*
X60939Y280160D01*
X60776Y280172D01*
X60639Y280185D01*
D02*
G37*
G36*
X52953Y272587D02*
X48117D01*
Y271000D01*
X52953D01*
Y272587D01*
D02*
G37*
G36*
X22248Y279960D02*
X20549D01*
Y272562D01*
X20536Y272124D01*
X20511Y271724D01*
X20474Y271362D01*
X20424Y271037D01*
X20361Y270737D01*
X20299Y270475D01*
X20224Y270237D01*
X20149Y270025D01*
X20074Y269850D01*
X19999Y269700D01*
X19936Y269575D01*
X19874Y269475D01*
X19824Y269400D01*
X19786Y269337D01*
X19762Y269312D01*
X19749Y269300D01*
X19587Y269150D01*
X19412Y269025D01*
X19212Y268913D01*
X18999Y268813D01*
X18774Y268738D01*
X18562Y268663D01*
X18125Y268563D01*
X17912Y268538D01*
X17725Y268513D01*
X17550Y268488D01*
X17387Y268475D01*
X17262Y268463D01*
X17087D01*
X16700Y268475D01*
X16337Y268525D01*
X16025Y268600D01*
X15888Y268638D01*
X15750Y268675D01*
X15638Y268713D01*
X15538Y268750D01*
X15450Y268787D01*
X15375Y268825D01*
X15313Y268850D01*
X15275Y268875D01*
X15250Y268888D01*
X15238D01*
X14975Y269062D01*
X14750Y269262D01*
X14575Y269462D01*
X14425Y269650D01*
X14313Y269825D01*
X14238Y269975D01*
X14213Y270025D01*
X14188Y270062D01*
X14175Y270087D01*
Y270100D01*
X14125Y270262D01*
X14075Y270437D01*
X14038Y270625D01*
X14001Y270825D01*
X13951Y271224D01*
X13913Y271637D01*
X13901Y271824D01*
X13888Y271999D01*
Y272149D01*
X13876Y272287D01*
Y272399D01*
Y272487D01*
Y272549D01*
Y272562D01*
Y279960D01*
X12176D01*
Y272187D01*
X12201Y271837D01*
X12226Y271512D01*
X12251Y271199D01*
X12289Y270912D01*
X12326Y270650D01*
X12376Y270412D01*
X12426Y270187D01*
X12463Y270000D01*
X12513Y269825D01*
X12551Y269687D01*
X12588Y269562D01*
X12613Y269475D01*
X12638Y269400D01*
X12663Y269362D01*
Y269350D01*
X12763Y269137D01*
X12876Y268937D01*
X13001Y268750D01*
X13126Y268575D01*
X13251Y268413D01*
X13388Y268263D01*
X13526Y268125D01*
X13663Y268013D01*
X13788Y267900D01*
X13901Y267813D01*
X14013Y267725D01*
X14101Y267663D01*
X14175Y267613D01*
X14238Y267575D01*
X14275Y267563D01*
X14288Y267550D01*
X14513Y267438D01*
X14750Y267350D01*
X14988Y267263D01*
X15238Y267200D01*
X15725Y267088D01*
X15963Y267050D01*
X16200Y267013D01*
X16412Y266988D01*
X16612Y266975D01*
X16787Y266963D01*
X16937Y266950D01*
X17062Y266938D01*
X17237D01*
X17575Y266950D01*
X17900Y266963D01*
X18199Y267001D01*
X18487Y267050D01*
X18749Y267101D01*
X18999Y267163D01*
X19224Y267225D01*
X19424Y267288D01*
X19612Y267350D01*
X19762Y267413D01*
X19899Y267475D01*
X20024Y267525D01*
X20111Y267575D01*
X20174Y267613D01*
X20211Y267625D01*
X20224Y267638D01*
X20436Y267775D01*
X20624Y267925D01*
X20799Y268075D01*
X20961Y268225D01*
X21099Y268388D01*
X21236Y268538D01*
X21349Y268688D01*
X21449Y268825D01*
X21536Y268962D01*
X21611Y269087D01*
X21674Y269200D01*
X21724Y269300D01*
X21761Y269375D01*
X21786Y269437D01*
X21811Y269475D01*
Y269487D01*
X21886Y269712D01*
X21961Y269950D01*
X22061Y270450D01*
X22136Y270962D01*
X22173Y271212D01*
X22198Y271449D01*
X22211Y271674D01*
X22223Y271887D01*
X22236Y272074D01*
Y272237D01*
X22248Y272374D01*
Y279960D01*
D02*
G37*
G36*
X41968D02*
X36932D01*
Y267150D01*
X41806D01*
X42243Y267163D01*
X42643Y267188D01*
X42831Y267200D01*
X42993Y267213D01*
X43156Y267238D01*
X43293Y267263D01*
X43431Y267275D01*
X43543Y267300D01*
X43643Y267313D01*
X43718Y267325D01*
X43780Y267338D01*
X43830Y267350D01*
X43855Y267363D01*
X43868D01*
X44168Y267450D01*
X44443Y267550D01*
X44693Y267650D01*
X44893Y267750D01*
X45055Y267850D01*
X45180Y267925D01*
X45255Y267975D01*
X45280Y267988D01*
X45480Y268163D01*
X45667Y268350D01*
X45830Y268550D01*
X45955Y268738D01*
X46067Y268913D01*
X46155Y269050D01*
X46180Y269100D01*
X46205Y269137D01*
X46217Y269162D01*
Y269175D01*
X46342Y269475D01*
X46442Y269762D01*
X46505Y270050D01*
X46555Y270300D01*
X46580Y270525D01*
X46592Y270612D01*
X46605Y270700D01*
Y270849D01*
X46592Y271062D01*
X46580Y271262D01*
X46505Y271624D01*
X46405Y271962D01*
X46342Y272099D01*
X46292Y272237D01*
X46230Y272362D01*
X46167Y272474D01*
X46117Y272562D01*
X46067Y272637D01*
X46030Y272699D01*
X45992Y272749D01*
X45980Y272774D01*
X45967Y272787D01*
X45842Y272936D01*
X45717Y273074D01*
X45430Y273324D01*
X45130Y273524D01*
X44843Y273686D01*
X44580Y273811D01*
X44468Y273861D01*
X44368Y273899D01*
X44293Y273924D01*
X44230Y273949D01*
X44193Y273961D01*
X44180D01*
X44493Y274136D01*
X44768Y274324D01*
X45005Y274524D01*
X45192Y274711D01*
X45342Y274874D01*
X45443Y274998D01*
X45480Y275048D01*
X45505Y275086D01*
X45530Y275111D01*
Y275123D01*
X45680Y275398D01*
X45792Y275673D01*
X45867Y275936D01*
X45930Y276173D01*
X45955Y276373D01*
X45967Y276461D01*
Y276535D01*
X45980Y276598D01*
Y276635D01*
Y276660D01*
Y276673D01*
X45955Y276998D01*
X45905Y277310D01*
X45817Y277598D01*
X45730Y277848D01*
X45630Y278060D01*
X45592Y278148D01*
X45542Y278223D01*
X45518Y278285D01*
X45493Y278323D01*
X45468Y278348D01*
Y278360D01*
X45268Y278647D01*
X45043Y278885D01*
X44805Y279097D01*
X44593Y279260D01*
X44393Y279397D01*
X44305Y279447D01*
X44230Y279485D01*
X44168Y279522D01*
X44118Y279547D01*
X44093Y279560D01*
X44080D01*
X43905Y279635D01*
X43730Y279697D01*
X43343Y279797D01*
X42943Y279860D01*
X42568Y279910D01*
X42406Y279922D01*
X42243Y279935D01*
X42093Y279947D01*
X41968Y279960D01*
D02*
G37*
%LPD*%
G36*
X41656Y278435D02*
X41868D01*
X42068Y278423D01*
X42243Y278410D01*
X42393Y278385D01*
X42543Y278373D01*
X42668Y278360D01*
X42781Y278335D01*
X42868Y278323D01*
X42943Y278310D01*
X43006Y278285D01*
X43056Y278273D01*
X43093D01*
X43106Y278260D01*
X43118D01*
X43318Y278185D01*
X43493Y278085D01*
X43643Y277973D01*
X43768Y277860D01*
X43868Y277760D01*
X43943Y277673D01*
X43980Y277623D01*
X43993Y277598D01*
X44093Y277410D01*
X44168Y277223D01*
X44230Y277023D01*
X44268Y276848D01*
X44293Y276698D01*
X44305Y276586D01*
Y276535D01*
Y276498D01*
Y276486D01*
Y276473D01*
X44293Y276236D01*
X44255Y276011D01*
X44193Y275823D01*
X44143Y275661D01*
X44080Y275523D01*
X44018Y275436D01*
X43980Y275373D01*
X43968Y275348D01*
X43830Y275198D01*
X43680Y275061D01*
X43518Y274961D01*
X43368Y274861D01*
X43231Y274799D01*
X43106Y274748D01*
X43031Y274723D01*
X43018Y274711D01*
X43006D01*
X42906Y274686D01*
X42793Y274661D01*
X42543Y274636D01*
X42281Y274611D01*
X42018Y274586D01*
X41781D01*
X41668Y274573D01*
X38632D01*
Y278448D01*
X41431D01*
X41656Y278435D01*
D02*
G37*
G36*
X42018Y273049D02*
X42206Y273036D01*
X42393Y273024D01*
X42556Y273011D01*
X42706Y272986D01*
X42843Y272974D01*
X42968Y272949D01*
X43081Y272924D01*
X43181Y272911D01*
X43256Y272887D01*
X43330Y272874D01*
X43380Y272861D01*
X43418Y272849D01*
X43431Y272836D01*
X43443D01*
X43668Y272749D01*
X43880Y272637D01*
X44055Y272512D01*
X44205Y272387D01*
X44318Y272274D01*
X44405Y272187D01*
X44455Y272124D01*
X44468Y272099D01*
X44593Y271899D01*
X44693Y271687D01*
X44755Y271474D01*
X44805Y271287D01*
X44830Y271112D01*
X44855Y270987D01*
Y270937D01*
Y270900D01*
Y270875D01*
Y270862D01*
X44843Y270637D01*
X44818Y270437D01*
X44768Y270250D01*
X44730Y270087D01*
X44680Y269962D01*
X44630Y269862D01*
X44605Y269800D01*
X44593Y269775D01*
X44493Y269612D01*
X44380Y269475D01*
X44280Y269350D01*
X44180Y269250D01*
X44080Y269162D01*
X44005Y269112D01*
X43955Y269075D01*
X43943Y269062D01*
X43793Y268975D01*
X43630Y268913D01*
X43468Y268850D01*
X43306Y268800D01*
X43181Y268762D01*
X43068Y268738D01*
X42993Y268713D01*
X42968D01*
X42831Y268700D01*
X42656Y268688D01*
X42456Y268675D01*
X42268D01*
X42093Y268663D01*
X38632D01*
Y273061D01*
X41806D01*
X42018Y273049D01*
D02*
G37*
%LPC*%
G36*
X476908Y96064D02*
X475209D01*
Y88666D01*
X475196Y88228D01*
X475171Y87828D01*
X475134Y87466D01*
X475084Y87141D01*
X475021Y86841D01*
X474959Y86579D01*
X474884Y86341D01*
X474809Y86129D01*
X474734Y85954D01*
X474659Y85804D01*
X474596Y85679D01*
X474534Y85579D01*
X474484Y85504D01*
X474446Y85441D01*
X474422Y85416D01*
X474409Y85404D01*
X474247Y85254D01*
X474072Y85129D01*
X473872Y85016D01*
X473659Y84916D01*
X473434Y84841D01*
X473222Y84767D01*
X472785Y84667D01*
X472572Y84642D01*
X472385Y84617D01*
X472210Y84592D01*
X472047Y84579D01*
X471922Y84567D01*
X471747D01*
X471360Y84579D01*
X470997Y84629D01*
X470685Y84704D01*
X470547Y84742D01*
X470410Y84779D01*
X470298Y84817D01*
X470198Y84854D01*
X470110Y84892D01*
X470035Y84929D01*
X469973Y84954D01*
X469935Y84979D01*
X469910Y84992D01*
X469898D01*
X469635Y85167D01*
X469410Y85366D01*
X469235Y85566D01*
X469085Y85754D01*
X468973Y85929D01*
X468898Y86079D01*
X468873Y86129D01*
X468848Y86166D01*
X468835Y86191D01*
Y86204D01*
X468786Y86366D01*
X468736Y86541D01*
X468698Y86729D01*
X468661Y86929D01*
X468610Y87328D01*
X468573Y87741D01*
X468561Y87928D01*
X468548Y88103D01*
Y88253D01*
X468536Y88391D01*
Y88503D01*
Y88591D01*
Y88653D01*
Y88666D01*
Y96064D01*
X466836D01*
Y88291D01*
X466861Y87941D01*
X466886Y87616D01*
X466911Y87303D01*
X466949Y87016D01*
X466986Y86754D01*
X467036Y86516D01*
X467086Y86291D01*
X467123Y86104D01*
X467173Y85929D01*
X467211Y85791D01*
X467248Y85666D01*
X467273Y85579D01*
X467298Y85504D01*
X467323Y85466D01*
Y85454D01*
X467423Y85241D01*
X467536Y85042D01*
X467661Y84854D01*
X467786Y84679D01*
X467911Y84517D01*
X468048Y84367D01*
X468186Y84229D01*
X468323Y84117D01*
X468448Y84004D01*
X468561Y83917D01*
X468673Y83829D01*
X468760Y83767D01*
X468835Y83717D01*
X468898Y83679D01*
X468936Y83667D01*
X468948Y83654D01*
X469173Y83542D01*
X469410Y83454D01*
X469648Y83367D01*
X469898Y83304D01*
X470385Y83192D01*
X470622Y83154D01*
X470860Y83117D01*
X471072Y83092D01*
X471272Y83080D01*
X471447Y83067D01*
X471597Y83055D01*
X471722Y83042D01*
X471897D01*
X472235Y83055D01*
X472560Y83067D01*
X472859Y83104D01*
X473147Y83154D01*
X473409Y83204D01*
X473659Y83267D01*
X473884Y83329D01*
X474084Y83392D01*
X474272Y83454D01*
X474422Y83517D01*
X474559Y83579D01*
X474684Y83629D01*
X474771Y83679D01*
X474834Y83717D01*
X474871Y83729D01*
X474884Y83742D01*
X475096Y83879D01*
X475284Y84029D01*
X475459Y84179D01*
X475621Y84329D01*
X475759Y84492D01*
X475896Y84642D01*
X476009Y84792D01*
X476109Y84929D01*
X476196Y85066D01*
X476271Y85191D01*
X476334Y85304D01*
X476384Y85404D01*
X476421Y85479D01*
X476446Y85541D01*
X476471Y85579D01*
Y85591D01*
X476546Y85816D01*
X476621Y86054D01*
X476721Y86554D01*
X476796Y87066D01*
X476833Y87316D01*
X476858Y87553D01*
X476871Y87778D01*
X476883Y87991D01*
X476896Y88178D01*
Y88341D01*
X476908Y88478D01*
Y96064D01*
D02*
G37*
G36*
X513774D02*
X503614D01*
Y94552D01*
X507838D01*
Y83254D01*
X509538D01*
Y94552D01*
X513774D01*
Y96064D01*
D02*
G37*
G36*
X497653D02*
X491692D01*
Y83254D01*
X493392D01*
Y88940D01*
X495579D01*
X495779Y88928D01*
X495941Y88916D01*
X496066D01*
X496166Y88903D01*
X496241Y88890D01*
X496278Y88878D01*
X496291D01*
X496441Y88841D01*
X496578Y88778D01*
X496703Y88728D01*
X496816Y88666D01*
X496916Y88616D01*
X496991Y88566D01*
X497041Y88541D01*
X497053Y88528D01*
X497203Y88428D01*
X497353Y88291D01*
X497491Y88153D01*
X497628Y88016D01*
X497741Y87891D01*
X497841Y87778D01*
X497891Y87703D01*
X497915Y87691D01*
Y87678D01*
X498016Y87553D01*
X498103Y87428D01*
X498315Y87141D01*
X498515Y86854D01*
X498715Y86566D01*
X498878Y86316D01*
X498953Y86204D01*
X499015Y86104D01*
X499065Y86029D01*
X499103Y85966D01*
X499128Y85929D01*
X499140Y85916D01*
X500840Y83254D01*
X502952D01*
X500740Y86729D01*
X500490Y87091D01*
X500240Y87428D01*
X500003Y87716D01*
X499790Y87966D01*
X499690Y88078D01*
X499603Y88166D01*
X499528Y88253D01*
X499465Y88316D01*
X499415Y88366D01*
X499378Y88416D01*
X499353Y88428D01*
X499340Y88441D01*
X499190Y88553D01*
X499028Y88678D01*
X498865Y88778D01*
X498703Y88878D01*
X498553Y88953D01*
X498428Y89028D01*
X498378Y89040D01*
X498340Y89066D01*
X498328Y89078D01*
X498315D01*
X498653Y89128D01*
X498965Y89203D01*
X499253Y89278D01*
X499515Y89365D01*
X499765Y89465D01*
X499990Y89565D01*
X500190Y89665D01*
X500365Y89765D01*
X500527Y89865D01*
X500665Y89953D01*
X500777Y90040D01*
X500877Y90115D01*
X500952Y90178D01*
X501002Y90228D01*
X501027Y90253D01*
X501040Y90265D01*
X501202Y90440D01*
X501327Y90628D01*
X501452Y90828D01*
X501552Y91015D01*
X501640Y91215D01*
X501715Y91402D01*
X501765Y91590D01*
X501814Y91765D01*
X501852Y91927D01*
X501877Y92090D01*
X501902Y92215D01*
X501914Y92340D01*
X501927Y92427D01*
Y92502D01*
Y92552D01*
Y92565D01*
Y92765D01*
X501902Y92952D01*
X501839Y93314D01*
X501752Y93639D01*
X501665Y93927D01*
X501615Y94052D01*
X501565Y94152D01*
X501515Y94252D01*
X501477Y94339D01*
X501440Y94402D01*
X501415Y94452D01*
X501402Y94477D01*
X501390Y94489D01*
X501177Y94789D01*
X500940Y95051D01*
X500702Y95264D01*
X500477Y95426D01*
X500277Y95551D01*
X500190Y95601D01*
X500115Y95651D01*
X500052Y95676D01*
X500003Y95701D01*
X499977Y95714D01*
X499965D01*
X499790Y95776D01*
X499603Y95826D01*
X499190Y95914D01*
X498753Y95976D01*
X498328Y96026D01*
X498140Y96039D01*
X497953Y96051D01*
X497791D01*
X497653Y96064D01*
D02*
G37*
G36*
X485069D02*
X483232D01*
X478333Y83254D01*
X480120D01*
X481520Y87128D01*
X486893D01*
X488381Y83254D01*
X490305D01*
X485069Y96064D01*
D02*
G37*
%LPD*%
G36*
X497940Y94627D02*
X498153Y94601D01*
X498365Y94564D01*
X498553Y94514D01*
X498715Y94464D01*
X498865Y94414D01*
X499003Y94364D01*
X499128Y94302D01*
X499228Y94252D01*
X499315Y94202D01*
X499390Y94152D01*
X499440Y94114D01*
X499490Y94089D01*
X499503Y94077D01*
X499515Y94064D01*
X499628Y93952D01*
X499740Y93827D01*
X499827Y93714D01*
X499902Y93577D01*
X500015Y93327D01*
X500090Y93089D01*
X500140Y92889D01*
X500153Y92789D01*
X500165Y92715D01*
X500177Y92652D01*
Y92602D01*
Y92577D01*
Y92565D01*
X500165Y92340D01*
X500127Y92115D01*
X500065Y91927D01*
X500003Y91752D01*
X499940Y91602D01*
X499878Y91502D01*
X499840Y91427D01*
X499827Y91415D01*
Y91402D01*
X499690Y91215D01*
X499528Y91065D01*
X499365Y90927D01*
X499203Y90828D01*
X499065Y90740D01*
X498953Y90690D01*
X498865Y90653D01*
X498853Y90640D01*
X498840D01*
X498578Y90565D01*
X498278Y90503D01*
X497978Y90465D01*
X497691Y90428D01*
X497553D01*
X497428Y90415D01*
X497316D01*
X497216Y90403D01*
X493392D01*
Y94651D01*
X497703D01*
X497940Y94627D01*
D02*
G37*
G36*
X484169Y94514D02*
X484231Y94302D01*
X484381Y93864D01*
X484532Y93414D01*
X484681Y92990D01*
X484744Y92802D01*
X484806Y92627D01*
X484869Y92465D01*
X484919Y92327D01*
X484956Y92215D01*
X484994Y92127D01*
X485006Y92077D01*
X485019Y92052D01*
X486368Y88503D01*
X481995D01*
X483419Y92265D01*
X483569Y92727D01*
X483707Y93164D01*
X483832Y93577D01*
X483882Y93764D01*
X483932Y93952D01*
X483969Y94114D01*
X484007Y94264D01*
X484032Y94389D01*
X484057Y94502D01*
X484082Y94589D01*
X484094Y94664D01*
X484107Y94701D01*
Y94714D01*
X484169Y94514D01*
D02*
G37*
%LPC*%
G36*
X336948Y96289D02*
X336811D01*
X336336Y96276D01*
X335898Y96226D01*
X335698Y96189D01*
X335498Y96151D01*
X335323Y96114D01*
X335149Y96076D01*
X334999Y96026D01*
X334861Y95989D01*
X334749Y95951D01*
X334649Y95926D01*
X334574Y95889D01*
X334511Y95876D01*
X334474Y95851D01*
X334461D01*
X334086Y95676D01*
X333774Y95464D01*
X333499Y95251D01*
X333274Y95039D01*
X333087Y94852D01*
X333024Y94776D01*
X332962Y94701D01*
X332924Y94651D01*
X332887Y94601D01*
X332874Y94577D01*
X332862Y94564D01*
X332762Y94402D01*
X332687Y94239D01*
X332549Y93927D01*
X332449Y93614D01*
X332387Y93339D01*
X332362Y93214D01*
X332337Y93102D01*
X332324Y93002D01*
Y92914D01*
X332312Y92852D01*
Y92789D01*
Y92765D01*
Y92752D01*
X332337Y92427D01*
X332387Y92127D01*
X332449Y91852D01*
X332537Y91615D01*
X332624Y91427D01*
X332662Y91340D01*
X332687Y91277D01*
X332724Y91227D01*
X332737Y91190D01*
X332762Y91165D01*
Y91152D01*
X332949Y90903D01*
X333162Y90665D01*
X333386Y90465D01*
X333611Y90290D01*
X333811Y90140D01*
X333899Y90090D01*
X333974Y90040D01*
X334036Y90003D01*
X334086Y89978D01*
X334111Y89953D01*
X334124D01*
X334274Y89878D01*
X334436Y89815D01*
X334611Y89740D01*
X334811Y89665D01*
X335224Y89540D01*
X335623Y89415D01*
X335823Y89353D01*
X335998Y89303D01*
X336173Y89265D01*
X336311Y89228D01*
X336436Y89190D01*
X336523Y89178D01*
X336573Y89153D01*
X336598D01*
X336911Y89078D01*
X337198Y89003D01*
X337460Y88940D01*
X337698Y88878D01*
X337910Y88828D01*
X338098Y88778D01*
X338260Y88728D01*
X338398Y88691D01*
X338523Y88653D01*
X338623Y88616D01*
X338698Y88591D01*
X338760Y88566D01*
X338810Y88553D01*
X338848Y88541D01*
X338873Y88528D01*
X339160Y88416D01*
X339397Y88291D01*
X339597Y88166D01*
X339760Y88041D01*
X339885Y87941D01*
X339972Y87853D01*
X340022Y87803D01*
X340035Y87778D01*
X340147Y87603D01*
X340235Y87428D01*
X340297Y87253D01*
X340347Y87091D01*
X340372Y86941D01*
X340385Y86828D01*
Y86754D01*
Y86741D01*
Y86729D01*
X340372Y86504D01*
X340335Y86304D01*
X340272Y86116D01*
X340210Y85954D01*
X340135Y85816D01*
X340085Y85716D01*
X340035Y85654D01*
X340022Y85629D01*
X339872Y85454D01*
X339697Y85291D01*
X339510Y85167D01*
X339335Y85054D01*
X339173Y84954D01*
X339035Y84892D01*
X338985Y84867D01*
X338947Y84854D01*
X338923Y84841D01*
X338910D01*
X338623Y84742D01*
X338335Y84679D01*
X338048Y84629D01*
X337785Y84592D01*
X337560Y84567D01*
X337460D01*
X337373Y84554D01*
X337211D01*
X336811Y84567D01*
X336436Y84617D01*
X336098Y84679D01*
X335948Y84704D01*
X335811Y84742D01*
X335686Y84779D01*
X335573Y84817D01*
X335473Y84841D01*
X335386Y84867D01*
X335323Y84892D01*
X335274Y84916D01*
X335248Y84929D01*
X335236D01*
X334936Y85079D01*
X334674Y85254D01*
X334449Y85416D01*
X334274Y85579D01*
X334136Y85716D01*
X334036Y85829D01*
X333986Y85904D01*
X333961Y85916D01*
Y85929D01*
X333824Y86179D01*
X333711Y86441D01*
X333611Y86704D01*
X333549Y86953D01*
X333499Y87178D01*
X333474Y87266D01*
X333461Y87353D01*
X333449Y87428D01*
X333436Y87478D01*
Y87503D01*
Y87516D01*
X331837Y87378D01*
X331849Y87141D01*
X331874Y86916D01*
X331949Y86479D01*
X332012Y86266D01*
X332062Y86079D01*
X332124Y85904D01*
X332187Y85741D01*
X332249Y85591D01*
X332312Y85454D01*
X332374Y85341D01*
X332424Y85241D01*
X332462Y85167D01*
X332499Y85117D01*
X332512Y85079D01*
X332524Y85066D01*
X332799Y84717D01*
X333099Y84404D01*
X333411Y84142D01*
X333699Y83929D01*
X333836Y83829D01*
X333961Y83754D01*
X334086Y83692D01*
X334186Y83642D01*
X334261Y83592D01*
X334324Y83567D01*
X334361Y83554D01*
X334374Y83542D01*
X334599Y83454D01*
X334836Y83379D01*
X335323Y83254D01*
X335811Y83167D01*
X336048Y83130D01*
X336273Y83104D01*
X336486Y83080D01*
X336673Y83067D01*
X336848Y83055D01*
X336998D01*
X337123Y83042D01*
X337285D01*
X337785Y83067D01*
X338248Y83117D01*
X338460Y83154D01*
X338673Y83204D01*
X338860Y83242D01*
X339035Y83292D01*
X339185Y83342D01*
X339335Y83379D01*
X339447Y83429D01*
X339560Y83467D01*
X339635Y83492D01*
X339697Y83517D01*
X339735Y83542D01*
X339747D01*
X340135Y83742D01*
X340472Y83967D01*
X340622Y84092D01*
X340760Y84204D01*
X340885Y84317D01*
X341009Y84429D01*
X341110Y84529D01*
X341197Y84629D01*
X341259Y84717D01*
X341322Y84792D01*
X341372Y84854D01*
X341409Y84904D01*
X341422Y84929D01*
X341434Y84942D01*
X341534Y85117D01*
X341634Y85279D01*
X341772Y85616D01*
X341884Y85941D01*
X341947Y86241D01*
X341972Y86379D01*
X341997Y86491D01*
X342009Y86604D01*
Y86691D01*
X342022Y86766D01*
Y87053D01*
X341997Y87241D01*
X341934Y87591D01*
X341847Y87903D01*
X341759Y88166D01*
X341709Y88278D01*
X341659Y88391D01*
X341609Y88478D01*
X341572Y88553D01*
X341534Y88616D01*
X341509Y88653D01*
X341497Y88678D01*
X341484Y88691D01*
X341372Y88841D01*
X341259Y88978D01*
X340997Y89228D01*
X340722Y89453D01*
X340460Y89640D01*
X340210Y89790D01*
X340110Y89853D01*
X340022Y89903D01*
X339947Y89940D01*
X339885Y89965D01*
X339847Y89990D01*
X339835D01*
X339672Y90053D01*
X339485Y90128D01*
X339285Y90190D01*
X339060Y90265D01*
X338598Y90403D01*
X338123Y90528D01*
X337898Y90590D01*
X337685Y90640D01*
X337485Y90690D01*
X337323Y90728D01*
X337186Y90752D01*
X337073Y90778D01*
X337010Y90802D01*
X336986D01*
X336623Y90890D01*
X336286Y90977D01*
X335986Y91065D01*
X335723Y91152D01*
X335486Y91227D01*
X335274Y91302D01*
X335098Y91377D01*
X334936Y91440D01*
X334811Y91502D01*
X334699Y91565D01*
X334611Y91615D01*
X334549Y91652D01*
X334499Y91677D01*
X334461Y91702D01*
X334449Y91727D01*
X334436D01*
X334274Y91902D01*
X334149Y92090D01*
X334074Y92277D01*
X334011Y92465D01*
X333974Y92614D01*
X333961Y92752D01*
X333949Y92802D01*
Y92839D01*
Y92852D01*
Y92865D01*
X333961Y93014D01*
X333974Y93152D01*
X334061Y93402D01*
X334174Y93639D01*
X334299Y93839D01*
X334424Y93989D01*
X334536Y94114D01*
X334624Y94189D01*
X334636Y94214D01*
X334649D01*
X334786Y94314D01*
X334949Y94402D01*
X335111Y94477D01*
X335299Y94552D01*
X335661Y94651D01*
X336036Y94714D01*
X336198Y94739D01*
X336361Y94764D01*
X336511Y94776D01*
X336636D01*
X336736Y94789D01*
X336886D01*
X337148Y94776D01*
X337410Y94764D01*
X337635Y94726D01*
X337860Y94689D01*
X338060Y94639D01*
X338235Y94589D01*
X338398Y94539D01*
X338548Y94477D01*
X338685Y94414D01*
X338798Y94364D01*
X338898Y94314D01*
X338973Y94264D01*
X339035Y94227D01*
X339072Y94189D01*
X339098Y94177D01*
X339110Y94164D01*
X339248Y94039D01*
X339372Y93902D01*
X339472Y93764D01*
X339572Y93614D01*
X339735Y93314D01*
X339847Y93014D01*
X339885Y92877D01*
X339922Y92752D01*
X339960Y92640D01*
X339972Y92540D01*
X339997Y92452D01*
Y92390D01*
X340010Y92352D01*
Y92340D01*
X341634Y92465D01*
X341622Y92677D01*
X341597Y92877D01*
X341509Y93252D01*
X341409Y93602D01*
X341359Y93752D01*
X341297Y93889D01*
X341234Y94027D01*
X341185Y94139D01*
X341134Y94239D01*
X341085Y94327D01*
X341047Y94389D01*
X341022Y94439D01*
X341009Y94464D01*
X340997Y94477D01*
X340760Y94789D01*
X340485Y95064D01*
X340210Y95289D01*
X339935Y95489D01*
X339697Y95639D01*
X339597Y95689D01*
X339497Y95739D01*
X339422Y95776D01*
X339372Y95801D01*
X339335Y95826D01*
X339322D01*
X338898Y95976D01*
X338473Y96089D01*
X338048Y96176D01*
X337848Y96201D01*
X337660Y96226D01*
X337485Y96251D01*
X337323Y96264D01*
X337173Y96276D01*
X337048D01*
X336948Y96289D01*
D02*
G37*
G36*
X319265D02*
X319078D01*
X318765Y96276D01*
X318453Y96251D01*
X318165Y96214D01*
X317878Y96164D01*
X317603Y96114D01*
X317341Y96039D01*
X317103Y95976D01*
X316891Y95901D01*
X316678Y95826D01*
X316503Y95764D01*
X316341Y95689D01*
X316216Y95639D01*
X316103Y95589D01*
X316028Y95551D01*
X315978Y95526D01*
X315966Y95514D01*
X315704Y95364D01*
X315466Y95189D01*
X315241Y95014D01*
X315029Y94826D01*
X314841Y94639D01*
X314654Y94452D01*
X314491Y94264D01*
X314354Y94089D01*
X314216Y93914D01*
X314104Y93752D01*
X314016Y93614D01*
X313929Y93489D01*
X313867Y93389D01*
X313829Y93302D01*
X313804Y93252D01*
X313792Y93239D01*
X313654Y92952D01*
X313542Y92664D01*
X313442Y92365D01*
X313354Y92065D01*
X313279Y91777D01*
X313217Y91477D01*
X313167Y91202D01*
X313129Y90940D01*
X313092Y90690D01*
X313067Y90465D01*
X313054Y90265D01*
X313042Y90090D01*
X313029Y89953D01*
Y89753D01*
X313042Y89415D01*
X313054Y89078D01*
X313092Y88753D01*
X313129Y88441D01*
X313192Y88141D01*
X313242Y87853D01*
X313304Y87591D01*
X313367Y87341D01*
X313429Y87116D01*
X313491Y86916D01*
X313554Y86741D01*
X313604Y86591D01*
X313641Y86479D01*
X313679Y86391D01*
X313692Y86341D01*
X313704Y86316D01*
X313841Y86029D01*
X313979Y85754D01*
X314141Y85504D01*
X314291Y85266D01*
X314454Y85042D01*
X314616Y84841D01*
X314779Y84667D01*
X314941Y84504D01*
X315091Y84354D01*
X315229Y84229D01*
X315341Y84117D01*
X315453Y84042D01*
X315541Y83967D01*
X315616Y83917D01*
X315653Y83892D01*
X315666Y83879D01*
X315916Y83729D01*
X316178Y83604D01*
X316466Y83492D01*
X316741Y83392D01*
X317028Y83317D01*
X317303Y83242D01*
X317578Y83192D01*
X317840Y83142D01*
X318090Y83117D01*
X318315Y83092D01*
X318515Y83067D01*
X318690Y83055D01*
X318840Y83042D01*
X319040D01*
X319403Y83055D01*
X319765Y83092D01*
X320090Y83142D01*
X320415Y83217D01*
X320715Y83292D01*
X320990Y83392D01*
X321252Y83479D01*
X321489Y83592D01*
X321689Y83692D01*
X321877Y83792D01*
X322039Y83879D01*
X322177Y83954D01*
X322289Y84029D01*
X322364Y84079D01*
X322414Y84117D01*
X322427Y84129D01*
X322677Y84342D01*
X322914Y84579D01*
X323114Y84829D01*
X323314Y85091D01*
X323489Y85354D01*
X323651Y85616D01*
X323789Y85879D01*
X323914Y86141D01*
X324014Y86379D01*
X324114Y86604D01*
X324189Y86804D01*
X324251Y86979D01*
X324289Y87116D01*
X324326Y87228D01*
X324351Y87291D01*
Y87316D01*
X322652Y87741D01*
X322577Y87453D01*
X322489Y87178D01*
X322402Y86916D01*
X322302Y86679D01*
X322189Y86466D01*
X322077Y86266D01*
X321964Y86079D01*
X321852Y85916D01*
X321752Y85779D01*
X321652Y85654D01*
X321552Y85541D01*
X321477Y85454D01*
X321414Y85391D01*
X321352Y85341D01*
X321327Y85316D01*
X321315Y85304D01*
X321127Y85167D01*
X320927Y85042D01*
X320727Y84929D01*
X320527Y84829D01*
X320315Y84754D01*
X320115Y84692D01*
X319740Y84592D01*
X319565Y84554D01*
X319403Y84529D01*
X319265Y84517D01*
X319140Y84504D01*
X319040Y84492D01*
X318903D01*
X318690Y84504D01*
X318478Y84517D01*
X318065Y84592D01*
X317703Y84679D01*
X317528Y84742D01*
X317378Y84792D01*
X317228Y84854D01*
X317103Y84904D01*
X316991Y84954D01*
X316903Y85004D01*
X316828Y85042D01*
X316778Y85066D01*
X316741Y85079D01*
X316728Y85091D01*
X316553Y85216D01*
X316378Y85341D01*
X316078Y85629D01*
X315828Y85929D01*
X315616Y86229D01*
X315453Y86491D01*
X315391Y86604D01*
X315341Y86704D01*
X315304Y86791D01*
X315279Y86854D01*
X315254Y86891D01*
Y86903D01*
X315091Y87378D01*
X314979Y87866D01*
X314891Y88353D01*
X314866Y88578D01*
X314841Y88791D01*
X314816Y89003D01*
X314804Y89178D01*
X314791Y89353D01*
Y89490D01*
X314779Y89603D01*
Y89690D01*
Y89753D01*
Y89765D01*
X314791Y90228D01*
X314841Y90677D01*
X314904Y91090D01*
X314941Y91290D01*
X314979Y91465D01*
X315016Y91627D01*
X315054Y91777D01*
X315091Y91902D01*
X315116Y92015D01*
X315141Y92102D01*
X315166Y92165D01*
X315179Y92202D01*
Y92215D01*
X315266Y92440D01*
X315354Y92640D01*
X315453Y92839D01*
X315566Y93014D01*
X315679Y93189D01*
X315791Y93352D01*
X315903Y93489D01*
X316028Y93627D01*
X316128Y93739D01*
X316228Y93839D01*
X316328Y93927D01*
X316403Y94002D01*
X316478Y94052D01*
X316528Y94089D01*
X316553Y94114D01*
X316566Y94127D01*
X316753Y94252D01*
X316953Y94364D01*
X317166Y94452D01*
X317366Y94539D01*
X317578Y94614D01*
X317778Y94664D01*
X318178Y94752D01*
X318353Y94776D01*
X318515Y94802D01*
X318665Y94814D01*
X318790Y94826D01*
X318903Y94839D01*
X319040D01*
X319278Y94826D01*
X319503Y94814D01*
X319915Y94739D01*
X320102Y94689D01*
X320277Y94639D01*
X320440Y94577D01*
X320577Y94514D01*
X320715Y94452D01*
X320827Y94389D01*
X320927Y94339D01*
X321015Y94289D01*
X321077Y94252D01*
X321127Y94214D01*
X321152Y94202D01*
X321165Y94189D01*
X321315Y94064D01*
X321465Y93914D01*
X321727Y93602D01*
X321952Y93264D01*
X322139Y92940D01*
X322214Y92777D01*
X322277Y92640D01*
X322339Y92502D01*
X322377Y92390D01*
X322414Y92302D01*
X322439Y92227D01*
X322464Y92177D01*
Y92165D01*
X324139Y92552D01*
X324026Y92877D01*
X323914Y93177D01*
X323776Y93464D01*
X323627Y93727D01*
X323476Y93977D01*
X323326Y94202D01*
X323177Y94402D01*
X323027Y94589D01*
X322877Y94752D01*
X322739Y94902D01*
X322627Y95026D01*
X322514Y95126D01*
X322427Y95201D01*
X322364Y95251D01*
X322314Y95289D01*
X322302Y95301D01*
X322052Y95476D01*
X321789Y95626D01*
X321515Y95764D01*
X321240Y95876D01*
X320977Y95964D01*
X320702Y96051D01*
X320440Y96114D01*
X320202Y96164D01*
X319965Y96201D01*
X319752Y96239D01*
X319565Y96264D01*
X319403Y96276D01*
X319265Y96289D01*
D02*
G37*
G36*
X330462Y88691D02*
X325626D01*
Y87104D01*
X330462D01*
Y88691D01*
D02*
G37*
G36*
X348033Y96114D02*
X347945D01*
X347608Y96101D01*
X347295Y96076D01*
X346996Y96026D01*
X346721Y95964D01*
X346458Y95889D01*
X346221Y95814D01*
X346008Y95726D01*
X345808Y95639D01*
X345633Y95551D01*
X345471Y95464D01*
X345346Y95389D01*
X345233Y95314D01*
X345146Y95251D01*
X345084Y95201D01*
X345046Y95176D01*
X345033Y95164D01*
X344846Y94976D01*
X344671Y94776D01*
X344521Y94564D01*
X344384Y94339D01*
X344271Y94102D01*
X344171Y93877D01*
X344084Y93652D01*
X344009Y93439D01*
X343959Y93227D01*
X343909Y93039D01*
X343871Y92865D01*
X343834Y92715D01*
X343821Y92590D01*
X343809Y92490D01*
X343796Y92440D01*
Y92415D01*
X345408Y92252D01*
X345421Y92477D01*
X345433Y92677D01*
X345471Y92877D01*
X345508Y93052D01*
X345571Y93214D01*
X345621Y93377D01*
X345683Y93514D01*
X345746Y93639D01*
X345808Y93752D01*
X345871Y93852D01*
X345933Y93939D01*
X345983Y94002D01*
X346021Y94052D01*
X346058Y94102D01*
X346071Y94114D01*
X346083Y94127D01*
X346221Y94252D01*
X346358Y94352D01*
X346508Y94452D01*
X346658Y94527D01*
X346958Y94651D01*
X347258Y94726D01*
X347383Y94752D01*
X347508Y94776D01*
X347620Y94789D01*
X347720Y94802D01*
X347795Y94814D01*
X347908D01*
X348108Y94802D01*
X348295Y94789D01*
X348633Y94714D01*
X348932Y94614D01*
X349070Y94552D01*
X349182Y94489D01*
X349295Y94427D01*
X349382Y94364D01*
X349470Y94314D01*
X349532Y94264D01*
X349582Y94227D01*
X349632Y94189D01*
X349645Y94177D01*
X349657Y94164D01*
X349782Y94039D01*
X349882Y93914D01*
X349970Y93777D01*
X350045Y93652D01*
X350170Y93389D01*
X350245Y93139D01*
X350295Y92914D01*
X350307Y92827D01*
X350320Y92752D01*
X350332Y92677D01*
Y92627D01*
Y92602D01*
Y92590D01*
X350320Y92427D01*
X350295Y92252D01*
X350257Y92090D01*
X350220Y91915D01*
X350095Y91602D01*
X349957Y91315D01*
X349882Y91190D01*
X349820Y91065D01*
X349757Y90965D01*
X349695Y90878D01*
X349657Y90802D01*
X349620Y90752D01*
X349595Y90715D01*
X349582Y90702D01*
X349432Y90503D01*
X349245Y90303D01*
X349045Y90078D01*
X348833Y89853D01*
X348370Y89403D01*
X347895Y88966D01*
X347670Y88765D01*
X347458Y88578D01*
X347270Y88403D01*
X347095Y88266D01*
X346958Y88141D01*
X346846Y88053D01*
X346783Y88003D01*
X346758Y87978D01*
X346521Y87778D01*
X346283Y87578D01*
X346071Y87391D01*
X345871Y87216D01*
X345696Y87041D01*
X345521Y86878D01*
X345371Y86729D01*
X345233Y86604D01*
X345108Y86479D01*
X345009Y86366D01*
X344921Y86266D01*
X344846Y86191D01*
X344784Y86129D01*
X344746Y86079D01*
X344721Y86054D01*
X344709Y86041D01*
X344459Y85729D01*
X344246Y85429D01*
X344071Y85141D01*
X343921Y84879D01*
X343809Y84654D01*
X343771Y84567D01*
X343734Y84492D01*
X343709Y84429D01*
X343684Y84379D01*
X343671Y84354D01*
Y84342D01*
X343609Y84142D01*
X343559Y83954D01*
X343534Y83767D01*
X343509Y83604D01*
X343496Y83454D01*
Y83254D01*
X351957D01*
Y84767D01*
X345671D01*
X345771Y84929D01*
X345883Y85079D01*
X345996Y85216D01*
X346096Y85354D01*
X346196Y85454D01*
X346271Y85541D01*
X346321Y85604D01*
X346333Y85616D01*
X346421Y85704D01*
X346533Y85804D01*
X346658Y85929D01*
X346796Y86054D01*
X347095Y86316D01*
X347395Y86579D01*
X347695Y86828D01*
X347820Y86941D01*
X347933Y87041D01*
X348020Y87116D01*
X348095Y87178D01*
X348145Y87216D01*
X348158Y87228D01*
X348458Y87491D01*
X348745Y87728D01*
X349007Y87966D01*
X349245Y88178D01*
X349470Y88378D01*
X349657Y88566D01*
X349845Y88741D01*
X349995Y88890D01*
X350132Y89028D01*
X350257Y89140D01*
X350345Y89240D01*
X350432Y89328D01*
X350495Y89390D01*
X350532Y89440D01*
X350557Y89465D01*
X350570Y89478D01*
X350832Y89778D01*
X351044Y90065D01*
X351232Y90340D01*
X351369Y90565D01*
X351482Y90765D01*
X351519Y90840D01*
X351557Y90915D01*
X351582Y90965D01*
X351607Y91003D01*
X351619Y91027D01*
Y91040D01*
X351732Y91315D01*
X351807Y91590D01*
X351869Y91852D01*
X351907Y92077D01*
X351932Y92277D01*
Y92352D01*
X351944Y92427D01*
Y92477D01*
Y92515D01*
Y92540D01*
Y92552D01*
X351932Y92827D01*
X351894Y93089D01*
X351844Y93352D01*
X351782Y93589D01*
X351694Y93814D01*
X351607Y94014D01*
X351507Y94214D01*
X351407Y94389D01*
X351307Y94552D01*
X351207Y94689D01*
X351119Y94802D01*
X351032Y94902D01*
X350970Y94989D01*
X350919Y95039D01*
X350882Y95076D01*
X350869Y95089D01*
X350657Y95264D01*
X350432Y95426D01*
X350207Y95564D01*
X349957Y95676D01*
X349720Y95776D01*
X349470Y95864D01*
X349232Y95926D01*
X349007Y95989D01*
X348783Y96026D01*
X348583Y96064D01*
X348408Y96089D01*
X348258Y96101D01*
X348120D01*
X348033Y96114D01*
D02*
G37*
G36*
X307268D02*
X307181D01*
X306843Y96101D01*
X306531Y96076D01*
X306231Y96026D01*
X305956Y95964D01*
X305693Y95889D01*
X305456Y95814D01*
X305244Y95726D01*
X305044Y95639D01*
X304869Y95551D01*
X304706Y95464D01*
X304581Y95389D01*
X304469Y95314D01*
X304381Y95251D01*
X304319Y95201D01*
X304281Y95176D01*
X304269Y95164D01*
X304081Y94976D01*
X303906Y94776D01*
X303757Y94564D01*
X303619Y94339D01*
X303507Y94102D01*
X303407Y93877D01*
X303319Y93652D01*
X303244Y93439D01*
X303194Y93227D01*
X303144Y93039D01*
X303107Y92865D01*
X303069Y92715D01*
X303057Y92590D01*
X303044Y92490D01*
X303032Y92440D01*
Y92415D01*
X304644Y92252D01*
X304656Y92477D01*
X304669Y92677D01*
X304706Y92877D01*
X304744Y93052D01*
X304806Y93214D01*
X304856Y93377D01*
X304919Y93514D01*
X304981Y93639D01*
X305044Y93752D01*
X305106Y93852D01*
X305169Y93939D01*
X305219Y94002D01*
X305256Y94052D01*
X305294Y94102D01*
X305306Y94114D01*
X305319Y94127D01*
X305456Y94252D01*
X305594Y94352D01*
X305744Y94452D01*
X305893Y94527D01*
X306193Y94651D01*
X306493Y94726D01*
X306618Y94752D01*
X306743Y94776D01*
X306856Y94789D01*
X306956Y94802D01*
X307031Y94814D01*
X307143D01*
X307343Y94802D01*
X307531Y94789D01*
X307868Y94714D01*
X308168Y94614D01*
X308305Y94552D01*
X308418Y94489D01*
X308530Y94427D01*
X308618Y94364D01*
X308705Y94314D01*
X308768Y94264D01*
X308818Y94227D01*
X308868Y94189D01*
X308880Y94177D01*
X308893Y94164D01*
X309018Y94039D01*
X309118Y93914D01*
X309205Y93777D01*
X309280Y93652D01*
X309405Y93389D01*
X309480Y93139D01*
X309530Y92914D01*
X309543Y92827D01*
X309555Y92752D01*
X309568Y92677D01*
Y92627D01*
Y92602D01*
Y92590D01*
X309555Y92427D01*
X309530Y92252D01*
X309493Y92090D01*
X309455Y91915D01*
X309330Y91602D01*
X309193Y91315D01*
X309118Y91190D01*
X309055Y91065D01*
X308993Y90965D01*
X308930Y90878D01*
X308893Y90802D01*
X308855Y90752D01*
X308830Y90715D01*
X308818Y90702D01*
X308668Y90503D01*
X308480Y90303D01*
X308280Y90078D01*
X308068Y89853D01*
X307606Y89403D01*
X307131Y88966D01*
X306906Y88765D01*
X306693Y88578D01*
X306506Y88403D01*
X306331Y88266D01*
X306193Y88141D01*
X306081Y88053D01*
X306019Y88003D01*
X305993Y87978D01*
X305756Y87778D01*
X305519Y87578D01*
X305306Y87391D01*
X305106Y87216D01*
X304931Y87041D01*
X304756Y86878D01*
X304606Y86729D01*
X304469Y86604D01*
X304344Y86479D01*
X304244Y86366D01*
X304156Y86266D01*
X304081Y86191D01*
X304019Y86129D01*
X303981Y86079D01*
X303957Y86054D01*
X303944Y86041D01*
X303694Y85729D01*
X303482Y85429D01*
X303307Y85141D01*
X303157Y84879D01*
X303044Y84654D01*
X303007Y84567D01*
X302969Y84492D01*
X302944Y84429D01*
X302919Y84379D01*
X302907Y84354D01*
Y84342D01*
X302844Y84142D01*
X302794Y83954D01*
X302769Y83767D01*
X302744Y83604D01*
X302732Y83454D01*
Y83254D01*
X311192D01*
Y84767D01*
X304906D01*
X305006Y84929D01*
X305119Y85079D01*
X305231Y85216D01*
X305331Y85354D01*
X305431Y85454D01*
X305506Y85541D01*
X305556Y85604D01*
X305569Y85616D01*
X305656Y85704D01*
X305769Y85804D01*
X305893Y85929D01*
X306031Y86054D01*
X306331Y86316D01*
X306631Y86579D01*
X306931Y86828D01*
X307056Y86941D01*
X307168Y87041D01*
X307256Y87116D01*
X307331Y87178D01*
X307381Y87216D01*
X307393Y87228D01*
X307693Y87491D01*
X307980Y87728D01*
X308243Y87966D01*
X308480Y88178D01*
X308705Y88378D01*
X308893Y88566D01*
X309080Y88741D01*
X309230Y88890D01*
X309368Y89028D01*
X309493Y89140D01*
X309580Y89240D01*
X309667Y89328D01*
X309730Y89390D01*
X309767Y89440D01*
X309792Y89465D01*
X309805Y89478D01*
X310067Y89778D01*
X310280Y90065D01*
X310467Y90340D01*
X310605Y90565D01*
X310717Y90765D01*
X310755Y90840D01*
X310792Y90915D01*
X310817Y90965D01*
X310842Y91003D01*
X310855Y91027D01*
Y91040D01*
X310967Y91315D01*
X311042Y91590D01*
X311105Y91852D01*
X311142Y92077D01*
X311167Y92277D01*
Y92352D01*
X311180Y92427D01*
Y92477D01*
Y92515D01*
Y92540D01*
Y92552D01*
X311167Y92827D01*
X311130Y93089D01*
X311080Y93352D01*
X311017Y93589D01*
X310930Y93814D01*
X310842Y94014D01*
X310742Y94214D01*
X310642Y94389D01*
X310542Y94552D01*
X310442Y94689D01*
X310355Y94802D01*
X310267Y94902D01*
X310205Y94989D01*
X310155Y95039D01*
X310117Y95076D01*
X310105Y95089D01*
X309893Y95264D01*
X309667Y95426D01*
X309443Y95564D01*
X309193Y95676D01*
X308955Y95776D01*
X308705Y95864D01*
X308468Y95926D01*
X308243Y95989D01*
X308018Y96026D01*
X307818Y96064D01*
X307643Y96089D01*
X307493Y96101D01*
X307356D01*
X307268Y96114D01*
D02*
G37*
G36*
X300595Y96064D02*
X298895D01*
Y83254D01*
X300595D01*
Y96064D01*
D02*
G37*
G36*
X132884Y96289D02*
X127048D01*
D01*
X132884D01*
D02*
G37*
G36*
X122137Y93789D02*
Y93764D01*
D01*
Y93789D01*
D02*
G37*
G36*
Y93539D02*
Y93527D01*
D01*
Y93539D01*
D02*
G37*
G36*
Y91202D02*
Y91190D01*
D01*
Y91202D01*
D02*
G37*
G36*
Y90190D02*
Y90040D01*
D01*
Y90190D01*
D02*
G37*
G36*
Y87816D02*
Y87778D01*
D01*
Y87816D01*
D02*
G37*
G36*
Y87079D02*
Y86991D01*
D01*
Y87079D01*
D02*
G37*
G36*
X120999Y96076D02*
X110840D01*
Y94564D01*
X115063D01*
Y83267D01*
X110840D01*
X116763D01*
Y94564D01*
X120999D01*
Y84454D01*
Y96076D01*
D02*
G37*
G36*
X144781D02*
X134733D01*
Y83267D01*
X136433D01*
Y89303D01*
X143081D01*
Y83267D01*
X144781D01*
Y96076D01*
D02*
G37*
G36*
X127048Y96289D02*
X126923D01*
X126673Y96276D01*
X126436Y96251D01*
X126198Y96214D01*
X125986Y96151D01*
X125786Y96089D01*
X125598Y96014D01*
X125423Y95939D01*
X125273Y95864D01*
X125136Y95776D01*
X125011Y95701D01*
X124899Y95626D01*
X124811Y95564D01*
X124736Y95501D01*
X124686Y95464D01*
X124661Y95439D01*
X124649Y95426D01*
X124486Y95264D01*
X124349Y95101D01*
X124236Y94927D01*
X124124Y94752D01*
X124036Y94589D01*
X123974Y94427D01*
X123911Y94264D01*
X123861Y94114D01*
X123824Y93964D01*
X123799Y93839D01*
X123774Y93714D01*
X123761Y93614D01*
Y93539D01*
X123749Y93477D01*
Y93439D01*
Y93427D01*
X123761Y93214D01*
X123786Y93002D01*
X123836Y92789D01*
X123886Y92614D01*
X123936Y92452D01*
X123986Y92340D01*
X123999Y92290D01*
X124011Y92252D01*
X124024Y92240D01*
Y92227D01*
X124086Y92115D01*
X124161Y91977D01*
X124324Y91715D01*
X124511Y91452D01*
X124711Y91190D01*
X124886Y90965D01*
X124961Y90865D01*
X125036Y90778D01*
X125098Y90715D01*
X125136Y90665D01*
X125161Y90628D01*
X125173Y90615D01*
X124899Y90478D01*
X124636Y90340D01*
X124399Y90190D01*
X124186Y90040D01*
X123974Y89903D01*
X123786Y89765D01*
X123624Y89628D01*
X123474Y89503D01*
X123336Y89378D01*
X123224Y89265D01*
X123124Y89178D01*
X123036Y89090D01*
X122974Y89028D01*
X122936Y88966D01*
X122912Y88940D01*
X122899Y88928D01*
X122762Y88753D01*
X122649Y88566D01*
X122549Y88378D01*
X122462Y88191D01*
X122387Y88016D01*
X122324Y87841D01*
X122237Y87503D01*
X122199Y87353D01*
X122174Y87216D01*
X122162Y87091D01*
X122149Y86991D01*
X122137Y86903D01*
Y86791D01*
X122149Y86541D01*
X122174Y86304D01*
X122224Y86066D01*
X122287Y85854D01*
X122349Y85641D01*
X122424Y85441D01*
X122512Y85254D01*
X122599Y85079D01*
X122687Y84929D01*
X122774Y84792D01*
X122849Y84667D01*
X122912Y84567D01*
X122974Y84492D01*
X123024Y84429D01*
X123049Y84392D01*
X123062Y84379D01*
X123286Y84142D01*
X123524Y83942D01*
X123786Y83767D01*
X124036Y83617D01*
X124299Y83479D01*
X124561Y83379D01*
X124811Y83292D01*
X125061Y83217D01*
X125286Y83167D01*
X125498Y83130D01*
X125698Y83092D01*
X125861Y83080D01*
X125998Y83067D01*
X126098Y83055D01*
X126186D01*
X126573Y83067D01*
X126948Y83117D01*
X127273Y83192D01*
X127573Y83267D01*
X127698Y83304D01*
X127810Y83342D01*
X127923Y83379D01*
X127998Y83417D01*
X128073Y83442D01*
X128123Y83467D01*
X128148Y83479D01*
X128160D01*
X128498Y83667D01*
X128822Y83867D01*
X129110Y84079D01*
X129360Y84292D01*
X129472Y84392D01*
X129572Y84479D01*
X129647Y84567D01*
X129722Y84642D01*
X129785Y84692D01*
X129822Y84742D01*
X129847Y84767D01*
X129860Y84779D01*
X130047Y84567D01*
X130235Y84354D01*
X130422Y84167D01*
X130597Y83992D01*
X130759Y83829D01*
X130922Y83679D01*
X131084Y83554D01*
X131222Y83429D01*
X131347Y83329D01*
X131472Y83229D01*
X131572Y83154D01*
X131659Y83092D01*
X131722Y83042D01*
X131784Y83005D01*
X131809Y82992D01*
X131822Y82979D01*
X122137D01*
X132884D01*
X131822D01*
X132884Y84229D01*
X132484Y84542D01*
X132097Y84867D01*
X131759Y85191D01*
X131609Y85354D01*
X131472Y85504D01*
X131334Y85654D01*
X131222Y85779D01*
X131122Y85891D01*
X131047Y85991D01*
X130972Y86079D01*
X130922Y86141D01*
X130897Y86179D01*
X130885Y86191D01*
X131009Y86404D01*
X131134Y86629D01*
X131359Y87079D01*
X131559Y87541D01*
X131647Y87766D01*
X131722Y87978D01*
X131784Y88178D01*
X131847Y88366D01*
X131897Y88528D01*
X131947Y88678D01*
X131984Y88791D01*
X131997Y88878D01*
X132022Y88940D01*
Y88953D01*
X130385Y89303D01*
X130297Y88940D01*
X130197Y88603D01*
X130097Y88291D01*
X129997Y88028D01*
X129960Y87916D01*
X129910Y87816D01*
X129885Y87728D01*
X129847Y87653D01*
X129822Y87591D01*
X129797Y87553D01*
X129785Y87528D01*
Y87516D01*
X127473Y90428D01*
X127698Y90553D01*
X127898Y90677D01*
X128098Y90802D01*
X128273Y90940D01*
X128598Y91202D01*
X128872Y91465D01*
X129110Y91727D01*
X129310Y91990D01*
X129472Y92240D01*
X129597Y92477D01*
X129697Y92702D01*
X129772Y92902D01*
X129822Y93089D01*
X129860Y93252D01*
X129885Y93377D01*
X129897Y93477D01*
Y93527D01*
Y93552D01*
X129885Y93764D01*
X129860Y93952D01*
X129822Y94152D01*
X129772Y94327D01*
X129635Y94651D01*
X129560Y94802D01*
X129485Y94939D01*
X129397Y95051D01*
X129322Y95164D01*
X129260Y95251D01*
X129197Y95339D01*
X129135Y95401D01*
X129097Y95439D01*
X129072Y95464D01*
X129060Y95476D01*
X128897Y95614D01*
X128722Y95739D01*
X128548Y95851D01*
X128373Y95951D01*
X128198Y96026D01*
X128010Y96089D01*
X127673Y96189D01*
X127523Y96226D01*
X127373Y96251D01*
X127248Y96264D01*
X127135Y96276D01*
X127048Y96289D01*
D02*
G37*
%LPD*%
G36*
X143081Y90815D02*
X136433D01*
Y96076D01*
X143081D01*
Y90815D01*
D02*
G37*
G36*
X127060Y94989D02*
X127260Y94939D01*
X127435Y94864D01*
X127573Y94789D01*
X127698Y94714D01*
X127785Y94639D01*
X127848Y94589D01*
X127860Y94577D01*
X127998Y94414D01*
X128110Y94239D01*
X128185Y94064D01*
X128235Y93889D01*
X128260Y93739D01*
X128285Y93627D01*
Y93577D01*
Y93539D01*
Y93527D01*
Y93514D01*
X128273Y93314D01*
X128235Y93127D01*
X128185Y92952D01*
X128135Y92802D01*
X128073Y92677D01*
X128023Y92590D01*
X127985Y92527D01*
X127973Y92502D01*
X127910Y92415D01*
X127835Y92327D01*
X127648Y92152D01*
X127423Y91977D01*
X127210Y91815D01*
X126998Y91665D01*
X126910Y91602D01*
X126823Y91552D01*
X126761Y91515D01*
X126711Y91477D01*
X126673Y91465D01*
X126661Y91452D01*
X125961Y92265D01*
X125861Y92402D01*
X125761Y92527D01*
X125686Y92640D01*
X125623Y92739D01*
X125573Y92827D01*
X125536Y92902D01*
X125523Y92940D01*
X125511Y92952D01*
X125461Y93077D01*
X125423Y93189D01*
X125398Y93289D01*
X125386Y93389D01*
X125373Y93464D01*
X125361Y93527D01*
Y93564D01*
Y93577D01*
X125373Y93789D01*
X125423Y93989D01*
X125486Y94164D01*
X125573Y94314D01*
X125648Y94427D01*
X125711Y94514D01*
X125761Y94577D01*
X125773Y94589D01*
X125936Y94726D01*
X126123Y94826D01*
X126298Y94902D01*
X126461Y94951D01*
X126611Y94976D01*
X126735Y95001D01*
X126835D01*
X127060Y94989D01*
D02*
G37*
G36*
X128872Y86016D02*
X128685Y85766D01*
X128485Y85541D01*
X128285Y85354D01*
X128098Y85191D01*
X127923Y85054D01*
X127785Y84954D01*
X127735Y84929D01*
X127698Y84904D01*
X127673Y84879D01*
X127660D01*
X127385Y84729D01*
X127110Y84629D01*
X126873Y84554D01*
X126648Y84492D01*
X126461Y84467D01*
X126386Y84454D01*
X126323D01*
X126273Y84442D01*
X126198D01*
X125998Y84454D01*
X125798Y84479D01*
X125623Y84517D01*
X125448Y84579D01*
X125298Y84642D01*
X125148Y84704D01*
X125023Y84779D01*
X124899Y84867D01*
X124798Y84942D01*
X124711Y85016D01*
X124624Y85079D01*
X124561Y85154D01*
X124511Y85204D01*
X124474Y85241D01*
X124461Y85266D01*
X124449Y85279D01*
X124336Y85441D01*
X124249Y85591D01*
X124161Y85741D01*
X124099Y85879D01*
X123986Y86154D01*
X123911Y86404D01*
X123874Y86604D01*
X123861Y86691D01*
X123849Y86754D01*
X123836Y86816D01*
Y86854D01*
Y86878D01*
Y86891D01*
X123861Y87128D01*
X123911Y87366D01*
X123974Y87578D01*
X124061Y87778D01*
X124136Y87941D01*
X124211Y88066D01*
X124236Y88116D01*
X124261Y88153D01*
X124274Y88166D01*
Y88178D01*
X124374Y88303D01*
X124474Y88428D01*
X124599Y88553D01*
X124736Y88678D01*
X125023Y88916D01*
X125311Y89128D01*
X125573Y89315D01*
X125686Y89390D01*
X125798Y89465D01*
X125873Y89515D01*
X125948Y89553D01*
X125986Y89578D01*
X125998Y89590D01*
X128872Y86016D01*
D02*
G37*
%LPC*%
G36*
X238814Y96289D02*
X238677D01*
X238202Y96276D01*
X237764Y96226D01*
X237564Y96189D01*
X237364Y96151D01*
X237190Y96114D01*
X237015Y96076D01*
X236865Y96026D01*
X236727Y95989D01*
X236615Y95951D01*
X236515Y95926D01*
X236440Y95889D01*
X236377Y95876D01*
X236340Y95851D01*
X236327D01*
X235952Y95676D01*
X235640Y95464D01*
X235365Y95251D01*
X235140Y95039D01*
X234953Y94852D01*
X234890Y94776D01*
X234828Y94701D01*
X234790Y94651D01*
X234753Y94601D01*
X234740Y94577D01*
X234728Y94564D01*
X234628Y94402D01*
X234553Y94239D01*
X234415Y93927D01*
X234315Y93614D01*
X234253Y93339D01*
X234228Y93214D01*
X234203Y93102D01*
X234190Y93002D01*
Y92914D01*
X234178Y92852D01*
Y92789D01*
Y92765D01*
Y92752D01*
X234203Y92427D01*
X234253Y92127D01*
X234315Y91852D01*
X234403Y91615D01*
X234490Y91427D01*
X234528Y91340D01*
X234553Y91277D01*
X234590Y91227D01*
X234603Y91190D01*
X234628Y91165D01*
Y91152D01*
X234815Y90903D01*
X235028Y90665D01*
X235252Y90465D01*
X235477Y90290D01*
X235677Y90140D01*
X235765Y90090D01*
X235840Y90040D01*
X235902Y90003D01*
X235952Y89978D01*
X235977Y89953D01*
X235990D01*
X236140Y89878D01*
X236302Y89815D01*
X236477Y89740D01*
X236677Y89665D01*
X237090Y89540D01*
X237489Y89415D01*
X237689Y89353D01*
X237864Y89303D01*
X238039Y89265D01*
X238177Y89228D01*
X238302Y89190D01*
X238389Y89178D01*
X238439Y89153D01*
X238464D01*
X238777Y89078D01*
X239064Y89003D01*
X239326Y88940D01*
X239564Y88878D01*
X239776Y88828D01*
X239964Y88778D01*
X240126Y88728D01*
X240264Y88691D01*
X240389Y88653D01*
X240489Y88616D01*
X240564Y88591D01*
X240626Y88566D01*
X240676Y88553D01*
X240714Y88541D01*
X240739Y88528D01*
X241026Y88416D01*
X241263Y88291D01*
X241463Y88166D01*
X241626Y88041D01*
X241751Y87941D01*
X241838Y87853D01*
X241888Y87803D01*
X241901Y87778D01*
X242013Y87603D01*
X242101Y87428D01*
X242163Y87253D01*
X242213Y87091D01*
X242238Y86941D01*
X242251Y86828D01*
Y86754D01*
Y86741D01*
Y86729D01*
X242238Y86504D01*
X242201Y86304D01*
X242138Y86116D01*
X242076Y85954D01*
X242001Y85816D01*
X241951Y85716D01*
X241901Y85654D01*
X241888Y85629D01*
X241738Y85454D01*
X241563Y85291D01*
X241376Y85167D01*
X241201Y85054D01*
X241038Y84954D01*
X240901Y84892D01*
X240851Y84867D01*
X240814Y84854D01*
X240788Y84841D01*
X240776D01*
X240489Y84742D01*
X240201Y84679D01*
X239914Y84629D01*
X239651Y84592D01*
X239426Y84567D01*
X239326D01*
X239239Y84554D01*
X239076D01*
X238677Y84567D01*
X238302Y84617D01*
X237964Y84679D01*
X237814Y84704D01*
X237677Y84742D01*
X237552Y84779D01*
X237439Y84817D01*
X237339Y84841D01*
X237252Y84867D01*
X237190Y84892D01*
X237139Y84916D01*
X237115Y84929D01*
X237102D01*
X236802Y85079D01*
X236540Y85254D01*
X236315Y85416D01*
X236140Y85579D01*
X236002Y85716D01*
X235902Y85829D01*
X235852Y85904D01*
X235827Y85916D01*
Y85929D01*
X235690Y86179D01*
X235577Y86441D01*
X235477Y86704D01*
X235415Y86953D01*
X235365Y87178D01*
X235340Y87266D01*
X235327Y87353D01*
X235315Y87428D01*
X235303Y87478D01*
Y87503D01*
Y87516D01*
X233703Y87378D01*
X233715Y87141D01*
X233740Y86916D01*
X233815Y86479D01*
X233878Y86266D01*
X233928Y86079D01*
X233990Y85904D01*
X234053Y85741D01*
X234115Y85591D01*
X234178Y85454D01*
X234240Y85341D01*
X234290Y85241D01*
X234328Y85167D01*
X234365Y85117D01*
X234378Y85079D01*
X234390Y85066D01*
X234665Y84717D01*
X234965Y84404D01*
X235278Y84142D01*
X235565Y83929D01*
X235702Y83829D01*
X235827Y83754D01*
X235952Y83692D01*
X236052Y83642D01*
X236127Y83592D01*
X236190Y83567D01*
X236227Y83554D01*
X236240Y83542D01*
X236465Y83454D01*
X236702Y83379D01*
X237190Y83254D01*
X237677Y83167D01*
X237914Y83130D01*
X238139Y83104D01*
X238352Y83080D01*
X238539Y83067D01*
X238714Y83055D01*
X238864D01*
X238989Y83042D01*
X239151D01*
X239651Y83067D01*
X240114Y83117D01*
X240326Y83154D01*
X240539Y83204D01*
X240726Y83242D01*
X240901Y83292D01*
X241051Y83342D01*
X241201Y83379D01*
X241313Y83429D01*
X241426Y83467D01*
X241501Y83492D01*
X241563Y83517D01*
X241601Y83542D01*
X241613D01*
X242001Y83742D01*
X242338Y83967D01*
X242488Y84092D01*
X242626Y84204D01*
X242750Y84317D01*
X242875Y84429D01*
X242976Y84529D01*
X243063Y84629D01*
X243125Y84717D01*
X243188Y84792D01*
X243238Y84854D01*
X243275Y84904D01*
X243288Y84929D01*
X243300Y84942D01*
X243400Y85117D01*
X243500Y85279D01*
X243638Y85616D01*
X243750Y85941D01*
X243813Y86241D01*
X243838Y86379D01*
X243863Y86491D01*
X243875Y86604D01*
Y86691D01*
X243888Y86766D01*
Y87053D01*
X243863Y87241D01*
X243800Y87591D01*
X243713Y87903D01*
X243625Y88166D01*
X243575Y88278D01*
X243525Y88391D01*
X243475Y88478D01*
X243438Y88553D01*
X243400Y88616D01*
X243375Y88653D01*
X243363Y88678D01*
X243350Y88691D01*
X243238Y88841D01*
X243125Y88978D01*
X242863Y89228D01*
X242588Y89453D01*
X242326Y89640D01*
X242076Y89790D01*
X241976Y89853D01*
X241888Y89903D01*
X241813Y89940D01*
X241751Y89965D01*
X241713Y89990D01*
X241701D01*
X241538Y90053D01*
X241351Y90128D01*
X241151Y90190D01*
X240926Y90265D01*
X240464Y90403D01*
X239989Y90528D01*
X239764Y90590D01*
X239551Y90640D01*
X239351Y90690D01*
X239189Y90728D01*
X239051Y90752D01*
X238939Y90778D01*
X238876Y90802D01*
X238852D01*
X238489Y90890D01*
X238152Y90977D01*
X237852Y91065D01*
X237589Y91152D01*
X237352Y91227D01*
X237139Y91302D01*
X236964Y91377D01*
X236802Y91440D01*
X236677Y91502D01*
X236565Y91565D01*
X236477Y91615D01*
X236415Y91652D01*
X236365Y91677D01*
X236327Y91702D01*
X236315Y91727D01*
X236302D01*
X236140Y91902D01*
X236015Y92090D01*
X235940Y92277D01*
X235877Y92465D01*
X235840Y92614D01*
X235827Y92752D01*
X235815Y92802D01*
Y92839D01*
Y92852D01*
Y92865D01*
X235827Y93014D01*
X235840Y93152D01*
X235927Y93402D01*
X236040Y93639D01*
X236165Y93839D01*
X236290Y93989D01*
X236402Y94114D01*
X236490Y94189D01*
X236502Y94214D01*
X236515D01*
X236652Y94314D01*
X236815Y94402D01*
X236977Y94477D01*
X237164Y94552D01*
X237527Y94651D01*
X237902Y94714D01*
X238064Y94739D01*
X238227Y94764D01*
X238377Y94776D01*
X238502D01*
X238602Y94789D01*
X238752D01*
X239014Y94776D01*
X239276Y94764D01*
X239501Y94726D01*
X239726Y94689D01*
X239926Y94639D01*
X240101Y94589D01*
X240264Y94539D01*
X240414Y94477D01*
X240551Y94414D01*
X240664Y94364D01*
X240764Y94314D01*
X240839Y94264D01*
X240901Y94227D01*
X240938Y94189D01*
X240963Y94177D01*
X240976Y94164D01*
X241113Y94039D01*
X241238Y93902D01*
X241338Y93764D01*
X241438Y93614D01*
X241601Y93314D01*
X241713Y93014D01*
X241751Y92877D01*
X241788Y92752D01*
X241826Y92640D01*
X241838Y92540D01*
X241863Y92452D01*
Y92390D01*
X241876Y92352D01*
Y92340D01*
X243500Y92465D01*
X243488Y92677D01*
X243463Y92877D01*
X243375Y93252D01*
X243275Y93602D01*
X243225Y93752D01*
X243163Y93889D01*
X243100Y94027D01*
X243050Y94139D01*
X243001Y94239D01*
X242950Y94327D01*
X242913Y94389D01*
X242888Y94439D01*
X242875Y94464D01*
X242863Y94477D01*
X242626Y94789D01*
X242351Y95064D01*
X242076Y95289D01*
X241801Y95489D01*
X241563Y95639D01*
X241463Y95689D01*
X241363Y95739D01*
X241288Y95776D01*
X241238Y95801D01*
X241201Y95826D01*
X241188D01*
X240764Y95976D01*
X240339Y96089D01*
X239914Y96176D01*
X239714Y96201D01*
X239526Y96226D01*
X239351Y96251D01*
X239189Y96264D01*
X239039Y96276D01*
X238914D01*
X238814Y96289D01*
D02*
G37*
G36*
X221131D02*
X220944D01*
X220631Y96276D01*
X220319Y96251D01*
X220031Y96214D01*
X219744Y96164D01*
X219469Y96114D01*
X219207Y96039D01*
X218969Y95976D01*
X218757Y95901D01*
X218544Y95826D01*
X218369Y95764D01*
X218207Y95689D01*
X218082Y95639D01*
X217969Y95589D01*
X217894Y95551D01*
X217844Y95526D01*
X217832Y95514D01*
X217570Y95364D01*
X217332Y95189D01*
X217107Y95014D01*
X216895Y94826D01*
X216707Y94639D01*
X216520Y94452D01*
X216357Y94264D01*
X216220Y94089D01*
X216082Y93914D01*
X215970Y93752D01*
X215882Y93614D01*
X215795Y93489D01*
X215732Y93389D01*
X215695Y93302D01*
X215670Y93252D01*
X215658Y93239D01*
X215520Y92952D01*
X215408Y92664D01*
X215308Y92365D01*
X215220Y92065D01*
X215145Y91777D01*
X215083Y91477D01*
X215033Y91202D01*
X214995Y90940D01*
X214958Y90690D01*
X214933Y90465D01*
X214920Y90265D01*
X214908Y90090D01*
X214895Y89953D01*
Y89753D01*
X214908Y89415D01*
X214920Y89078D01*
X214958Y88753D01*
X214995Y88441D01*
X215058Y88141D01*
X215108Y87853D01*
X215170Y87591D01*
X215233Y87341D01*
X215295Y87116D01*
X215358Y86916D01*
X215420Y86741D01*
X215470Y86591D01*
X215508Y86479D01*
X215545Y86391D01*
X215557Y86341D01*
X215570Y86316D01*
X215707Y86029D01*
X215845Y85754D01*
X216007Y85504D01*
X216157Y85266D01*
X216320Y85042D01*
X216482Y84841D01*
X216645Y84667D01*
X216807Y84504D01*
X216957Y84354D01*
X217095Y84229D01*
X217207Y84117D01*
X217320Y84042D01*
X217407Y83967D01*
X217482Y83917D01*
X217519Y83892D01*
X217532Y83879D01*
X217782Y83729D01*
X218044Y83604D01*
X218332Y83492D01*
X218607Y83392D01*
X218894Y83317D01*
X219169Y83242D01*
X219444Y83192D01*
X219706Y83142D01*
X219956Y83117D01*
X220181Y83092D01*
X220381Y83067D01*
X220556Y83055D01*
X220706Y83042D01*
X220906D01*
X221269Y83055D01*
X221631Y83092D01*
X221956Y83142D01*
X222281Y83217D01*
X222581Y83292D01*
X222856Y83392D01*
X223118Y83479D01*
X223356Y83592D01*
X223556Y83692D01*
X223743Y83792D01*
X223905Y83879D01*
X224043Y83954D01*
X224155Y84029D01*
X224230Y84079D01*
X224280Y84117D01*
X224293Y84129D01*
X224543Y84342D01*
X224780Y84579D01*
X224980Y84829D01*
X225180Y85091D01*
X225355Y85354D01*
X225518Y85616D01*
X225655Y85879D01*
X225780Y86141D01*
X225880Y86379D01*
X225980Y86604D01*
X226055Y86804D01*
X226117Y86979D01*
X226155Y87116D01*
X226192Y87228D01*
X226217Y87291D01*
Y87316D01*
X224518Y87741D01*
X224443Y87453D01*
X224355Y87178D01*
X224268Y86916D01*
X224168Y86679D01*
X224055Y86466D01*
X223943Y86266D01*
X223830Y86079D01*
X223718Y85916D01*
X223618Y85779D01*
X223518Y85654D01*
X223418Y85541D01*
X223343Y85454D01*
X223281Y85391D01*
X223218Y85341D01*
X223193Y85316D01*
X223181Y85304D01*
X222993Y85167D01*
X222793Y85042D01*
X222593Y84929D01*
X222393Y84829D01*
X222181Y84754D01*
X221981Y84692D01*
X221606Y84592D01*
X221431Y84554D01*
X221269Y84529D01*
X221131Y84517D01*
X221006Y84504D01*
X220906Y84492D01*
X220769D01*
X220556Y84504D01*
X220344Y84517D01*
X219931Y84592D01*
X219569Y84679D01*
X219394Y84742D01*
X219244Y84792D01*
X219094Y84854D01*
X218969Y84904D01*
X218857Y84954D01*
X218769Y85004D01*
X218694Y85042D01*
X218644Y85066D01*
X218607Y85079D01*
X218594Y85091D01*
X218419Y85216D01*
X218244Y85341D01*
X217944Y85629D01*
X217694Y85929D01*
X217482Y86229D01*
X217320Y86491D01*
X217257Y86604D01*
X217207Y86704D01*
X217170Y86791D01*
X217145Y86854D01*
X217120Y86891D01*
Y86903D01*
X216957Y87378D01*
X216845Y87866D01*
X216757Y88353D01*
X216732Y88578D01*
X216707Y88791D01*
X216682Y89003D01*
X216670Y89178D01*
X216657Y89353D01*
Y89490D01*
X216645Y89603D01*
Y89690D01*
Y89753D01*
Y89765D01*
X216657Y90228D01*
X216707Y90677D01*
X216770Y91090D01*
X216807Y91290D01*
X216845Y91465D01*
X216882Y91627D01*
X216920Y91777D01*
X216957Y91902D01*
X216982Y92015D01*
X217007Y92102D01*
X217032Y92165D01*
X217045Y92202D01*
Y92215D01*
X217132Y92440D01*
X217220Y92640D01*
X217320Y92839D01*
X217432Y93014D01*
X217544Y93189D01*
X217657Y93352D01*
X217769Y93489D01*
X217894Y93627D01*
X217994Y93739D01*
X218094Y93839D01*
X218194Y93927D01*
X218269Y94002D01*
X218344Y94052D01*
X218394Y94089D01*
X218419Y94114D01*
X218432Y94127D01*
X218619Y94252D01*
X218819Y94364D01*
X219032Y94452D01*
X219232Y94539D01*
X219444Y94614D01*
X219644Y94664D01*
X220044Y94752D01*
X220219Y94776D01*
X220381Y94802D01*
X220531Y94814D01*
X220656Y94826D01*
X220769Y94839D01*
X220906D01*
X221144Y94826D01*
X221369Y94814D01*
X221781Y94739D01*
X221968Y94689D01*
X222143Y94639D01*
X222306Y94577D01*
X222443Y94514D01*
X222581Y94452D01*
X222693Y94389D01*
X222793Y94339D01*
X222881Y94289D01*
X222943Y94252D01*
X222993Y94214D01*
X223018Y94202D01*
X223031Y94189D01*
X223181Y94064D01*
X223330Y93914D01*
X223593Y93602D01*
X223818Y93264D01*
X224005Y92940D01*
X224080Y92777D01*
X224143Y92640D01*
X224205Y92502D01*
X224243Y92390D01*
X224280Y92302D01*
X224305Y92227D01*
X224330Y92177D01*
Y92165D01*
X226005Y92552D01*
X225892Y92877D01*
X225780Y93177D01*
X225642Y93464D01*
X225492Y93727D01*
X225343Y93977D01*
X225193Y94202D01*
X225043Y94402D01*
X224893Y94589D01*
X224743Y94752D01*
X224605Y94902D01*
X224493Y95026D01*
X224380Y95126D01*
X224293Y95201D01*
X224230Y95251D01*
X224180Y95289D01*
X224168Y95301D01*
X223918Y95476D01*
X223655Y95626D01*
X223381Y95764D01*
X223106Y95876D01*
X222843Y95964D01*
X222568Y96051D01*
X222306Y96114D01*
X222068Y96164D01*
X221831Y96201D01*
X221618Y96239D01*
X221431Y96264D01*
X221269Y96276D01*
X221131Y96289D01*
D02*
G37*
G36*
X232328Y88691D02*
X227492D01*
Y87104D01*
X232328D01*
Y88691D01*
D02*
G37*
G36*
X251486Y96114D02*
X250461D01*
X250386Y95951D01*
X250286Y95801D01*
X250074Y95489D01*
X249849Y95201D01*
X249624Y94939D01*
X249511Y94826D01*
X249411Y94714D01*
X249311Y94627D01*
X249236Y94539D01*
X249174Y94477D01*
X249111Y94427D01*
X249086Y94402D01*
X249074Y94389D01*
X248687Y94077D01*
X248299Y93789D01*
X247912Y93527D01*
X247549Y93314D01*
X247387Y93214D01*
X247237Y93139D01*
X247112Y93064D01*
X246999Y93002D01*
X246900Y92952D01*
X246837Y92914D01*
X246787Y92902D01*
X246775Y92889D01*
Y91377D01*
X247049Y91490D01*
X247337Y91615D01*
X247612Y91752D01*
X247862Y91877D01*
X248087Y91990D01*
X248174Y92040D01*
X248262Y92090D01*
X248324Y92127D01*
X248374Y92152D01*
X248399Y92177D01*
X248412D01*
X248736Y92377D01*
X249036Y92577D01*
X249299Y92765D01*
X249511Y92927D01*
X249686Y93064D01*
X249811Y93177D01*
X249849Y93214D01*
X249886Y93239D01*
X249899Y93264D01*
X249911D01*
Y83254D01*
X251486D01*
Y96114D01*
D02*
G37*
G36*
X209134D02*
X209047D01*
X208709Y96101D01*
X208397Y96076D01*
X208097Y96026D01*
X207822Y95964D01*
X207560Y95889D01*
X207322Y95814D01*
X207110Y95726D01*
X206910Y95639D01*
X206735Y95551D01*
X206572Y95464D01*
X206447Y95389D01*
X206335Y95314D01*
X206247Y95251D01*
X206185Y95201D01*
X206147Y95176D01*
X206135Y95164D01*
X205947Y94976D01*
X205772Y94776D01*
X205623Y94564D01*
X205485Y94339D01*
X205373Y94102D01*
X205273Y93877D01*
X205185Y93652D01*
X205110Y93439D01*
X205060Y93227D01*
X205010Y93039D01*
X204973Y92865D01*
X204935Y92715D01*
X204923Y92590D01*
X204910Y92490D01*
X204898Y92440D01*
Y92415D01*
X206510Y92252D01*
X206522Y92477D01*
X206535Y92677D01*
X206572Y92877D01*
X206610Y93052D01*
X206672Y93214D01*
X206722Y93377D01*
X206785Y93514D01*
X206847Y93639D01*
X206910Y93752D01*
X206972Y93852D01*
X207035Y93939D01*
X207085Y94002D01*
X207122Y94052D01*
X207160Y94102D01*
X207172Y94114D01*
X207185Y94127D01*
X207322Y94252D01*
X207460Y94352D01*
X207610Y94452D01*
X207759Y94527D01*
X208059Y94651D01*
X208359Y94726D01*
X208484Y94752D01*
X208609Y94776D01*
X208722Y94789D01*
X208822Y94802D01*
X208897Y94814D01*
X209009D01*
X209209Y94802D01*
X209397Y94789D01*
X209734Y94714D01*
X210034Y94614D01*
X210171Y94552D01*
X210284Y94489D01*
X210396Y94427D01*
X210484Y94364D01*
X210571Y94314D01*
X210634Y94264D01*
X210684Y94227D01*
X210734Y94189D01*
X210746Y94177D01*
X210759Y94164D01*
X210884Y94039D01*
X210984Y93914D01*
X211071Y93777D01*
X211146Y93652D01*
X211271Y93389D01*
X211346Y93139D01*
X211396Y92914D01*
X211409Y92827D01*
X211421Y92752D01*
X211434Y92677D01*
Y92627D01*
Y92602D01*
Y92590D01*
X211421Y92427D01*
X211396Y92252D01*
X211359Y92090D01*
X211321Y91915D01*
X211196Y91602D01*
X211059Y91315D01*
X210984Y91190D01*
X210921Y91065D01*
X210859Y90965D01*
X210796Y90878D01*
X210759Y90802D01*
X210721Y90752D01*
X210696Y90715D01*
X210684Y90702D01*
X210534Y90503D01*
X210346Y90303D01*
X210146Y90078D01*
X209934Y89853D01*
X209472Y89403D01*
X208997Y88966D01*
X208772Y88765D01*
X208559Y88578D01*
X208372Y88403D01*
X208197Y88266D01*
X208059Y88141D01*
X207947Y88053D01*
X207885Y88003D01*
X207859Y87978D01*
X207622Y87778D01*
X207385Y87578D01*
X207172Y87391D01*
X206972Y87216D01*
X206797Y87041D01*
X206622Y86878D01*
X206472Y86729D01*
X206335Y86604D01*
X206210Y86479D01*
X206110Y86366D01*
X206022Y86266D01*
X205947Y86191D01*
X205885Y86129D01*
X205847Y86079D01*
X205823Y86054D01*
X205810Y86041D01*
X205560Y85729D01*
X205348Y85429D01*
X205173Y85141D01*
X205023Y84879D01*
X204910Y84654D01*
X204873Y84567D01*
X204835Y84492D01*
X204810Y84429D01*
X204785Y84379D01*
X204773Y84354D01*
Y84342D01*
X204710Y84142D01*
X204660Y83954D01*
X204635Y83767D01*
X204610Y83604D01*
X204598Y83454D01*
Y83254D01*
X213058D01*
Y84767D01*
X206772D01*
X206872Y84929D01*
X206985Y85079D01*
X207097Y85216D01*
X207197Y85354D01*
X207297Y85454D01*
X207372Y85541D01*
X207422Y85604D01*
X207435Y85616D01*
X207522Y85704D01*
X207635Y85804D01*
X207759Y85929D01*
X207897Y86054D01*
X208197Y86316D01*
X208497Y86579D01*
X208797Y86828D01*
X208922Y86941D01*
X209034Y87041D01*
X209122Y87116D01*
X209197Y87178D01*
X209247Y87216D01*
X209259Y87228D01*
X209559Y87491D01*
X209846Y87728D01*
X210109Y87966D01*
X210346Y88178D01*
X210571Y88378D01*
X210759Y88566D01*
X210946Y88741D01*
X211096Y88890D01*
X211234Y89028D01*
X211359Y89140D01*
X211446Y89240D01*
X211534Y89328D01*
X211596Y89390D01*
X211633Y89440D01*
X211658Y89465D01*
X211671Y89478D01*
X211933Y89778D01*
X212146Y90065D01*
X212333Y90340D01*
X212471Y90565D01*
X212583Y90765D01*
X212621Y90840D01*
X212658Y90915D01*
X212683Y90965D01*
X212708Y91003D01*
X212721Y91027D01*
Y91040D01*
X212833Y91315D01*
X212908Y91590D01*
X212971Y91852D01*
X213008Y92077D01*
X213033Y92277D01*
Y92352D01*
X213046Y92427D01*
Y92477D01*
Y92515D01*
Y92540D01*
Y92552D01*
X213033Y92827D01*
X212996Y93089D01*
X212946Y93352D01*
X212883Y93589D01*
X212796Y93814D01*
X212708Y94014D01*
X212608Y94214D01*
X212508Y94389D01*
X212408Y94552D01*
X212308Y94689D01*
X212221Y94802D01*
X212133Y94902D01*
X212071Y94989D01*
X212021Y95039D01*
X211983Y95076D01*
X211971Y95089D01*
X211758Y95264D01*
X211534Y95426D01*
X211309Y95564D01*
X211059Y95676D01*
X210821Y95776D01*
X210571Y95864D01*
X210334Y95926D01*
X210109Y95989D01*
X209884Y96026D01*
X209684Y96064D01*
X209509Y96089D01*
X209359Y96101D01*
X209222D01*
X209134Y96114D01*
D02*
G37*
G36*
X202461Y96064D02*
X200761D01*
Y83254D01*
X202461D01*
Y96064D01*
D02*
G37*
G36*
X204485Y221765D02*
X204348D01*
X203873Y221752D01*
X203435Y221702D01*
X203235Y221665D01*
X203036Y221627D01*
X202861Y221590D01*
X202686Y221552D01*
X202536Y221502D01*
X202398Y221465D01*
X202286Y221427D01*
X202186Y221402D01*
X202111Y221365D01*
X202048Y221352D01*
X202011Y221327D01*
X201998D01*
X201623Y221152D01*
X201311Y220940D01*
X201036Y220727D01*
X200811Y220515D01*
X200624Y220327D01*
X200561Y220252D01*
X200499Y220177D01*
X200461Y220128D01*
X200424Y220077D01*
X200411Y220053D01*
X200399Y220040D01*
X200299Y219878D01*
X200224Y219715D01*
X200086Y219403D01*
X199986Y219090D01*
X199924Y218815D01*
X199899Y218690D01*
X199874Y218578D01*
X199861Y218478D01*
Y218391D01*
X199849Y218328D01*
Y218265D01*
Y218241D01*
Y218228D01*
X199874Y217903D01*
X199924Y217603D01*
X199986Y217328D01*
X200074Y217091D01*
X200161Y216903D01*
X200199Y216816D01*
X200224Y216753D01*
X200261Y216703D01*
X200274Y216666D01*
X200299Y216641D01*
Y216628D01*
X200486Y216378D01*
X200699Y216141D01*
X200924Y215941D01*
X201148Y215766D01*
X201348Y215616D01*
X201436Y215566D01*
X201511Y215516D01*
X201573Y215479D01*
X201623Y215454D01*
X201648Y215429D01*
X201661D01*
X201811Y215354D01*
X201973Y215291D01*
X202148Y215216D01*
X202348Y215141D01*
X202761Y215016D01*
X203160Y214891D01*
X203361Y214829D01*
X203535Y214779D01*
X203710Y214741D01*
X203848Y214704D01*
X203973Y214666D01*
X204060Y214654D01*
X204110Y214629D01*
X204135D01*
X204448Y214554D01*
X204735Y214479D01*
X204998Y214417D01*
X205235Y214354D01*
X205447Y214304D01*
X205635Y214254D01*
X205797Y214204D01*
X205935Y214167D01*
X206060Y214129D01*
X206160Y214092D01*
X206235Y214067D01*
X206297Y214042D01*
X206347Y214029D01*
X206385Y214017D01*
X206410Y214004D01*
X206697Y213892D01*
X206935Y213767D01*
X207134Y213642D01*
X207297Y213517D01*
X207422Y213417D01*
X207509Y213329D01*
X207559Y213279D01*
X207572Y213254D01*
X207684Y213079D01*
X207772Y212904D01*
X207834Y212729D01*
X207884Y212567D01*
X207909Y212417D01*
X207922Y212304D01*
Y212229D01*
Y212217D01*
Y212205D01*
X207909Y211980D01*
X207872Y211780D01*
X207809Y211592D01*
X207747Y211430D01*
X207672Y211292D01*
X207622Y211192D01*
X207572Y211130D01*
X207559Y211105D01*
X207409Y210930D01*
X207234Y210767D01*
X207047Y210643D01*
X206872Y210530D01*
X206710Y210430D01*
X206572Y210368D01*
X206522Y210343D01*
X206485Y210330D01*
X206460Y210317D01*
X206447D01*
X206160Y210218D01*
X205872Y210155D01*
X205585Y210105D01*
X205322Y210068D01*
X205098Y210043D01*
X204998D01*
X204910Y210030D01*
X204748D01*
X204348Y210043D01*
X203973Y210093D01*
X203635Y210155D01*
X203485Y210180D01*
X203348Y210218D01*
X203223Y210255D01*
X203111Y210292D01*
X203011Y210317D01*
X202923Y210343D01*
X202861Y210368D01*
X202811Y210392D01*
X202786Y210405D01*
X202773D01*
X202473Y210555D01*
X202211Y210730D01*
X201986Y210892D01*
X201811Y211055D01*
X201673Y211192D01*
X201573Y211305D01*
X201523Y211380D01*
X201499Y211392D01*
Y211405D01*
X201361Y211655D01*
X201248Y211917D01*
X201148Y212180D01*
X201086Y212430D01*
X201036Y212654D01*
X201011Y212742D01*
X200999Y212829D01*
X200986Y212904D01*
X200974Y212954D01*
Y212979D01*
Y212992D01*
X199374Y212854D01*
X199387Y212617D01*
X199412Y212392D01*
X199487Y211955D01*
X199549Y211742D01*
X199599Y211555D01*
X199661Y211380D01*
X199724Y211217D01*
X199786Y211067D01*
X199849Y210930D01*
X199911Y210817D01*
X199961Y210717D01*
X199999Y210643D01*
X200036Y210592D01*
X200049Y210555D01*
X200061Y210543D01*
X200336Y210193D01*
X200636Y209880D01*
X200949Y209618D01*
X201236Y209405D01*
X201374Y209305D01*
X201499Y209230D01*
X201623Y209168D01*
X201723Y209118D01*
X201798Y209068D01*
X201861Y209043D01*
X201898Y209030D01*
X201911Y209018D01*
X202136Y208930D01*
X202373Y208855D01*
X202861Y208730D01*
X203348Y208643D01*
X203585Y208605D01*
X203810Y208580D01*
X204023Y208556D01*
X204210Y208543D01*
X204385Y208531D01*
X204535D01*
X204660Y208518D01*
X204823D01*
X205322Y208543D01*
X205785Y208593D01*
X205997Y208631D01*
X206210Y208680D01*
X206397Y208718D01*
X206572Y208768D01*
X206722Y208818D01*
X206872Y208855D01*
X206985Y208905D01*
X207097Y208943D01*
X207172Y208968D01*
X207234Y208993D01*
X207272Y209018D01*
X207285D01*
X207672Y209218D01*
X208009Y209443D01*
X208159Y209568D01*
X208297Y209680D01*
X208422Y209793D01*
X208547Y209905D01*
X208647Y210005D01*
X208734Y210105D01*
X208797Y210193D01*
X208859Y210268D01*
X208909Y210330D01*
X208946Y210380D01*
X208959Y210405D01*
X208972Y210417D01*
X209072Y210592D01*
X209172Y210755D01*
X209309Y211092D01*
X209421Y211417D01*
X209484Y211717D01*
X209509Y211855D01*
X209534Y211967D01*
X209546Y212080D01*
Y212167D01*
X209559Y212242D01*
Y212530D01*
X209534Y212717D01*
X209471Y213067D01*
X209384Y213379D01*
X209296Y213642D01*
X209247Y213754D01*
X209196Y213867D01*
X209146Y213954D01*
X209109Y214029D01*
X209072Y214092D01*
X209046Y214129D01*
X209034Y214154D01*
X209021Y214167D01*
X208909Y214317D01*
X208797Y214454D01*
X208534Y214704D01*
X208259Y214929D01*
X207997Y215116D01*
X207747Y215266D01*
X207647Y215329D01*
X207559Y215379D01*
X207484Y215416D01*
X207422Y215441D01*
X207384Y215466D01*
X207372D01*
X207209Y215529D01*
X207022Y215604D01*
X206822Y215666D01*
X206597Y215741D01*
X206135Y215879D01*
X205660Y216004D01*
X205435Y216066D01*
X205222Y216116D01*
X205023Y216166D01*
X204860Y216203D01*
X204723Y216229D01*
X204610Y216254D01*
X204548Y216278D01*
X204523D01*
X204160Y216366D01*
X203823Y216453D01*
X203523Y216541D01*
X203260Y216628D01*
X203023Y216703D01*
X202811Y216778D01*
X202636Y216853D01*
X202473Y216916D01*
X202348Y216978D01*
X202236Y217041D01*
X202148Y217091D01*
X202086Y217128D01*
X202036Y217153D01*
X201998Y217178D01*
X201986Y217203D01*
X201973D01*
X201811Y217378D01*
X201686Y217566D01*
X201611Y217753D01*
X201548Y217941D01*
X201511Y218090D01*
X201499Y218228D01*
X201486Y218278D01*
Y218316D01*
Y218328D01*
Y218340D01*
X201499Y218490D01*
X201511Y218628D01*
X201598Y218878D01*
X201711Y219115D01*
X201836Y219315D01*
X201961Y219465D01*
X202073Y219590D01*
X202161Y219665D01*
X202173Y219690D01*
X202186D01*
X202323Y219790D01*
X202486Y219878D01*
X202648Y219953D01*
X202836Y220028D01*
X203198Y220128D01*
X203573Y220190D01*
X203735Y220215D01*
X203898Y220240D01*
X204048Y220252D01*
X204173D01*
X204273Y220265D01*
X204423D01*
X204685Y220252D01*
X204948Y220240D01*
X205173Y220203D01*
X205397Y220165D01*
X205597Y220115D01*
X205772Y220065D01*
X205935Y220015D01*
X206085Y219953D01*
X206222Y219890D01*
X206335Y219840D01*
X206435Y219790D01*
X206510Y219740D01*
X206572Y219703D01*
X206610Y219665D01*
X206635Y219653D01*
X206647Y219640D01*
X206785Y219515D01*
X206910Y219378D01*
X207010Y219240D01*
X207110Y219090D01*
X207272Y218790D01*
X207384Y218490D01*
X207422Y218353D01*
X207459Y218228D01*
X207497Y218116D01*
X207509Y218016D01*
X207534Y217928D01*
Y217866D01*
X207547Y217828D01*
Y217816D01*
X209172Y217941D01*
X209159Y218153D01*
X209134Y218353D01*
X209046Y218728D01*
X208946Y219078D01*
X208897Y219228D01*
X208834Y219365D01*
X208772Y219503D01*
X208722Y219615D01*
X208672Y219715D01*
X208622Y219803D01*
X208584Y219865D01*
X208559Y219915D01*
X208547Y219940D01*
X208534Y219953D01*
X208297Y220265D01*
X208022Y220540D01*
X207747Y220765D01*
X207472Y220965D01*
X207234Y221115D01*
X207134Y221165D01*
X207034Y221215D01*
X206960Y221252D01*
X206910Y221277D01*
X206872Y221302D01*
X206860D01*
X206435Y221452D01*
X206010Y221565D01*
X205585Y221652D01*
X205385Y221677D01*
X205198Y221702D01*
X205023Y221727D01*
X204860Y221740D01*
X204710Y221752D01*
X204585D01*
X204485Y221765D01*
D02*
G37*
G36*
X227192Y221540D02*
X225480D01*
X223480Y213304D01*
X223343Y212729D01*
X223268Y212467D01*
X223205Y212205D01*
X223155Y211955D01*
X223105Y211730D01*
X223055Y211517D01*
X223005Y211317D01*
X222968Y211142D01*
X222931Y210980D01*
X222906Y210842D01*
X222880Y210730D01*
X222855Y210643D01*
X222843Y210567D01*
X222831Y210530D01*
Y210518D01*
X222693Y211317D01*
X222543Y212117D01*
X222456Y212517D01*
X222381Y212892D01*
X222293Y213242D01*
X222218Y213579D01*
X222131Y213892D01*
X222068Y214179D01*
X222006Y214429D01*
X221943Y214641D01*
X221893Y214816D01*
X221856Y214941D01*
X221843Y214991D01*
Y215029D01*
X221831Y215041D01*
Y215054D01*
X219994Y221540D01*
X217957D01*
X215520Y212879D01*
X215495Y212804D01*
X215470Y212692D01*
X215432Y212542D01*
X215395Y212379D01*
X215345Y212192D01*
X215295Y211992D01*
X215195Y211580D01*
X215145Y211380D01*
X215095Y211180D01*
X215058Y211005D01*
X215007Y210842D01*
X214982Y210705D01*
X214958Y210605D01*
X214932Y210543D01*
Y210518D01*
X214845Y211005D01*
X214758Y211480D01*
X214670Y211917D01*
X214620Y212130D01*
X214583Y212317D01*
X214545Y212492D01*
X214508Y212654D01*
X214470Y212792D01*
X214445Y212917D01*
X214420Y213017D01*
X214408Y213079D01*
X214395Y213129D01*
Y213142D01*
X212446Y221540D01*
X210709D01*
X214095Y208730D01*
X215845D01*
X218544Y218490D01*
X218607Y218728D01*
X218682Y218978D01*
X218744Y219240D01*
X218806Y219465D01*
X218857Y219678D01*
X218881Y219765D01*
X218894Y219840D01*
X218906Y219903D01*
X218919Y219953D01*
X218932Y219978D01*
Y219990D01*
X218944Y219928D01*
X218969Y219853D01*
X218994Y219753D01*
X219019Y219640D01*
X219094Y219390D01*
X219156Y219140D01*
X219231Y218890D01*
X219256Y218778D01*
X219294Y218690D01*
X219306Y218603D01*
X219331Y218540D01*
X219344Y218503D01*
Y218490D01*
X222031Y208730D01*
X223680D01*
X227192Y221540D01*
D02*
G37*
G36*
X233553D02*
X228766D01*
Y208730D01*
X233390D01*
X233815Y208743D01*
X234203Y208768D01*
X234552Y208793D01*
X234702Y208818D01*
X234852Y208843D01*
X234977Y208855D01*
X235102Y208880D01*
X235202Y208893D01*
X235277Y208905D01*
X235352Y208918D01*
X235402Y208930D01*
X235427Y208943D01*
X235440D01*
X235765Y209030D01*
X236065Y209130D01*
X236327Y209243D01*
X236552Y209343D01*
X236727Y209430D01*
X236802Y209480D01*
X236864Y209505D01*
X236914Y209543D01*
X236952Y209568D01*
X236964Y209580D01*
X236977D01*
X237214Y209755D01*
X237427Y209943D01*
X237627Y210130D01*
X237802Y210317D01*
X237939Y210492D01*
X238052Y210618D01*
X238089Y210667D01*
X238114Y210705D01*
X238139Y210730D01*
Y210742D01*
X238326Y211030D01*
X238501Y211342D01*
X238651Y211655D01*
X238776Y211955D01*
X238826Y212080D01*
X238876Y212205D01*
X238914Y212317D01*
X238951Y212417D01*
X238976Y212492D01*
X239001Y212554D01*
X239014Y212592D01*
Y212605D01*
X239126Y213042D01*
X239214Y213492D01*
X239276Y213929D01*
X239301Y214129D01*
X239326Y214329D01*
X239339Y214517D01*
X239351Y214679D01*
Y214829D01*
X239364Y214954D01*
Y215204D01*
X239339Y215829D01*
X239314Y216116D01*
X239289Y216404D01*
X239251Y216666D01*
X239201Y216916D01*
X239151Y217153D01*
X239114Y217366D01*
X239064Y217553D01*
X239014Y217728D01*
X238976Y217878D01*
X238926Y218003D01*
X238901Y218103D01*
X238876Y218178D01*
X238851Y218228D01*
Y218241D01*
X238639Y218715D01*
X238526Y218940D01*
X238402Y219153D01*
X238277Y219340D01*
X238152Y219515D01*
X238027Y219690D01*
X237914Y219840D01*
X237789Y219965D01*
X237689Y220090D01*
X237589Y220190D01*
X237502Y220278D01*
X237439Y220340D01*
X237389Y220390D01*
X237352Y220415D01*
X237339Y220427D01*
X237039Y220665D01*
X236714Y220852D01*
X236402Y221015D01*
X236102Y221140D01*
X235965Y221190D01*
X235840Y221240D01*
X235740Y221277D01*
X235640Y221302D01*
X235565Y221327D01*
X235502Y221340D01*
X235465Y221352D01*
X235452D01*
X235302Y221390D01*
X235127Y221415D01*
X234765Y221465D01*
X234390Y221490D01*
X234015Y221515D01*
X233853Y221527D01*
X233690D01*
X233553Y221540D01*
D02*
G37*
%LPD*%
G36*
X233678Y220015D02*
X233915Y220003D01*
X234128Y219990D01*
X234328Y219965D01*
X234515Y219940D01*
X234665Y219915D01*
X234815Y219903D01*
X234940Y219878D01*
X235052Y219853D01*
X235140Y219828D01*
X235215Y219803D01*
X235265Y219790D01*
X235302Y219778D01*
X235327Y219765D01*
X235340D01*
X235515Y219690D01*
X235677Y219590D01*
X235990Y219378D01*
X236265Y219140D01*
X236502Y218890D01*
X236689Y218665D01*
X236764Y218565D01*
X236839Y218478D01*
X236889Y218403D01*
X236927Y218353D01*
X236939Y218316D01*
X236952Y218303D01*
X237064Y218090D01*
X237177Y217866D01*
X237264Y217616D01*
X237339Y217366D01*
X237452Y216853D01*
X237502Y216603D01*
X237527Y216366D01*
X237564Y216129D01*
X237577Y215916D01*
X237589Y215729D01*
X237602Y215554D01*
X237614Y215416D01*
Y215316D01*
Y215254D01*
Y215229D01*
X237602Y214704D01*
X237589Y214466D01*
X237564Y214229D01*
X237539Y214017D01*
X237502Y213804D01*
X237477Y213617D01*
X237452Y213454D01*
X237414Y213292D01*
X237389Y213154D01*
X237352Y213042D01*
X237327Y212942D01*
X237314Y212854D01*
X237289Y212804D01*
X237277Y212767D01*
Y212754D01*
X237139Y212392D01*
X236989Y212080D01*
X236827Y211805D01*
X236677Y211567D01*
X236539Y211380D01*
X236477Y211317D01*
X236427Y211255D01*
X236390Y211205D01*
X236352Y211167D01*
X236339Y211155D01*
X236327Y211142D01*
X236152Y210992D01*
X235965Y210855D01*
X235777Y210742D01*
X235590Y210643D01*
X235427Y210567D01*
X235302Y210518D01*
X235252Y210492D01*
X235215Y210480D01*
X235190Y210467D01*
X235177D01*
X235040Y210430D01*
X234890Y210392D01*
X234565Y210343D01*
X234240Y210292D01*
X233915Y210268D01*
X233765D01*
X233628Y210255D01*
X233503D01*
X233403Y210243D01*
X230466D01*
Y220028D01*
X233428D01*
X233678Y220015D01*
D02*
G37*
%LPC*%
G36*
X504174Y172051D02*
X494914D01*
Y159242D01*
X504474D01*
Y160754D01*
X496613D01*
Y165116D01*
X503699D01*
Y166628D01*
X496613D01*
Y170539D01*
X504174D01*
Y172051D01*
D02*
G37*
G36*
X486566D02*
X484866D01*
Y159242D01*
X492864D01*
Y160754D01*
X486566D01*
Y172051D01*
D02*
G37*
G36*
X477968D02*
X472932D01*
Y159242D01*
X477806D01*
X478243Y159255D01*
X478643Y159279D01*
X478830Y159292D01*
X478993Y159305D01*
X479155Y159330D01*
X479293Y159354D01*
X479430Y159367D01*
X479543Y159392D01*
X479643Y159404D01*
X479718Y159417D01*
X479780Y159429D01*
X479830Y159442D01*
X479855Y159454D01*
X479868D01*
X480168Y159542D01*
X480443Y159642D01*
X480692Y159742D01*
X480892Y159842D01*
X481055Y159942D01*
X481180Y160017D01*
X481255Y160067D01*
X481280Y160079D01*
X481480Y160254D01*
X481667Y160442D01*
X481830Y160642D01*
X481955Y160829D01*
X482067Y161004D01*
X482155Y161141D01*
X482180Y161192D01*
X482205Y161229D01*
X482217Y161254D01*
Y161266D01*
X482342Y161566D01*
X482442Y161854D01*
X482505Y162141D01*
X482555Y162391D01*
X482579Y162616D01*
X482592Y162704D01*
X482604Y162791D01*
Y162941D01*
X482592Y163153D01*
X482579Y163353D01*
X482505Y163716D01*
X482405Y164053D01*
X482342Y164191D01*
X482292Y164328D01*
X482230Y164453D01*
X482167Y164566D01*
X482117Y164653D01*
X482067Y164728D01*
X482030Y164791D01*
X481992Y164841D01*
X481980Y164866D01*
X481967Y164878D01*
X481842Y165028D01*
X481717Y165166D01*
X481430Y165415D01*
X481130Y165615D01*
X480843Y165778D01*
X480580Y165903D01*
X480468Y165953D01*
X480368Y165990D01*
X480293Y166015D01*
X480230Y166040D01*
X480193Y166053D01*
X480180D01*
X480493Y166228D01*
X480768Y166415D01*
X481005Y166615D01*
X481192Y166803D01*
X481342Y166965D01*
X481442Y167090D01*
X481480Y167140D01*
X481505Y167178D01*
X481530Y167202D01*
Y167215D01*
X481680Y167490D01*
X481792Y167765D01*
X481867Y168027D01*
X481930Y168265D01*
X481955Y168465D01*
X481967Y168552D01*
Y168627D01*
X481980Y168690D01*
Y168727D01*
Y168752D01*
Y168765D01*
X481955Y169090D01*
X481905Y169402D01*
X481817Y169689D01*
X481730Y169939D01*
X481630Y170152D01*
X481592Y170239D01*
X481542Y170314D01*
X481517Y170377D01*
X481492Y170414D01*
X481467Y170439D01*
Y170452D01*
X481267Y170739D01*
X481042Y170977D01*
X480805Y171189D01*
X480592Y171351D01*
X480393Y171489D01*
X480305Y171539D01*
X480230Y171576D01*
X480168Y171614D01*
X480118Y171639D01*
X480093Y171651D01*
X480080D01*
X479905Y171726D01*
X479730Y171789D01*
X479343Y171889D01*
X478943Y171951D01*
X478568Y172001D01*
X478406Y172014D01*
X478243Y172026D01*
X478093Y172039D01*
X477968Y172051D01*
D02*
G37*
%LPD*%
G36*
X477656Y170527D02*
X477868D01*
X478068Y170514D01*
X478243Y170502D01*
X478393Y170477D01*
X478543Y170464D01*
X478668Y170452D01*
X478781Y170427D01*
X478868Y170414D01*
X478943Y170402D01*
X479005Y170377D01*
X479055Y170364D01*
X479093D01*
X479105Y170352D01*
X479118D01*
X479318Y170277D01*
X479493Y170177D01*
X479643Y170064D01*
X479768Y169952D01*
X479868Y169852D01*
X479943Y169764D01*
X479980Y169714D01*
X479993Y169689D01*
X480093Y169502D01*
X480168Y169314D01*
X480230Y169114D01*
X480268Y168939D01*
X480293Y168790D01*
X480305Y168677D01*
Y168627D01*
Y168590D01*
Y168577D01*
Y168565D01*
X480293Y168327D01*
X480255Y168102D01*
X480193Y167915D01*
X480143Y167752D01*
X480080Y167615D01*
X480018Y167527D01*
X479980Y167465D01*
X479968Y167440D01*
X479830Y167290D01*
X479680Y167153D01*
X479518Y167052D01*
X479368Y166952D01*
X479230Y166890D01*
X479105Y166840D01*
X479030Y166815D01*
X479018Y166803D01*
X479005D01*
X478905Y166778D01*
X478793Y166753D01*
X478543Y166728D01*
X478281Y166703D01*
X478018Y166678D01*
X477781D01*
X477668Y166665D01*
X474632D01*
Y170539D01*
X477431D01*
X477656Y170527D01*
D02*
G37*
G36*
X478018Y165140D02*
X478206Y165128D01*
X478393Y165116D01*
X478556Y165103D01*
X478705Y165078D01*
X478843Y165065D01*
X478968Y165040D01*
X479080Y165016D01*
X479180Y165003D01*
X479255Y164978D01*
X479330Y164965D01*
X479380Y164953D01*
X479418Y164940D01*
X479430Y164928D01*
X479443D01*
X479668Y164841D01*
X479880Y164728D01*
X480055Y164603D01*
X480205Y164478D01*
X480318Y164366D01*
X480405Y164278D01*
X480455Y164216D01*
X480468Y164191D01*
X480592Y163991D01*
X480692Y163778D01*
X480755Y163566D01*
X480805Y163378D01*
X480830Y163204D01*
X480855Y163078D01*
Y163029D01*
Y162991D01*
Y162966D01*
Y162953D01*
X480843Y162729D01*
X480817Y162529D01*
X480768Y162341D01*
X480730Y162179D01*
X480680Y162054D01*
X480630Y161954D01*
X480605Y161891D01*
X480592Y161866D01*
X480493Y161704D01*
X480380Y161566D01*
X480280Y161441D01*
X480180Y161341D01*
X480080Y161254D01*
X480005Y161204D01*
X479955Y161166D01*
X479943Y161154D01*
X479793Y161066D01*
X479630Y161004D01*
X479468Y160942D01*
X479305Y160892D01*
X479180Y160854D01*
X479068Y160829D01*
X478993Y160804D01*
X478968D01*
X478830Y160792D01*
X478656Y160779D01*
X478456Y160767D01*
X478268D01*
X478093Y160754D01*
X474632D01*
Y165153D01*
X477806D01*
X478018Y165140D01*
D02*
G37*
D10*
X465562Y203454D02*
G03*
X465562Y203454I-1250J0D01*
G01*
X301482Y140970D02*
G03*
X301482Y140970I-1000J0D01*
G01*
X414020Y188976D02*
G03*
X414020Y188976I-762J0D01*
G01*
X190734Y70612D02*
G03*
X190734Y70612I-1250J0D01*
G01*
X288778Y71120D02*
G03*
X288778Y71120I-1250J0D01*
G01*
X133640Y50906D02*
G03*
X133640Y50906I-1250J0D01*
G01*
X388326Y70358D02*
G03*
X388326Y70358I-1250J0D01*
G01*
X147300Y159690D02*
G03*
X147300Y159690I-1250J0D01*
G01*
D11*
X400000Y171958D02*
G03*
X400000Y171958I-1000J0D01*
G01*
X317430Y245167D02*
G03*
X317430Y245167I-1000J0D01*
G01*
X367694Y246144D02*
G03*
X367694Y246144I-1000J0D01*
G01*
X182292Y3274D02*
X272292D01*
X182292Y36024D02*
Y63274D01*
Y3274D02*
Y9524D01*
X257042Y63274D02*
X272292D01*
X182292D02*
X197542D01*
X272292Y36024D02*
Y63274D01*
Y3274D02*
Y9524D01*
X370426Y3274D02*
Y9524D01*
Y36024D02*
Y63274D01*
X280426D02*
X295676D01*
X355176D02*
X370426D01*
X280426Y3274D02*
Y9524D01*
Y36024D02*
Y63274D01*
Y3274D02*
X370426D01*
X137890Y27656D02*
Y43656D01*
X118890Y27656D02*
Y43656D01*
X29972Y73606D02*
Y98606D01*
X14972Y73606D02*
X29972D01*
X14972D02*
Y98606D01*
X29972D01*
X379434Y3274D02*
X469434D01*
X379434Y36024D02*
Y63274D01*
Y3274D02*
Y9524D01*
X454184Y63274D02*
X469434D01*
X379434D02*
X394684D01*
X469434Y36024D02*
Y63274D01*
Y3274D02*
Y9524D01*
X3514Y172130D02*
X11014D01*
X3514D02*
Y257130D01*
X11014D01*
X38514Y172130D02*
X51014D01*
X38514Y257130D02*
X51014D01*
X363930Y216650D02*
Y219150D01*
X361430D02*
X363930D01*
X293930Y216650D02*
Y219150D01*
X296430D01*
X363930Y149150D02*
Y151650D01*
X361430Y149150D02*
X363930D01*
X293930D02*
Y151650D01*
Y149150D02*
X296430D01*
D12*
X432816Y96774D02*
G03*
X432816Y96774I-1016J0D01*
G01*
X411750Y95392D02*
G03*
X411750Y95392I-1016J0D01*
G01*
X122174Y230124D02*
G03*
X122174Y230124I-1016J0D01*
G01*
X370840Y182372D02*
X372110Y184150D01*
X370806Y169672D02*
X370840Y182372D01*
X376231Y218129D02*
X380479Y222377D01*
X393192D01*
X388281Y218246D02*
X390888Y221970D01*
X393192Y222377D01*
X92962Y55421D02*
Y63039D01*
X96771D01*
X98040Y61769D01*
Y59230D01*
X96771Y57960D01*
X92962D01*
X95501D02*
X98040Y55421D01*
X100580Y61769D02*
X101849Y63039D01*
X104388D01*
X105658Y61769D01*
Y60500D01*
X104388Y59230D01*
X103119D01*
X104388D01*
X105658Y57960D01*
Y56691D01*
X104388Y55421D01*
X101849D01*
X100580Y56691D01*
X152974Y52565D02*
Y46217D01*
X154244Y44947D01*
X156783D01*
X158052Y46217D01*
Y52565D01*
X165670Y44947D02*
X160592D01*
X165670Y50026D01*
Y51295D01*
X164400Y52565D01*
X161861D01*
X160592Y51295D01*
X150940Y14969D02*
X149671Y16239D01*
X147132D01*
X145862Y14969D01*
Y9891D01*
X147132Y8621D01*
X149671D01*
X150940Y9891D01*
X158558Y16239D02*
X156019Y14969D01*
X153480Y12430D01*
Y9891D01*
X154749Y8621D01*
X157288D01*
X158558Y9891D01*
Y11160D01*
X157288Y12430D01*
X153480D01*
X460502Y76707D02*
X457963D01*
X459233D01*
Y70359D01*
X457963Y69089D01*
X456694D01*
X455424Y70359D01*
X463042Y75437D02*
X464311Y76707D01*
X466850D01*
X468120Y75437D01*
Y74168D01*
X466850Y72898D01*
X465581D01*
X466850D01*
X468120Y71628D01*
Y70359D01*
X466850Y69089D01*
X464311D01*
X463042Y70359D01*
X85292Y211329D02*
Y218947D01*
X89101D01*
X90370Y217677D01*
Y215138D01*
X89101Y213868D01*
X85292D01*
X87831D02*
X90370Y211329D01*
X92910Y218947D02*
X97988D01*
Y217677D01*
X92910Y212599D01*
Y211329D01*
X151468Y62521D02*
Y70139D01*
X155277D01*
X156546Y68869D01*
Y66330D01*
X155277Y65060D01*
X151468D01*
X154007D02*
X156546Y62521D01*
X162894D02*
Y70139D01*
X159086Y66330D01*
X164164D01*
X418846Y225551D02*
X417577Y226821D01*
X415038D01*
X413768Y225551D01*
Y220473D01*
X415038Y219203D01*
X417577D01*
X418846Y220473D01*
X426464Y219203D02*
X421386D01*
X426464Y224282D01*
Y225551D01*
X425194Y226821D01*
X422655D01*
X421386Y225551D01*
X158837Y155129D02*
X157568Y156399D01*
X155028D01*
X153759Y155129D01*
Y150051D01*
X155028Y148781D01*
X157568D01*
X158837Y150051D01*
X161376Y148781D02*
X163916D01*
X162646D01*
Y156399D01*
X161376Y155129D01*
X167724D02*
X168994Y156399D01*
X171533D01*
X172803Y155129D01*
Y150051D01*
X171533Y148781D01*
X168994D01*
X167724Y150051D01*
Y155129D01*
X134001Y191409D02*
X128923D01*
Y187600D01*
X131462D01*
X128923D01*
Y183791D01*
X136540Y191409D02*
Y183791D01*
X140349D01*
X141619Y185061D01*
Y186330D01*
X140349Y187600D01*
X136540D01*
X140349D01*
X141619Y188870D01*
Y190139D01*
X140349Y191409D01*
X136540D01*
X144158Y183791D02*
X146697D01*
X145428D01*
Y191409D01*
X144158Y190139D01*
X263907Y205993D02*
X262638Y207263D01*
X260098D01*
X258829Y205993D01*
Y200915D01*
X260098Y199645D01*
X262638D01*
X263907Y200915D01*
X271525Y199645D02*
X266446D01*
X271525Y204724D01*
Y205993D01*
X270255Y207263D01*
X267716D01*
X266446Y205993D01*
X274064Y199645D02*
X276603D01*
X275333D01*
Y207263D01*
X274064Y205993D01*
X106199Y178806D02*
X104929Y177536D01*
Y174997D01*
X106199Y173727D01*
X111277D01*
X112547Y174997D01*
Y177536D01*
X111277Y178806D01*
X106199Y181345D02*
X104929Y182614D01*
Y185154D01*
X106199Y186423D01*
X107468D01*
X108738Y185154D01*
X110007Y186423D01*
X111277D01*
X112547Y185154D01*
Y182614D01*
X111277Y181345D01*
X110007D01*
X108738Y182614D01*
X107468Y181345D01*
X106199D01*
X108738Y182614D02*
Y185154D01*
X271146Y270509D02*
X269876Y271779D01*
X267337D01*
X266068Y270509D01*
Y265431D01*
X267337Y264161D01*
X269876D01*
X271146Y265431D01*
X273685Y264161D02*
X276224D01*
X274955D01*
Y271779D01*
X273685Y270509D01*
X280033Y264161D02*
X282572D01*
X281303D01*
Y271779D01*
X280033Y270509D01*
X362204Y76707D02*
X359665D01*
X360935D01*
Y70359D01*
X359665Y69089D01*
X358396D01*
X357126Y70359D01*
X369822Y69089D02*
X364744D01*
X369822Y74168D01*
Y75437D01*
X368552Y76707D01*
X366013D01*
X364744Y75437D01*
X264160Y76707D02*
X261621D01*
X262890D01*
Y70359D01*
X261621Y69089D01*
X260351D01*
X259082Y70359D01*
X266699Y69089D02*
X269238D01*
X267969D01*
Y76707D01*
X266699Y75437D01*
X377839Y158644D02*
X379109Y159913D01*
Y162452D01*
X377839Y163722D01*
X372761D01*
X371491Y162452D01*
Y159913D01*
X372761Y158644D01*
X371491Y156104D02*
Y153565D01*
Y154835D01*
X379109D01*
X377839Y156104D01*
X379109Y144678D02*
Y149756D01*
X375300D01*
X376570Y147217D01*
Y145948D01*
X375300Y144678D01*
X372761D01*
X371491Y145948D01*
Y148487D01*
X372761Y149756D01*
X268957Y138539D02*
X267687Y139809D01*
X265148D01*
X263878Y138539D01*
Y133461D01*
X265148Y132191D01*
X267687D01*
X268957Y133461D01*
X271496Y132191D02*
X274035D01*
X272765D01*
Y139809D01*
X271496Y138539D01*
X281652Y132191D02*
Y139809D01*
X277844Y136000D01*
X282922D01*
X269915Y169914D02*
X268645Y171183D01*
X266106D01*
X264836Y169914D01*
Y164835D01*
X266106Y163566D01*
X268645D01*
X269915Y164835D01*
X272454Y163566D02*
X274993D01*
X273724D01*
Y171183D01*
X272454Y169914D01*
X278802D02*
X280071Y171183D01*
X282611D01*
X283880Y169914D01*
Y168644D01*
X282611Y167374D01*
X281341D01*
X282611D01*
X283880Y166105D01*
Y164835D01*
X282611Y163566D01*
X280071D01*
X278802Y164835D01*
X376430Y261365D02*
X381508Y253747D01*
Y261365D02*
X376430Y253747D01*
X389126D02*
X384048D01*
X389126Y258826D01*
Y260095D01*
X387856Y261365D01*
X385317D01*
X384048Y260095D01*
X316322Y134009D02*
X321400Y126391D01*
Y134009D02*
X316322Y126391D01*
X323939D02*
X326478D01*
X325209D01*
Y134009D01*
X323939Y132739D01*
X106652Y138059D02*
Y131711D01*
X107922Y130441D01*
X110461D01*
X111730Y131711D01*
Y138059D01*
X118078Y130441D02*
Y138059D01*
X114270Y134250D01*
X119348D01*
X50293Y80009D02*
X49024Y81279D01*
X46484D01*
X45215Y80009D01*
Y78740D01*
X46484Y77470D01*
X49024D01*
X50293Y76200D01*
Y74931D01*
X49024Y73661D01*
X46484D01*
X45215Y74931D01*
X52832Y81279D02*
Y73661D01*
X55372Y76200D01*
X57911Y73661D01*
Y81279D01*
X60450Y73661D02*
X62989D01*
X61719D01*
Y81279D01*
X60450Y80009D01*
X73154Y93473D02*
Y101091D01*
X76963D01*
X78232Y99821D01*
Y97282D01*
X76963Y96012D01*
X73154D01*
X75693D02*
X78232Y93473D01*
X80772Y94743D02*
X82041Y93473D01*
X84580D01*
X85850Y94743D01*
Y99821D01*
X84580Y101091D01*
X82041D01*
X80772Y99821D01*
Y98552D01*
X82041Y97282D01*
X85850D01*
X53902Y120941D02*
Y128559D01*
X57711D01*
X58980Y127289D01*
Y124750D01*
X57711Y123480D01*
X53902D01*
X56441D02*
X58980Y120941D01*
X61520Y127289D02*
X62789Y128559D01*
X65328D01*
X66598Y127289D01*
Y126020D01*
X65328Y124750D01*
X66598Y123480D01*
Y122211D01*
X65328Y120941D01*
X62789D01*
X61520Y122211D01*
Y123480D01*
X62789Y124750D01*
X61520Y126020D01*
Y127289D01*
X62789Y124750D02*
X65328D01*
X85292Y182101D02*
Y189719D01*
X89101D01*
X90370Y188449D01*
Y185910D01*
X89101Y184640D01*
X85292D01*
X87831D02*
X90370Y182101D01*
X97988Y189719D02*
X95449Y188449D01*
X92910Y185910D01*
Y183371D01*
X94179Y182101D01*
X96718D01*
X97988Y183371D01*
Y184640D01*
X96718Y185910D01*
X92910D01*
X397512Y148083D02*
Y155701D01*
X401321D01*
X402590Y154431D01*
Y151892D01*
X401321Y150622D01*
X397512D01*
X400051D02*
X402590Y148083D01*
X410208Y155701D02*
X405130D01*
Y151892D01*
X407669Y153162D01*
X408938D01*
X410208Y151892D01*
Y149353D01*
X408938Y148083D01*
X406399D01*
X405130Y149353D01*
X440692Y109983D02*
Y117601D01*
X444501D01*
X445770Y116331D01*
Y113792D01*
X444501Y112522D01*
X440692D01*
X443231D02*
X445770Y109983D01*
X453388D02*
X448310D01*
X453388Y115062D01*
Y116331D01*
X452118Y117601D01*
X449579D01*
X448310Y116331D01*
X398782Y103887D02*
Y111505D01*
X402590D01*
X403860Y110235D01*
Y107696D01*
X402590Y106426D01*
X398782D01*
X401321D02*
X403860Y103887D01*
X406399D02*
X408938D01*
X407669D01*
Y111505D01*
X406399Y110235D01*
X352554Y263905D02*
Y256287D01*
X357632D01*
X360172Y262635D02*
X361441Y263905D01*
X363980D01*
X365250Y262635D01*
Y261366D01*
X363980Y260096D01*
X362711D01*
X363980D01*
X365250Y258826D01*
Y257557D01*
X363980Y256287D01*
X361441D01*
X360172Y257557D01*
X323652Y249659D02*
Y242041D01*
X328730D01*
X336348D02*
X331270D01*
X336348Y247120D01*
Y248389D01*
X335078Y249659D01*
X332539D01*
X331270Y248389D01*
X414722Y211409D02*
Y203791D01*
X419800D01*
X422339D02*
X424878D01*
X423609D01*
Y211409D01*
X422339Y210139D01*
X10480Y162059D02*
X7941D01*
X9211D01*
Y155711D01*
X7941Y154441D01*
X6672D01*
X5402Y155711D01*
X18098Y162059D02*
X15559Y160789D01*
X13020Y158250D01*
Y155711D01*
X14289Y154441D01*
X16828D01*
X18098Y155711D01*
Y156980D01*
X16828Y158250D01*
X13020D01*
X487172Y229615D02*
X484633D01*
X485903D01*
Y223267D01*
X484633Y221997D01*
X483364D01*
X482094Y223267D01*
X494790Y229615D02*
X489712D01*
Y225806D01*
X492251Y227076D01*
X493520D01*
X494790Y225806D01*
Y223267D01*
X493520Y221997D01*
X490981D01*
X489712Y223267D01*
X217932Y203707D02*
X215393D01*
X216663D01*
Y197359D01*
X215393Y196089D01*
X214124D01*
X212854Y197359D01*
X224280Y196089D02*
Y203707D01*
X220472Y199898D01*
X225550D01*
X129542Y234695D02*
Y228347D01*
X130812Y227077D01*
X133351D01*
X134620Y228347D01*
Y234695D01*
X137160Y233425D02*
X138429Y234695D01*
X140968D01*
X142238Y233425D01*
Y232156D01*
X140968Y230886D01*
X139699D01*
X140968D01*
X142238Y229616D01*
Y228347D01*
X140968Y227077D01*
X138429D01*
X137160Y228347D01*
X447042Y188975D02*
X452120D01*
X449581D01*
Y181357D01*
X454659D02*
X457198D01*
X455929D01*
Y188975D01*
X454659Y187705D01*
X405386Y175259D02*
Y167641D01*
X409195D01*
X410464Y168911D01*
Y173989D01*
X409195Y175259D01*
X405386D01*
X413004Y173989D02*
X414273Y175259D01*
X416812D01*
X418082Y173989D01*
Y172720D01*
X416812Y171450D01*
X415543D01*
X416812D01*
X418082Y170180D01*
Y168911D01*
X416812Y167641D01*
X414273D01*
X413004Y168911D01*
X386590Y91439D02*
Y83821D01*
X390399D01*
X391668Y85091D01*
Y90169D01*
X390399Y91439D01*
X386590D01*
X399286Y83821D02*
X394208D01*
X399286Y88900D01*
Y90169D01*
X398016Y91439D01*
X395477D01*
X394208Y90169D01*
X449582Y91439D02*
Y83821D01*
X453390D01*
X454660Y85091D01*
Y90169D01*
X453390Y91439D01*
X449582D01*
X457199Y83821D02*
X459738D01*
X458469D01*
Y91439D01*
X457199Y90169D01*
X370333Y111254D02*
X369063Y109984D01*
Y107445D01*
X370333Y106175D01*
X375411D01*
X376681Y107445D01*
Y109984D01*
X375411Y111254D01*
X376681Y118871D02*
Y113793D01*
X371602Y118871D01*
X370333D01*
X369063Y117602D01*
Y115062D01*
X370333Y113793D01*
X376681Y125219D02*
X369063D01*
X372872Y121410D01*
Y126489D01*
X342922Y131989D02*
X341652Y133259D01*
X339113D01*
X337843Y131989D01*
Y126911D01*
X339113Y125641D01*
X341652D01*
X342922Y126911D01*
X350539Y125641D02*
X345461D01*
X350539Y130720D01*
Y131989D01*
X349270Y133259D01*
X346730D01*
X345461Y131989D01*
X353078D02*
X354348Y133259D01*
X356887D01*
X358157Y131989D01*
Y130720D01*
X356887Y129450D01*
X355618D01*
X356887D01*
X358157Y128180D01*
Y126911D01*
X356887Y125641D01*
X354348D01*
X353078Y126911D01*
X351792Y235203D02*
X350522Y236473D01*
X347983D01*
X346713Y235203D01*
Y230125D01*
X347983Y228855D01*
X350522D01*
X351792Y230125D01*
X359409Y228855D02*
X354331D01*
X359409Y233934D01*
Y235203D01*
X358140Y236473D01*
X355600D01*
X354331Y235203D01*
X367027Y228855D02*
X361948D01*
X367027Y233934D01*
Y235203D01*
X365757Y236473D01*
X363218D01*
X361948Y235203D01*
X269572Y114589D02*
X268302Y115859D01*
X265763D01*
X264493Y114589D01*
Y109511D01*
X265763Y108241D01*
X268302D01*
X269572Y109511D01*
X277189Y108241D02*
X272111D01*
X277189Y113320D01*
Y114589D01*
X275920Y115859D01*
X273380D01*
X272111Y114589D01*
X279728D02*
X280998Y115859D01*
X283537D01*
X284807Y114589D01*
Y109511D01*
X283537Y108241D01*
X280998D01*
X279728Y109511D01*
Y114589D01*
X320422Y114045D02*
X319153Y115315D01*
X316614D01*
X315344Y114045D01*
Y108967D01*
X316614Y107697D01*
X319153D01*
X320422Y108967D01*
X322962Y107697D02*
X325501D01*
X324231D01*
Y115315D01*
X322962Y114045D01*
X329310Y108967D02*
X330579Y107697D01*
X333118D01*
X334388Y108967D01*
Y114045D01*
X333118Y115315D01*
X330579D01*
X329310Y114045D01*
Y112776D01*
X330579Y111506D01*
X334388D01*
X269876Y257724D02*
X268607Y258994D01*
X266068D01*
X264798Y257724D01*
Y252646D01*
X266068Y251377D01*
X268607D01*
X269876Y252646D01*
X272416Y251377D02*
X274955D01*
X273685D01*
Y258994D01*
X272416Y257724D01*
X278764D02*
X280033Y258994D01*
X282572D01*
X283842Y257724D01*
Y256455D01*
X282572Y255185D01*
X283842Y253916D01*
Y252646D01*
X282572Y251377D01*
X280033D01*
X278764Y252646D01*
Y253916D01*
X280033Y255185D01*
X278764Y256455D01*
Y257724D01*
X280033Y255185D02*
X282572D01*
X88852Y120943D02*
X87583Y122213D01*
X85043D01*
X83774Y120943D01*
Y115865D01*
X85043Y114595D01*
X87583D01*
X88852Y115865D01*
X91391Y114595D02*
X93931D01*
X92661D01*
Y122213D01*
X91391Y120943D01*
X102818Y122213D02*
X100279Y120943D01*
X97739Y118404D01*
Y115865D01*
X99009Y114595D01*
X101548D01*
X102818Y115865D01*
Y117134D01*
X101548Y118404D01*
X97739D01*
X269876Y244940D02*
X268607Y246209D01*
X266068D01*
X264798Y244940D01*
Y239862D01*
X266068Y238592D01*
X268607D01*
X269876Y239862D01*
X272416Y238592D02*
X274955D01*
X273685D01*
Y246209D01*
X272416Y244940D01*
X278764Y246209D02*
X283842D01*
Y244940D01*
X278764Y239862D01*
Y238592D01*
X269876Y232155D02*
X268607Y233425D01*
X266068D01*
X264798Y232155D01*
Y227077D01*
X266068Y225807D01*
X268607D01*
X269876Y227077D01*
X272416Y225807D02*
X274955D01*
X273685D01*
Y233425D01*
X272416Y232155D01*
X283842Y225807D02*
X278764D01*
X283842Y230886D01*
Y232155D01*
X282572Y233425D01*
X280033D01*
X278764Y232155D01*
X173228Y130901D02*
X171959Y132171D01*
X169420D01*
X168150Y130901D01*
Y125823D01*
X169420Y124553D01*
X171959D01*
X173228Y125823D01*
X175768Y132171D02*
X180846D01*
Y130901D01*
X175768Y125823D01*
Y124553D01*
X94610Y165209D02*
X93341Y166479D01*
X90802D01*
X89532Y165209D01*
Y160131D01*
X90802Y158861D01*
X93341D01*
X94610Y160131D01*
X97150D02*
X98419Y158861D01*
X100958D01*
X102228Y160131D01*
Y165209D01*
X100958Y166479D01*
X98419D01*
X97150Y165209D01*
Y163940D01*
X98419Y162670D01*
X102228D01*
X179070Y99821D02*
X177801Y101091D01*
X175262D01*
X173992Y99821D01*
Y94743D01*
X175262Y93473D01*
X177801D01*
X179070Y94743D01*
X186688Y101091D02*
X181610D01*
Y97282D01*
X184149Y98552D01*
X185418D01*
X186688Y97282D01*
Y94743D01*
X185418Y93473D01*
X182879D01*
X181610Y94743D01*
X432308Y178561D02*
X431039Y179831D01*
X428500D01*
X427230Y178561D01*
Y173483D01*
X428500Y172213D01*
X431039D01*
X432308Y173483D01*
X438656Y172213D02*
Y179831D01*
X434848Y176022D01*
X439926D01*
X401830Y210139D02*
X400561Y211409D01*
X398022D01*
X396752Y210139D01*
Y205061D01*
X398022Y203791D01*
X400561D01*
X401830Y205061D01*
X404370Y210139D02*
X405639Y211409D01*
X408178D01*
X409448Y210139D01*
Y208870D01*
X408178Y207600D01*
X406909D01*
X408178D01*
X409448Y206330D01*
Y205061D01*
X408178Y203791D01*
X405639D01*
X404370Y205061D01*
X403352Y225551D02*
X402082Y226821D01*
X399543D01*
X398274Y225551D01*
Y220473D01*
X399543Y219203D01*
X402082D01*
X403352Y220473D01*
X405891Y219203D02*
X408430D01*
X407161D01*
Y226821D01*
X405891Y225551D01*
X275253Y220090D02*
Y213953D01*
X276480Y212726D01*
X278935D01*
X280162Y213953D01*
Y220090D01*
X282617Y212726D02*
X285071D01*
X283844D01*
Y220090D01*
X282617Y218863D01*
D13*
X505970Y106440D02*
X504700Y105171D01*
Y102632D01*
X505970Y101362D01*
X511048D01*
X512318Y102632D01*
Y105171D01*
X511048Y106440D01*
X508509D01*
Y103901D01*
X512318Y108980D02*
X504700D01*
X512318Y114058D01*
X504700D01*
Y116597D02*
X512318D01*
Y120406D01*
X511048Y121675D01*
X505970D01*
X504700Y120406D01*
Y116597D01*
X468410Y101362D02*
X467141Y102632D01*
Y105171D01*
X468410Y106440D01*
X469680D01*
X470949Y105171D01*
Y103901D01*
Y105171D01*
X472219Y106440D01*
X473488D01*
X474758Y105171D01*
Y102632D01*
X473488Y101362D01*
X467141Y108980D02*
X472219D01*
X474758Y111519D01*
X472219Y114058D01*
X467141D01*
X468410Y116597D02*
X467141Y117867D01*
Y120406D01*
X468410Y121675D01*
X469680D01*
X470949Y120406D01*
Y119136D01*
Y120406D01*
X472219Y121675D01*
X473488D01*
X474758Y120406D01*
Y117867D01*
X473488Y116597D01*
X479660Y101362D02*
Y106440D01*
Y103901D01*
X487278D01*
X479660Y108980D02*
X487278Y114058D01*
X479660D02*
X487278Y108980D01*
X499798Y101362D02*
X492180D01*
Y105171D01*
X493450Y106440D01*
X495989D01*
X497259Y105171D01*
Y101362D01*
Y103901D02*
X499798Y106440D01*
X492180Y108980D02*
X499798Y114058D01*
X492180D02*
X499798Y108980D01*
X247578Y108250D02*
X246308Y106981D01*
Y104442D01*
X247578Y103172D01*
X252656D01*
X253925Y104442D01*
Y106981D01*
X252656Y108250D01*
X250117D01*
Y105711D01*
X253925Y110789D02*
X246308D01*
X253925Y115868D01*
X246308D01*
Y118407D02*
X253925D01*
Y122216D01*
X252656Y123485D01*
X247578D01*
X246308Y122216D01*
Y118407D01*
X232578Y108250D02*
X231308Y106981D01*
Y104442D01*
X232578Y103172D01*
X233847D01*
X235117Y104442D01*
Y106981D01*
X236386Y108250D01*
X237656D01*
X238925Y106981D01*
Y104442D01*
X237656Y103172D01*
X231308Y110789D02*
X238925D01*
Y114598D01*
X237656Y115868D01*
X232578D01*
X231308Y114598D01*
Y110789D01*
X238925Y118407D02*
X233847D01*
X231308Y120946D01*
X233847Y123485D01*
X238925D01*
X235117D01*
Y118407D01*
X217578Y108250D02*
X216308Y106981D01*
Y104442D01*
X217578Y103172D01*
X218847D01*
X220117Y104442D01*
Y106981D01*
X221386Y108250D01*
X222656D01*
X223925Y106981D01*
Y104442D01*
X222656Y103172D01*
X217578Y115868D02*
X216308Y114598D01*
Y112059D01*
X217578Y110789D01*
X222656D01*
X223925Y112059D01*
Y114598D01*
X222656Y115868D01*
X216308Y118407D02*
X223925D01*
Y123485D01*
X202533Y103172D02*
X201264Y104442D01*
Y106981D01*
X202533Y108250D01*
X203803D01*
X205072Y106981D01*
Y105711D01*
Y106981D01*
X206342Y108250D01*
X207612D01*
X208881Y106981D01*
Y104442D01*
X207612Y103172D01*
X201264Y110789D02*
X206342D01*
X208881Y113329D01*
X206342Y115868D01*
X201264D01*
X202533Y118407D02*
X201264Y119677D01*
Y122216D01*
X202533Y123485D01*
X203803D01*
X205072Y122216D01*
Y120946D01*
Y122216D01*
X206342Y123485D01*
X207612D01*
X208881Y122216D01*
Y119677D01*
X207612Y118407D01*
M02*
