G04*
G04 #@! TF.GenerationSoftware,Altium Limited,Altium Designer,23.0.1 (38)*
G04*
G04 Layer_Color=32896*
%FSLAX44Y44*%
%MOMM*%
G71*
G04*
G04 #@! TF.SameCoordinates,AA057BD2-FAE9-475E-A33E-1B252B641246*
G04*
G04*
G04 #@! TF.FilePolarity,Positive*
G04*
G01*
G75*
G36*
X218977Y270003D02*
X217727D01*
Y270957D01*
Y270990D01*
Y271253D01*
X218977D01*
Y270003D01*
D02*
G37*
G36*
X227794Y268753D02*
X226511D01*
Y271253D01*
X227794D01*
Y268753D01*
D02*
G37*
G36*
X221510Y269115D02*
Y269082D01*
Y268753D01*
X220260D01*
Y271253D01*
X221510D01*
Y269115D01*
D02*
G37*
G36*
X215227Y270003D02*
X216477D01*
Y268753D01*
X215227D01*
Y270003D01*
X211444D01*
Y271122D01*
Y271154D01*
Y271253D01*
X215227D01*
Y270003D01*
D02*
G37*
G36*
X225260Y267503D02*
X227794D01*
Y266253D01*
X226511D01*
Y264542D01*
Y264509D01*
Y263720D01*
X227794D01*
Y261220D01*
X231544D01*
Y258720D01*
X232794D01*
Y257469D01*
X234044D01*
Y256186D01*
X235327D01*
Y254936D01*
X236577D01*
Y252732D01*
Y252699D01*
Y252436D01*
X237827D01*
Y251745D01*
Y251712D01*
Y251186D01*
X236577D01*
Y252436D01*
X235327D01*
Y254936D01*
X234044D01*
Y256186D01*
X230294D01*
Y257469D01*
X229044D01*
Y258720D01*
X227794D01*
Y257469D01*
X229044D01*
Y256186D01*
X230294D01*
Y254936D01*
X234044D01*
Y253686D01*
X230294D01*
Y254936D01*
X227794D01*
Y252436D01*
X229044D01*
Y251186D01*
X231544D01*
Y249936D01*
X229044D01*
Y250166D01*
Y250199D01*
Y251186D01*
X227794D01*
Y252436D01*
X226511D01*
Y256186D01*
X225260D01*
Y258720D01*
X224010D01*
Y259970D01*
X225260D01*
Y261220D01*
X226511D01*
Y259970D01*
X227794D01*
Y261220D01*
X226511D01*
Y263720D01*
X225260D01*
Y265003D01*
X224010D01*
Y266253D01*
X221510D01*
Y267503D01*
X224010D01*
Y266253D01*
X225260D01*
Y267503D01*
X224010D01*
Y270003D01*
X225260D01*
Y267503D01*
D02*
G37*
G36*
X218977D02*
X220260D01*
Y265003D01*
X221510D01*
Y263720D01*
X222760D01*
Y262470D01*
X224010D01*
Y261220D01*
X222760D01*
Y262470D01*
X221510D01*
Y262897D01*
Y262930D01*
Y263720D01*
X220260D01*
Y265003D01*
X216477D01*
Y263720D01*
X217727D01*
Y257469D01*
X215227D01*
Y258720D01*
X211444D01*
Y259970D01*
X213977D01*
Y261220D01*
X215227D01*
Y262470D01*
X213977D01*
Y263720D01*
X212727D01*
Y266253D01*
X211444D01*
Y267503D01*
X212727D01*
Y266253D01*
X213977D01*
Y265003D01*
X215227D01*
Y267503D01*
X213977D01*
Y268753D01*
X215227D01*
Y267898D01*
Y267865D01*
Y267503D01*
X216477D01*
Y266253D01*
X218977D01*
Y267503D01*
X217727D01*
Y268753D01*
X218977D01*
Y267503D01*
D02*
G37*
G36*
X237827Y263161D02*
Y263128D01*
Y262470D01*
X229044D01*
Y271253D01*
X237827D01*
Y263161D01*
D02*
G37*
G36*
X225260Y262470D02*
X224010D01*
Y263720D01*
X225260D01*
Y262470D01*
D02*
G37*
G36*
X220260D02*
X218977D01*
Y263029D01*
Y263062D01*
Y263720D01*
X220260D01*
Y262470D01*
D02*
G37*
G36*
X212727D02*
X211444D01*
Y263720D01*
X212727D01*
Y262470D01*
D02*
G37*
G36*
X210194D02*
X201410D01*
Y271154D01*
Y271187D01*
Y271253D01*
X210194D01*
Y262470D01*
D02*
G37*
G36*
X237827Y259970D02*
X236577D01*
Y260200D01*
Y260233D01*
Y261220D01*
X237827D01*
Y259970D01*
D02*
G37*
G36*
X210194Y258720D02*
X211444D01*
Y256186D01*
X208944D01*
Y257469D01*
X207694D01*
Y258720D01*
X206443D01*
Y259970D01*
X205193D01*
Y261220D01*
X206443D01*
Y260068D01*
Y260035D01*
Y259970D01*
X208944D01*
Y261220D01*
X210194D01*
Y258720D01*
D02*
G37*
G36*
X203910Y259970D02*
X202660D01*
Y259739D01*
Y259706D01*
Y258720D01*
X205193D01*
Y257469D01*
X202660D01*
Y258720D01*
X201410D01*
Y261220D01*
X203910D01*
Y259970D01*
D02*
G37*
G36*
X221510D02*
X222760D01*
Y258720D01*
X224010D01*
Y257469D01*
X222760D01*
Y256186D01*
X221510D01*
Y257469D01*
X220260D01*
Y258720D01*
X218977D01*
Y259970D01*
X220260D01*
Y261220D01*
X221510D01*
Y259970D01*
D02*
G37*
G36*
X207694Y256186D02*
X206443D01*
Y257469D01*
X207694D01*
Y256186D01*
D02*
G37*
G36*
X202660D02*
X201410D01*
Y257469D01*
X202660D01*
Y256186D01*
D02*
G37*
G36*
X235327Y259970D02*
X236577D01*
Y258720D01*
X237827D01*
Y254936D01*
X236577D01*
Y256186D01*
X235327D01*
Y257469D01*
X234044D01*
Y258720D01*
X232794D01*
Y261220D01*
X235327D01*
Y259970D01*
D02*
G37*
G36*
X230294Y252436D02*
X229044D01*
Y253686D01*
X230294D01*
Y252436D01*
D02*
G37*
G36*
X215227Y256186D02*
X216477D01*
Y254936D01*
X217727D01*
Y256186D01*
X220260D01*
Y253686D01*
X221510D01*
Y254936D01*
X224010D01*
Y252436D01*
X225260D01*
Y251186D01*
X227794D01*
Y248653D01*
X224010D01*
Y247403D01*
X221510D01*
Y244903D01*
X217727D01*
Y241120D01*
X218977D01*
Y238619D01*
X217727D01*
Y237369D01*
X213977D01*
Y238619D01*
X212727D01*
Y239869D01*
X211444D01*
Y238619D01*
X212727D01*
Y236119D01*
X215227D01*
Y234869D01*
X208944D01*
Y236119D01*
X207694D01*
Y238619D01*
X205193D01*
Y239869D01*
X203910D01*
Y241120D01*
X205193D01*
Y239869D01*
X206443D01*
Y241120D01*
X205193D01*
Y243653D01*
X203910D01*
Y242403D01*
X202660D01*
Y243653D01*
X201410D01*
Y244903D01*
X203910D01*
Y248653D01*
X202660D01*
Y252436D01*
X201410D01*
Y254936D01*
X203910D01*
Y256186D01*
X206443D01*
Y254936D01*
X205193D01*
Y252436D01*
X203910D01*
Y249936D01*
X205193D01*
Y251186D01*
X206443D01*
Y252436D01*
X208944D01*
Y254936D01*
X210194D01*
Y252436D01*
X211444D01*
Y253686D01*
X215227D01*
Y252436D01*
X213977D01*
Y251186D01*
X216477D01*
Y254936D01*
X213977D01*
Y256186D01*
X212727D01*
Y257469D01*
X215227D01*
Y256186D01*
D02*
G37*
G36*
X235327Y251186D02*
X236577D01*
Y249936D01*
X235327D01*
Y251054D01*
Y251087D01*
Y251186D01*
X234044D01*
Y252436D01*
X235327D01*
Y251186D01*
D02*
G37*
G36*
X237827Y247403D02*
X236577D01*
Y248653D01*
X237827D01*
Y247403D01*
D02*
G37*
G36*
X232794Y251186D02*
X234044D01*
Y249870D01*
Y249837D01*
Y247403D01*
X235327D01*
Y246153D01*
X236577D01*
Y246120D01*
Y246087D01*
Y244903D01*
X235327D01*
Y246153D01*
X234044D01*
Y247403D01*
X232794D01*
Y246153D01*
X234044D01*
Y245758D01*
Y245725D01*
Y244903D01*
X232794D01*
Y246153D01*
X230294D01*
Y247403D01*
X229044D01*
Y248653D01*
X232794D01*
Y251186D01*
X231544D01*
Y251219D01*
Y251252D01*
Y252436D01*
X232794D01*
Y251186D01*
D02*
G37*
G36*
X227794Y246153D02*
X230294D01*
Y244903D01*
X227794D01*
Y246153D01*
X226511D01*
Y244903D01*
X227794D01*
Y241120D01*
X226511D01*
Y241317D01*
Y241350D01*
Y244903D01*
X222760D01*
Y246153D01*
X225260D01*
Y247403D01*
X227794D01*
Y246153D01*
D02*
G37*
G36*
X224010Y243159D02*
Y243126D01*
Y242403D01*
X222760D01*
Y243653D01*
X224010D01*
Y243159D01*
D02*
G37*
G36*
X202660Y241120D02*
X201410D01*
Y242008D01*
Y242041D01*
Y242403D01*
X202660D01*
Y241120D01*
D02*
G37*
G36*
X220260Y242403D02*
X222760D01*
Y241120D01*
X226511D01*
Y239869D01*
X227794D01*
Y237369D01*
X224010D01*
Y236119D01*
X225260D01*
Y234869D01*
X224010D01*
Y236119D01*
X222760D01*
Y234869D01*
X221510D01*
Y236119D01*
X218977D01*
Y237369D01*
X221510D01*
Y238619D01*
X220260D01*
Y239869D01*
X222760D01*
Y238619D01*
X224010D01*
Y239869D01*
X222760D01*
Y241120D01*
X218977D01*
Y243653D01*
X220260D01*
Y242403D01*
D02*
G37*
G36*
X205193Y237369D02*
X206443D01*
Y236119D01*
X205193D01*
Y237369D01*
X203910D01*
Y238619D01*
X205193D01*
Y237369D01*
D02*
G37*
G36*
X237827Y235922D02*
Y235889D01*
Y234869D01*
X229044D01*
Y243653D01*
X237827D01*
Y235922D01*
D02*
G37*
G36*
X227794Y234869D02*
X226511D01*
Y235560D01*
Y235593D01*
Y236119D01*
X227794D01*
Y234869D01*
D02*
G37*
G36*
X217727D02*
X216477D01*
Y235593D01*
Y235626D01*
Y236119D01*
X217727D01*
Y234869D01*
D02*
G37*
G36*
X202660Y237369D02*
X203910D01*
Y234869D01*
X202660D01*
Y237369D01*
X201410D01*
Y239869D01*
X202660D01*
Y237369D01*
D02*
G37*
%LPC*%
G36*
X230294Y259970D02*
X229044D01*
Y258720D01*
X230294D01*
Y259970D01*
D02*
G37*
G36*
X227794Y257469D02*
X226511D01*
Y256186D01*
X227794D01*
Y257469D01*
D02*
G37*
G36*
X216477Y263720D02*
X215227D01*
Y262470D01*
X216477D01*
Y263720D01*
D02*
G37*
G36*
X236577Y270003D02*
X230294D01*
Y263720D01*
X236577D01*
Y264147D01*
Y264180D01*
Y270003D01*
D02*
G37*
%LPD*%
G36*
X235327Y265003D02*
X231544D01*
Y268753D01*
X235327D01*
Y265003D01*
D02*
G37*
%LPC*%
G36*
X208944Y270003D02*
X202660D01*
Y263720D01*
X208944D01*
Y270003D01*
D02*
G37*
%LPD*%
G36*
X207694Y265431D02*
Y265398D01*
Y265003D01*
X203910D01*
Y268753D01*
X207694D01*
Y265431D01*
D02*
G37*
%LPC*%
G36*
X210194Y258720D02*
X208944D01*
Y257469D01*
X210194D01*
Y258720D01*
D02*
G37*
G36*
X235327Y259970D02*
X234044D01*
Y258818D01*
Y258785D01*
Y258720D01*
X235327D01*
Y258489D01*
Y258456D01*
Y257469D01*
X236577D01*
Y257535D01*
Y257568D01*
Y258720D01*
X235327D01*
Y259970D01*
D02*
G37*
G36*
X220260Y253686D02*
X217727D01*
Y252436D01*
X220260D01*
Y253686D01*
D02*
G37*
G36*
X222760Y252436D02*
X220260D01*
Y248653D01*
X221510D01*
Y249936D01*
X224010D01*
Y251186D01*
X222760D01*
Y252436D01*
D02*
G37*
G36*
X207694Y249936D02*
X206443D01*
Y248653D01*
X207694D01*
Y249936D01*
D02*
G37*
G36*
X218977Y251186D02*
X216477D01*
Y247403D01*
X217727D01*
Y246153D01*
X218977D01*
Y247403D01*
X217727D01*
Y249936D01*
X218977D01*
Y251186D01*
D02*
G37*
G36*
X206443Y248653D02*
X205193D01*
Y246153D01*
X206443D01*
Y248653D01*
D02*
G37*
G36*
X211444Y251186D02*
X207694D01*
Y249936D01*
X208944D01*
Y248653D01*
X210194D01*
Y246153D01*
X212727D01*
Y244903D01*
Y244870D01*
Y243653D01*
X213977D01*
Y246153D01*
X215227D01*
Y249936D01*
X211444D01*
Y251186D01*
D02*
G37*
G36*
Y244903D02*
X207694D01*
Y244113D01*
Y244080D01*
Y241120D01*
X211444D01*
Y244903D01*
D02*
G37*
G36*
X216477Y243653D02*
X215227D01*
Y241120D01*
X216477D01*
Y239869D01*
X217727D01*
Y241120D01*
X216477D01*
Y243653D01*
D02*
G37*
G36*
X213977Y242403D02*
X212727D01*
Y239869D01*
X213977D01*
Y238619D01*
X216477D01*
Y239869D01*
X215227D01*
Y241120D01*
X213977D01*
Y242403D01*
D02*
G37*
G36*
X210194Y239869D02*
X208944D01*
Y236119D01*
X210194D01*
Y237369D01*
X211444D01*
Y238619D01*
X210194D01*
Y239869D01*
D02*
G37*
%LPD*%
G36*
X212727Y247403D02*
X211444D01*
Y248587D01*
Y248620D01*
Y248653D01*
X212727D01*
Y247403D01*
D02*
G37*
G36*
X210194Y242403D02*
X208944D01*
Y243653D01*
X210194D01*
Y242403D01*
D02*
G37*
%LPC*%
G36*
X236577D02*
X230294D01*
Y238126D01*
Y238093D01*
Y236119D01*
X236577D01*
Y242403D01*
D02*
G37*
%LPD*%
G36*
X235327Y237369D02*
X231544D01*
Y241120D01*
X235327D01*
Y237369D01*
D02*
G37*
M02*
