M48
;Layer_Color=9474304
;FILE_FORMAT=2:4
METRIC,LZ
;TYPE=PLATED
T1F00S00C0.2000
T2F00S00C0.2500
T3F00S00C0.3000
T5F00S00C2.0000
;TYPE=NON_PLATED
T6F00S00C0.6500
T7F00S00C1.0670
T8F00S00C2.4000
%
T01
X016256Y017526
X02528Y013716
X034036Y017526
X037846Y026416
X03485Y03527
X02528Y039206
X016156Y035256
X012446Y02667
X480314
X484124Y03556
X493014Y03937
X501904Y03556
X505714Y02667
X501904Y01778
X493014Y01397
X484124Y01778
Y250444
X480314Y259334
X484124Y268224
X493014Y272034
X501904Y268224
X505714Y259334
X501904Y250444
X493014Y246634
X108966Y25019
X100076Y24638
X091186Y25019
X087376Y25908
X091186Y26797
X100076Y27178
X108966Y26797
X112776Y25908
T02
X376322Y182118
X403606Y20828
X39751Y21936
T03
X035448Y059436
X064875Y06867
X089875
Y087927
X114875
X11439Y06958
X089875Y04367
Y01867
X115888Y013304
X064875Y04367
X055594Y086868
X022606Y085344
X102108Y10795
X089252Y121106
X132842Y108458
X136754Y13462
X172974Y12319
X165608Y109173
X194056
X196088Y126746
X218948Y122988
X249428Y119178
X272542
X271526Y139954
X28213Y139446
X29222Y099822
X30722
X337566Y10922
X349825Y097418
X344469Y084836
X332926
X374142Y089662
X375345Y10842
X372043Y11842
X38989Y13843
X422125Y13133
X447125
X472125
X497125
Y10633
Y08133
X473202Y081788
X472125Y10633
X441934Y097282
X406934Y09779
X401934Y040132
X394716Y022774
X426212
X45466
X446934Y043688
X497125Y05633
X347926Y037846
X3548Y022774
X324612
X295364
X302926Y037846
X249792Y0381
X234792
X22733Y022774
X257264
X196812
X204866Y0381
X1651Y04367
Y01867
X154686Y013208
X151638Y06604
X1778Y063882
Y0762
X160274Y14478
X170942Y162814
X162814Y18415
X17272Y193548
X207366Y19878
X20633Y239875
Y264875
X18133
X15633
Y239875
X18133
X23133
Y264875
X25633
Y239875
X283464Y24257
X288036Y23114
X289052Y254
X283718Y265176
X306324Y27559
X307086Y205994
Y18415
X319278Y193294
X340106
X351028Y18415
Y205994
X329184
X319278Y172212
X329184Y162052
X340106Y172212
X351028Y162052
X376682Y156972
X391922Y182118
X403606Y175134
X418592Y185166
X433578Y175768
X451358Y186436
Y207518
X44775Y237335
X468163
X490982Y23622
X489966Y219456
X489458Y19665
Y172466
X497125Y15633
X472125
X447125
X422125
X423926Y2159
X426084Y237335
Y264875
X401084
X401494Y244894
X376084Y264875
X366776Y231394
X34925Y232156
X348742Y246634
X307086Y162052
X28213Y163576
X271272Y18542
X262636Y185166
X150114Y176022
X468163Y264875
X13133
X107696Y22733
X11097Y209296
X11157Y184314
X099314Y186436
X085852Y172212
X092964Y144018
X066166Y143977
X041166
X016166
X025Y2
Y225
Y275
X05
X08255Y24638
X11065Y153924
T05
X02528Y02667
X493014
Y25934
X099996Y2591
T06
X061539Y18573
Y24353
T07
X208788Y132588
X229108
X218948Y183388
T08
X193548Y151638
Y183388
X244348
Y151638
M30
